<?xml version="1.0" encoding="UTF-8" standalone="no"?>
<!-- Created with Inkscape (http://www.inkscape.org/) -->

<svg
   xmlns:osb="http://www.openswatchbook.org/uri/2009/osb"
   xmlns:dc="http://purl.org/dc/elements/1.1/"
   xmlns:cc="http://creativecommons.org/ns#"
   xmlns:rdf="http://www.w3.org/1999/02/22-rdf-syntax-ns#"
   xmlns:svg="http://www.w3.org/2000/svg"
   xmlns="http://www.w3.org/2000/svg"
   xmlns:xlink="http://www.w3.org/1999/xlink"
   xmlns:sodipodi="http://sodipodi.sourceforge.net/DTD/sodipodi-0.dtd"
   xmlns:inkscape="http://www.inkscape.org/namespaces/inkscape"
   width="500"
   height="180"
   id="svg3068"
   version="1.1"
   inkscape:version="0.91 r13725"
   sodipodi:docname="logo.svg"
   inkscape:export-filename="/Users/45kb/Projects/chatting/www/img/logo-and-text-x-blue.png"
   inkscape:export-xdpi="43.200001"
   inkscape:export-ydpi="43.200001">
  <defs
     id="defs3070">
    <linearGradient
       id="linearGradient4019"
       osb:paint="solid">
      <stop
         style="stop-color:#0000ff;stop-opacity:1;"
         offset="0"
         id="stop4021" />
    </linearGradient>
    <linearGradient
       inkscape:collect="always"
       xlink:href="#linearGradient4019"
       id="linearGradient4023"
       x1="3.8884027"
       y1="1185.9387"
       x2="83.045509"
       y2="1185.9387"
       gradientUnits="userSpaceOnUse" />
    <linearGradient
       gradientUnits="userSpaceOnUse"
       y2="1185.9387"
       x2="83.045509"
       y1="1185.9387"
       x1="3.8884027"
       id="linearGradient4543"
       xlink:href="#linearGradient4019"
       inkscape:collect="always" />
    <linearGradient
       gradientUnits="userSpaceOnUse"
       y2="1185.9387"
       x2="83.045509"
       y1="1185.9387"
       x1="3.8884027"
       id="linearGradient3467"
       xlink:href="#linearGradient4019"
       inkscape:collect="always" />
    <linearGradient
       inkscape:collect="always"
       xlink:href="#linearGradient4019"
       id="linearGradient3469"
       x1="3.8884027"
       y1="1185.9387"
       x2="83.045509"
       y2="1185.9387"
       gradientUnits="userSpaceOnUse" />
  </defs>
  <sodipodi:namedview
     id="base"
     pagecolor="#ffffff"
     bordercolor="#666666"
     borderopacity="1.0"
     inkscape:pageopacity="0.0"
     inkscape:pageshadow="2"
     inkscape:zoom="1"
     inkscape:cx="216.22025"
     inkscape:cy="200.72365"
     inkscape:document-units="px"
     inkscape:current-layer="layer1"
     showgrid="false"
     inkscape:window-width="1280"
     inkscape:window-height="755"
     inkscape:window-x="77"
     inkscape:window-y="0"
     inkscape:window-maximized="0"
     showguides="true"
     inkscape:guide-bbox="true">
    <sodipodi:guide
       position="198,292"
       orientation="1,0"
       id="guide3511" />
    <sodipodi:guide
       position="333.6875,136.625"
       orientation="1,0"
       id="guide3513" />
    <sodipodi:guide
       position="285,137"
       orientation="0,1"
       id="guide3372" />
  </sodipodi:namedview>
  <metadata
     id="metadata3073">
    <rdf:RDF>
      <cc:Work
         rdf:about="">
        <dc:format>image/svg+xml</dc:format>
        <dc:type
           rdf:resource="http://purl.org/dc/dcmitype/StillImage" />
        <dc:title />
      </cc:Work>
    </rdf:RDF>
  </metadata>
  <g
     inkscape:label="Layer 1"
     inkscape:groupmode="layer"
     id="layer1"
     transform="translate(0,-872.3622)">
    <text
       transform="matrix(1.1565213,0,0.06945359,0.86466199,0,0)"
       sodipodi:linespacing="0%"
       id="text3007"
       y="1210.3197"
       x="-60.12759"
       style="font-style:italic;font-variant:normal;font-weight:bold;font-stretch:normal;font-size:43.00551605px;line-height:0%;font-family:Verdana;-inkscape-font-specification:'Embrionic85 Bold';letter-spacing:0px;word-spacing:0px;fill:#000000;fill-opacity:1;stroke:none"
       xml:space="preserve"><tspan
         style="font-style:normal;font-variant:normal;font-weight:normal;font-stretch:normal;font-family:headthinker;-inkscape-font-specification:headthinker;letter-spacing:0px;fill:#000000;stroke:none"
         y="1210.3197"
         x="-60.12759"
         id="tspan3009"
         sodipodi:role="line" /></text>
    <text
       xml:space="preserve"
       style="font-style:normal;font-weight:normal;font-size:150.87692261px;line-height:125%;font-family:Sans;letter-spacing:0px;word-spacing:0px;fill:#000000;fill-opacity:1;stroke:none"
       x="213.84995"
       y="980.1142"
       id="text3015"
       sodipodi:linespacing="125%"
       transform="matrix(1,0,-0.16015223,1,0,0)"><tspan
         sodipodi:role="line"
         id="tspan3017"
         x="213.84995"
         y="980.1142"
         style="font-style:normal;font-variant:normal;font-weight:normal;font-stretch:normal;font-family:'Helvetica Neue';-inkscape-font-specification:'Helvetica Neue';letter-spacing:1.92368102px;fill:#000000"
         dx="0" /></text>
    <g
       id="g4365"
       inkscape:export-filename="/Users/a45kb/Projects/chatting/www/img/logo-and-text-square.png"
       inkscape:export-xdpi="61.160461"
       inkscape:export-ydpi="61.160461"
       transform="matrix(1.02565,0,0,1.02565,12.075442,-23.89241)">
      <path
         sodipodi:nodetypes="sssssssssccccssccscsccc"
         inkscape:export-ydpi="43.888855"
         inkscape:export-xdpi="43.888855"
         inkscape:export-filename="/Users/a45kb/Projects/slize/www/img/logo-and-text-x-blue.png"
         inkscape:connector-curvature="0"
         id="rect4156"
         d="m 20.437851,901.61432 c -12.9519808,0 -23.3790754,9.98649 -23.3790754,22.39071 l 0,63.05684 c 0,12.4044 10.4270946,22.38913 23.3790754,22.38913 l 61.080047,0 c 12.951983,0 23.379062,-9.98473 23.379062,-22.38913 l 0,-63.05684 c 0,-12.40422 -10.427079,-22.39071 -23.379062,-22.39071 z m 11.575879,22.15688 45.604531,0 -2.385198,11.19393 c -3.670456,3.05864 -7.188528,6.69936 -10.553096,10.92037 -3.303374,4.15985 -6.330825,8.59393 -9.083615,13.30439 -2.752853,4.71046 -5.169591,9.54387 -7.249495,14.49886 -2.079917,4.95499 -3.700625,9.72592 -4.862912,14.31393 l -13.856716,0 c 1.101131,-4.40442 2.721859,-9.0225 4.862953,-13.85524 2.141021,-4.83274 4.589147,-9.54365 7.341936,-14.13164 2.814001,-4.64915 5.872764,-9.05352 9.176113,-13.21316 3.303425,-4.15985 6.636212,-7.79924 10.000803,-10.91906 l -31.565463,0 z"
         style="opacity:1;fill:#006eff;fill-opacity:1;stroke:none;stroke-width:0.01;stroke-linecap:round;stroke-linejoin:round;stroke-miterlimit:4;stroke-dasharray:none;stroke-dashoffset:0;stroke-opacity:1" />
      <path
         inkscape:export-ydpi="43.888855"
         inkscape:export-xdpi="43.888855"
         inkscape:export-filename="/Users/a45kb/Projects/slize/www/img/logo-and-text-x-blue.png"
         inkscape:connector-curvature="0"
         id="path4172"
         d="m 167.41247,901.94274 a 4.9403648,4.9403648 0 0 0 -2.97456,1.10741 l -53.88211,43.90246 a 4.9403648,4.9403648 0 0 0 -1.81961,3.82968 l 0,7.16631 a 4.9403648,4.9403648 0 0 0 1.72319,3.7487 l 53.88206,46.2377 a 4.9403648,4.9403648 0 0 0 8.15599,-3.7491 l 0,-97.3062 a 4.9403648,4.9403648 0 0 0 -5.08496,-4.93696 z"
         style="color:#000000;font-style:normal;font-variant:normal;font-weight:normal;font-stretch:normal;font-size:medium;line-height:normal;font-family:sans-serif;text-indent:0;text-align:start;text-decoration:none;text-decoration-line:none;text-decoration-style:solid;text-decoration-color:#000000;letter-spacing:normal;word-spacing:normal;text-transform:none;direction:ltr;block-progression:tb;writing-mode:lr-tb;baseline-shift:baseline;text-anchor:start;white-space:normal;clip-rule:nonzero;display:inline;overflow:visible;visibility:visible;opacity:1;isolation:auto;mix-blend-mode:normal;color-interpolation:sRGB;color-interpolation-filters:linearRGB;solid-color:#000000;solid-opacity:1;fill:#006eff;fill-opacity:1;fill-rule:nonzero;stroke:none;stroke-width:0.14602429;stroke-linecap:round;stroke-linejoin:round;stroke-miterlimit:4;stroke-dasharray:none;stroke-dashoffset:0;stroke-opacity:1;color-rendering:auto;image-rendering:auto;shape-rendering:auto;text-rendering:auto;enable-background:accumulate" />
    </g>
    <ellipse
       style="fill:#000000;stroke:none;stroke-width:1.27261841;stroke-miterlimit:4;stroke-dasharray:none;stroke-opacity:1"
       id="path4150"
       cx="320.7258"
       cy="898.47583"
       inkscape:export-filename="/Users/a45kb/Projects/slize/www/img/logo.png"
       inkscape:export-xdpi="73.970451"
       inkscape:export-ydpi="73.970451"
       r="14.136601" />
    <text
       transform="matrix(1.1565213,0,0.06945359,0.86466199,0,0)"
       sodipodi:linespacing="0%"
       id="text3007-8"
       y="1017.7208"
       x="114.74318"
       style="font-style:italic;font-variant:normal;font-weight:bold;font-stretch:normal;font-size:43.00551605px;line-height:0%;font-family:Verdana;-inkscape-font-specification:'Embrionic85 Bold';letter-spacing:0px;word-spacing:0px;fill:#000000;fill-opacity:1;stroke:none"
       xml:space="preserve"><tspan
         style="font-style:normal;font-variant:normal;font-weight:normal;font-stretch:normal;font-family:headthinker;-inkscape-font-specification:headthinker;letter-spacing:0px;fill:#000000;stroke:none"
         y="1017.7208"
         x="114.74318"
         id="tspan3009-5"
         sodipodi:role="line" /></text>
    <text
       xml:space="preserve"
       style="font-style:normal;font-weight:normal;font-size:150.87692261px;line-height:125%;font-family:Sans;letter-spacing:0px;word-spacing:0px;fill:#000000;fill-opacity:1;stroke:none"
       x="376.0444"
       y="813.5813"
       id="text3015-7"
       sodipodi:linespacing="125%"
       transform="matrix(1,0,-0.16015223,1,0,0)"><tspan
         sodipodi:role="line"
         id="tspan3017-9"
         x="376.0444"
         y="813.5813"
         style="font-style:normal;font-variant:normal;font-weight:normal;font-stretch:normal;font-family:'Helvetica Neue';-inkscape-font-specification:'Helvetica Neue';letter-spacing:1.92368102px;fill:#000000"
         dx="0" /></text>
    <path
       inkscape:connector-curvature="0"
       id="path4282"
       style="font-style:normal;font-weight:normal;font-size:medium;line-height:125%;font-family:sans-serif;letter-spacing:-1px;word-spacing:0px;fill:#000000;fill-opacity:1;stroke:#000000;stroke-width:1.29999995;stroke-linecap:butt;stroke-linejoin:miter;stroke-miterlimit:4;stroke-dasharray:none;stroke-opacity:1"
       d="m 236.40021,996.52223 q -7.2149,0 -15.33166,-2.8559 -7.96645,-3.0062 -13.82855,-7.66583 l 11.42359,-15.9329 q 10.2211,7.51552 18.33786,7.51552 7.51552,0 7.51552,-4.50931 0,-1.05217 -0.75155,-1.95404 -0.60124,-1.05217 -2.40496,-1.95403 -1.65342,-1.05217 -2.8559,-1.50311 -1.05218,-0.60124 -4.20869,-1.65341 -3.00621,-1.20248 -4.20869,-1.65341 -18.93911,-7.51552 -18.93911,-22.24594 0,-10.97266 8.11676,-17.58632 8.26707,-6.76397 21.64469,-6.76397 14.4298,0 27.65712,9.92049 l -11.42359,15.33166 q -8.71801,-6.31304 -15.33166,-6.31304 -6.61366,0 -6.61366,4.20869 0,0.75156 0.30062,1.50311 0.45093,0.75155 1.20248,1.35279 0.90187,0.60124 1.65342,1.20249 0.75155,0.45093 2.25465,1.05217 1.50311,0.45093 2.55528,0.90186 1.05217,0.30062 3.00621,1.05217 1.95403,0.60124 3.15652,1.05218 19.23973,7.06458 19.23973,22.54656 0,10.97265 -8.41739,18.03724 -8.41738,6.91428 -23.74904,6.91428 z" />
    <path
       inkscape:connector-curvature="0"
       id="path4284"
       style="font-style:normal;font-weight:normal;font-size:medium;line-height:125%;font-family:sans-serif;letter-spacing:-0.39999998px;word-spacing:0px;fill:#000000;fill-opacity:1;stroke:#000000;stroke-width:1.29999995;stroke-linecap:butt;stroke-linejoin:miter;stroke-miterlimit:4;stroke-dasharray:none;stroke-opacity:1"
       d="m 301.8562,996.52223 q -23.29812,0 -23.14781,-28.25835 l 0.15032,-55.01361 25.70307,-6.91428 0,62.82975 q 0,3.45714 1.20249,5.11055 1.35279,1.50311 3.0062,1.50311 1.50311,0 2.70559,-0.30062 l 3.00621,18.93911 q -4.65962,2.10434 -12.62607,2.10434 z" />
    <path
       inkscape:connector-curvature="0"
       id="path4286"
       style="font-style:normal;font-weight:normal;font-size:medium;line-height:125%;font-family:sans-serif;letter-spacing:-3.98000002px;word-spacing:0px;fill:#000000;fill-opacity:1;stroke:#000000;stroke-width:1.29999995;stroke-linecap:butt;stroke-linejoin:miter;stroke-miterlimit:4;stroke-dasharray:none;stroke-opacity:1"
       d="m 327.29079,908.29003 q -3.90807,-4.05838 -3.90807,-9.61987 0,-5.56148 3.90807,-9.46955 3.90807,-4.05838 9.61987,-4.05838 5.71179,0 9.61986,4.05838 3.90807,3.90807 3.90807,9.46955 0,5.56149 -3.90807,9.61987 -3.90807,3.90807 -9.61986,3.90807 -5.7118,0 -9.61987,-3.90807 z m -2.70558,86.42848 0,-75.1552 25.85338,0 0,75.1552 -25.85338,0 z" />
    <path
       inkscape:connector-curvature="0"
       id="path4288"
       style="font-style:normal;font-weight:normal;font-size:medium;line-height:125%;font-family:sans-serif;letter-spacing:-2px;word-spacing:0px;fill:#000000;fill-opacity:1;stroke:#000000;stroke-width:1.29999995;stroke-linecap:butt;stroke-linejoin:miter;stroke-miterlimit:4;stroke-dasharray:none;stroke-opacity:1"
       d="m 361.34872,994.71851 0,-13.82856 28.55897,-41.18505 -25.25214,0 0,-20.14159 57.41857,0 0,13.82855 -28.55898,41.18505 29.46084,0 0,20.1416 -61.62726,0 z" />
    <path
       inkscape:connector-curvature="0"
       id="path4290"
       style="font-style:normal;font-weight:normal;font-size:medium;line-height:125%;font-family:sans-serif;letter-spacing:-2px;word-spacing:0px;fill:#000000;fill-opacity:1;stroke:#000000;stroke-width:1.29999995;stroke-linecap:butt;stroke-linejoin:miter;stroke-miterlimit:4;stroke-dasharray:none;stroke-opacity:1"
       d="m 467.97147,996.52223 q -16.98508,0 -27.95773,-10.52173 -10.82235,-10.67204 -10.82235,-28.85959 0,-17.58632 10.82235,-28.40867 10.82234,-10.97266 25.25214,-10.97266 15.9329,0 24.35029,10.22111 8.41738,10.22111 8.41738,26.15401 0,6.61366 -1.05218,10.82235 l -42.83846,0 q 3.15652,12.02483 17.43601,12.02483 7.2149,0 15.33166,-4.50931 l 8.41738,15.33166 q -12.32545,8.718 -27.35649,8.718 z m -14.12918,-48.39995 22.24594,0 q 0,-10.82234 -10.22111,-10.82234 -4.50931,0 -7.81614,2.70558 -3.15652,2.70559 -4.20869,8.11676 z" />
  </g>
</svg>
