<?xml version="1.0" encoding="UTF-8" standalone="no"?>
<!-- Created with Inkscape (http://www.inkscape.org/) -->

<svg
   xmlns:osb="http://www.openswatchbook.org/uri/2009/osb"
   xmlns:dc="http://purl.org/dc/elements/1.1/"
   xmlns:cc="http://creativecommons.org/ns#"
   xmlns:rdf="http://www.w3.org/1999/02/22-rdf-syntax-ns#"
   xmlns:svg="http://www.w3.org/2000/svg"
   xmlns="http://www.w3.org/2000/svg"
   xmlns:xlink="http://www.w3.org/1999/xlink"
   xmlns:sodipodi="http://sodipodi.sourceforge.net/DTD/sodipodi-0.dtd"
   xmlns:inkscape="http://www.inkscape.org/namespaces/inkscape"
   width="500"
   height="180"
   id="svg3068"
   version="1.1"
   inkscape:version="0.91 r13725"
   sodipodi:docname="logo.svg"
   inkscape:export-filename="/Users/45kb/Projects/chatting/www/img/logo-and-text-x-blue.png"
   inkscape:export-xdpi="43.200001"
   inkscape:export-ydpi="43.200001">
  <defs
     id="defs3070">
    <linearGradient
       id="linearGradient4019"
       osb:paint="solid">
      <stop
         style="stop-color:#0000ff;stop-opacity:1;"
         offset="0"
         id="stop4021" />
    </linearGradient>
    <linearGradient
       inkscape:collect="always"
       xlink:href="#linearGradient4019"
       id="linearGradient4023"
       x1="3.8884027"
       y1="1185.9387"
       x2="83.045509"
       y2="1185.9387"
       gradientUnits="userSpaceOnUse" />
    <linearGradient
       gradientUnits="userSpaceOnUse"
       y2="1185.9387"
       x2="83.045509"
       y1="1185.9387"
       x1="3.8884027"
       id="linearGradient4543"
       xlink:href="#linearGradient4019"
       inkscape:collect="always" />
    <linearGradient
       gradientUnits="userSpaceOnUse"
       y2="1185.9387"
       x2="83.045509"
       y1="1185.9387"
       x1="3.8884027"
       id="linearGradient3467"
       xlink:href="#linearGradient4019"
       inkscape:collect="always" />
    <linearGradient
       inkscape:collect="always"
       xlink:href="#linearGradient4019"
       id="linearGradient3469"
       x1="3.8884027"
       y1="1185.9387"
       x2="83.045509"
       y2="1185.9387"
       gradientUnits="userSpaceOnUse" />
  </defs>
  <sodipodi:namedview
     id="base"
     pagecolor="#ffffff"
     bordercolor="#666666"
     borderopacity="1.0"
     inkscape:pageopacity="0.0"
     inkscape:pageshadow="2"
     inkscape:zoom="2"
     inkscape:cx="-69.696181"
     inkscape:cy="80.723653"
     inkscape:document-units="px"
     inkscape:current-layer="layer1"
     showgrid="false"
     inkscape:window-width="1280"
     inkscape:window-height="755"
     inkscape:window-x="77"
     inkscape:window-y="0"
     inkscape:window-maximized="0"
     showguides="true"
     inkscape:guide-bbox="true">
    <sodipodi:guide
       position="308.5625,136.5"
       orientation="1,0"
       id="guide3511" />
    <sodipodi:guide
       position="333.6875,136.625"
       orientation="1,0"
       id="guide3513" />
  </sodipodi:namedview>
  <metadata
     id="metadata3073">
    <rdf:RDF>
      <cc:Work
         rdf:about="">
        <dc:format>image/svg+xml</dc:format>
        <dc:type
           rdf:resource="http://purl.org/dc/dcmitype/StillImage" />
        <dc:title />
      </cc:Work>
    </rdf:RDF>
  </metadata>
  <g
     inkscape:label="Layer 1"
     inkscape:groupmode="layer"
     id="layer1"
     transform="translate(0,-872.3622)">
    <text
       transform="matrix(1.1565213,0,0.06945359,0.86466199,0,0)"
       sodipodi:linespacing="0%"
       id="text3007"
       y="1210.3197"
       x="-60.12759"
       style="font-style:italic;font-variant:normal;font-weight:bold;font-stretch:normal;font-size:43.00551605px;line-height:0%;font-family:Verdana;-inkscape-font-specification:'Embrionic85 Bold';letter-spacing:0px;word-spacing:0px;fill:#000000;fill-opacity:1;stroke:none"
       xml:space="preserve"><tspan
         style="font-style:normal;font-variant:normal;font-weight:normal;font-stretch:normal;font-family:headthinker;-inkscape-font-specification:headthinker;letter-spacing:0px;fill:#000000;stroke:none"
         y="1210.3197"
         x="-60.12759"
         id="tspan3009"
         sodipodi:role="line" /></text>
    <text
       xml:space="preserve"
       style="font-style:normal;font-weight:normal;font-size:150.87692261px;line-height:125%;font-family:Sans;letter-spacing:0px;word-spacing:0px;fill:#000000;fill-opacity:1;stroke:none"
       x="213.84995"
       y="980.1142"
       id="text3015"
       sodipodi:linespacing="125%"
       transform="matrix(1,0,-0.16015223,1,0,0)"><tspan
         sodipodi:role="line"
         id="tspan3017"
         x="213.84995"
         y="980.1142"
         style="font-style:normal;font-variant:normal;font-weight:normal;font-stretch:normal;font-family:'Helvetica Neue';-inkscape-font-specification:'Helvetica Neue';letter-spacing:1.92368102px;fill:#000000"
         dx="0" /></text>
    <g
       id="g4365"
       inkscape:export-filename="/Users/a45kb/Projects/slize/www/img/logo-and-text-x-blue.png"
       inkscape:export-xdpi="29.560162"
       inkscape:export-ydpi="29.560162"
       transform="matrix(1.02565,0,0,1.02565,0.07544238,-23.89241)">
      <path
         sodipodi:nodetypes="sssssssssccccssccscsccc"
         inkscape:export-ydpi="43.888855"
         inkscape:export-xdpi="43.888855"
         inkscape:export-filename="/Users/a45kb/Projects/slize/www/img/logo-and-text-x-blue.png"
         inkscape:connector-curvature="0"
         id="rect4156"
         d="m 20.437851,901.61432 c -12.9519808,0 -23.3790754,9.98649 -23.3790754,22.39071 l 0,63.05684 c 0,12.4044 10.4270946,22.38913 23.3790754,22.38913 l 61.080047,0 c 12.951983,0 23.379062,-9.98473 23.379062,-22.38913 l 0,-63.05684 c 0,-12.40422 -10.427079,-22.39071 -23.379062,-22.39071 z m 11.575879,22.15688 45.604531,0 -2.385198,11.19393 c -3.670456,3.05864 -7.188528,6.69936 -10.553096,10.92037 -3.303374,4.15985 -6.330825,8.59393 -9.083615,13.30439 -2.752853,4.71046 -5.169591,9.54387 -7.249495,14.49886 -2.079917,4.95499 -3.700625,9.72592 -4.862912,14.31393 l -13.856716,0 c 1.101131,-4.40442 2.721859,-9.0225 4.862953,-13.85524 2.141021,-4.83274 4.589147,-9.54365 7.341936,-14.13164 2.814001,-4.64915 5.872764,-9.05352 9.176113,-13.21316 3.303425,-4.15985 6.636212,-7.79924 10.000803,-10.91906 l -31.565463,0 z"
         style="opacity:1;fill:#006eff;fill-opacity:1;stroke:none;stroke-width:0.01;stroke-linecap:round;stroke-linejoin:round;stroke-miterlimit:4;stroke-dasharray:none;stroke-dashoffset:0;stroke-opacity:1" />
      <path
         inkscape:export-ydpi="43.888855"
         inkscape:export-xdpi="43.888855"
         inkscape:export-filename="/Users/a45kb/Projects/slize/www/img/logo-and-text-x-blue.png"
         inkscape:connector-curvature="0"
         id="path4172"
         d="m 167.41247,901.94274 a 4.9403648,4.9403648 0 0 0 -2.97456,1.10741 l -53.88211,43.90246 a 4.9403648,4.9403648 0 0 0 -1.81961,3.82968 l 0,7.16631 a 4.9403648,4.9403648 0 0 0 1.72319,3.7487 l 53.88206,46.2377 a 4.9403648,4.9403648 0 0 0 8.15599,-3.7491 l 0,-97.3062 a 4.9403648,4.9403648 0 0 0 -5.08496,-4.93696 z"
         style="color:#000000;font-style:normal;font-variant:normal;font-weight:normal;font-stretch:normal;font-size:medium;line-height:normal;font-family:sans-serif;text-indent:0;text-align:start;text-decoration:none;text-decoration-line:none;text-decoration-style:solid;text-decoration-color:#000000;letter-spacing:normal;word-spacing:normal;text-transform:none;direction:ltr;block-progression:tb;writing-mode:lr-tb;baseline-shift:baseline;text-anchor:start;white-space:normal;clip-rule:nonzero;display:inline;overflow:visible;visibility:visible;opacity:1;isolation:auto;mix-blend-mode:normal;color-interpolation:sRGB;color-interpolation-filters:linearRGB;solid-color:#000000;solid-opacity:1;fill:#006eff;fill-opacity:1;fill-rule:nonzero;stroke:none;stroke-width:0.14602429;stroke-linecap:round;stroke-linejoin:round;stroke-miterlimit:4;stroke-dasharray:none;stroke-dashoffset:0;stroke-opacity:1;color-rendering:auto;image-rendering:auto;shape-rendering:auto;text-rendering:auto;enable-background:accumulate" />
    </g>
    <path
       inkscape:connector-curvature="0"
       id="path4129"
       style="font-style:normal;font-weight:normal;font-size:136.62214661px;line-height:125%;font-family:sans-serif;letter-spacing:-2.13999987px;word-spacing:0px;fill:#000000;fill-opacity:1;stroke:none;stroke-width:1.27261841;stroke-linecap:butt;stroke-linejoin:miter;stroke-miterlimit:4;stroke-dasharray:none;stroke-opacity:1"
       d="m 194.19243,987.47842 c 7.88384,6.47215 19.70959,10.78688 29.41282,10.78688 21.22573,0 32.44504,-11.09509 32.44504,-25.58034 0,-13.86887 -10.30964,-19.72461 -19.40637,-23.11481 -7.58064,-2.77378 -14.25159,-4.31475 -14.25159,-8.32132 0,-3.08196 2.27418,-4.31478 6.67095,-4.31478 4.69999,0 10.00645,2.46561 15.46448,6.47217 l 11.52253,-15.71807 c -6.67094,-5.08525 -15.46445,-10.1705 -27.89666,-10.1705 -17.89029,0 -30.01927,9.86229 -30.01927,24.96395 0,12.63612 10.30963,19.26235 19.10317,22.80662 7.5806,3.08198 14.55479,4.93117 14.55479,8.93773 0,3.08197 -2.1226,4.62294 -7.58062,4.62294 -5.30646,0 -11.52256,-2.46555 -18.49672,-7.7049 l -11.52255,16.33443 z"
       inkscape:export-filename="/Users/a45kb/Projects/slize/www/img/logo-and-text-x-blue.png"
       inkscape:export-xdpi="29.560162"
       inkscape:export-ydpi="29.560162" />
    <path
       sodipodi:nodetypes="sscccccs"
       inkscape:connector-curvature="0"
       id="path4131"
       style="font-style:normal;font-weight:normal;font-size:medium;line-height:125%;font-family:sans-serif;letter-spacing:-0.21999995px;word-spacing:0px;fill:#000000;fill-opacity:1;stroke:none;stroke-width:1.27261841;stroke-linecap:butt;stroke-linejoin:miter;stroke-miterlimit:4;stroke-dasharray:none;stroke-opacity:1"
       d="m 265.18803,971.0096 c 0,16.4032 4.6512,27.28146 20.77692,27.28146 5.28254,0 11.13388,-0.17993 13.63616,-0.9051 l -4.48143,-19.74683 c -5.99664,0.78853 -5.95164,-1.60903 -6.02114,-5.75069 l 0,-74.76336 -23.91051,3.36838 z"
       inkscape:export-filename="/Users/a45kb/Projects/slize/www/img/logo-and-text-x-blue.png"
       inkscape:export-xdpi="29.560162"
       inkscape:export-ydpi="29.560162" />
    <path
       style="font-style:normal;font-weight:normal;font-size:medium;line-height:125%;font-family:sans-serif;letter-spacing:-2.13999987px;word-spacing:0px;fill:#000000;fill-opacity:1;stroke:none;stroke-width:1.27261841;stroke-linecap:butt;stroke-linejoin:miter;stroke-miterlimit:4;stroke-dasharray:none;stroke-opacity:1"
       d="m 308.62222,998.2658 25.09924,0 0,-77.52832 -25.09924,0 0,77.52832 z"
       id="path4133"
       inkscape:export-filename="/Users/a45kb/Projects/slize/www/img/logo-and-text-x-blue.png"
       inkscape:export-xdpi="29.560162"
       inkscape:export-ydpi="29.560162"
       inkscape:connector-curvature="0" />
    <path
       inkscape:connector-curvature="0"
       id="path4135"
       style="font-style:normal;font-weight:normal;font-size:medium;line-height:125%;font-family:sans-serif;letter-spacing:-5.46999884px;word-spacing:0px;fill:#000000;fill-opacity:1;stroke:none;stroke-width:1.27261841;stroke-linecap:butt;stroke-linejoin:miter;stroke-miterlimit:4;stroke-dasharray:none;stroke-opacity:1"
       d="m 345.64125,998.2352 60.71307,0 0,-20.76475 -29.81469,0 27.43313,-42.4593 0,-14.25643 -56.92279,0 0,20.7648 26.02441,0 -27.43313,42.45929 z"
       inkscape:export-filename="/Users/a45kb/Projects/slize/www/img/logo-and-text-x-blue.png"
       inkscape:export-xdpi="29.560162"
       inkscape:export-ydpi="29.560162"
       sodipodi:nodetypes="ccccccccccc" />
    <g
       transform="matrix(1.146376,0,0,1.232215,-90.064055,-156.83966)"
       style="font-style:normal;font-weight:normal;font-size:117.05052948px;line-height:125%;font-family:sans-serif;letter-spacing:0px;word-spacing:0px;fill:#000000;fill-opacity:1;stroke:none;stroke-width:1.15748119;stroke-linecap:butt;stroke-linejoin:miter;stroke-miterlimit:4;stroke-dasharray:none;stroke-opacity:1"
       id="text3387"
       inkscape:export-filename="/Users/a45kb/Projects/slize/www/img/logo-and-text-x-blue.png"
       inkscape:export-xdpi="29.560162"
       inkscape:export-ydpi="29.560162">
      <path
         d="m 500.82324,909.60288 c 0.11621,-0.69729 0.11621,-2.83509 0.11621,-3.6486 0,-20.91875 -13.82963,-31.61056 -31.95922,-31.61056 -18.01337,0 -32.77272,14.17826 -32.77272,31.61056 0,17.31609 14.75935,31.49435 32.77272,31.49435 13.24855,0 24.17279,-4.29996 30.91328,-15.57285 L 485.01794,914.438 c -4.99725,5.3459 -7.90263,6.62427 -14.52691,6.62427 -5.22969,0 -12.8999,-1.84866 -12.8999,-11.02968 z m -40.6914,-10.7537 c 0.34865,-5.46211 3.64909,-9.81489 10.73589,-9.64586 6.3698,0.15192 9.03674,3.37023 9.96647,9.64586 z"
         style="font-style:normal;font-variant:normal;font-weight:bold;font-stretch:normal;font-family:'League Spartan';-inkscape-font-specification:'League Spartan Bold';fill:#000000;stroke:none;stroke-width:1.15748119;stroke-miterlimit:4;stroke-dasharray:none;stroke-opacity:1"
         id="path4142"
         inkscape:connector-curvature="0"
         sodipodi:nodetypes="cssssccscccscc" />
    </g>
    <ellipse
       style="fill:#000000;stroke:none;stroke-width:1.27261841;stroke-miterlimit:4;stroke-dasharray:none;stroke-opacity:1"
       id="path4150"
       cx="320.7258"
       cy="898.47583"
       inkscape:export-filename="/Users/a45kb/Projects/slize/www/img/logo.png"
       inkscape:export-xdpi="73.970451"
       inkscape:export-ydpi="73.970451"
       r="14.136601" />
    <text
       transform="matrix(1.1565213,0,0.06945359,0.86466199,0,0)"
       sodipodi:linespacing="0%"
       id="text3007-8"
       y="1017.7208"
       x="114.74318"
       style="font-style:italic;font-variant:normal;font-weight:bold;font-stretch:normal;font-size:43.00551605px;line-height:0%;font-family:Verdana;-inkscape-font-specification:'Embrionic85 Bold';letter-spacing:0px;word-spacing:0px;fill:#000000;fill-opacity:1;stroke:none"
       xml:space="preserve"><tspan
         style="font-style:normal;font-variant:normal;font-weight:normal;font-stretch:normal;font-family:headthinker;-inkscape-font-specification:headthinker;letter-spacing:0px;fill:#000000;stroke:none"
         y="1017.7208"
         x="114.74318"
         id="tspan3009-5"
         sodipodi:role="line" /></text>
    <text
       xml:space="preserve"
       style="font-style:normal;font-weight:normal;font-size:150.87692261px;line-height:125%;font-family:Sans;letter-spacing:0px;word-spacing:0px;fill:#000000;fill-opacity:1;stroke:none"
       x="376.0444"
       y="813.5813"
       id="text3015-7"
       sodipodi:linespacing="125%"
       transform="matrix(1,0,-0.16015223,1,0,0)"><tspan
         sodipodi:role="line"
         id="tspan3017-9"
         x="376.0444"
         y="813.5813"
         style="font-style:normal;font-variant:normal;font-weight:normal;font-stretch:normal;font-family:'Helvetica Neue';-inkscape-font-specification:'Helvetica Neue';letter-spacing:1.92368102px;fill:#000000"
         dx="0" /></text>
    <circle
       r="14.136601"
       inkscape:export-ydpi="29.560162"
       inkscape:export-xdpi="29.560162"
       inkscape:export-filename="/Users/a45kb/Projects/slize/www/img/logo-and-text-x-blue.png"
       cy="898.1308"
       cx="321.25165"
       id="circle3509"
       style="fill:#000000;stroke:none;stroke-width:1.27261841;stroke-miterlimit:4;stroke-dasharray:none;stroke-opacity:1" />
  </g>
</svg>
