<?xml version="1.0" encoding="UTF-8" standalone="no"?>
<!-- Created with Inkscape (http://www.inkscape.org/) -->

<svg
   xmlns:osb="http://www.openswatchbook.org/uri/2009/osb"
   xmlns:dc="http://purl.org/dc/elements/1.1/"
   xmlns:cc="http://creativecommons.org/ns#"
   xmlns:rdf="http://www.w3.org/1999/02/22-rdf-syntax-ns#"
   xmlns:svg="http://www.w3.org/2000/svg"
   xmlns="http://www.w3.org/2000/svg"
   xmlns:xlink="http://www.w3.org/1999/xlink"
   xmlns:sodipodi="http://sodipodi.sourceforge.net/DTD/sodipodi-0.dtd"
   xmlns:inkscape="http://www.inkscape.org/namespaces/inkscape"
   width="500"
   height="180"
   id="svg3068"
   version="1.1"
   inkscape:version="0.91 r13725"
   sodipodi:docname="logo.svg"
   inkscape:export-filename="/Users/45kb/Projects/chatting/www/img/logo-and-text-x-blue.png"
   inkscape:export-xdpi="43.200001"
   inkscape:export-ydpi="43.200001">
  <defs
     id="defs3070">
    <linearGradient
       id="linearGradient4019"
       osb:paint="solid">
      <stop
         style="stop-color:#0000ff;stop-opacity:1;"
         offset="0"
         id="stop4021" />
    </linearGradient>
    <linearGradient
       inkscape:collect="always"
       xlink:href="#linearGradient4019"
       id="linearGradient4023"
       x1="3.8884027"
       y1="1185.9387"
       x2="83.045509"
       y2="1185.9387"
       gradientUnits="userSpaceOnUse" />
    <linearGradient
       gradientUnits="userSpaceOnUse"
       y2="1185.9387"
       x2="83.045509"
       y1="1185.9387"
       x1="3.8884027"
       id="linearGradient4543"
       xlink:href="#linearGradient4019"
       inkscape:collect="always" />
  </defs>
  <sodipodi:namedview
     id="base"
     pagecolor="#ffffff"
     bordercolor="#666666"
     borderopacity="1.0"
     inkscape:pageopacity="0.0"
     inkscape:pageshadow="2"
     inkscape:zoom="0.7"
     inkscape:cx="311.99953"
     inkscape:cy="-37.927549"
     inkscape:document-units="px"
     inkscape:current-layer="layer1"
     showgrid="false"
     inkscape:window-width="1280"
     inkscape:window-height="755"
     inkscape:window-x="40"
     inkscape:window-y="0"
     inkscape:window-maximized="0"
     showguides="true"
     inkscape:guide-bbox="true">
    <sodipodi:guide
       position="407.5,329.64286"
       orientation="0,1"
       id="guide4155" />
    <sodipodi:guide
       position="388.21429,170.71429"
       orientation="0,1"
       id="guide4312" />
    <sodipodi:guide
       position="104.04571,250.51783"
       orientation="0,1"
       id="guide4457" />
    <sodipodi:guide
       position="297.14286,329.64286"
       orientation="1,0"
       id="guide4175" />
    <sodipodi:guide
       position="369.71583,-62.629458"
       orientation="0,1"
       id="guide4293" />
    <sodipodi:guide
       position="336.3808,41.416254"
       orientation="1,0"
       id="guide4295" />
  </sodipodi:namedview>
  <metadata
     id="metadata3073">
    <rdf:RDF>
      <cc:Work
         rdf:about="">
        <dc:format>image/svg+xml</dc:format>
        <dc:type
           rdf:resource="http://purl.org/dc/dcmitype/StillImage" />
        <dc:title />
      </cc:Work>
    </rdf:RDF>
  </metadata>
  <g
     inkscape:label="Layer 1"
     inkscape:groupmode="layer"
     id="layer1"
     transform="translate(0,-872.3622)">
    <text
       transform="matrix(1.1565213,0,0.06945359,0.86466199,0,0)"
       sodipodi:linespacing="0%"
       id="text3007"
       y="1210.3197"
       x="-60.12759"
       style="font-style:italic;font-variant:normal;font-weight:bold;font-stretch:normal;font-size:43.00551605px;line-height:0%;font-family:Verdana;-inkscape-font-specification:'Embrionic85 Bold';letter-spacing:0px;word-spacing:0px;fill:#000000;fill-opacity:1;stroke:none"
       xml:space="preserve"><tspan
         style="font-style:normal;font-variant:normal;font-weight:normal;font-stretch:normal;font-family:headthinker;-inkscape-font-specification:headthinker;letter-spacing:0px;fill:#000000;stroke:none"
         y="1210.3197"
         x="-60.12759"
         id="tspan3009"
         sodipodi:role="line" /></text>
    <text
       xml:space="preserve"
       style="font-style:normal;font-weight:normal;font-size:150.87692261px;line-height:125%;font-family:Sans;letter-spacing:0px;word-spacing:0px;fill:#000000;fill-opacity:1;stroke:none"
       x="213.84995"
       y="980.1142"
       id="text3015"
       sodipodi:linespacing="125%"
       transform="matrix(1,0,-0.16015223,1,0,0)"><tspan
         sodipodi:role="line"
         id="tspan3017"
         x="213.84995"
         y="980.1142"
         style="font-style:normal;font-variant:normal;font-weight:normal;font-stretch:normal;font-family:'Helvetica Neue';-inkscape-font-specification:'Helvetica Neue';letter-spacing:1.92368102px;fill:#000000"
         dx="0" /></text>
    <path
       style="opacity:1;fill:#006eff;fill-opacity:1;stroke:none;stroke-width:1;stroke-linecap:round;stroke-linejoin:round;stroke-miterlimit:4;stroke-dasharray:none;stroke-dashoffset:0;stroke-opacity:0.22058824"
       d="m 48.593424,910.41627 c -12.478174,0 -22.523835,9.62117 -22.523835,21.57163 l 0,60.75014 c 0,11.95056 10.045661,21.57006 22.523835,21.57006 l 58.845676,0 c 12.47818,0 22.52383,-9.6195 22.52383,-21.57006 l 0,-60.75014 c 0,-11.95046 -10.04565,-21.57163 -22.52383,-21.57163 z m 11.152427,21.34635 43.936259,0 -2.29794,10.78444 c -3.53619,2.94676 -6.925569,6.45429 -10.167055,10.5209 -3.182535,4.00768 -6.099234,8.27954 -8.751326,12.8177 -2.652154,4.53815 -4.980479,9.19473 -6.984301,13.96847 -2.003832,4.77373 -3.565252,9.37013 -4.685015,13.7903 l -13.349823,0 c 1.060845,-4.24329 2.622286,-8.69244 4.685058,-13.3484 2.062698,-4.65594 4.421269,-9.19452 7.07336,-13.61468 2.711063,-4.47908 5.657935,-8.72233 8.840439,-12.7298 3.182577,-4.00768 6.393448,-7.51394 9.634965,-10.51963 l -30.410766,0 z"
       id="rect4156"
       inkscape:connector-curvature="0"
       inkscape:export-filename="/Users/45kb/Projects/chatting/www/img/logo-and-text-x-blue.png"
       inkscape:export-xdpi="47.645714"
       inkscape:export-ydpi="47.645714"
       sodipodi:nodetypes="sssssssssccccssccscsccc" />
    <path
       style="color:#000000;font-style:normal;font-variant:normal;font-weight:normal;font-stretch:normal;font-size:medium;line-height:normal;font-family:sans-serif;text-indent:0;text-align:start;text-decoration:none;text-decoration-line:none;text-decoration-style:solid;text-decoration-color:#000000;letter-spacing:normal;word-spacing:normal;text-transform:none;direction:ltr;block-progression:tb;writing-mode:lr-tb;baseline-shift:baseline;text-anchor:start;white-space:normal;clip-rule:nonzero;display:inline;overflow:visible;visibility:visible;opacity:1;isolation:auto;mix-blend-mode:normal;color-interpolation:sRGB;color-interpolation-filters:linearRGB;solid-color:#000000;solid-opacity:1;fill:#006eff;fill-opacity:1;fill-rule:nonzero;stroke:none;stroke-width:14.60242939;stroke-linecap:round;stroke-linejoin:round;stroke-miterlimit:4;stroke-dasharray:none;stroke-dashoffset:0;stroke-opacity:1;color-rendering:auto;image-rendering:auto;shape-rendering:auto;text-rendering:auto;enable-background:accumulate"
       d="m 190.19154,910.73268 a 4.7596402,4.7596402 0 0 0 -2.86575,1.0669 l -51.91103,42.29645 a 4.7596402,4.7596402 0 0 0 -1.75305,3.68959 l 0,6.90416 a 4.7596402,4.7596402 0 0 0 1.66016,3.61157 l 51.91099,44.54615 a 4.7596402,4.7596402 0 0 0 7.85762,-3.6119 l 0,-93.74658 a 4.7596402,4.7596402 0 0 0 -4.89894,-4.75634 z"
       id="path4172"
       inkscape:connector-curvature="0"
       inkscape:export-filename="/Users/45kb/Projects/chatting/www/img/logo-and-text-x-blue.png"
       inkscape:export-xdpi="47.645714"
       inkscape:export-ydpi="47.645714" />
    <g
       id="g4297"
       transform="matrix(1.0923385,0,0,1.0923385,-33.806497,-276.44939)"
       style="fill:#000000"
       inkscape:export-filename="/Users/45kb/Projects/chatting/www/img/logo-and-text-x-blue.png"
       inkscape:export-xdpi="47.645714"
       inkscape:export-ydpi="47.645714">
      <path
         d="m 274.67861,1093.292 c -12.61045,0 -25.50534,9.5768 -25.50534,24.6262 0,8.4042 5.49929,15.9288 14.88601,20.7173 9.29191,4.7884 17.63567,7.4269 17.63567,13.2903 0,7.5247 -7.3956,7.9155 -11.28304,7.9155 -8.72301,0 -19.1527,-9.0882 -19.1527,-9.0882 l -8.91265,15.4402 c 0,0 11.0934,10.6518 29.39277,10.6518 15.26528,0 29.48759,-6.7428 29.48759,-25.9943 0,-10.5541 -9.57636,-18.1765 -18.29937,-21.9876 -8.91265,-3.909 -16.30825,-7.1338 -16.30825,-11.6291 0,-4.3975 3.22372,-7.2315 9.29191,-7.2315 8.05931,0 15.83417,5.5702 15.83417,5.5702 l 7.20597,-14.6584 c 0,0 -10.05043,-7.6224 -24.27274,-7.6224 z"
         style="font-style:normal;font-variant:normal;font-weight:bold;font-stretch:normal;font-size:medium;line-height:125%;font-family:'League Spartan';-inkscape-font-specification:'League Spartan Bold';letter-spacing:-0.00415549px;word-spacing:0px;fill:#000000;fill-opacity:1;stroke:none;stroke-width:1px;stroke-linecap:butt;stroke-linejoin:miter;stroke-opacity:1"
         id="path4254"
         inkscape:connector-curvature="0" />
      <path
         d="m 309.54896,1175.3793 16.78232,0 0,-84.0418 -16.78232,0 0,84.0418 z"
         style="font-style:normal;font-variant:normal;font-weight:bold;font-stretch:normal;font-size:medium;line-height:125%;font-family:'League Spartan';-inkscape-font-specification:'League Spartan Bold';letter-spacing:-0.00415549px;word-spacing:0px;fill:#000000;fill-opacity:1;stroke:none;stroke-width:1px;stroke-linecap:butt;stroke-linejoin:miter;stroke-opacity:1"
         id="path4256"
         inkscape:connector-curvature="0" />
      <path
         id="path4258"
         d="m 337.87262,1125.2474 16.78232,0 0,50.1319 -16.78232,0 0,-50.1319 z"
         style="font-style:normal;font-variant:normal;font-weight:bold;font-stretch:normal;font-size:medium;line-height:125%;font-family:'League Spartan';-inkscape-font-specification:'League Spartan Bold';letter-spacing:-0.00415549px;word-spacing:0px;fill:#000000;fill-opacity:1;stroke:none;stroke-width:1px;stroke-linecap:butt;stroke-linejoin:miter;stroke-opacity:1"
         inkscape:connector-curvature="0" />
      <path
         d="m 413.59508,1125.2474 -48.26104,0 0,13.1926 20.10087,0 -24.08311,36.9393 50.34697,0 0,-13.1926 -22.1868,0 24.08311,-36.9393 z"
         style="font-style:normal;font-variant:normal;font-weight:bold;font-stretch:normal;font-size:medium;line-height:125%;font-family:'League Spartan';-inkscape-font-specification:'League Spartan Bold';letter-spacing:-0.00415549px;word-spacing:0px;fill:#000000;fill-opacity:1;stroke:none;stroke-width:1px;stroke-linecap:butt;stroke-linejoin:miter;stroke-opacity:1"
         id="path4260"
         inkscape:connector-curvature="0" />
      <path
         d="m 468.91446,1152.7076 c 0.0948,-0.5864 0.0948,-1.6613 0.0948,-2.3454 0,-17.5901 -11.28303,-26.5806 -26.07423,-26.5806 -14.69639,0 -26.73794,11.9222 -26.73794,26.5806 0,14.5607 12.04155,26.4829 26.73794,26.4829 10.80895,0 19.7216,-3.6157 25.22089,-13.0948 l -12.13637,-6.2543 c -4.07706,4.4952 -6.44744,5.5702 -11.85192,5.5702 -4.26669,0 -10.52451,-2.6385 -10.52451,-10.3586 l 35.27133,0 z m -34.79725,-9.5769 c 0.28444,-4.593 3.50817,-8.111 9.29191,-8.111 4.9304,0 8.43857,2.834 9.19709,8.111 l -18.489,0 z"
         style="font-style:normal;font-variant:normal;font-weight:bold;font-stretch:normal;font-size:medium;line-height:125%;font-family:'League Spartan';-inkscape-font-specification:'League Spartan Bold';letter-spacing:-0.00415549px;word-spacing:0px;fill:#000000;fill-opacity:1;stroke:none;stroke-width:1px;stroke-linecap:butt;stroke-linejoin:miter;stroke-opacity:1"
         id="path4262"
         inkscape:connector-curvature="0" />
      <path
         inkscape:connector-curvature="0"
         id="path4287"
         d="m 346.89659,1094.7743 c -5.66794,0 -10.26092,4.593 -10.26092,10.2609 0,5.668 4.59298,10.2609 10.26092,10.2609 5.66793,0 10.26091,-4.5929 10.26091,-10.2609 0,-5.6679 -4.59298,-10.2609 -10.26091,-10.2609 z"
         style="font-style:normal;font-variant:normal;font-weight:bold;font-stretch:normal;font-size:medium;line-height:125%;font-family:'League Spartan';-inkscape-font-specification:'League Spartan Bold';letter-spacing:0.40932021px;word-spacing:0px;fill:#000000;fill-opacity:1;stroke:none;stroke-width:1px;stroke-linecap:butt;stroke-linejoin:miter;stroke-opacity:1" />
    </g>
  </g>
</svg>
