<?xml version="1.0" encoding="UTF-8" standalone="no"?>
<!-- Created with Inkscape (http://www.inkscape.org/) -->

<svg
   xmlns:dc="http://purl.org/dc/elements/1.1/"
   xmlns:cc="http://creativecommons.org/ns#"
   xmlns:rdf="http://www.w3.org/1999/02/22-rdf-syntax-ns#"
   xmlns:svg="http://www.w3.org/2000/svg"
   xmlns="http://www.w3.org/2000/svg"
   xmlns:sodipodi="http://sodipodi.sourceforge.net/DTD/sodipodi-0.dtd"
   xmlns:inkscape="http://www.inkscape.org/namespaces/inkscape"
   id="svg3080"
   version="1.1"
   inkscape:version="0.48.5 r10040"
   width="640"
   height="480"
   sodipodi:docname="drive.svg"
   inkscape:export-filename="/Users/ispuk/Desktop/accadi.png"
   inkscape:export-xdpi="144"
   inkscape:export-ydpi="144">
  <metadata
     id="metadata3086">
    <rdf:RDF>
      <cc:Work
         rdf:about="">
        <dc:format>image/svg+xml</dc:format>
        <dc:type
           rdf:resource="http://purl.org/dc/dcmitype/StillImage" />
        <dc:title />
      </cc:Work>
    </rdf:RDF>
  </metadata>
  <defs
     id="defs3084" />
  <sodipodi:namedview
     pagecolor="#ffffff"
     bordercolor="#666666"
     borderopacity="1"
     objecttolerance="10"
     gridtolerance="10"
     guidetolerance="10"
     inkscape:pageopacity="0"
     inkscape:pageshadow="2"
     inkscape:window-width="1429"
     inkscape:window-height="689"
     id="namedview3082"
     showgrid="false"
     showguides="true"
     inkscape:guide-bbox="true"
     inkscape:zoom="1.1580087"
     inkscape:cx="347.38202"
     inkscape:cy="53.337774"
     inkscape:window-x="54"
     inkscape:window-y="13"
     inkscape:window-maximized="0"
     inkscape:current-layer="svg3080">
    <sodipodi:guide
       orientation="0,1"
       position="671.68536,-456.74604"
       id="guide3866" />
  </sodipodi:namedview>
  <rect
     transform="matrix(1,0,-0.29408585,0.95577901,0,0)"
     ry="7.3076181"
     rx="4.4260817"
     y="101.71688"
     x="139.54941"
     height="180.41418"
     width="404.56158"
     id="rect3904"
     style="fill:#ffff00;fill-opacity:1;stroke:none"
     inkscape:export-filename="/Users/ispuk/Desktop/accadi.png"
     inkscape:export-xdpi="144"
     inkscape:export-ydpi="144" />
  <rect
     style="fill:#ffff00;fill-opacity:1;stroke:none"
     id="rect3906"
     width="404.56158"
     height="180.41418"
     x="79.72242"
     y="-282.13107"
     rx="4.4260817"
     ry="7.3076181"
     transform="matrix(1,0,-0.29408585,-0.95577901,0,0)"
     inkscape:export-filename="/Users/ispuk/Desktop/accadi.png"
     inkscape:export-xdpi="144"
     inkscape:export-ydpi="144" />
  <path
     style="fill:#6f8088;fill-opacity:1;stroke:none"
     d="M 105.01446,54.465197 22.985124,288.91807 619.90542,288.79307 518.18497,54.090417 z"
     id="path3094"
     inkscape:connector-curvature="0"
     sodipodi:nodetypes="ccccc"
     inkscape:export-filename="/Users/ispuk/Desktop/accadi.png"
     inkscape:export-xdpi="144"
     inkscape:export-ydpi="144" />
  <rect
     style="fill:#d8dbe1;fill-opacity:1;stroke:none"
     id="rect3092"
     width="597.10144"
     height="140.45465"
     x="22.894529"
     y="283.65497"
     rx="9.1318817"
     ry="6.0208325"
     inkscape:export-filename="/Users/ispuk/Desktop/accadi.png"
     inkscape:export-xdpi="144"
     inkscape:export-ydpi="144" />
  <rect
     style="opacity:0.67407406;fill:#bdc1ca;fill-opacity:1;stroke:none"
     id="rect3868"
     width="527.97308"
     height="56.498718"
     x="58.809811"
     y="309.49994"
     rx="9.275918"
     ry="6.3187294"
     inkscape:export-filename="/Users/ispuk/Desktop/accadi.png"
     inkscape:export-xdpi="144"
     inkscape:export-ydpi="144" />
  <rect
     ry="5.0541072"
     rx="4.1651206"
     y="337.37427"
     x="203.10059"
     height="45.191135"
     width="237.07321"
     id="rect3870"
     style="fill:#c5c9d1;fill-opacity:1;stroke:none"
     inkscape:export-filename="/Users/ispuk/Desktop/accadi.png"
     inkscape:export-xdpi="144"
     inkscape:export-ydpi="144" />
  <path
     style="fill:#acc5db;fill-opacity:1;stroke:none"
     d="m 193.20294,270.77511 363.89672,0 c 13.65188,0 17.74245,-2.48801 16.31341,-6.27807 L 512.7763,103.67837 c -1.42905,-3.790063 -3.93162,-7.053913 -6.26979,-7.053913 l -363.89672,0 c -2.33817,0 -3.30655,3.14604 -2.17126,7.053913 l 46.49463,160.04282 c 1.13529,3.90787 3.93161,7.05392 6.26978,7.05392 z"
     id="rect3910"
     inkscape:connector-curvature="0"
     sodipodi:nodetypes="sssssssss"
     inkscape:export-filename="/Users/ispuk/Desktop/accadi.png"
     inkscape:export-xdpi="144"
     inkscape:export-ydpi="144" />
  <path
     style="fill:#acc5db;fill-opacity:1;stroke:none"
     d="m 120.11392,96.624527 375.4841,0 c 2.32672,0 3.29037,3.14604 2.16064,7.053913 l -46.26697,160.04282 c -1.12973,3.90787 -3.91237,7.05941 -6.23909,7.05393 l -250.01342,0.0162 -121.095656,-0.89127 c -2.32658,-0.0171 -7.66537,-2.27106 -6.53564,-6.17893 L 113.87484,103.67837 c 1.12973,-3.907873 3.91237,-7.053913 6.23909,-7.053913 z"
     id="rect3908"
     inkscape:connector-curvature="0"
     sodipodi:nodetypes="ssssscssss"
     inkscape:export-filename="/Users/ispuk/Desktop/accadi.png"
     inkscape:export-xdpi="144"
     inkscape:export-ydpi="144" />
  <rect
     style="fill:#62707a;fill-opacity:1;stroke:none"
     id="rect3878"
     width="366"
     height="178.55482"
     x="144.787"
     y="99.328392"
     rx="4.0042009"
     ry="7.232305"
     transform="matrix(1,0,-0.28466568,0.95862686,0,0)"
     inkscape:export-filename="/Users/ispuk/Desktop/accadi.png"
     inkscape:export-xdpi="144"
     inkscape:export-ydpi="144" />
  <rect
     transform="matrix(1,0,-0.34808965,-0.93746125,0,0)"
     ry="7.3955927"
     rx="4.0042009"
     y="-284.15723"
     x="109.96342"
     height="182.58615"
     width="366"
     id="rect3880"
     style="fill:#62707a;fill-opacity:1;stroke:none"
     inkscape:export-filename="/Users/ispuk/Desktop/accadi.png"
     inkscape:export-xdpi="144"
     inkscape:export-ydpi="144" />
  <rect
     style="fill:#6f8088;fill-opacity:1;stroke:none"
     id="rect3916"
     width="151.09689"
     height="71.099556"
     x="225.69975"
     y="-157.20663"
     rx="1.6530664"
     ry="2.8798642"
     transform="matrix(1,0,-0.17518765,-0.98453506,0,0)"
     inkscape:export-filename="/Users/ispuk/Desktop/accadi.png"
     inkscape:export-xdpi="144"
     inkscape:export-ydpi="144" />
  <rect
     transform="matrix(-1,0,0.15291885,-0.98823875,0,0)"
     ry="2.8690712"
     rx="1.4375308"
     y="-156.7191"
     x="-383.03033"
     height="70.833092"
     width="131.39607"
     id="rect3918"
     style="fill:#6f8088;fill-opacity:1;stroke:none"
     inkscape:export-filename="/Users/ispuk/Desktop/accadi.png"
     inkscape:export-xdpi="144"
     inkscape:export-ydpi="144" />
  <rect
     style="fill:#c2c6ce;fill-opacity:1;stroke:none"
     id="rect4036"
     width="75.424721"
     height="21.955351"
     x="455.88876"
     y="388.61603"
     rx="4.0042009"
     ry="6.043468"
     inkscape:export-filename="/Users/ispuk/Desktop/accadi.png"
     inkscape:export-xdpi="144"
     inkscape:export-ydpi="144" />
  <rect
     ry="5.3711438"
     rx="3.8745322"
     y="389.05853"
     x="456.33127"
     height="19.512859"
     width="72.982224"
     id="rect4137"
     style="fill:#e3e5ec;fill-opacity:1;stroke:none"
     inkscape:export-filename="/Users/ispuk/Desktop/accadi.png"
     inkscape:export-xdpi="144"
     inkscape:export-ydpi="144" />
  <path
     sodipodi:nodetypes="csccc"
     inkscape:connector-curvature="0"
     id="path3801"
     d="m 583.6938,356.69549 c -33.56067,-0.22538 -79.2885,-0.71296 -129.24241,-0.35923 -11.5104,0.0814 -13.40871,5.57157 -13.75558,10.40075 l 138.57229,-0.10794 z"
     style="fill:#e3e5ec;fill-opacity:1;stroke:none"
     inkscape:export-filename="/Users/ispuk/Desktop/accadi.png"
     inkscape:export-xdpi="144"
     inkscape:export-ydpi="144" />
  <path
     sodipodi:nodetypes="ssssssssss"
     inkscape:connector-curvature="0"
     id="path3805"
     d="m 478.49252,356.21714 0,1.91314 c 0,3.44947 6.81833,6.22647 15.28772,6.22647 l 74.66037,0 c 8.46939,0 15.28772,-2.777 15.28772,-6.22647 l 0,-1.91314 c 0,-3.44946 -1.20528,-5.9878 -9.67464,-6.01058 l -80.27345,-0.21589 c -4.2953,-0.0116 -8.70569,-0.47311 -11.47762,0.6809 -2.69369,1.12144 -3.8101,3.84553 -3.8101,5.54557 z"
     style="fill:#e3e5ec;fill-opacity:1;stroke:none"
     inkscape:export-filename="/Users/ispuk/Desktop/accadi.png"
     inkscape:export-xdpi="144"
     inkscape:export-ydpi="144" />
  <path
     sodipodi:nodetypes="sssssss"
     inkscape:connector-curvature="0"
     id="path3803"
     d="m 582.46723,350.14857 c -3.69066,0 -12.24053,-0.14874 -11.76271,1.06797 l 4.88498,12.43902 c 0.51018,1.2991 -24.83387,2.7877 4.19765,2.87622 3.69046,0.0113 7.08727,-1.38126 7.0751,-2.68842 l -0.10795,-11.58568 c -0.0122,-1.30717 -0.59641,-2.10911 -4.28707,-2.10911 z"
     style="fill:#e3e5ec;fill-opacity:1;stroke:none"
     inkscape:export-filename="/Users/ispuk/Desktop/accadi.png"
     inkscape:export-xdpi="144"
     inkscape:export-ydpi="144" />
  <rect
     style="fill:#e3e5ec;fill-opacity:1;stroke:none"
     id="rect3810"
     width="591.49139"
     height="4.8849845"
     x="26.090635"
     y="286.4325"
     rx="14.525069"
     ry="3.0104163"
     inkscape:export-filename="/Users/ispuk/Desktop/accadi.png"
     inkscape:export-xdpi="144"
     inkscape:export-ydpi="144" />
  <path
     style="fill:#e3e5ec;fill-opacity:1;stroke:none"
     d="m 59.583924,357.84519 c 33.56067,-0.22538 79.288496,-0.71296 129.242406,-0.35923 11.5104,0.0814 13.40871,5.57157 13.75558,10.40075 L 64.009624,367.77877 z"
     id="path3832"
     inkscape:connector-curvature="0"
     sodipodi:nodetypes="csccc"
     inkscape:export-filename="/Users/ispuk/Desktop/accadi.png"
     inkscape:export-xdpi="144"
     inkscape:export-ydpi="144" />
  <path
     style="fill:#e3e5ec;fill-opacity:1;stroke:none"
     d="m 164.7852,357.36684 0,1.91314 c 0,3.44947 -6.81833,6.22647 -15.28772,6.22647 l -74.660366,0 c -8.46939,0 -15.28772,-2.777 -15.28772,-6.22647 l 0,-1.91314 c 0,-3.44946 1.20528,-5.9878 9.67464,-6.01058 l 80.273446,-0.21589 c 4.2953,-0.0116 8.70569,-0.47311 11.47762,0.6809 2.69369,1.12144 3.8101,3.84553 3.8101,5.54557 z"
     id="path3834"
     inkscape:connector-curvature="0"
     sodipodi:nodetypes="ssssssssss"
     inkscape:export-filename="/Users/ispuk/Desktop/accadi.png"
     inkscape:export-xdpi="144"
     inkscape:export-ydpi="144" />
  <path
     style="fill:#e3e5ec;fill-opacity:1;stroke:none"
     d="m 62.810494,351.29827 c 3.69066,0 12.24053,-0.14874 11.76271,1.06797 l -4.88498,12.43902 c -0.51018,1.2991 24.83387,2.7877 -4.19765,2.87622 -3.69046,0.0113 -7.08727,-1.38126 -7.0751,-2.68842 l 0.10795,-11.58568 c 0.0122,-1.30717 0.59641,-2.10911 4.28707,-2.10911 z"
     id="path3836"
     inkscape:connector-curvature="0"
     sodipodi:nodetypes="sssssss"
     inkscape:export-filename="/Users/ispuk/Desktop/accadi.png"
     inkscape:export-xdpi="144"
     inkscape:export-ydpi="144" />
  <rect
     style="fill:#b6bac1;fill-opacity:1;stroke:none"
     id="rect3840"
     width="491.38617"
     height="19.800312"
     x="73.82016"
     y="324.2962"
     rx="9.007287"
     ry="8.0489845"
     inkscape:export-filename="/Users/ispuk/Desktop/accadi.png"
     inkscape:export-xdpi="144"
     inkscape:export-ydpi="144" />
  <path
     style="fill:#f6f6f6;fill-opacity:0.87890625;stroke:none"
     d="m 82.849834,324.65881 474.548036,0 c 5.00244,0 9.02968,3.03957 9.02968,6.81517 l 0,3.13482 c 0,3.77561 -4.02724,6.81518 -9.02968,6.81518 l -474.548036,0 c -5.00244,0 -9.02968,-3.03957 -9.02968,-6.81518 l 0,-3.13482 c 0,-3.7756 4.02724,-6.81517 9.02968,-6.81517 z"
     id="rect3842"
     inkscape:connector-curvature="0"
     inkscape:export-filename="/Users/ispuk/Desktop/accadi.png"
     inkscape:export-xdpi="144"
     inkscape:export-ydpi="144" />
  <rect
     style="fill:#f6f6f6;fill-opacity:0.86328125;stroke:none"
     id="rect4038"
     width="65.654747"
     height="3.3313487"
     x="460.30029"
     y="389.7135"
     rx="3.4855258"
     ry="0.9169929"
     inkscape:export-filename="/Users/ispuk/Desktop/accadi.png"
     inkscape:export-xdpi="144"
     inkscape:export-ydpi="144" />
  <flowRoot
     xml:space="preserve"
     id="flowRoot3008"
     style="font-size:40px;font-style:normal;font-weight:normal;line-height:125%;letter-spacing:1.22114515px;word-spacing:0px;fill:#000000;fill-opacity:0.6484375;stroke:none;font-family:Sans"
     transform="matrix(1.6869412,0,0,1.6869412,-2.668399,-269.17341)"><flowRegion
       id="flowRegion3010"><rect
         id="rect3012"
         width="102.58467"
         height="48.849842"
         x="36.637383"
         y="377.41531"
         style="letter-spacing:1.22114515px;fill:#000000;fill-opacity:0.6484375" /></flowRegion><flowPara
       id="flowPara3014"
       style="font-size:24px;font-style:normal;font-variant:normal;font-weight:normal;font-stretch:normal;letter-spacing:1.22114515px;fill:#000000;fill-opacity:0.6484375;font-family:Apple LiGothic;-inkscape-font-specification:Apple LiGothic">drive</flowPara></flowRoot></svg>
