<?xml version="1.0" standalone="no"?>
<!DOCTYPE svg PUBLIC "-//W3C//DTD SVG 1.1//EN" "http://www.w3.org/Graphics/SVG/1.1/DTD/svg11.dtd" >
<svg>
<metadata>
Created by FontForge 20090914 at Tue Feb 16 10:34:44 2016
 By www-data
Slashed zero
</metadata>
<defs>
<font id="Slize" horiz-adv-x="0" >
  <font-face 
    font-family="Slize"
    font-weight="900"
    font-stretch="normal"
    units-per-em="1000"
    panose-1="2 11 8 3 3 4 3 2 2 4"
    ascent="750"
    descent="-250"
    x-height="500"
    cap-height="650"
    bbox="-458 -326 2156 1024"
    underline-thickness="50"
    underline-position="-150"
    unicode-range="U+0020-U+1F16B"
  />
<missing-glyph horiz-adv-x="704" 
d="M76 0v660h552v-660h-552zM288 104h128l-26 56l-36 96h-4l-36 -96zM350 424h4l40 96l18 36h-120l18 -36zM188 172l82 168l-82 168v-336zM516 172v336l-82 -168z" />
    <glyph glyph-name="f_f" unicode="ff" horiz-adv-x="688" 
d="M416 0l0.00195312 366h-156v-366h-172v366h-66v128l66 5v7c0 56 16.333 102 49 138s83.667 54 153 54c42.667 0 78.667 -6 108 -18l-30 -126c-15.333 6.66699 -34 10 -56 10c-15.333 0 -27.833 -4.66699 -37.5 -14s-14.5 -23.333 -14.5 -42v-8h156v6
c0 59.333 15.667 107.833 47 145.5s81.666 56.5 150.999 56.5c37.333 0 72.666 -6 105.999 -18l-30 -126c-18 6.66699 -34.667 10 -50 10c-34.667 0 -52 -20.667 -52 -62v-12h84v-134h-84v-366h-172z" />
    <glyph glyph-name="f_t" unicode="ft" horiz-adv-x="724" 
d="M88 0l0.000976562 366h-66v128l66 5v7c0 59.333 15.667 107.833 47 145.5s81.666 56.5 150.999 56.5c38 0 73.333 -6 106 -18l-30 -126c-18 6.66699 -34.667 10 -50 10c-34.667 0 -52 -20.667 -52 -62v-12h154l20 130h142v-130h114v-134h-114v-171
c0 -48.667 20 -73 60 -73c13.333 0 28 2.66699 44 8l26 -124c-38.667 -12 -78 -18 -118 -18c-62.667 0 -109 18 -139 54s-45 86 -45 150v174h-144v-366h-172z" />
    <glyph glyph-name="f_f_t" unicode="fft" horiz-adv-x="1052" 
d="M88 0l0.00195312 366h-66v128l66 5v7c0 56 16.333 102 49 138s83.667 54 153 54c42.667 0 78.667 -6 108 -18l-30 -126c-15.333 6.66699 -34 10 -56 10c-15.333 0 -27.833 -4.66699 -37.5 -14s-14.5 -23.333 -14.5 -42v-8h156v6c0 59.333 15.667 107.833 47 145.5
s81.666 56.5 150.999 56.5c37.333 0 72.666 -6 105.999 -18l-30 -126c-18 6.66699 -34.667 10 -50 10c-34.667 0 -52 -20.667 -52 -62v-12h154l20 130h142v-130h114v-134h-114v-171c0 -48.667 20 -73 60 -73c13.333 0 28 2.66699 44 8l26 -124c-38.667 -12 -78 -18 -118 -18
c-62.667 0 -109 18 -139 54s-45 86 -45 150v174h-144v-366h-172v366h-156v-366h-172z" />
    <glyph glyph-name=".notdef" horiz-adv-x="704" 
d="M76 0v660h552v-660h-552zM288 104h128l-26 56l-36 96h-4l-36 -96zM350 424h4l40 96l18 36h-120l18 -36zM188 172l82 168l-82 168v-336zM516 172v336l-82 -168z" />
    <glyph glyph-name="space" unicode=" " horiz-adv-x="200" 
 />
    <glyph glyph-name="exclam" unicode="!" horiz-adv-x="360" 
d="M124 244l-24 278l-6 148h172l-6 -148l-24 -278h-112zM180 -12c-28.667 0 -52.5 10 -71.5 30s-28.5 44.667 -28.5 74s9.5 54 28.5 74s42.833 30 71.5 30s52.5 -10 71.5 -30s28.5 -44.667 28.5 -74s-9.5 -54 -28.5 -74s-42.833 -30 -71.5 -30z" />
    <glyph glyph-name="quotedbl" unicode="&#x22;" horiz-adv-x="580" 
d="M114 324l-34 212l-6 148h172l-6 -148l-34 -212h-92zM374 324l-34 212l-6 148h172l-6 -148l-34 -212h-92z" />
    <glyph glyph-name="numbersign" unicode="#" horiz-adv-x="540" 
d="M84 0l22 180h-72v108h84l12 96h-76v108h90l20 158h96l-18 -158h92l20 158h96l-18 -158h78v-108h-92l-12 -96h84v-108h-96l-22 -180h-98l22 180h-92l-22 -180h-98zM216 288h92l12 96h-92z" />
    <glyph glyph-name="dollar" unicode="$" horiz-adv-x="540" 
d="M212 -110l-0.00195312 99.998c-72 8.66699 -131.333 34 -178 76l74 116c50.667 -37.333 96.667 -56 138 -56c24.667 0 42.5 4.5 53.5 13.5s16.5 23.167 16.5 42.5c0 14.667 -8.83301 28.334 -26.5 41.001s-39.167 25.167 -64.5 37.5s-50.666 26 -75.999 41
s-46.833 35 -64.5 60s-26.5 53.833 -26.5 86.5c0 50.667 13.5 92.667 40.5 126s64.833 55.333 113.5 66v104h112v-102c56 -8.66699 106.333 -36.667 151 -84l-85 -98c-36 32 -70.667 48 -104 48c-22.667 0 -39 -3.83301 -49 -11.5s-15 -21.167 -15 -40.5
c0 -11.333 6.33301 -22.333 19 -33s28.667 -20 48 -28s40 -18.167 62 -30.5s42.667 -25.166 62 -38.499s35.333 -31.5 48 -54.5s19 -48.833 19 -77.5c0 -50 -13.167 -92.5 -39.5 -127.5s-65.166 -58.5 -116.499 -70.5v-106h-112z" />
    <glyph glyph-name="percent" unicode="%" horiz-adv-x="870" 
d="M190 248c-49.333 0 -89.666 18.667 -120.999 56s-47 88 -47 152c0 63.333 15.667 113.5 47 150.5s71.666 55.5 120.999 55.5s89.666 -18.5 120.999 -55.5s47 -87.167 47 -150.5c0 -64 -15.667 -114.667 -47 -152s-71.666 -56 -120.999 -56zM190 342
c33.333 0 50 38 50 114c0 74.667 -16.667 112 -50 112s-50 -37.333 -50 -112c0 -76 16.667 -114 50 -114zM214 -12l348 674h96l-348 -674h-96zM680 -12c-49.333 0 -89.666 18.667 -120.999 56s-47 88 -47 152c0 63.333 15.667 113.5 47 150.5s71.666 55.5 120.999 55.5
s89.666 -18.5 120.999 -55.5s47 -87.167 47 -150.5c0 -64 -15.667 -114.667 -47 -152s-71.666 -56 -120.999 -56zM680 82c33.333 0 50 38 50 114c0 74.667 -16.667 112 -50 112s-50 -37.333 -50 -112c0 -76 16.667 -114 50 -114z" />
    <glyph glyph-name="ampersand" unicode="&#x26;" horiz-adv-x="690" 
d="M246 -12c-71.333 0 -126.5 18.167 -165.5 54.5s-58.5 80.833 -58.5 133.5c0 74 38.333 134.333 115 181c-26 46.667 -39 89.667 -39 129c0 48.667 17.333 90.167 52 124.5s80 51.5 136 51.5c52 0 93.667 -14 125 -42s47 -65.333 47 -112c0 -38.667 -11.667 -72 -35 -100
s-55 -55 -95 -81c30.667 -32.667 68.667 -65 114 -97c32.667 43.333 56 91.333 70 144h156c-24 -79.333 -59.333 -150.333 -106 -213c39.333 -19.333 75.333 -31 108 -35l-40 -138c-56 10 -114 31 -174 63c-61.333 -42 -131.333 -63 -210 -63zM239 486
c0 -20 6 -41.667 18 -65c47.333 28 71 57 71 87c0 28 -12.667 42 -38 42c-14 0 -26 -5.66699 -36 -17s-15 -27 -15 -47zM268 118c19.333 0 40.666 5.33203 63.999 15.999c-45.333 36 -84.666 73.667 -117.999 113c-20 -21.333 -30 -41.666 -30 -60.999
c0 -20 7.5 -36.333 22.5 -49s35.5 -19 61.5 -19z" />
    <glyph glyph-name="quotesingle" unicode="'" horiz-adv-x="320" 
d="M114 324l-34 212l-6 148h172l-6 -148l-34 -212h-92z" />
    <glyph glyph-name="parenleft" unicode="(" horiz-adv-x="360" 
d="M200 -180c-88 144.667 -132 297.332 -132 457.999s44 313.334 132 458.001l108 -44c-68 -122.667 -102 -260.667 -102 -414s34 -291.333 102 -414z" />
    <glyph glyph-name="parenright" unicode=")" horiz-adv-x="360" 
d="M160 -180l-108 44.002c68 122.667 102 260.667 102 414s-34 291.333 -102 414l108 44c88 -144.667 132 -297.334 132 -458.001s-44 -313.334 -132 -458.001z" />
    <glyph glyph-name="asterisk" unicode="*" horiz-adv-x="472" 
d="M152 321l-70 51l60 107l-112 52l27 83l121 -24l14 122h88l14 -123l121 25l27 -83l-113 -52l61 -107l-70 -51l-84 91z" />
    <glyph glyph-name="plus" unicode="+" horiz-adv-x="540" 
d="M208 90v180h-174v120h174v180h124v-180h174v-120h-174v-180h-124z" />
    <glyph glyph-name="comma" unicode="," horiz-adv-x="320" 
d="M80 -204l-34.001 89.999c39.333 12.667 69.5 30 90.5 52s31.167 45.333 30.5 70h-7c-27.333 0 -50.833 8.5 -70.5 25.5s-29.5 39.833 -29.5 68.5c0 27.333 10 49.833 30 67.5s44.667 26.5 74 26.5c36.667 0 64.834 -13.667 84.501 -41s29.5 -65.666 29.5 -114.999
c0 -60 -17 -111.167 -51 -153.5s-83 -72.5 -147 -90.5z" />
    <glyph glyph-name="hyphen" unicode="-" horiz-adv-x="340" 
d="M44 194v120h252v-120h-252z" />
    <glyph glyph-name="period" unicode="." horiz-adv-x="320" 
d="M160 -12c-28.667 0 -52.5 10 -71.5 30s-28.5 44.667 -28.5 74s9.5 54 28.5 74s42.833 30 71.5 30s52.5 -10 71.5 -30s28.5 -44.667 28.5 -74s-9.5 -54 -28.5 -74s-42.833 -30 -71.5 -30z" />
    <glyph glyph-name="slash" unicode="/" horiz-adv-x="334" 
d="M14 -160l176 870h110l-176 -870h-110z" />
    <glyph glyph-name="zero" unicode="0" horiz-adv-x="540" 
d="M270 -12c-72 0 -129.333 28.833 -172 86.5s-64 139.5 -64 245.5s21.333 186.833 64 242.5s100 83.5 172 83.5s129.333 -28 172 -84s64 -136.667 64 -242c0 -106 -21.333 -187.833 -64 -245.5s-100 -86.5 -172 -86.5zM270 120c23.333 0 41.5 14 54.5 42
s19.5 80.667 19.5 158c0 53.333 -3.66699 94.833 -11 124.5s-15.833 48.667 -25.5 57s-22.167 12.5 -37.5 12.5s-27.833 -4.16699 -37.5 -12.5s-18.167 -27.333 -25.5 -57s-11 -71.167 -11 -124.5c0 -77.333 6.5 -130 19.5 -158s31.167 -42 54.5 -42z" />
    <glyph glyph-name="one" unicode="1" horiz-adv-x="540" 
d="M66 0v137.999h136v328h-120v106c64.667 12.667 120 33.334 166 62.001h126v-496h114v-138h-422z" />
    <glyph glyph-name="two" unicode="2" horiz-adv-x="540" 
d="M36 0l0.000976562 98.002l87 80.5l69.5 68.5c28.333 28.667 48.666 51.667 60.999 69s23.5 36.166 33.5 56.499s15 38.833 15 55.5c0 27.333 -7 48.166 -21 62.499s-33 21.5 -57 21.5c-29.333 0 -64 -20 -104 -60l-92 92c34 36 67.667 62 101 78s73 24 119 24
c64.667 0 117.167 -19 157.5 -57s60.5 -88.333 60.5 -151c0 -77.333 -60.667 -178 -182 -302c42.667 5.33301 78 8 106 8h106v-144h-460z" />
    <glyph glyph-name="three" unicode="3" horiz-adv-x="540" 
d="M246 -12c-99.333 0 -174.668 30.002 -226.001 90.002l78 108c43.333 -40 86.666 -60 129.999 -60c61.333 0 92 20 92 60c0 26 -10.667 45.167 -32 57.5s-63.333 18.5 -126 18.5v120c50.667 0 86.334 6.16699 107.001 18.5s31 30.166 31 53.499c0 38.667 -22 58 -66 58
c-34 0 -71.333 -17.333 -112 -52l-86 104c65.333 54.667 134 82 206 82c70.667 0 126.667 -15.667 168 -47s62 -75.333 62 -132c0 -61.333 -34 -107 -102 -137v-4c38 -11.333 67.833 -29.833 89.5 -55.5s32.5 -57.834 32.5 -96.501c0 -58 -23.667 -103.5 -71 -136.5
s-105.666 -49.5 -174.999 -49.5z" />
    <glyph glyph-name="four" unicode="4" horiz-adv-x="540" 
d="M290 0v142h-270v120l216 372h214v-362h68v-130h-68v-142h-160zM182 272h108v72c0 14 2 64 6 150h-4c-10.667 -25.333 -28 -63.333 -52 -114z" />
    <glyph glyph-name="five" unicode="5" horiz-adv-x="540" 
d="M252 -12c-93.333 0 -170.004 30 -230.004 90l76 108c44.667 -40 87.334 -60 128.001 -60c62.667 0 94 27.333 94 82c0 26 -7.83301 46.167 -23.5 60.5s-36.5 21.5 -62.5 21.5c-16.667 0 -30.667 -2 -42 -6s-26.666 -12 -45.999 -24l-74 48l16 326h376v-144h-228l-8 -92
c18 6.66699 38 10 60 10c58.667 0 107.334 -16.667 146.001 -50s58 -82 58 -146c0 -68.667 -23.167 -123.167 -69.5 -163.5s-103.166 -60.5 -170.499 -60.5z" />
    <glyph glyph-name="six" unicode="6" horiz-adv-x="540" 
d="M286 -12c-68.667 0 -127.166 26.333 -175.499 79s-72.5 132.334 -72.5 239.001c0 108.667 25.333 192.5 76 251.5s112.667 88.5 186 88.5c78.667 0 144.667 -26.667 198 -80l-90 -102c-10.667 12 -25 22.333 -43 31s-35.667 13 -53 13c-72 0 -111 -57 -117 -171
c14.667 19.333 33.5 34.666 56.5 45.999s43.833 17 62.5 17c57.333 0 103.666 -16.333 138.999 -49s53 -81.667 53 -147c0 -66 -21.167 -118.5 -63.5 -157.5s-94.5 -58.5 -156.5 -58.5zM282.001 116c45.333 0 68 29.333 68 88c0 50.667 -23.333 76 -70 76
c-35.333 0 -62.333 -18 -81 -54c11.333 -73.333 39 -110 83 -110z" />
    <glyph glyph-name="seven" unicode="7" horiz-adv-x="540" 
d="M152 0c6 104 20.667 192 44 264s63.333 147.333 120 226h-272v144h454v-106c-36 -42.667 -64.833 -82 -86.5 -118s-38.5 -75.833 -50.5 -119.5s-20.333 -85.5 -25 -125.5s-8.66699 -95 -12 -165h-172z" />
    <glyph glyph-name="eight" unicode="8" horiz-adv-x="540" 
d="M268 -12c-65.333 0 -119.332 16.1699 -161.999 48.5029s-64 74.166 -64 125.499c0 63.333 34.667 113.333 104 150v4c-56 42.667 -84 92.667 -84 150c0 55.333 19.667 99.166 59 131.499s90.333 48.5 153 48.5c59.333 0 107.166 -16 143.499 -48s54.5 -74.667 54.5 -128
c0 -54 -27 -98.333 -81 -133v-4c72.667 -38.667 109 -94.334 109 -167.001c0 -51.333 -21.5 -93.833 -64.5 -127.5s-98.833 -50.5 -167.5 -50.5zM306.001 378.003c18.667 26.667 28 53.333 28 80c0 22 -5.66699 39.167 -17 51.5s-27 18.5 -47 18.5
c-16.667 0 -30.5 -5.16699 -41.5 -15.5s-16.5 -25.833 -16.5 -46.5c0 -20 7.5 -36.333 22.5 -49s38.833 -25.667 71.5 -39zM272.001 106.002c46 0 69 22.001 69 66.001c0 9.33301 -2 17.666 -6 24.999s-8.5 13.666 -13.5 18.999s-13.833 11.333 -26.5 18
s-23 11.834 -31 15.501l-42 18.5c-22 -25.333 -33 -54 -33 -86c0 -24 8 -42.667 24 -56s35.667 -20 59 -20z" />
    <glyph glyph-name="nine" unicode="9" horiz-adv-x="540" 
d="M258 354c35.333 0 62.333 18 81 54c-11.333 73.333 -39 110 -83 110c-45.333 0 -68 -29.333 -68 -88c0 -50.667 23.333 -76 70 -76zM238 -12c-78.667 0 -144.668 26.667 -198.001 80l90 102c10.667 -12 25 -22.333 43 -31s35.667 -13 53 -13c72.667 0 111.667 57 117 171
c-14.667 -19.333 -33.5 -34.666 -56.5 -45.999s-43.833 -17 -62.5 -17c-57.333 0 -103.666 16.333 -138.999 49s-53 81.667 -53 147c0 66 21.167 118.5 63.5 157.5s94.5 58.5 156.5 58.5c68.667 0 127.167 -26.333 175.5 -79s72.5 -132.334 72.5 -239.001
c0 -108.667 -25.333 -192.5 -76 -251.5s-112.667 -88.5 -186 -88.5z" />
    <glyph glyph-name="colon" unicode=":" horiz-adv-x="320" 
d="M160 298c-28.667 0 -52.5 10 -71.5 30s-28.5 44.667 -28.5 74s9.5 54 28.5 74s42.833 30 71.5 30s52.5 -10 71.5 -30s28.5 -44.667 28.5 -74s-9.5 -54 -28.5 -74s-42.833 -30 -71.5 -30zM160 -12c-28.667 0 -52.5 10 -71.5 30s-28.5 44.667 -28.5 74s9.5 54 28.5 74
s42.833 30 71.5 30s52.5 -10 71.5 -30s28.5 -44.667 28.5 -74s-9.5 -54 -28.5 -74s-42.833 -30 -71.5 -30z" />
    <glyph glyph-name="semicolon" unicode=";" horiz-adv-x="320" 
d="M160 298c-28.667 0 -52.5 10 -71.5 30s-28.5 44.667 -28.5 74s9.5 54 28.5 74s42.833 30 71.5 30s52.5 -10 71.5 -30s28.5 -44.667 28.5 -74s-9.5 -54 -28.5 -74s-42.833 -30 -71.5 -30zM80 -204l-34.001 89.999c39.333 12.667 69.5 30 90.5 52s31.167 45.333 30.5 70h-7
c-27.333 0 -50.833 8.5 -70.5 25.5s-29.5 39.833 -29.5 68.5c0 27.333 10 49.833 30 67.5s44.667 26.5 74 26.5c36.667 0 64.834 -13.667 84.501 -41s29.5 -65.666 29.5 -114.999c0 -60 -17 -111.167 -51 -153.5s-83 -72.5 -147 -90.5z" />
    <glyph glyph-name="less" unicode="&#x3c;" horiz-adv-x="540" 
d="M506 94l-472 180v116l472 180v-140l-162 -50l-136 -46v-4l136 -46l162 -50v-140z" />
    <glyph glyph-name="equal" unicode="=" horiz-adv-x="540" 
d="M34 390v120h472v-120h-472zM34 150v120h472v-120h-472z" />
    <glyph glyph-name="greater" unicode="&#x3e;" horiz-adv-x="540" 
d="M34 94v140l162 50l136 46v4l-136 46l-162 50v140l472 -180v-116z" />
    <glyph glyph-name="question" unicode="?" horiz-adv-x="478" 
d="M152 244c-4 24 -2.49805 47 4.50195 69s16.833 41 29.5 57s25.667 31 39 45s24.833 27.833 34.5 41.5s14.5 26.167 14.5 37.5c0 33.333 -18.667 50 -56 50c-24 0 -51.333 -14 -82 -42l-94 86c54.667 62.667 120.667 94 198 94c59.333 0 107.166 -14.333 143.499 -43
s54.5 -73 54.5 -133c0 -22 -5 -42.667 -15 -62s-22 -36.333 -36 -51l-41.5 -43.5c-13.667 -14.333 -24.834 -30.5 -33.501 -48.5s-12 -37 -10 -57h-150zM226.002 -12c-28.667 0 -52.5 10 -71.5 30s-28.5 44.667 -28.5 74s9.5 54 28.5 74s42.833 30 71.5 30
s52.5 -10 71.5 -30s28.5 -44.667 28.5 -74s-9.5 -54 -28.5 -74s-42.833 -30 -71.5 -30z" />
    <glyph glyph-name="at" unicode="@" horiz-adv-x="924" 
d="M438 -178c-52 0 -100.834 7.83105 -146.501 23.498s-87 38.667 -124 69s-66.167 70.5 -87.5 120.5s-32 107 -32 171c0 92 21 174.333 63 247s98.167 128.334 168.5 167.001s147.833 58 232.5 58c110 0 198.167 -34 264.5 -102s99.5 -156 99.5 -264
c0 -86.667 -24.333 -154.667 -73 -204s-103.667 -74 -165 -74c-30 0 -56 6.83301 -78 20.5s-36 32.167 -42 55.5h-2c-12.667 -19.333 -30.667 -35.166 -54 -47.499s-45.333 -18.5 -66 -18.5c-40.667 0 -73.5 14.167 -98.5 42.5s-37.5 65.5 -37.5 111.5
c0 65.333 20.333 123.333 61 174s89 76 145 76c34.667 0 59.334 -16.667 74.001 -50h2l16 42h104l-48 -228c-12 -49.333 2 -74 42 -74c31.333 0 58.166 16 80.499 48s33.5 72.667 33.5 122c0 36 -4.83301 69.333 -14.5 100s-24.667 58.834 -45 84.501s-48.666 46 -84.999 61
s-78.833 22.5 -127.5 22.5c-88 0 -166 -34.333 -234 -103s-102 -156.334 -102 -263.001c0 -93.333 28 -164.333 84 -213s124.667 -73 206 -73c50.667 0 100 12 148 36l36 -92c-59.333 -30.667 -125.333 -46 -198 -46zM433.999 149.998c18 0 36.667 13.334 56 40.001l22 126
c-8 16 -21.333 24 -40 24c-24 0 -44 -14.333 -60 -43s-24 -58.334 -24 -89.001c0 -38.667 15.333 -58 46 -58z" />
    <glyph glyph-name="A" unicode="A" horiz-adv-x="584" 
d="M240 316l-10.999 -45.001h120l-11 45c-6 22.667 -14.333 57.834 -25 105.501s-18.334 81.167 -23.001 100.5h-4c-22 -104 -37.333 -172.667 -46 -206zM-9.99902 -0.000976562l198 650h208l198 -650h-182l-32 138h-182l-32 -138h-176z" />
    <glyph glyph-name="B" unicode="B" horiz-adv-x="612" 
d="M72 0v650h234c164 0 246 -54 246 -162c0 -29.333 -7.66699 -57.5 -23 -84.5s-35 -45.5 -59 -55.5v-4c33.333 -10 60.333 -27.667 81 -53s31 -58.333 31 -99c0 -64 -24 -112 -72 -144s-109.333 -48 -184 -48h-254zM244 396h58c54.667 0 82 22 82 66
c0 20 -6.66699 34.333 -20 43s-34 13 -62 13h-58v-122zM244 132l70 0.000976562c66.667 0 100 24 100 72c0 23.333 -8 40.166 -24 50.499s-41.333 15.5 -76 15.5h-70v-138z" />
    <glyph glyph-name="C" unicode="C" horiz-adv-x="586" 
d="M354 -12c-88 0 -161.667 28.832 -221 86.499s-89 139.5 -89 245.5c0 104.667 30.667 187.834 92 249.501s135.333 92.5 222 92.5c77.333 0 144.666 -28.667 201.999 -86l-90 -110c-36.667 32 -72.667 48 -108 48c-39.333 0 -72.833 -17 -100.5 -51
s-41.5 -79.667 -41.5 -137c0 -60 12.667 -106.667 38 -140s59.333 -50 102 -50c44 0 83.333 18.667 118 56l90 -108c-55.333 -64 -126.666 -96 -213.999 -96z" />
    <glyph glyph-name="D" unicode="D" horiz-adv-x="642" 
d="M72 0l-0.000976562 650h192c104 0 185.667 -26 245 -78s89 -133.333 89 -244s-29.167 -193 -87.5 -247s-137.166 -81 -236.499 -81h-202zM243.999 138h9.99805c52.667 0 93.834 14 123.501 42s44.5 77.333 44.5 148c0 70 -14.667 118.167 -44 144.5
s-70.666 39.5 -123.999 39.5h-10v-374z" />
    <glyph glyph-name="E" unicode="E" horiz-adv-x="556" 
d="M72 0v650h420v-144h-248v-102h212v-144h-212v-116h258v-144h-430z" />
    <glyph glyph-name="F" unicode="F" horiz-adv-x="536" 
d="M72 0v650h424v-144h-252v-124h216v-144h-216v-238h-172z" />
    <glyph glyph-name="G" unicode="G" horiz-adv-x="646" 
d="M372 -12c-96 0 -174.667 28.668 -236 86.001s-92 139.333 -92 246c0 105.333 31.333 188.666 94 249.999s139.334 92 230.001 92c84 0 154.667 -28.667 212 -86l-90 -110c-36.667 32 -75.334 48 -116.001 48c-45.333 0 -82.333 -16.833 -111 -50.5s-43 -79.5 -43 -137.5
c0 -126.667 56.667 -190 170 -190c21.333 0 38 4 50 12v90h-96v140h248v-310c-24 -23.333 -55.667 -42.5 -95 -57.5s-81 -22.5 -125 -22.5z" />
    <glyph glyph-name="H" unicode="H" horiz-adv-x="682" 
d="M72 0v650h172v-242h194v242h172v-650h-172v258h-194v-258h-172z" />
    <glyph glyph-name="I" unicode="I" horiz-adv-x="316" 
d="M72 0v650h172v-650h-172z" />
    <glyph glyph-name="J" unicode="J" horiz-adv-x="520" 
d="M232 -12c-100.667 0 -174.667 41 -222 123l116 87c21.333 -41.333 48.666 -62 81.999 -62c24.667 0 42.834 7.5 54.501 22.5s17.5 42.167 17.5 81.5v410h172v-424c0 -69.333 -18.833 -126.333 -56.5 -171s-92.167 -67 -163.5 -67z" />
    <glyph glyph-name="K" unicode="K" horiz-adv-x="628" 
d="M72 0v650h172v-242h4l164 242h188l-194 -264l232 -386h-188l-144 250l-62 -88v-162h-172z" />
    <glyph glyph-name="L" unicode="L" horiz-adv-x="530" 
d="M72 0v650h172v-506h246v-144h-418z" />
    <glyph glyph-name="M" unicode="M" horiz-adv-x="776" 
d="M72 0v650h184l98 -266l17.5 -58l16.5 -56h4l16.5 56l17.5 58l94 266h184v-650h-156v192c0 35.333 7.33301 112.666 22 231.999h-4l-54 -156l-80 -215h-92l-80 215l-52 156h-4c14.667 -119.333 22 -196.666 22 -231.999v-192h-154z" />
    <glyph glyph-name="N" unicode="N" horiz-adv-x="672" 
d="M72 0v650.001h176l144 -290l62 -146h4c-14.667 128 -22 210.667 -22 248v188h164v-650h-176l-144 291l-62 145h-4c1.33301 -10.667 3.5 -29.667 6.5 -57l7.5 -66.5c2 -17 3.83301 -37.333 5.5 -61s2.5 -44.834 2.5 -63.501v-188h-164z" />
    <glyph glyph-name="O" unicode="O" horiz-adv-x="692" 
d="M346 -12c-91.333 0 -164.5 30.333 -219.5 91s-82.5 143.667 -82.5 249s27.5 187.333 82.5 246s128.167 88 219.5 88s164.5 -29.5 219.5 -88.5s82.5 -140.833 82.5 -245.5c0 -105.333 -27.5 -188.333 -82.5 -249s-128.167 -91 -219.5 -91zM346 136
c38.667 0 69.3301 17.167 91.9971 51.5s34 81.166 34 140.499c0 58.667 -11.167 104.334 -33.5 137.001s-53.166 49 -92.499 49s-70.166 -16.333 -92.499 -49s-33.5 -78.334 -33.5 -137.001c0 -59.333 11.333 -106.166 34 -140.499s53.334 -51.5 92.001 -51.5z" />
    <glyph glyph-name="P" unicode="P" horiz-adv-x="608" 
d="M72 0l-0.000976562 650h238c78.667 0 142.334 -16.833 191.001 -50.5s73 -88.834 73 -165.501c0 -50.667 -12.5 -93.667 -37.5 -129s-56.5 -60.666 -94.5 -75.999s-80.667 -23 -128 -23h-70v-206h-172zM243.999 342h62c66.667 0 100 30.667 100 92
c0 53.333 -34.667 80 -104 80h-58v-172z" />
    <glyph glyph-name="Q" unicode="Q" horiz-adv-x="692" 
d="M346 128c39.333 0 70.166 17.5 92.499 52.5s33.5 84.167 33.5 147.5c0 58.667 -11.167 104.334 -33.5 137.001s-53.166 49 -92.499 49s-70.166 -16.333 -92.499 -49s-33.5 -78.334 -33.5 -137.001c0 -63.333 11.167 -112.5 33.5 -147.5s53.166 -52.5 92.499 -52.5z
M566 -188c-70.667 0 -131.502 16.667 -182.502 50s-89.5 78.333 -115.5 135c-69.333 16 -124 52.833 -164 110.5s-60 131.167 -60 220.5c0 105.333 27.5 187.333 82.5 246s128.167 88 219.5 88s164.5 -29.5 219.5 -88.5s82.5 -140.833 82.5 -245.5
c0 -83.333 -17.667 -153 -53 -209s-84 -94.333 -146 -115c26.667 -37.333 72.334 -56 137.001 -56c26.667 0 51.334 4 74.001 12l30 -124c-30 -16 -71.333 -24 -124 -24z" />
    <glyph glyph-name="R" unicode="R" horiz-adv-x="630" 
d="M72 0v650h246c173.333 0 260 -70 260 -210c0 -87.333 -35 -150 -105 -188l141 -252h-192l-112 218h-66v-218h-172zM244 354h62c69.333 0 104 28.667 104 86c0 27.333 -8.5 46.5 -25.5 57.5s-43.167 16.5 -78.5 16.5h-62v-160z" />
    <glyph glyph-name="S" unicode="S" horiz-adv-x="564" 
d="M278 -12c-42.667 0 -85.833 7.83301 -129.5 23.5s-82.5 38.834 -116.5 69.501l98 118c52 -42 102.667 -63 152 -63s74 15.333 74 46c0 18.667 -24.667 37.667 -74 57c-6 2.66699 -10.667 4.66699 -14 6l-81 34c-38.667 15.333 -70.167 38.333 -94.5 69
s-36.5 68 -36.5 112c0 56.667 22.833 104.5 68.5 143.5s103.5 58.5 173.5 58.5c38.667 0 77.167 -7.33301 115.5 -22s71.833 -36.334 100.5 -65.001l-86 -108c-44.667 31.333 -88 47 -130 47c-45.333 0 -68 -14.667 -68 -44c0 -12.667 6 -22.834 18 -30.501
s32.667 -17.167 62 -28.5c6.66699 -2.66699 12 -4.66699 16 -6l79 -31c84.667 -33.333 127 -92.666 127 -177.999c0 -58 -22.833 -107.167 -68.5 -147.5s-107.5 -60.5 -185.5 -60.5z" />
    <glyph glyph-name="T" unicode="T" horiz-adv-x="564" 
d="M196 0v506h-172v144h516v-144h-172v-506h-172z" />
    <glyph glyph-name="U" unicode="U" horiz-adv-x="672" 
d="M338 -12c-91.333 0 -159.167 26.667 -203.5 80s-66.5 135.333 -66.5 246v336h172v-356c0 -57.333 7.66699 -98 23 -122s40.333 -36 75 -36s60 12.167 76 36.5s24 64.833 24 121.5v356h166v-336c0 -111.333 -21.667 -193.5 -65 -246.5s-110.333 -79.5 -201 -79.5z" />
    <glyph glyph-name="V" unicode="V" horiz-adv-x="572" 
d="M182 0l-192 650.001h182l68 -284c6 -23.333 14 -57.833 24 -103.5s18 -79.834 24 -102.501h4c6.66699 25.333 15.167 61 25.5 107l22.5 99l66 284h176l-192 -650h-208z" />
    <glyph glyph-name="W" unicode="W" horiz-adv-x="824" 
d="M124 0l-113.999 649.999h176l36 -284l11.5 -102c5 -45.333 8.5 -79.333 10.5 -102h4l11.5 64.5l13.5 75.5l11 64l62 284h144l62 -284l36 -204h4c2.66699 26 6.66699 62.833 12 110.5s8.66602 78.834 9.99902 93.501l36 284h164l-108 -650h-218l-50 258
c-8.66699 44.667 -16.667 95.334 -24 152.001h-4c-11.333 -78.667 -19.333 -129.334 -24 -152.001l-48 -258h-214z" />
    <glyph glyph-name="X" unicode="X" horiz-adv-x="588" 
d="M10 0l176 333.999l-166 316h192l44 -106l13.5 -30c5 -11.333 10.5 -24.666 16.5 -39.999s11.333 -28 16 -38h4c10.667 32 24 68 40 108l38 106h184l-166 -324l176 -326h-192l-52 116c-12.667 26.667 -28 62.667 -46 108h-4c-9.33301 -26.667 -23.333 -62.667 -42 -108
l-48 -116h-184z" />
    <glyph glyph-name="Y" unicode="Y" horiz-adv-x="544" 
d="M186 0v224l-196 426h184l48 -136l25.5 -75.5l23.5 -69.5h4l27.5 79c11.667 33.333 19.5 55.333 23.5 66l48 136h180l-196 -426v-224h-172z" />
    <glyph glyph-name="Z" unicode="Z" horiz-adv-x="542" 
d="M32 0v104l266 402h-240v144h452v-104l-266 -402h268v-144h-480z" />
    <glyph glyph-name="bracketleft" unicode="[" horiz-adv-x="360" 
d="M84 -152v860h224v-90h-96v-680h96v-90h-224z" />
    <glyph glyph-name="backslash" unicode="\" horiz-adv-x="334" 
d="M210 -160l-176 870h110l176 -870h-110z" />
    <glyph glyph-name="bracketright" unicode="]" horiz-adv-x="360" 
d="M52 -152v90h96v680h-96v90h224v-860h-224z" />
    <glyph glyph-name="asciicircum" unicode="^" horiz-adv-x="540" 
d="M46 270l156 400h136l156 -400h-140l-38 110l-44 136h-4l-44 -136l-38 -110h-140z" />
    <glyph glyph-name="underscore" unicode="_" horiz-adv-x="500" 
d="M12 -146v94h476v-94h-476z" />
    <glyph glyph-name="grave" unicode="`" horiz-adv-x="560" 
d="M260 572l-190 158l116 114l158 -188z" />
    <glyph glyph-name="a" unicode="a" horiz-adv-x="536" 
d="M188 -12c-45.333 0 -81.666 15 -108.999 45s-41 66.333 -41 109c0 52.667 21.5 93.667 64.5 123s112.167 49 207.5 59c-4 34.667 -27.333 52 -70 52c-32 0 -74 -14 -126 -42l-60 112c73.333 44 146.666 66 219.999 66c138.667 0 208 -78 208 -234v-278h-140l-12 48h-4
c-44.667 -40 -90.667 -60 -138 -60zM248 120c20.667 0 41.333 11.333 62 34v68c-72 -10.667 -108 -32.667 -108 -66c0 -24 15.333 -36 46 -36z" />
    <glyph glyph-name="b" unicode="b" horiz-adv-x="580" 
d="M336 -12c-46 0 -88.001 22 -126.001 66h-4l-14 -54h-134v696h172v-162l-4 -72c36.667 33.333 77.667 50 123 50c58.667 0 105.834 -23 141.501 -69s53.5 -107.333 53.5 -184c0 -82.667 -20.667 -148.5 -62 -197.5s-90 -73.5 -146 -73.5zM293.999 128
c49.333 0 74 42.667 74 128c0 77.333 -23.333 116 -70 116c-25.333 0 -48 -12 -68 -36v-184c18 -16 39.333 -24 64 -24z" />
    <glyph glyph-name="c" unicode="c" horiz-adv-x="472" 
d="M284 -12c-73.333 0 -133.667 23.5 -181 70.5s-71 110.833 -71 191.5c0 80 26 143.667 78 191s115.333 71 190 71c56 0 104.667 -17.333 146 -52l-80 -110c-19.333 16 -38 24 -56 24c-32 0 -57 -11.167 -75 -33.5s-27 -52.5 -27 -90.5c0 -37.333 9.16699 -67.333 27.5 -90
s41.166 -34 68.499 -34c24.667 0 51.334 10.667 80.001 32l66 -112c-44 -38.667 -99.333 -58 -166 -58z" />
    <glyph glyph-name="d" unicode="d" horiz-adv-x="580" 
d="M240 -12c-62 0 -111.5 23.5 -148.5 70.5s-55.5 110.833 -55.5 191.5c0 78.667 20.5 142 61.5 190s88.5 72 142.5 72c44 0 82.667 -16.667 116 -50l-6 72v162h172v-696h-140l-12 46h-4c-38.667 -38.667 -80.667 -58 -126 -58zM286 128c27.333 0 48.667 11.999 64 35.999
v184c-18 16 -40.667 24 -68 24c-20 0 -36.667 -9.66699 -50 -29s-20 -49.666 -20 -90.999c0 -82.667 24.667 -124 74 -124z" />
    <glyph glyph-name="e" unicode="e" horiz-adv-x="526" 
d="M290 -12c-75.333 0 -137.166 23.5 -185.499 70.5s-72.5 110.833 -72.5 191.5c0 78 24 141.167 72 189.5s104 72.5 168 72.5c70.667 0 124.667 -22.667 162 -68s56 -103.333 56 -174c0 -29.333 -2.33301 -53.333 -7 -72h-285c14 -53.333 52.667 -80 116 -80
c32 0 66 10 102 30l56 -102c-54.667 -38.667 -115.334 -58 -182.001 -58zM196 310h148c0 48 -22.667 72 -68 72c-20 0 -37.167 -6 -51.5 -18s-23.833 -30 -28.5 -54z" />
    <glyph glyph-name="f" unicode="f" horiz-adv-x="360" 
d="M88 0l0.000976562 366h-66v128l66 5v7c0 59.333 15.667 107.833 47 145.5s81.666 56.5 150.999 56.5c38 0 73.333 -6 106 -18l-30 -126c-18 6.66699 -34.667 10 -50 10c-34.667 0 -52 -20.667 -52 -62v-12h84v-134h-84v-366h-172z" />
    <glyph glyph-name="g" unicode="g" horiz-adv-x="546" 
d="M240 -206c-62 0 -112.499 10.0029 -151.499 30.0029s-58.5 51.333 -58.5 94c0 39.333 23.333 71.333 70 96v4c-30.667 21.333 -46 50 -46 86s18.667 67.333 56 94v4c-19.333 13.333 -35.5 31.166 -48.5 53.499s-19.5 47.166 -19.5 74.499
c0 58.667 20.833 103.667 62.5 135s92.167 47 151.5 47c29.333 0 56 -4 80 -12h186v-124h-72c5.33301 -16 8 -33.333 8 -52c0 -56 -18.667 -97.667 -56 -125s-86 -41 -146 -41c-16.667 0 -35.334 2.33301 -56.001 7c-8 -7.33301 -12 -17 -12 -29
c0 -10.667 5.33301 -18.334 16 -23.001s28.667 -7 54 -7h75c131.333 0 197 -43.333 197 -130c0 -54.667 -26.333 -98.667 -79 -132s-123 -50 -211 -50zM256.001 260.003c36 0 54.002 23.333 54.002 70c0 22 -4.83301 38.833 -14.5 50.5s-22.834 17.5 -39.501 17.5
s-29.834 -5.83301 -39.501 -17.5s-14.5 -28.5 -14.5 -50.5c0 -46.667 18 -70 54 -70zM268.003 -99.9971c28.667 0 52.167 4.16699 70.5 12.5s27.5 19.5 27.5 33.5c0 12 -5.16699 20 -15.5 24s-27.5 6 -51.5 6h-39c-34 0 -58 2 -72 6c-12 -12 -18 -24 -18 -36
c0 -30.667 32.667 -46 98 -46z" />
    <glyph glyph-name="h" unicode="h" horiz-adv-x="582" 
d="M58 0l-0.000976562 696h172v-162l-8 -86c48.667 42.667 98.667 64 150 64c104 0 156 -68 156 -204v-308h-172v286c0 30.667 -3.83301 51.667 -11.5 63s-20.5 17 -38.5 17c-23.333 0 -48.666 -12.667 -75.999 -38v-328h-172z" />
    <glyph glyph-name="i" unicode="i" horiz-adv-x="288" 
d="M50 639c0 24.667 8.66699 45.834 26 63.501s38.666 26.5 63.999 26.5s46.666 -8.83301 63.999 -26.5s26 -38.834 26 -63.501s-8.66699 -45.834 -26 -63.501s-38.666 -26.5 -63.999 -26.5s-46.666 8.83301 -63.999 26.5s-26 38.834 -26 63.501zM58 0v500h172v-500h-172z
" />
    <glyph glyph-name="j" unicode="j" horiz-adv-x="290" 
d="M50 639c0 24.667 8.66699 45.834 26 63.501s38.666 26.5 63.999 26.5s46.666 -8.83301 63.999 -26.5s26 -38.834 26 -63.501s-8.66699 -45.834 -26 -63.501s-38.666 -26.5 -63.999 -26.5s-46.666 8.83301 -63.999 26.5s-26 38.834 -26 63.501zM38 -188
c-37.333 0 -68.667 4.66699 -94 14l30 126c14 -4 26 -6 36 -6c18 0 30.833 5.66699 38.5 17s11.5 30.333 11.5 57v480h172v-474c0 -63.333 -15 -114.833 -45 -154.5s-79.667 -59.5 -149 -59.5z" />
    <glyph glyph-name="k" unicode="k" horiz-adv-x="568" 
d="M58 0v696h168v-370h4l138 174h186l-178 -208l188 -292h-186l-100 178l-52 -58v-120h-168z" />
    <glyph glyph-name="l" unicode="l" horiz-adv-x="298" 
d="M201 -12c-103.333 0 -154.667 62.667 -154 188l1 366l171 46v-418c0 -15.333 2.83301 -26.5 8.5 -33.5s12.167 -10.5 19.5 -10.5c6.66699 0 12.667 0.666992 18 2l20 -126c-20.667 -9.33301 -48.667 -14 -84 -14z" />
    <glyph glyph-name="m" unicode="m" horiz-adv-x="868" 
d="M58 0l-0.00488281 500h140l12 -61h4c24 23.333 47.333 41.333 70 54s49.334 19 80.001 19c64 0 110 -26.667 138 -80c24.667 25.333 48.834 45 72.501 59s50.834 21 81.501 21c53.333 0 93 -18 119 -54s39 -86 39 -150v-308h-172v286c0 30.667 -3.83301 51.667 -11.5 63
s-20.5 17 -38.5 17c-21.333 0 -44.666 -12.667 -69.999 -38v-328h-172v286c0 30.667 -3.83301 51.667 -11.5 63s-20.5 17 -38.5 17c-21.333 0 -44.666 -12.667 -69.999 -38v-328h-172z" />
    <glyph glyph-name="n" unicode="n" horiz-adv-x="582" 
d="M58 0l-0.00195312 500h140l12 -60h4c50.667 48 103.334 72 158.001 72c104 0 156 -68 156 -204v-308h-172v286c0 30.667 -3.83301 51.667 -11.5 63s-20.5 17 -38.5 17c-23.333 0 -48.666 -12.667 -75.999 -38v-328h-172z" />
    <glyph glyph-name="o" unicode="o" horiz-adv-x="560" 
d="M280 -12c-67.333 0 -125.5 23.833 -174.5 71.5s-73.5 111.167 -73.5 190.5s24.5 142.833 73.5 190.5s107.167 71.5 174.5 71.5s125.5 -23.833 174.5 -71.5s73.5 -111.167 73.5 -190.5s-24.5 -142.833 -73.5 -190.5s-107.167 -71.5 -174.5 -71.5zM280 126
c48 0 72 41.333 72 124s-24 124 -72 124s-72 -41.333 -72 -124s24 -124 72 -124z" />
    <glyph glyph-name="p" unicode="p" horiz-adv-x="580" 
d="M58 -176l-0.000976562 676h140l12 -46h4c42 38.667 87.333 58 136 58c58.667 0 105.667 -23 141 -69s53 -107.667 53 -185c0 -82 -20.667 -147.5 -62 -196.5s-90 -73.5 -146 -73.5c-41.333 0 -78.666 16.667 -111.999 50l6 -76v-138h-172zM293.999 128
c49.333 0 74 42.667 74 128c0 77.333 -23.333 116 -70 116c-25.333 0 -48 -12 -68 -36v-184c18 -16 39.333 -24 64 -24z" />
    <glyph glyph-name="q" unicode="q" horiz-adv-x="580" 
d="M350 -176v143l6 71c-33.333 -33.333 -72 -50 -116 -50c-62 0 -111.5 23.5 -148.5 70.5s-55.5 110.833 -55.5 191.5c0 78.667 20.5 142 61.5 190s88.5 72 142.5 72c50.667 0 94 -20.667 130 -62h4l14 50h134v-676h-172zM286 128c27.333 0 48.667 11.999 64 35.999v184
c-18 16 -40.667 24 -68 24c-20 0 -36.667 -9.66699 -50 -29s-20 -49.666 -20 -90.999c0 -82.667 24.667 -124 74 -124z" />
    <glyph glyph-name="r" unicode="r" horiz-adv-x="418" 
d="M58 0v500.001h140l12 -86h4c17.333 32.667 38.833 57.167 64.5 73.5s51.5 24.5 77.5 24.5s46.667 -3.33301 62 -10l-28 -148c-24 5.33301 -42.667 8 -56 8c-20 0 -39.5 -6.83301 -58.5 -20.5s-34.167 -34.834 -45.5 -63.501v-278h-172z" />
    <glyph glyph-name="s" unicode="s" horiz-adv-x="452" 
d="M212 -12c-32 0 -65.833 6.5 -101.5 19.5s-66.5 29.833 -92.5 50.5l76 106c45.333 -33.333 86 -50 122 -50c33.333 0 50 10 50 30c0 4.66699 -1.5 9.16699 -4.5 13.5s-8.33301 8.66602 -16 12.999s-14 7.66602 -19 9.99902s-14.333 6 -28 11l-28.5 10.5
c-84 33.333 -126 82.666 -126 147.999c0 48.667 18.167 87.834 54.5 117.501s84.166 44.5 143.499 44.5c64 0 125.333 -22 184 -66l-76 -102c-38.667 28 -72.667 42 -102 42s-44 -9.33301 -44 -28c0 -3.33301 0.833008 -6.66602 2.5 -9.99902s4.33398 -6.33301 8.00098 -9
l10.5 -7.5c3.33301 -2.33301 8.33301 -4.66602 15 -6.99902l17 -6l20 -7l21 -7.5c85.333 -31.333 128 -81.333 128 -150c0 -48.667 -18.667 -88.5 -56 -119.5s-90 -46.5 -158 -46.5z" />
    <glyph glyph-name="t" unicode="t" horiz-adv-x="400" 
d="M264 -12c-62.667 0 -109 18 -139 54s-45 86 -45 150v174h-66v128l76 6l20 130h142v-130h114v-134h-114v-171c0 -48.667 20 -73 60 -73c13.333 0 28 2.66699 44 8l26 -124c-38.667 -12 -78 -18 -118 -18z" />
    <glyph glyph-name="u" unicode="u" horiz-adv-x="578" 
d="M210 -12c-104 0 -156.001 68 -156.001 204v308h172v-286c0 -30.667 3.83301 -51.667 11.5 -63s20.5 -17 38.5 -17c28 0 52 14.667 72 44v322h172v-500h-140l-12 66h-4c-43.333 -52 -94.666 -78 -153.999 -78z" />
    <glyph glyph-name="v" unicode="v" horiz-adv-x="544" 
d="M176 0l-164 500h172l54 -218l36 -156h4l36 156l54 218h164l-158 -500h-198z" />
    <glyph glyph-name="w" unicode="w" horiz-adv-x="798" 
d="M144 0l-120 500.001h170l38 -210c2.66699 -17.333 6 -42.833 10 -76.5s7.33301 -58.834 10 -75.501h4c10.667 69.333 20 120 28 152l46 210h146l48 -210c2.66699 -10.667 12.667 -61.334 30 -152.001h4c2.66699 16.667 6 41.834 10 75.501s7.33301 59.167 10 76.5l38 210
h158l-114 -500h-200l-36 174c-10.667 61.333 -18.667 110.333 -24 147h-4c-12 -83.333 -19.333 -132.333 -22 -147l-34 -174h-196z" />
    <glyph glyph-name="x" unicode="x" horiz-adv-x="540" 
d="M14 0l150 260.001l-142 240h184l36 -70c4 -9.33301 10.5 -23.666 19.5 -42.999l20.5 -43h4c2.66699 9.33301 7.5 23.666 14.5 42.999l15.5 43l24 70h178l-142 -260l150 -240h-184l-40 70c-5.33301 9.33301 -12.833 23.666 -22.5 42.999l-21.5 43h-4l-15.5 -38
c-8.33301 -20.667 -14.5 -36.667 -18.5 -48l-28 -70h-178z" />
    <glyph glyph-name="y" unicode="y" horiz-adv-x="542" 
d="M132 -188c-26 0 -51.333 3.33301 -76 10l30 130c18 -4 28.667 -6 32 -6c40.667 0 66.667 16.667 78 50l6 22l-190 482h172l60 -192c6 -20 18 -67.333 36 -142h4c12 56 22.667 103.333 32 142l50 192h164l-168 -492c-27.333 -70.667 -57.5 -121 -90.5 -151
s-79.5 -45 -139.5 -45z" />
    <glyph glyph-name="z" unicode="z" horiz-adv-x="474" 
d="M40 0v92l190 274h-168v134h382v-92l-190 -274h196v-134h-410z" />
    <glyph glyph-name="braceleft" unicode="{" horiz-adv-x="360" 
d="M238 -152c-46.667 0 -80.334 10.8369 -101.001 32.5039s-31 59.5 -31 113.5c0 24 1.66699 52 5 84s5 58 5 78c0 19.333 -7 36 -21 50s-35.667 21.333 -65 22v100c29.333 0.666992 51 8 65 22s21 30.667 21 50c0 20 -1.66699 46 -5 78s-5 60 -5 84
c0 54 10.333 91.833 31 113.5s54.334 32.5 101.001 32.5h70v-90h-16c-18.667 0 -31.334 -4 -38.001 -12s-10 -24.667 -10 -50c0 -16.667 0.666992 -41.834 2 -75.501s2 -60.5 2 -80.5c0 -38.667 -6.33301 -66.834 -19 -84.501s-33 -29.5 -61 -35.5v-4
c28 -6 48.333 -17.833 61 -35.5s19 -45.834 19 -84.501c0 -20 -0.666992 -46.833 -2 -80.5s-2 -58.834 -2 -75.501c0 -25.333 3.33301 -42 10 -50s19.334 -12 38.001 -12h16v-90h-70z" />
    <glyph glyph-name="bar" unicode="|" horiz-adv-x="278" 
d="M84 -250v1000h110v-1000h-110z" />
    <glyph glyph-name="braceright" unicode="}" horiz-adv-x="360" 
d="M52 -152v89.9961h16c18.667 0 31.334 4 38.001 12s10 24.667 10 50c0 16.667 -0.666992 41.834 -2 75.501s-2 60.5 -2 80.5c0 38.667 6.33301 66.834 19 84.501s33 29.5 61 35.5v4c-28 6 -48.333 17.833 -61 35.5s-19 45.834 -19 84.501c0 20 0.666992 46.833 2 80.5
s2 58.834 2 75.501c0 25.333 -3.33301 42 -10 50s-19.334 12 -38.001 12h-16v90h70c46.667 0 80.334 -10.833 101.001 -32.5s31 -59.5 31 -113.5c0 -24 -1.66699 -52 -5 -84s-5 -58 -5 -78c0 -19.333 7 -36 21 -50s35.667 -21.333 65 -22v-100
c-29.333 -0.666992 -51 -8 -65 -22s-21 -30.667 -21 -50c0 -20 1.66699 -46 5 -78s5 -60 5 -84c0 -54 -10.333 -91.833 -31 -113.5s-54.334 -32.5 -101.001 -32.5h-70z" />
    <glyph glyph-name="asciitilde" unicode="~" horiz-adv-x="540" 
d="M354 234c-24 0 -46.333 6 -67 18s-39.334 24 -56.001 36s-32.334 18 -47.001 18c-24.667 0 -48 -18.667 -70 -56l-88 68c48.667 72 102 108 160 108c24 0 46.333 -6 67 -18s39.334 -24 56.001 -36s32.334 -18 47.001 -18c24.667 0 48 18.667 70 56l88 -68
c-48.667 -72 -102 -108 -160 -108z" />
    <glyph glyph-name="uni00A0" unicode="&#xa0;" horiz-adv-x="210" 
 />
    <glyph glyph-name="exclamdown" unicode="&#xa1;" horiz-adv-x="360" 
d="M94 -170l6 148l24 278h112l24 -278l6 -148h-172zM180 304c-28.667 0 -52.5 10 -71.5 30s-28.5 44.667 -28.5 74s9.5 54 28.5 74s42.833 30 71.5 30s52.5 -10 71.5 -30s28.5 -44.667 28.5 -74s-9.5 -54 -28.5 -74s-42.833 -30 -71.5 -30z" />
    <glyph glyph-name="cent" unicode="&#xa2;" horiz-adv-x="540" 
d="M226 306c0 -50.667 18 -86.333 54 -107v214c-36 -19.333 -54 -55 -54 -107zM280 -43.999v91.001c-68 9.33301 -121.667 36.666 -161 81.999s-59 104.333 -59 177c0 69.333 20.167 126.333 60.5 171s93.5 73 159.5 85v94h92v-89c49.333 -4.66699 90 -23 122 -55l-78 -106
c-15.333 12 -30 19.667 -44 23v-245c19.333 4 39.333 14 60 30l68 -108c-36 -31.333 -78.667 -51 -128 -59v-91h-92z" />
    <glyph glyph-name="sterling" unicode="&#xa3;" horiz-adv-x="540" 
d="M46 0l-0.000976562 106.001c30.667 13.333 56 32.5 76 57.5s30 53.833 30 86.5c0 7.33301 -0.333008 12.666 -1 15.999h-99v98l68 6h2c-8 25.333 -12 46 -12 62c0 64.667 21 116.5 63 155.5s95.667 58.5 161 58.5c72 0 132 -28 180 -84l-92 -92
c-21.333 25.333 -44.666 38 -69.999 38c-52 0 -78 -28.667 -78 -86c0 -10.667 2 -28 6 -52h144v-104h-123c0.666992 -4 1 -10 1 -18c0 -36 -12.667 -69.333 -38 -100v-4h250v-144h-468z" />
    <glyph glyph-name="currency" unicode="&#xa4;" horiz-adv-x="540" 
d="M102 76l-85 85.001l60 60c-22 31.333 -33 67.666 -33 108.999c0 40.667 10.667 76.334 32 107.001l-59 60l85 85l70 -70c32 13.333 64.667 20 98 20s66 -6.66699 98 -20l70 70l85 -85l-60 -60c22 -30.667 33 -66.334 33 -107.001c0 -40 -11.333 -76.333 -34 -109l61 -60
l-85 -85l-71 71c-30 -12.667 -62.333 -19 -97 -19s-67 6.33301 -97 19zM270 246.001c21.333 0 39 7.66699 53 23s21 35.666 21 60.999s-7 45.666 -21 60.999s-31.667 23 -53 23s-39 -7.66699 -53 -23s-21 -35.666 -21 -60.999s7 -45.666 21 -60.999s31.667 -23 53 -23z" />
    <glyph glyph-name="yen" unicode="&#xa5;" horiz-adv-x="540" 
d="M184 0v141.999h-150v80h150v50h-150v80h114l-140 282h176l40 -118c20 -58.667 35.333 -102 46 -130h4c4.66699 14.667 12.167 36.334 22.5 65.001l23.5 65l40 118h172l-140 -282h114v-80h-150v-50h150v-80h-150v-142h-172z" />
    <glyph glyph-name="brokenbar" unicode="&#xa6;" horiz-adv-x="278" 
d="M84 320v430h110v-430h-110zM84 -250v450h110v-450h-110z" />
    <glyph glyph-name="section" unicode="&#xa7;" horiz-adv-x="540" 
d="M178 332c0 -12.667 5.33301 -24.333 16 -35s22 -19.167 34 -25.5s30.167 -14.833 54.5 -25.5s42.5 -19 54.5 -25c16.667 12 25 28.333 25 49c0 10 -2.83301 19.333 -8.5 28s-14.5 16.667 -26.5 24s-23.5 13.5 -34.5 18.5l-45 19.5c-19 8 -33.833 14.667 -44.5 20
c-16.667 -12.667 -25 -28.667 -25 -48zM242 -91.999c-39.333 0 -77.3311 7.66992 -113.998 23.0029s-66 37.666 -88 66.999l98 86c31.333 -33.333 66 -50 104 -50c33.333 0 50 10.667 50 32c0 11.333 -8.83301 22 -26.5 32s-39.167 20.333 -64.5 31
s-50.666 23.167 -75.999 37.5s-46.833 34.666 -64.5 60.999s-26.5 57.166 -26.5 92.499c0 23.333 6.83301 46.5 20.5 69.5s32.5 42.167 56.5 57.5c-18 23.333 -27 51 -27 83c0 49.333 16.833 88.666 50.5 117.999s79.5 44 137.5 44c68.667 0 132 -22.667 190 -68l-78 -106
c-36.667 32 -70.667 48 -102 48c-29.333 0 -44 -10 -44 -30c0 -10 9.16699 -20 27.5 -30s40.666 -20.667 66.999 -32s52.666 -24.333 78.999 -39s48.666 -35.167 66.999 -61.5s27.5 -56.166 27.5 -89.499c0 -55.333 -27 -100.333 -81 -135c14 -21.333 21 -46.333 21 -75
c0 -49.333 -17.5 -89.333 -52.5 -120s-85.5 -46 -151.5 -46z" />
    <glyph glyph-name="dieresis" unicode="&#xa8;" horiz-adv-x="560" 
d="M166 562c-23.333 0 -42.5 7.66699 -57.5 23s-22.5 34.333 -22.5 57s7.5 41.667 22.5 57s34.167 23 57.5 23s42.5 -7.66699 57.5 -23s22.5 -34.333 22.5 -57s-7.5 -41.667 -22.5 -57s-34.167 -23 -57.5 -23zM394 562c-23.333 0 -42.5 7.66699 -57.5 23
s-22.5 34.333 -22.5 57s7.5 41.667 22.5 57s34.167 23 57.5 23s42.5 -7.66699 57.5 -23s22.5 -34.333 22.5 -57s-7.5 -41.667 -22.5 -57s-34.167 -23 -57.5 -23z" />
    <glyph glyph-name="copyright" unicode="&#xa9;" horiz-adv-x="752" 
d="M376 -8c-92.667 0 -171.167 30.499 -235.5 91.499s-96.5 141.833 -96.5 242.5s32.167 180.834 96.5 240.501s142.833 89.5 235.5 89.5s171.167 -30 235.5 -90s96.5 -140 96.5 -240c0 -100.667 -32.167 -181.5 -96.5 -242.5s-142.833 -91.5 -235.5 -91.5zM376 59.999
c74 0 135.167 24.5 183.5 73.5s72.5 113.167 72.5 192.5c0 78.667 -24.167 142 -72.5 190s-109.5 72 -183.5 72s-135.167 -24 -183.5 -72s-72.5 -111.333 -72.5 -190c0 -79.333 24.167 -143.5 72.5 -192.5s109.5 -73.5 183.5 -73.5zM390 127.999
c-58.667 0 -106.334 17.832 -143.001 53.499s-55 83.167 -55 142.5c0 57.333 19.333 104 58 140s84.667 54 138 54c50.667 0 96 -20 136 -60l-63 -70c-20 21.333 -40.333 32 -61 32c-28 0 -49.5 -9.16699 -64.5 -27.5s-22.5 -41.166 -22.5 -68.499
c0 -30 7.33301 -53.833 22 -71.5s34.334 -26.5 59.001 -26.5c21.333 0 45.333 10 72 30l54 -78c-42 -33.333 -85.333 -50 -130 -50z" />
    <glyph glyph-name="ordfeminine" unicode="&#xaa;" horiz-adv-x="364" 
d="M128 360c-30.667 0 -55.332 10.001 -73.999 30.001s-28 44 -28 72c0 35.333 14.5 62.666 43.5 81.999s75.167 32 138.5 38c-2.66699 21.333 -17.334 32 -44.001 32c-21.333 0 -50 -9.33301 -86 -28l-42 78c50 29.333 100 44 150 44c44.667 0 79.5 -12.833 104.5 -38.5
s37.5 -64.167 37.5 -115.5v-186h-96l-10 32h-4c-26.667 -26.667 -56.667 -40 -90 -40zM169.002 450.001c12.667 0 25.667 6.66699 39 20v44c-45.333 -5.33301 -68 -19.333 -68 -42c0 -14.667 9.66699 -22 29 -22z" />
    <glyph glyph-name="guillemotleft" unicode="&#xab;" horiz-adv-x="500" 
d="M184 52l-134 140v120l134 140l62 -50l-108 -150l108 -150zM384 52l-134 140v120l134 140l62 -50l-108 -150l108 -150z" />
    <glyph glyph-name="logicalnot" unicode="&#xac;" horiz-adv-x="540" 
d="M382 90v180h-348v120h472v-300h-124z" />
    <glyph glyph-name="uni00AD" unicode="&#xad;" horiz-adv-x="340" 
d="M44 194v120h252v-120h-252z" />
    <glyph glyph-name="registered" unicode="&#xae;" horiz-adv-x="477" 
d="M238 308c-56.667 0 -104.5 19.333 -143.5 58s-58.5 87.334 -58.5 146.001s19.5 107.334 58.5 146.001s86.833 58 143.5 58s104.5 -19.333 143.5 -58s58.5 -87.334 58.5 -146.001s-19.5 -107.334 -58.5 -146.001s-86.833 -58 -143.5 -58zM238 362
c42.667 0 77 13.667 103 41s39 63.666 39 108.999s-13 81.666 -39 108.999s-60.333 41 -103 41s-77 -13.667 -103 -41s-39 -63.666 -39 -108.999s13 -81.666 39 -108.999s60.333 -41 103 -41zM154 416v193.999h94c24.667 0 44.5 -5.66699 59.5 -17
s22.5 -27.666 22.5 -48.999c0 -24.667 -11.333 -42.667 -34 -54l40 -74h-66l-28 56h-24v-56h-64zM218 514.999h18c8.66699 0 15.167 2.5 19.5 7.5s6.5 10.833 6.5 17.5s-2.33301 12.167 -7 16.5s-11 6.5 -19 6.5h-18v-48z" />
    <glyph glyph-name="macron" unicode="&#xaf;" horiz-adv-x="560" 
d="M126 588v108h308v-108h-308z" />
    <glyph glyph-name="degree" unicode="&#xb0;" horiz-adv-x="378" 
d="M190 386c-43.333 0 -79.5 14.333 -108.5 43s-43.5 64.334 -43.5 107.001s14.5 78.334 43.5 107.001s65.167 43 108.5 43s79.5 -14.333 108.5 -43s43.5 -64.334 43.5 -107.001s-14.5 -78.334 -43.5 -107.001s-65.167 -43 -108.5 -43zM190 466
c19.333 0 34.833 6.5 46.5 19.5s17.5 29.833 17.5 50.5s-5.83301 37.5 -17.5 50.5s-27.167 19.5 -46.5 19.5s-34.833 -6.5 -46.5 -19.5s-17.5 -29.833 -17.5 -50.5s5.83301 -37.5 17.5 -50.5s27.167 -19.5 46.5 -19.5z" />
    <glyph glyph-name="plusminus" unicode="&#xb1;" horiz-adv-x="540" 
d="M208 170v120h-174v120h174v160h124v-160h174v-120h-174v-120h-124zM34 0v120h472v-120h-472z" />
    <glyph glyph-name="two.sups" unicode="&#xb2;" horiz-adv-x="380" 
d="M42 368l0.000976562 66.001c54 42 95.167 77.5 123.5 106.5s42.5 53.5 42.5 73.5c0 36 -16.667 54 -50 54c-20.667 0 -42.667 -14.667 -66 -44l-70 64c42.667 54.667 94.667 82 156 82c45.333 0 81.666 -12 108.999 -36s41 -56.667 41 -98
c0 -18.667 -4.83301 -38.334 -14.5 -59.001s-19.5 -37.667 -29.5 -51s-24.667 -31.333 -44 -54h100v-104h-298z" />
    <glyph glyph-name="three.sups" unicode="&#xb3;" horiz-adv-x="380" 
d="M188 356c-74 0 -128.668 26.667 -164.001 80l74 58c22 -29.333 47.333 -44 76 -44c14 0 25.5 3.33301 34.5 10s13.5 16 13.5 28c0 29.333 -27.333 44 -82 44v70c45.333 0 68 13.333 68 40c0 22.667 -13.333 34 -40 34c-19.333 0 -38.666 -12 -57.999 -36l-70 62
c23.333 24.667 46.333 42.167 69 52.5s49.667 15.5 81 15.5c38.667 0 71.667 -10.167 99 -30.5s41 -46.833 41 -79.5c0 -36 -17.333 -65.333 -52 -88c44 -20.667 66 -52 66 -94c0 -35.333 -15.5 -64.5 -46.5 -87.5s-67.5 -34.5 -109.5 -34.5z" />
    <glyph glyph-name="acute" unicode="&#xb4;" horiz-adv-x="560" 
d="M300 572l-84 84l158 188l116 -114z" />
    <glyph glyph-name="uni00B5" unicode="&#xb5;" horiz-adv-x="606" 
d="M58 -176l0.000976562 676.003h172v-286c0 -30.667 3.83301 -51.667 11.5 -63s20.5 -17 38.5 -17c27.333 0 50 18 68 54v312h174c-0.666992 -24.667 -2.16699 -62.334 -4.5 -113.001s-4.16602 -94.334 -5.49902 -131.001s-2 -65.334 -2 -86.001c0 -29.333 16 -44 48 -44
c11.333 0 22 2 32 6l20 -126c-28.667 -12 -61.334 -18 -98.001 -18c-75.333 0 -123.333 26 -144 78h-4c-20.667 -48 -52 -72 -94 -72c-22.667 0 -39.334 4.66699 -50.001 14c2.66699 -76 6.66699 -137.333 12 -184h-174z" />
    <glyph glyph-name="paragraph" unicode="&#xb6;" horiz-adv-x="666" 
d="M398 -80v730h172v-730h-172zM298 186c-73.333 0 -135 21 -185 63s-75 100.333 -75 175c0 80 23.833 137.667 71.5 173s110.5 53 188.5 53h44v-464h-44z" />
    <glyph glyph-name="periodcentered" unicode="&#xb7;" horiz-adv-x="320" 
d="M160 216c-28.667 0 -52.5 10 -71.5 30s-28.5 44.667 -28.5 74s9.5 54 28.5 74s42.833 30 71.5 30s52.5 -10 71.5 -30s28.5 -44.667 28.5 -74s-9.5 -54 -28.5 -74s-42.833 -30 -71.5 -30z" />
    <glyph glyph-name="cedilla" unicode="&#xb8;" horiz-adv-x="560" 
d="M172 -244l-12 66c38 2 64.167 6 78.5 12s21.5 16 21.5 30c0 20 -25.333 33.333 -76 40l50 100h98l-28 -64c52 -12 78 -37.333 78 -76c0 -68 -70 -104 -210 -108z" />
    <glyph glyph-name="one.sups" unicode="&#xb9;" horiz-adv-x="380" 
d="M162 368v270h-90v76c44 6 83.333 20.667 118 44h98v-390h-126z" />
    <glyph glyph-name="ordmasculine" unicode="&#xba;" horiz-adv-x="376" 
d="M188 360c-45.333 0 -84.333 15.833 -117 47.5s-49 73.5 -49 125.5c0 52.667 16.333 95 49 127s71.667 48 117 48s84.333 -16 117 -48s49 -74.333 49 -127c0 -52 -16.333 -93.833 -49 -125.5s-71.667 -47.5 -117 -47.5zM188 454c29.333 0 44 26.333 44 79
c0 54 -14.667 81 -44 81s-44 -27 -44 -81c0 -52.667 14.667 -79 44 -79z" />
    <glyph glyph-name="guillemotright" unicode="&#xbb;" horiz-adv-x="500" 
d="M116 52l-62 50l108 150l-108 150l62 50l134 -140v-120zM316 52l-62 50l108 150l-108 150l62 50l134 -140v-120z" />
    <glyph glyph-name="onequarter" unicode="&#xbc;" horiz-adv-x="820" 
d="M130 260v270h-90v76c44 6 83.333 20.667 118 44h98v-390h-126zM188 -12l348 674h96l-348 -674h-96zM652 0v80h-180v62l132 248h158v-230h58v-80h-58v-80h-110zM584 160h68v30l6 120h-4l-36 -76z" />
    <glyph glyph-name="onehalf" unicode="&#xbd;" horiz-adv-x="860" 
d="M130 260v270h-90v76c44 6 83.333 20.667 118 44h98v-390h-126zM174 -12l348 674h96l-348 -674h-96zM522 0l0.000976562 66.001c54 42 95.167 77.5 123.5 106.5s42.5 53.5 42.5 73.5c0 36 -16.667 54 -50 54c-20.667 0 -42.667 -14.667 -66 -44l-70 64
c42.667 54.667 94.667 82 156 82c45.333 0 81.666 -12 108.999 -36s41 -56.667 41 -98c0 -18.667 -4.83301 -38.334 -14.5 -59.001s-19.5 -37.667 -29.5 -51s-24.667 -31.333 -44 -54h100v-104h-298z" />
    <glyph glyph-name="threequarters" unicode="&#xbe;" horiz-adv-x="826" 
d="M184 248c-74 0 -128.668 26.667 -164.001 80l74 58c22 -29.333 47.333 -44 76 -44c14 0 25.5 3.33301 34.5 10s13.5 16 13.5 28c0 29.333 -27.333 44 -82 44v70c45.333 0 68 13.333 68 40c0 22.667 -13.333 34 -40 34c-19.333 0 -38.666 -12 -57.999 -36l-70 62
c23.333 24.667 46.333 42.167 69 52.5s49.667 15.5 81 15.5c38.667 0 71.667 -10.167 99 -30.5s41 -46.833 41 -79.5c0 -36 -17.333 -65.333 -52 -88c44 -20.667 66 -52 66 -94c0 -35.333 -15.5 -64.5 -46.5 -87.5s-67.5 -34.5 -109.5 -34.5zM203.999 -12l348 674h96
l-348 -674h-96zM657.999 0v80h-180v62l132 248h158v-230h58v-80h-58v-80h-110zM589.999 160h68v30l6 120h-4l-36 -76z" />
    <glyph glyph-name="questiondown" unicode="&#xbf;" horiz-adv-x="478" 
d="M238 -182c-59.333 0 -107.168 14.333 -143.501 43s-54.5 73 -54.5 133c0 22 5 42.667 15 62s22 36.333 36 51l41.5 43.5c13.667 14.333 24.834 30.5 33.501 48.5s12 37 10 57h150c4 -24 2.5 -47 -4.5 -69s-16.833 -41 -29.5 -57s-25.667 -31 -39 -45
s-24.833 -27.833 -34.5 -41.5s-14.5 -26.167 -14.5 -37.5c0 -33.333 18.667 -50 56 -50c24.667 0 52 14 82 42l94 -86c-56 -62.667 -122 -94 -198 -94zM251.998 304c-28.667 0 -52.5 10 -71.5 30s-28.5 44.667 -28.5 74s9.5 54 28.5 74s42.833 30 71.5 30s52.5 -10 71.5 -30
s28.5 -44.667 28.5 -74s-9.5 -54 -28.5 -74s-42.833 -30 -71.5 -30z" />
    <glyph glyph-name="Agrave" unicode="&#xc0;" horiz-adv-x="584" 
d="M240 316l-10.999 -45.001h120l-11 45c-6 22.667 -14.333 57.834 -25 105.501s-18.334 81.167 -23.001 100.5h-4c-22 -104 -37.333 -172.667 -46 -206zM-9.99902 -0.000976562l198 650h208l198 -650h-182l-32 138h-182l-32 -138h-176zM296.001 673.999l-196 120l90 110
l182 -144z" />
    <glyph glyph-name="Aacute" unicode="&#xc1;" horiz-adv-x="584" 
d="M240 316l-10.999 -45.001h120l-11 45c-6 22.667 -14.333 57.834 -25 105.501s-18.334 81.167 -23.001 100.5h-4c-22 -104 -37.333 -172.667 -46 -206zM-9.99902 -0.000976562l198 650h208l198 -650h-182l-32 138h-182l-32 -138h-176zM280.001 673.999l-76 86l182 144
l90 -110z" />
    <glyph glyph-name="Acircumflex" unicode="&#xc2;" horiz-adv-x="584" 
d="M240 316l-10.999 -45.001h120l-11 45c-6 22.667 -14.333 57.834 -25 105.501s-18.334 81.167 -23.001 100.5h-4c-22 -104 -37.333 -172.667 -46 -206zM-9.99902 -0.000976562l198 650h208l198 -650h-182l-32 138h-182l-32 -138h-176zM110.001 723.999l84 110h188l84 -110
l-74 -44l-102 80h-4l-102 -80z" />
    <glyph glyph-name="Atilde" unicode="&#xc3;" horiz-adv-x="584" 
d="M240 316l-10.999 -45.001h120l-11 45c-6 22.667 -14.333 57.834 -25 105.501s-18.334 81.167 -23.001 100.5h-4c-22 -104 -37.333 -172.667 -46 -206zM-9.99902 -0.000976562l198 650h208l198 -650h-182l-32 138h-182l-32 -138h-176zM358.001 685.999
c-26.667 0 -54.167 8.66699 -82.5 26s-45.5 26 -51.5 26c-18 0 -28.667 -14 -32 -42l-110 8c2.66699 52 16.167 90.333 40.5 115s56.166 37 95.499 37c26.667 0 54.167 -8.66699 82.5 -26s45.5 -26 51.5 -26c18 0 28.667 14 32 42l110 -8
c-2.66699 -52 -16.167 -90.333 -40.5 -115s-56.166 -37 -95.499 -37z" />
    <glyph glyph-name="Adieresis" unicode="&#xc4;" horiz-adv-x="584" 
d="M240 316l-10.999 -45.001h120l-11 45c-6 22.667 -14.333 57.834 -25 105.501s-18.334 81.167 -23.001 100.5h-4c-22 -104 -37.333 -172.667 -46 -206zM-9.99902 -0.000976562l198 650h208l198 -650h-182l-32 138h-182l-32 -138h-176zM174.001 693.999
c-22.667 0 -41.334 7.5 -56.001 22.5s-22 33.5 -22 55.5s7.33301 40.5 22 55.5s33.334 22.5 56.001 22.5s41.334 -7.5 56.001 -22.5s22 -33.5 22 -55.5s-7.33301 -40.5 -22 -55.5s-33.334 -22.5 -56.001 -22.5zM402.001 693.999c-22.667 0 -41.334 7.5 -56.001 22.5
s-22 33.5 -22 55.5s7.33301 40.5 22 55.5s33.334 22.5 56.001 22.5s41.334 -7.5 56.001 -22.5s22 -33.5 22 -55.5s-7.33301 -40.5 -22 -55.5s-33.334 -22.5 -56.001 -22.5z" />
    <glyph glyph-name="Aring" unicode="&#xc5;" horiz-adv-x="584" 
d="M240 316l-10.999 -45.001h120l-11 45c-6 22.667 -14.333 57.834 -25 105.501s-18.334 81.167 -23.001 100.5h-4c-22 -104 -37.333 -172.667 -46 -206zM-9.99902 -0.000976562l198 650h208l198 -650h-182l-32 138h-182l-32 -138h-176zM288.001 695.999
c-36 0 -65 9.33301 -87 28s-33 43.334 -33 74.001s11 55.334 33 74.001s51 28 87 28s65 -9.33301 87 -28s33 -43.334 33 -74.001s-11 -55.334 -33 -74.001s-51 -28 -87 -28zM288.001 757.999c10.667 0 19.667 3.66699 27 11s11 17 11 29s-3.66699 21.667 -11 29
s-16.333 11 -27 11s-19.667 -3.66699 -27 -11s-11 -17 -11 -29s3.66699 -21.667 11 -29s16.333 -11 27 -11z" />
    <glyph glyph-name="AE" unicode="&#xc6;" horiz-adv-x="854" 
d="M308 348l-36 -83h108v257h-4c-40 -104 -62.667 -162 -68 -174zM-22 0l296 650h516v-144h-238v-102h202v-144h-202v-116h248v-144h-420v132h-165l-57 -132h-180z" />
    <glyph glyph-name="Ccedilla" unicode="&#xc7;" horiz-adv-x="586" 
d="M244 -244l-11.998 66c38 2 64.167 6 78.5 12s21.5 16 21.5 30c0 20 -25.333 33.333 -76 40l44 88c-75.333 11.333 -136.833 45.166 -184.5 101.499s-71.5 131.833 -71.5 226.5c0 104.667 30.667 187.834 92 249.501s135.333 92.5 222 92.5
c77.333 0 144.666 -28.667 201.999 -86l-90 -110c-36.667 32 -72.667 48 -108 48c-39.333 0 -72.833 -17 -100.5 -51s-41.5 -79.667 -41.5 -137c0 -60 12.667 -106.667 38 -140s59.333 -50 102 -50c44 0 83.333 18.667 118 56l90 -108
c-44.667 -51.333 -101.334 -82.333 -170.001 -93l-22 -51c52 -12 78 -37.333 78 -76c0 -68 -70 -104 -210 -108z" />
    <glyph glyph-name="Egrave" unicode="&#xc8;" horiz-adv-x="556" 
d="M72 0v650h420v-144h-248v-102h212v-144h-212v-116h258v-144h-430zM298 674l-196 120l90 110l182 -144z" />
    <glyph glyph-name="Eacute" unicode="&#xc9;" horiz-adv-x="556" 
d="M72 0v650h420v-144h-248v-102h212v-144h-212v-116h258v-144h-430zM282 674l-76 86l182 144l90 -110z" />
    <glyph glyph-name="Ecircumflex" unicode="&#xca;" horiz-adv-x="556" 
d="M72 0v650h420v-144h-248v-102h212v-144h-212v-116h258v-144h-430zM112 724l84 110h188l84 -110l-74 -44l-102 80h-4l-102 -80z" />
    <glyph glyph-name="Edieresis" unicode="&#xcb;" horiz-adv-x="556" 
d="M72 0v650h420v-144h-248v-102h212v-144h-212v-116h258v-144h-430zM176 694c-22.667 0 -41.334 7.5 -56.001 22.5s-22 33.5 -22 55.5s7.33301 40.5 22 55.5s33.334 22.5 56.001 22.5s41.334 -7.5 56.001 -22.5s22 -33.5 22 -55.5s-7.33301 -40.5 -22 -55.5
s-33.334 -22.5 -56.001 -22.5zM404 694c-22.667 0 -41.334 7.5 -56.001 22.5s-22 33.5 -22 55.5s7.33301 40.5 22 55.5s33.334 22.5 56.001 22.5s41.334 -7.5 56.001 -22.5s22 -33.5 22 -55.5s-7.33301 -40.5 -22 -55.5s-33.334 -22.5 -56.001 -22.5z" />
    <glyph glyph-name="Igrave" unicode="&#xcc;" horiz-adv-x="316" 
d="M72 0v650h172v-650h-172zM166 674l-196 120l90 110l182 -144z" />
    <glyph glyph-name="Iacute" unicode="&#xcd;" horiz-adv-x="316" 
d="M72 0v650h172v-650h-172zM150 674l-76 86l182 144l90 -110z" />
    <glyph glyph-name="Icircumflex" unicode="&#xce;" horiz-adv-x="316" 
d="M72 0v650h172v-650h-172zM-20 724l84 110h188l84 -110l-74 -44l-102 80h-4l-102 -80z" />
    <glyph glyph-name="Idieresis" unicode="&#xcf;" horiz-adv-x="316" 
d="M72 0v650h172v-650h-172zM44 694c-22.667 0 -41.334 7.5 -56.001 22.5s-22 33.5 -22 55.5s7.33301 40.5 22 55.5s33.334 22.5 56.001 22.5s41.334 -7.5 56.001 -22.5s22 -33.5 22 -55.5s-7.33301 -40.5 -22 -55.5s-33.334 -22.5 -56.001 -22.5zM272 694
c-22.667 0 -41.334 7.5 -56.001 22.5s-22 33.5 -22 55.5s7.33301 40.5 22 55.5s33.334 22.5 56.001 22.5s41.334 -7.5 56.001 -22.5s22 -33.5 22 -55.5s-7.33301 -40.5 -22 -55.5s-33.334 -22.5 -56.001 -22.5z" />
    <glyph glyph-name="Eth" unicode="&#xd0;" horiz-adv-x="668" 
d="M24 294l-0.000976562 74l74 6v276h192c104 0 185.667 -26 245 -78s89 -133.333 89 -244s-29.167 -193 -87.5 -247s-137.166 -81 -236.499 -81h-202v294h-74zM269.999 138h9.99805c52.667 0 93.834 14 123.501 42s44.5 77.333 44.5 148c0 70 -14.667 118.167 -44 144.5
s-70.666 39.5 -123.999 39.5h-10v-138h116v-80h-116v-156z" />
    <glyph glyph-name="Ntilde" unicode="&#xd1;" horiz-adv-x="672" 
d="M72 0v650.001h176l144 -290l62 -146h4c-14.667 128 -22 210.667 -22 248v188h164v-650h-176l-144 291l-62 145h-4c1.33301 -10.667 3.5 -29.667 6.5 -57l7.5 -66.5c2 -17 3.83301 -37.333 5.5 -61s2.5 -44.834 2.5 -63.501v-188h-164zM406 686.001
c-26.667 0 -54.167 8.66699 -82.5 26s-45.5 26 -51.5 26c-18 0 -28.667 -14 -32 -42l-110 8c2.66699 52 16.167 90.333 40.5 115s56.166 37 95.499 37c26.667 0 54.167 -8.66699 82.5 -26s45.5 -26 51.5 -26c18 0 28.667 14 32 42l110 -8
c-2.66699 -52 -16.167 -90.333 -40.5 -115s-56.166 -37 -95.499 -37z" />
    <glyph glyph-name="Ograve" unicode="&#xd2;" horiz-adv-x="692" 
d="M346 -12c-91.333 0 -164.5 30.333 -219.5 91s-82.5 143.667 -82.5 249s27.5 187.333 82.5 246s128.167 88 219.5 88s164.5 -29.5 219.5 -88.5s82.5 -140.833 82.5 -245.5c0 -105.333 -27.5 -188.333 -82.5 -249s-128.167 -91 -219.5 -91zM346 136
c38.667 0 69.3301 17.167 91.9971 51.5s34 81.166 34 140.499c0 58.667 -11.167 104.334 -33.5 137.001s-53.166 49 -92.499 49s-70.166 -16.333 -92.499 -49s-33.5 -78.334 -33.5 -137.001c0 -59.333 11.333 -106.166 34 -140.499s53.334 -51.5 92.001 -51.5zM353.996 674
l-196 120l90 110l182 -144z" />
    <glyph glyph-name="Oacute" unicode="&#xd3;" horiz-adv-x="692" 
d="M346 -12c-91.333 0 -164.5 30.333 -219.5 91s-82.5 143.667 -82.5 249s27.5 187.333 82.5 246s128.167 88 219.5 88s164.5 -29.5 219.5 -88.5s82.5 -140.833 82.5 -245.5c0 -105.333 -27.5 -188.333 -82.5 -249s-128.167 -91 -219.5 -91zM346 136
c38.667 0 69.3301 17.167 91.9971 51.5s34 81.166 34 140.499c0 58.667 -11.167 104.334 -33.5 137.001s-53.166 49 -92.499 49s-70.166 -16.333 -92.499 -49s-33.5 -78.334 -33.5 -137.001c0 -59.333 11.333 -106.166 34 -140.499s53.334 -51.5 92.001 -51.5zM337.996 674
l-76 86l182 144l90 -110z" />
    <glyph glyph-name="Ocircumflex" unicode="&#xd4;" horiz-adv-x="692" 
d="M346 -12c-91.333 0 -164.5 30.333 -219.5 91s-82.5 143.667 -82.5 249s27.5 187.333 82.5 246s128.167 88 219.5 88s164.5 -29.5 219.5 -88.5s82.5 -140.833 82.5 -245.5c0 -105.333 -27.5 -188.333 -82.5 -249s-128.167 -91 -219.5 -91zM346 136
c38.667 0 69.3301 17.167 91.9971 51.5s34 81.166 34 140.499c0 58.667 -11.167 104.334 -33.5 137.001s-53.166 49 -92.499 49s-70.166 -16.333 -92.499 -49s-33.5 -78.334 -33.5 -137.001c0 -59.333 11.333 -106.166 34 -140.499s53.334 -51.5 92.001 -51.5zM167.996 724
l84 110h188l84 -110l-74 -44l-102 80h-4l-102 -80z" />
    <glyph glyph-name="Otilde" unicode="&#xd5;" horiz-adv-x="692" 
d="M346 -12c-91.333 0 -164.5 30.333 -219.5 91s-82.5 143.667 -82.5 249s27.5 187.333 82.5 246s128.167 88 219.5 88s164.5 -29.5 219.5 -88.5s82.5 -140.833 82.5 -245.5c0 -105.333 -27.5 -188.333 -82.5 -249s-128.167 -91 -219.5 -91zM346 136
c38.667 0 69.3301 17.167 91.9971 51.5s34 81.166 34 140.499c0 58.667 -11.167 104.334 -33.5 137.001s-53.166 49 -92.499 49s-70.166 -16.333 -92.499 -49s-33.5 -78.334 -33.5 -137.001c0 -59.333 11.333 -106.166 34 -140.499s53.334 -51.5 92.001 -51.5zM415.996 686
c-26.667 0 -54.167 8.66699 -82.5 26s-45.5 26 -51.5 26c-18 0 -28.667 -14 -32 -42l-110 8c2.66699 52 16.167 90.333 40.5 115s56.166 37 95.499 37c26.667 0 54.167 -8.66699 82.5 -26s45.5 -26 51.5 -26c18 0 28.667 14 32 42l110 -8
c-2.66699 -52 -16.167 -90.333 -40.5 -115s-56.166 -37 -95.499 -37z" />
    <glyph glyph-name="Odieresis" unicode="&#xd6;" horiz-adv-x="692" 
d="M346 -12c-91.333 0 -164.5 30.333 -219.5 91s-82.5 143.667 -82.5 249s27.5 187.333 82.5 246s128.167 88 219.5 88s164.5 -29.5 219.5 -88.5s82.5 -140.833 82.5 -245.5c0 -105.333 -27.5 -188.333 -82.5 -249s-128.167 -91 -219.5 -91zM346 136
c38.667 0 69.3301 17.167 91.9971 51.5s34 81.166 34 140.499c0 58.667 -11.167 104.334 -33.5 137.001s-53.166 49 -92.499 49s-70.166 -16.333 -92.499 -49s-33.5 -78.334 -33.5 -137.001c0 -59.333 11.333 -106.166 34 -140.499s53.334 -51.5 92.001 -51.5zM231.996 694
c-22.667 0 -41.334 7.5 -56.001 22.5s-22 33.5 -22 55.5s7.33301 40.5 22 55.5s33.334 22.5 56.001 22.5s41.334 -7.5 56.001 -22.5s22 -33.5 22 -55.5s-7.33301 -40.5 -22 -55.5s-33.334 -22.5 -56.001 -22.5zM459.996 694c-22.667 0 -41.334 7.5 -56.001 22.5
s-22 33.5 -22 55.5s7.33301 40.5 22 55.5s33.334 22.5 56.001 22.5s41.334 -7.5 56.001 -22.5s22 -33.5 22 -55.5s-7.33301 -40.5 -22 -55.5s-33.334 -22.5 -56.001 -22.5z" />
    <glyph glyph-name="multiply" unicode="&#xd7;" horiz-adv-x="540" 
d="M132 106l-85 85l138 138l-138 138l85 85l138 -138l138 138l85 -85l-138 -138l138 -138l-85 -85l-138 138z" />
    <glyph glyph-name="Oslash" unicode="&#xd8;" horiz-adv-x="692" 
d="M346 -12c-61.333 0 -114.667 14 -160 42l-62 -76l-88 68l69 84c-40.667 58.667 -61 132.667 -61 222c0 105.333 27.5 187.333 82.5 246s128.167 88 219.5 88c66.667 0 124.667 -16.333 174 -49l68 83l88 -68l-79 -96c34 -54.667 51 -122.667 51 -204
c0 -105.333 -27.5 -188.333 -82.5 -249s-128.167 -91 -219.5 -91zM219.999 328c0 -28 2.33203 -52.332 6.99902 -72.999l191 233c-20.667 17.333 -44.667 26 -72 26c-39.333 0 -70.166 -16.333 -92.499 -49s-33.5 -78.334 -33.5 -137.001zM345.998 136.001
c38.667 0 69.333 17.168 92 51.501s34 81.166 34 140.499c0 17.333 -1 33 -3 47l-182 -222c17.333 -11.333 37 -17 59 -17z" />
    <glyph glyph-name="Ugrave" unicode="&#xd9;" horiz-adv-x="672" 
d="M338 -12c-91.333 0 -159.167 26.667 -203.5 80s-66.5 135.333 -66.5 246v336h172v-356c0 -57.333 7.66699 -98 23 -122s40.333 -36 75 -36s60 12.167 76 36.5s24 64.833 24 121.5v356h166v-336c0 -111.333 -21.667 -193.5 -65 -246.5s-110.333 -79.5 -201 -79.5z
M343.999 674l-196 120l90 110l182 -144z" />
    <glyph glyph-name="Uacute" unicode="&#xda;" horiz-adv-x="672" 
d="M338 -12c-91.333 0 -159.167 26.667 -203.5 80s-66.5 135.333 -66.5 246v336h172v-356c0 -57.333 7.66699 -98 23 -122s40.333 -36 75 -36s60 12.167 76 36.5s24 64.833 24 121.5v356h166v-336c0 -111.333 -21.667 -193.5 -65 -246.5s-110.333 -79.5 -201 -79.5z
M327.999 674l-76 86l182 144l90 -110z" />
    <glyph glyph-name="Ucircumflex" unicode="&#xdb;" horiz-adv-x="672" 
d="M338 -12c-91.333 0 -159.167 26.667 -203.5 80s-66.5 135.333 -66.5 246v336h172v-356c0 -57.333 7.66699 -98 23 -122s40.333 -36 75 -36s60 12.167 76 36.5s24 64.833 24 121.5v356h166v-336c0 -111.333 -21.667 -193.5 -65 -246.5s-110.333 -79.5 -201 -79.5z
M157.999 724l84 110h188l84 -110l-74 -44l-102 80h-4l-102 -80z" />
    <glyph glyph-name="Udieresis" unicode="&#xdc;" horiz-adv-x="672" 
d="M338 -12c-91.333 0 -159.167 26.667 -203.5 80s-66.5 135.333 -66.5 246v336h172v-356c0 -57.333 7.66699 -98 23 -122s40.333 -36 75 -36s60 12.167 76 36.5s24 64.833 24 121.5v356h166v-336c0 -111.333 -21.667 -193.5 -65 -246.5s-110.333 -79.5 -201 -79.5z
M221.999 694c-22.667 0 -41.334 7.5 -56.001 22.5s-22 33.5 -22 55.5s7.33301 40.5 22 55.5s33.334 22.5 56.001 22.5s41.334 -7.5 56.001 -22.5s22 -33.5 22 -55.5s-7.33301 -40.5 -22 -55.5s-33.334 -22.5 -56.001 -22.5zM449.999 694c-22.667 0 -41.334 7.5 -56.001 22.5
s-22 33.5 -22 55.5s7.33301 40.5 22 55.5s33.334 22.5 56.001 22.5s41.334 -7.5 56.001 -22.5s22 -33.5 22 -55.5s-7.33301 -40.5 -22 -55.5s-33.334 -22.5 -56.001 -22.5z" />
    <glyph glyph-name="Yacute" unicode="&#xdd;" horiz-adv-x="544" 
d="M186 0v224l-196 426h184l48 -136l25.5 -75.5l23.5 -69.5h4l27.5 79c11.667 33.333 19.5 55.333 23.5 66l48 136h180l-196 -426v-224h-172zM264 674l-76 86l182 144l90 -110z" />
    <glyph glyph-name="Thorn" unicode="&#xde;" horiz-adv-x="630" 
d="M72 0l-0.000976562 649.999h172v-94h80c36.667 0 70 -3.66699 100 -11s57.333 -19 82 -35s43.834 -38.5 57.501 -67.5s20.5 -63.167 20.5 -102.5c0 -50.667 -12.5 -93.667 -37.5 -129s-56.5 -60.666 -94.5 -75.999s-80.667 -23 -128 -23h-80v-112h-172zM243.999 247.999
h72c66.667 0 100 30.667 100 92c0 53.333 -33.333 80 -100 80h-72v-172z" />
    <glyph glyph-name="germandbls" unicode="&#xdf;" horiz-adv-x="654" 
d="M434 -12c-50 0 -101.335 14.6621 -154.002 43.9951l58 116c30 -22.667 60 -34 90 -34c13.333 0 24 3.33301 32 10s12 15.334 12 26.001s-5.83301 20.834 -17.5 30.501s-25.667 18.834 -42 27.501s-32.666 18.334 -48.999 29.001s-30.333 25.167 -42 43.5
s-17.5 39.5 -17.5 63.5s10.667 52.167 32 84.5s32 60.166 32 83.499c0 17.333 -5 31.666 -15 42.999s-23.667 17 -41 17c-28 0 -49 -10.167 -63 -30.5s-21 -48.166 -21 -83.499v-458h-170v476c0 68.667 21.333 124.167 64 166.5s106 63.5 190 63.5
c70 0 124.167 -17.167 162.5 -51.5s57.5 -75.166 57.5 -122.499c0 -21.333 -3.66699 -41.166 -11 -59.499s-15.666 -32.5 -24.999 -42.5s-17.666 -20.833 -24.999 -32.5s-11 -22.167 -11 -31.5s5.83301 -18.333 17.5 -27s25.667 -17.5 42 -26.5s32.666 -19.5 48.999 -31.5
s30.333 -28.5 42 -49.5s17.5 -45.5 17.5 -73.5c0 -49.333 -16.667 -90 -50 -122s-81.333 -48 -144 -48z" />
    <glyph glyph-name="agrave" unicode="&#xe0;" horiz-adv-x="536" 
d="M188 -12c-45.333 0 -81.666 15 -108.999 45s-41 66.333 -41 109c0 52.667 21.5 93.667 64.5 123s112.167 49 207.5 59c-4 34.667 -27.333 52 -70 52c-32 0 -74 -14 -126 -42l-60 112c73.333 44 146.666 66 219.999 66c138.667 0 208 -78 208 -234v-278h-140l-12 48h-4
c-44.667 -40 -90.667 -60 -138 -60zM248 120c20.667 0 41.333 11.333 62 34v68c-72 -10.667 -108 -32.667 -108 -66c0 -24 15.333 -36 46 -36zM260.999 572l-190 158l116 114l158 -188z" />
    <glyph glyph-name="aacute" unicode="&#xe1;" horiz-adv-x="536" 
d="M188 -12c-45.333 0 -81.666 15 -108.999 45s-41 66.333 -41 109c0 52.667 21.5 93.667 64.5 123s112.167 49 207.5 59c-4 34.667 -27.333 52 -70 52c-32 0 -74 -14 -126 -42l-60 112c73.333 44 146.666 66 219.999 66c138.667 0 208 -78 208 -234v-278h-140l-12 48h-4
c-44.667 -40 -90.667 -60 -138 -60zM248 120c20.667 0 41.333 11.333 62 34v68c-72 -10.667 -108 -32.667 -108 -66c0 -24 15.333 -36 46 -36zM300.999 572l-84 84l158 188l116 -114z" />
    <glyph glyph-name="acircumflex" unicode="&#xe2;" horiz-adv-x="536" 
d="M188 -12c-45.333 0 -81.666 15 -108.999 45s-41 66.333 -41 109c0 52.667 21.5 93.667 64.5 123s112.167 49 207.5 59c-4 34.667 -27.333 52 -70 52c-32 0 -74 -14 -126 -42l-60 112c73.333 44 146.666 66 219.999 66c138.667 0 208 -78 208 -234v-278h-140l-12 48h-4
c-44.667 -40 -90.667 -60 -138 -60zM248 120c20.667 0 41.333 11.333 62 34v68c-72 -10.667 -108 -32.667 -108 -66c0 -24 15.333 -36 46 -36zM86.999 618l106 128h176l106 -128l-64 -60l-128 84h-4l-128 -84z" />
    <glyph glyph-name="atilde" unicode="&#xe3;" horiz-adv-x="536" 
d="M188 -12c-45.333 0 -81.666 15 -108.999 45s-41 66.333 -41 109c0 52.667 21.5 93.667 64.5 123s112.167 49 207.5 59c-4 34.667 -27.333 52 -70 52c-32 0 -74 -14 -126 -42l-60 112c73.333 44 146.666 66 219.999 66c138.667 0 208 -78 208 -234v-278h-140l-12 48h-4
c-44.667 -40 -90.667 -60 -138 -60zM248 120c20.667 0 41.333 11.333 62 34v68c-72 -10.667 -108 -32.667 -108 -66c0 -24 15.333 -36 46 -36zM344.999 572c-22.667 0 -47.5 9.33301 -74.5 28s-43.5 28 -49.5 28c-16.667 0 -26.667 -15.333 -30 -46l-106 6
c2 105.333 46 158 132 158c22.667 0 47.5 -9.33301 74.5 -28s43.5 -28 49.5 -28c16.667 0 26.667 15.333 30 46l106 -6c-2 -105.333 -46 -158 -132 -158z" />
    <glyph glyph-name="adieresis" unicode="&#xe4;" horiz-adv-x="536" 
d="M188 -12c-45.333 0 -81.666 15 -108.999 45s-41 66.333 -41 109c0 52.667 21.5 93.667 64.5 123s112.167 49 207.5 59c-4 34.667 -27.333 52 -70 52c-32 0 -74 -14 -126 -42l-60 112c73.333 44 146.666 66 219.999 66c138.667 0 208 -78 208 -234v-278h-140l-12 48h-4
c-44.667 -40 -90.667 -60 -138 -60zM248 120c20.667 0 41.333 11.333 62 34v68c-72 -10.667 -108 -32.667 -108 -66c0 -24 15.333 -36 46 -36zM166.999 562c-23.333 0 -42.5 7.66699 -57.5 23s-22.5 34.333 -22.5 57s7.5 41.667 22.5 57s34.167 23 57.5 23
s42.5 -7.66699 57.5 -23s22.5 -34.333 22.5 -57s-7.5 -41.667 -22.5 -57s-34.167 -23 -57.5 -23zM394.999 562c-23.333 0 -42.5 7.66699 -57.5 23s-22.5 34.333 -22.5 57s7.5 41.667 22.5 57s34.167 23 57.5 23s42.5 -7.66699 57.5 -23s22.5 -34.333 22.5 -57
s-7.5 -41.667 -22.5 -57s-34.167 -23 -57.5 -23z" />
    <glyph glyph-name="aring" unicode="&#xe5;" horiz-adv-x="536" 
d="M188 -12c-45.333 0 -81.666 15 -108.999 45s-41 66.333 -41 109c0 52.667 21.5 93.667 64.5 123s112.167 49 207.5 59c-4 34.667 -27.333 52 -70 52c-32 0 -74 -14 -126 -42l-60 112c73.333 44 146.666 66 219.999 66c138.667 0 208 -78 208 -234v-278h-140l-12 48h-4
c-44.667 -40 -90.667 -60 -138 -60zM248 120c20.667 0 41.333 11.333 62 34v68c-72 -10.667 -108 -32.667 -108 -66c0 -24 15.333 -36 46 -36zM280.999 568c-45.333 0 -80 10 -104 30s-36 45.333 -36 76s12 56 36 76s58.667 30 104 30s80 -10 104 -30s36 -45.333 36 -76
s-12 -56 -36 -76s-58.667 -30 -104 -30zM280.999 630c10.667 0 19.667 4.16699 27 12.5s11 18.833 11 31.5s-3.66699 23.167 -11 31.5s-16.333 12.5 -27 12.5s-19.667 -4.16699 -27 -12.5s-11 -18.833 -11 -31.5s3.66699 -23.167 11 -31.5s16.333 -12.5 27 -12.5z" />
    <glyph glyph-name="ae" unicode="&#xe6;" horiz-adv-x="786" 
d="M192 -12c-45.333 0 -81.667 15 -109 45s-41 66.333 -41 109c0 52.667 21.333 93.834 64 123.501s111.334 49.5 206.001 59.5c-2 18 -8.33301 31 -19 39s-27 12 -49 12c-32 0 -74 -14 -126 -42l-60 112c73.333 44 143.333 66 210 66c58 0 104 -21.333 138 -64
c44.667 42.667 92 64 142 64c65.333 0 115.333 -23.333 150 -70s52 -105.334 52 -176.001c0 -26.667 -2.33301 -49.334 -7 -68.001h-275c12.667 -50.667 48 -76 106 -76c26 0 59.333 11.333 100 34l58 -110c-54.667 -38.667 -115.334 -58 -182.001 -58
c-67.333 0 -124 24 -170 72c-35.333 -27.333 -67 -46.166 -95 -56.499s-59 -15.5 -93 -15.5zM251.999 120c26 0 50 10 72 30c-6 18 -10 35.667 -12 53l-2 19c-69.333 -11.333 -104 -33.333 -104 -66c0 -24 15.333 -36 46 -36zM467.999 302h136c0 53.333 -20.667 80 -62 80
c-42 0 -66.667 -26.667 -74 -80z" />
    <glyph glyph-name="ccedilla" unicode="&#xe7;" horiz-adv-x="472" 
d="M179 -244l-12 66.001c38 2 64.167 6 78.5 12s21.5 16 21.5 30c0 20 -25.333 33.333 -76 40l44 88c-60.667 10 -109.667 37.667 -147 83s-56 103.666 -56 174.999c0 80 26 143.667 78 191s115.333 71 190 71c56 0 104.667 -17.333 146 -52l-80 -110
c-19.333 16 -38 24 -56 24c-32 0 -57 -11.167 -75 -33.5s-27 -52.5 -27 -90.5c0 -37.333 9.16699 -67.333 27.5 -90s41.166 -34 68.499 -34c24.667 0 51.334 10.667 80.001 32l66 -112c-31.333 -28 -70 -46 -116 -54l-23 -52c52 -12 78 -37.333 78 -76
c0 -68 -70 -104 -210 -108z" />
    <glyph glyph-name="egrave" unicode="&#xe8;" horiz-adv-x="526" 
d="M290 -12c-75.333 0 -137.166 23.5 -185.499 70.5s-72.5 110.833 -72.5 191.5c0 78 24 141.167 72 189.5s104 72.5 168 72.5c70.667 0 124.667 -22.667 162 -68s56 -103.333 56 -174c0 -29.333 -2.33301 -53.333 -7 -72h-285c14 -53.333 52.667 -80 116 -80
c32 0 66 10 102 30l56 -102c-54.667 -38.667 -115.334 -58 -182.001 -58zM196 310h148c0 48 -22.667 72 -68 72c-20 0 -37.167 -6 -51.5 -18s-23.833 -30 -28.5 -54zM252 572l-190 158l116 114l158 -188z" />
    <glyph glyph-name="eacute" unicode="&#xe9;" horiz-adv-x="526" 
d="M290 -12c-75.333 0 -137.166 23.5 -185.499 70.5s-72.5 110.833 -72.5 191.5c0 78 24 141.167 72 189.5s104 72.5 168 72.5c70.667 0 124.667 -22.667 162 -68s56 -103.333 56 -174c0 -29.333 -2.33301 -53.333 -7 -72h-285c14 -53.333 52.667 -80 116 -80
c32 0 66 10 102 30l56 -102c-54.667 -38.667 -115.334 -58 -182.001 -58zM196 310h148c0 48 -22.667 72 -68 72c-20 0 -37.167 -6 -51.5 -18s-23.833 -30 -28.5 -54zM292 572l-84 84l158 188l116 -114z" />
    <glyph glyph-name="ecircumflex" unicode="&#xea;" horiz-adv-x="526" 
d="M290 -12c-75.333 0 -137.166 23.5 -185.499 70.5s-72.5 110.833 -72.5 191.5c0 78 24 141.167 72 189.5s104 72.5 168 72.5c70.667 0 124.667 -22.667 162 -68s56 -103.333 56 -174c0 -29.333 -2.33301 -53.333 -7 -72h-285c14 -53.333 52.667 -80 116 -80
c32 0 66 10 102 30l56 -102c-54.667 -38.667 -115.334 -58 -182.001 -58zM196 310h148c0 48 -22.667 72 -68 72c-20 0 -37.167 -6 -51.5 -18s-23.833 -30 -28.5 -54zM78 618l106 128h176l106 -128l-64 -60l-128 84h-4l-128 -84z" />
    <glyph glyph-name="edieresis" unicode="&#xeb;" horiz-adv-x="526" 
d="M290 -12c-75.333 0 -137.166 23.5 -185.499 70.5s-72.5 110.833 -72.5 191.5c0 78 24 141.167 72 189.5s104 72.5 168 72.5c70.667 0 124.667 -22.667 162 -68s56 -103.333 56 -174c0 -29.333 -2.33301 -53.333 -7 -72h-285c14 -53.333 52.667 -80 116 -80
c32 0 66 10 102 30l56 -102c-54.667 -38.667 -115.334 -58 -182.001 -58zM196 310h148c0 48 -22.667 72 -68 72c-20 0 -37.167 -6 -51.5 -18s-23.833 -30 -28.5 -54zM158 562c-23.333 0 -42.5 7.66699 -57.5 23s-22.5 34.333 -22.5 57s7.5 41.667 22.5 57s34.167 23 57.5 23
s42.5 -7.66699 57.5 -23s22.5 -34.333 22.5 -57s-7.5 -41.667 -22.5 -57s-34.167 -23 -57.5 -23zM386 562c-23.333 0 -42.5 7.66699 -57.5 23s-22.5 34.333 -22.5 57s7.5 41.667 22.5 57s34.167 23 57.5 23s42.5 -7.66699 57.5 -23s22.5 -34.333 22.5 -57
s-7.5 -41.667 -22.5 -57s-34.167 -23 -57.5 -23z" />
    <glyph glyph-name="igrave" unicode="&#xec;" horiz-adv-x="288" 
d="M58 0v500h172v-500h-172zM124 572l-190 158l116 114l158 -188z" />
    <glyph glyph-name="iacute" unicode="&#xed;" horiz-adv-x="288" 
d="M58 0v500h172v-500h-172zM164 572l-84 84l158 188l116 -114z" />
    <glyph glyph-name="icircumflex" unicode="&#xee;" horiz-adv-x="288" 
d="M58 0v500h172v-500h-172zM-50 618l106 128h176l106 -128l-64 -60l-128 84h-4l-128 -84z" />
    <glyph glyph-name="idieresis" unicode="&#xef;" horiz-adv-x="288" 
d="M58 0v500h172v-500h-172zM30 562c-23.333 0 -42.5 7.66699 -57.5 23s-22.5 34.333 -22.5 57s7.5 41.667 22.5 57s34.167 23 57.5 23s42.5 -7.66699 57.5 -23s22.5 -34.333 22.5 -57s-7.5 -41.667 -22.5 -57s-34.167 -23 -57.5 -23zM258 562
c-23.333 0 -42.5 7.66699 -57.5 23s-22.5 34.333 -22.5 57s7.5 41.667 22.5 57s34.167 23 57.5 23s42.5 -7.66699 57.5 -23s22.5 -34.333 22.5 -57s-7.5 -41.667 -22.5 -57s-34.167 -23 -57.5 -23z" />
    <glyph glyph-name="eth" unicode="&#xf0;" horiz-adv-x="566" 
d="M274 -12c-66 0 -121.833 22.335 -167.5 67.002s-68.5 103 -68.5 175c0 69.333 20.333 124.666 61 165.999s87.667 62 141 62c38.667 0 69.334 -10.333 92.001 -31c-16.667 40.667 -41.334 77 -74.001 109l-142 -71l-44 74l111 56c-22.667 14 -49.334 29 -80.001 45
l74 104c53.333 -27.333 99.333 -55 138 -83l143 72l44 -75l-116 -58c89.333 -90.667 134 -200.667 134 -330c0 -82.667 -22.167 -150.334 -66.5 -203.001s-104.166 -79 -179.499 -79zM280 126.002c24 0 43.333 10.833 58 32.5s22 55.5 22 101.5c0 18 -0.333008 31 -1 39
c-22 22 -49.333 33 -82 33c-55.333 0 -83 -34 -83 -102c0 -33.333 8.16699 -59 24.5 -77s36.833 -27 61.5 -27z" />
    <glyph glyph-name="ntilde" unicode="&#xf1;" horiz-adv-x="582" 
d="M58 0l-0.00195312 500h140l12 -60h4c50.667 48 103.334 72 158.001 72c104 0 156 -68 156 -204v-308h-172v286c0 30.667 -3.83301 51.667 -11.5 63s-20.5 17 -38.5 17c-23.333 0 -48.666 -12.667 -75.999 -38v-328h-172zM377.998 572c-22.667 0 -47.5 9.33301 -74.5 28
s-43.5 28 -49.5 28c-16.667 0 -26.667 -15.333 -30 -46l-106 6c2 105.333 46 158 132 158c22.667 0 47.5 -9.33301 74.5 -28s43.5 -28 49.5 -28c16.667 0 26.667 15.333 30 46l106 -6c-2 -105.333 -46 -158 -132 -158z" />
    <glyph glyph-name="ograve" unicode="&#xf2;" horiz-adv-x="560" 
d="M280 -12c-67.333 0 -125.5 23.833 -174.5 71.5s-73.5 111.167 -73.5 190.5s24.5 142.833 73.5 190.5s107.167 71.5 174.5 71.5s125.5 -23.833 174.5 -71.5s73.5 -111.167 73.5 -190.5s-24.5 -142.833 -73.5 -190.5s-107.167 -71.5 -174.5 -71.5zM280 126
c48 0 72 41.333 72 124s-24 124 -72 124s-72 -41.333 -72 -124s24 -124 72 -124zM260 572l-190 158l116 114l158 -188z" />
    <glyph glyph-name="oacute" unicode="&#xf3;" horiz-adv-x="560" 
d="M280 -12c-67.333 0 -125.5 23.833 -174.5 71.5s-73.5 111.167 -73.5 190.5s24.5 142.833 73.5 190.5s107.167 71.5 174.5 71.5s125.5 -23.833 174.5 -71.5s73.5 -111.167 73.5 -190.5s-24.5 -142.833 -73.5 -190.5s-107.167 -71.5 -174.5 -71.5zM280 126
c48 0 72 41.333 72 124s-24 124 -72 124s-72 -41.333 -72 -124s24 -124 72 -124zM300 572l-84 84l158 188l116 -114z" />
    <glyph glyph-name="ocircumflex" unicode="&#xf4;" horiz-adv-x="560" 
d="M280 -12c-67.333 0 -125.5 23.833 -174.5 71.5s-73.5 111.167 -73.5 190.5s24.5 142.833 73.5 190.5s107.167 71.5 174.5 71.5s125.5 -23.833 174.5 -71.5s73.5 -111.167 73.5 -190.5s-24.5 -142.833 -73.5 -190.5s-107.167 -71.5 -174.5 -71.5zM280 126
c48 0 72 41.333 72 124s-24 124 -72 124s-72 -41.333 -72 -124s24 -124 72 -124zM86 618l106 128h176l106 -128l-64 -60l-128 84h-4l-128 -84z" />
    <glyph glyph-name="otilde" unicode="&#xf5;" horiz-adv-x="560" 
d="M280 -12c-67.333 0 -125.5 23.833 -174.5 71.5s-73.5 111.167 -73.5 190.5s24.5 142.833 73.5 190.5s107.167 71.5 174.5 71.5s125.5 -23.833 174.5 -71.5s73.5 -111.167 73.5 -190.5s-24.5 -142.833 -73.5 -190.5s-107.167 -71.5 -174.5 -71.5zM280 126
c48 0 72 41.333 72 124s-24 124 -72 124s-72 -41.333 -72 -124s24 -124 72 -124zM344 572c-22.667 0 -47.5 9.33301 -74.5 28s-43.5 28 -49.5 28c-16.667 0 -26.667 -15.333 -30 -46l-106 6c2 105.333 46 158 132 158c22.667 0 47.5 -9.33301 74.5 -28s43.5 -28 49.5 -28
c16.667 0 26.667 15.333 30 46l106 -6c-2 -105.333 -46 -158 -132 -158z" />
    <glyph glyph-name="odieresis" unicode="&#xf6;" horiz-adv-x="560" 
d="M280 -12c-67.333 0 -125.5 23.833 -174.5 71.5s-73.5 111.167 -73.5 190.5s24.5 142.833 73.5 190.5s107.167 71.5 174.5 71.5s125.5 -23.833 174.5 -71.5s73.5 -111.167 73.5 -190.5s-24.5 -142.833 -73.5 -190.5s-107.167 -71.5 -174.5 -71.5zM280 126
c48 0 72 41.333 72 124s-24 124 -72 124s-72 -41.333 -72 -124s24 -124 72 -124zM166 562c-23.333 0 -42.5 7.66699 -57.5 23s-22.5 34.333 -22.5 57s7.5 41.667 22.5 57s34.167 23 57.5 23s42.5 -7.66699 57.5 -23s22.5 -34.333 22.5 -57s-7.5 -41.667 -22.5 -57
s-34.167 -23 -57.5 -23zM394 562c-23.333 0 -42.5 7.66699 -57.5 23s-22.5 34.333 -22.5 57s7.5 41.667 22.5 57s34.167 23 57.5 23s42.5 -7.66699 57.5 -23s22.5 -34.333 22.5 -57s-7.5 -41.667 -22.5 -57s-34.167 -23 -57.5 -23z" />
    <glyph glyph-name="divide" unicode="&#xf7;" horiz-adv-x="540" 
d="M34 270v120h472v-120h-472zM270 64c-26 0 -47.833 8.16699 -65.5 24.5s-26.5 36.833 -26.5 61.5s8.83301 45.167 26.5 61.5s39.5 24.5 65.5 24.5s47.833 -8.16699 65.5 -24.5s26.5 -36.833 26.5 -61.5s-8.83301 -45.167 -26.5 -61.5s-39.5 -24.5 -65.5 -24.5zM270 424
c-26 0 -47.833 8.16699 -65.5 24.5s-26.5 36.833 -26.5 61.5s8.83301 45.167 26.5 61.5s39.5 24.5 65.5 24.5s47.833 -8.16699 65.5 -24.5s26.5 -36.833 26.5 -61.5s-8.83301 -45.167 -26.5 -61.5s-39.5 -24.5 -65.5 -24.5z" />
    <glyph glyph-name="oslash" unicode="&#xf8;" horiz-adv-x="560" 
d="M280 -12c-47.333 0 -91 12.333 -131 37l-41 -51l-62 48l44 55c-38.667 46 -58 103.667 -58 173c0 79.333 24.5 142.833 73.5 190.5s107.167 71.5 174.5 71.5c48 0 91.333 -12 130 -36l42 52l62 -48l-45 -56c39.333 -46.667 59 -104.667 59 -174
c0 -79.333 -24.5 -142.833 -73.5 -190.5s-107.167 -71.5 -174.5 -71.5zM198 260c0 -12.667 0.666016 -27.666 1.99902 -44.999l123 152c-11.333 8.66699 -25.666 13 -42.999 13c-25.333 0 -45.333 -10.833 -60 -32.5s-22 -50.834 -22 -87.501zM279.999 120.001
c25.333 0 45.333 10.832 60 32.499s22 50.834 22 87.501c0 17.333 -1 33 -3 47l-123 -153c11.333 -9.33301 26 -14 44 -14z" />
    <glyph glyph-name="ugrave" unicode="&#xf9;" horiz-adv-x="578" 
d="M210 -12c-104 0 -156.001 68 -156.001 204v308h172v-286c0 -30.667 3.83301 -51.667 11.5 -63s20.5 -17 38.5 -17c28 0 52 14.667 72 44v322h172v-500h-140l-12 66h-4c-43.333 -52 -94.666 -78 -153.999 -78zM269.999 572l-190 158l116 114l158 -188z" />
    <glyph glyph-name="uacute" unicode="&#xfa;" horiz-adv-x="578" 
d="M210 -12c-104 0 -156.001 68 -156.001 204v308h172v-286c0 -30.667 3.83301 -51.667 11.5 -63s20.5 -17 38.5 -17c28 0 52 14.667 72 44v322h172v-500h-140l-12 66h-4c-43.333 -52 -94.666 -78 -153.999 -78zM309.999 572l-84 84l158 188l116 -114z" />
    <glyph glyph-name="ucircumflex" unicode="&#xfb;" horiz-adv-x="578" 
d="M210 -12c-104 0 -156.001 68 -156.001 204v308h172v-286c0 -30.667 3.83301 -51.667 11.5 -63s20.5 -17 38.5 -17c28 0 52 14.667 72 44v322h172v-500h-140l-12 66h-4c-43.333 -52 -94.666 -78 -153.999 -78zM95.999 618l106 128h176l106 -128l-64 -60l-128 84h-4
l-128 -84z" />
    <glyph glyph-name="udieresis" unicode="&#xfc;" horiz-adv-x="578" 
d="M210 -12c-104 0 -156.001 68 -156.001 204v308h172v-286c0 -30.667 3.83301 -51.667 11.5 -63s20.5 -17 38.5 -17c28 0 52 14.667 72 44v322h172v-500h-140l-12 66h-4c-43.333 -52 -94.666 -78 -153.999 -78zM175.999 562c-23.333 0 -42.5 7.66699 -57.5 23
s-22.5 34.333 -22.5 57s7.5 41.667 22.5 57s34.167 23 57.5 23s42.5 -7.66699 57.5 -23s22.5 -34.333 22.5 -57s-7.5 -41.667 -22.5 -57s-34.167 -23 -57.5 -23zM403.999 562c-23.333 0 -42.5 7.66699 -57.5 23s-22.5 34.333 -22.5 57s7.5 41.667 22.5 57s34.167 23 57.5 23
s42.5 -7.66699 57.5 -23s22.5 -34.333 22.5 -57s-7.5 -41.667 -22.5 -57s-34.167 -23 -57.5 -23z" />
    <glyph glyph-name="yacute" unicode="&#xfd;" horiz-adv-x="542" 
d="M132 -188c-26 0 -51.333 3.33301 -76 10l30 130c18 -4 28.667 -6 32 -6c40.667 0 66.667 16.667 78 50l6 22l-190 482h172l60 -192c6 -20 18 -67.333 36 -142h4c12 56 22.667 103.333 32 142l50 192h164l-168 -492c-27.333 -70.667 -57.5 -121 -90.5 -151
s-79.5 -45 -139.5 -45zM296 572l-84 84l158 188l116 -114z" />
    <glyph glyph-name="thorn" unicode="&#xfe;" horiz-adv-x="580" 
d="M58 -176v872h172v-163l-4 -65c32.667 29.333 70.667 44 114 44c62 0 111.5 -23 148.5 -69s55.5 -107.667 55.5 -185c0 -82 -20.667 -147.5 -62 -196.5s-90 -73.5 -146 -73.5c-42 0 -78.667 14.667 -110 44l4 -70v-138h-172zM294 128c49.333 0 74 42.667 74 128
c0 77.333 -23.333 116 -70 116c-25.333 0 -48 -12 -68 -36v-184c18 -16 39.333 -24 64 -24z" />
    <glyph glyph-name="ydieresis" unicode="&#xff;" horiz-adv-x="542" 
d="M132 -188c-26 0 -51.333 3.33301 -76 10l30 130c18 -4 28.667 -6 32 -6c40.667 0 66.667 16.667 78 50l6 22l-190 482h172l60 -192c6 -20 18 -67.333 36 -142h4c12 56 22.667 103.333 32 142l50 192h164l-168 -492c-27.333 -70.667 -57.5 -121 -90.5 -151
s-79.5 -45 -139.5 -45zM162 562c-23.333 0 -42.5 7.66699 -57.5 23s-22.5 34.333 -22.5 57s7.5 41.667 22.5 57s34.167 23 57.5 23s42.5 -7.66699 57.5 -23s22.5 -34.333 22.5 -57s-7.5 -41.667 -22.5 -57s-34.167 -23 -57.5 -23zM390 562c-23.333 0 -42.5 7.66699 -57.5 23
s-22.5 34.333 -22.5 57s7.5 41.667 22.5 57s34.167 23 57.5 23s42.5 -7.66699 57.5 -23s22.5 -34.333 22.5 -57s-7.5 -41.667 -22.5 -57s-34.167 -23 -57.5 -23z" />
    <glyph glyph-name="Amacron" unicode="&#x100;" horiz-adv-x="584" 
d="M240 316l-10.999 -45.001h120l-11 45c-6 22.667 -14.333 57.834 -25 105.501s-18.334 81.167 -23.001 100.5h-4c-22 -104 -37.333 -172.667 -46 -206zM-9.99902 -0.000976562l198 650h208l198 -650h-182l-32 138h-182l-32 -138h-176zM130.001 715.999v108h316v-108h-316z
" />
    <glyph glyph-name="amacron" unicode="&#x101;" horiz-adv-x="536" 
d="M188 -12c-45.333 0 -81.666 15 -108.999 45s-41 66.333 -41 109c0 52.667 21.5 93.667 64.5 123s112.167 49 207.5 59c-4 34.667 -27.333 52 -70 52c-32 0 -74 -14 -126 -42l-60 112c73.333 44 146.666 66 219.999 66c138.667 0 208 -78 208 -234v-278h-140l-12 48h-4
c-44.667 -40 -90.667 -60 -138 -60zM248 120c20.667 0 41.333 11.333 62 34v68c-72 -10.667 -108 -32.667 -108 -66c0 -24 15.333 -36 46 -36zM126.999 588v108h308v-108h-308z" />
    <glyph glyph-name="Abreve" unicode="&#x102;" horiz-adv-x="584" 
d="M240 316l-10.999 -45.001h120l-11 45c-6 22.667 -14.333 57.834 -25 105.501s-18.334 81.167 -23.001 100.5h-4c-22 -104 -37.333 -172.667 -46 -206zM-9.99902 -0.000976562l198 650h208l198 -650h-182l-32 138h-182l-32 -138h-176zM288.001 693.999
c-103.333 0 -160 46.667 -170 140l92 16c8.66699 -38.667 34.667 -58 78 -58s69.333 19.333 78 58l92 -16c-10 -93.333 -66.667 -140 -170 -140z" />
    <glyph glyph-name="abreve" unicode="&#x103;" horiz-adv-x="536" 
d="M188 -12c-45.333 0 -81.666 15 -108.999 45s-41 66.333 -41 109c0 52.667 21.5 93.667 64.5 123s112.167 49 207.5 59c-4 34.667 -27.333 52 -70 52c-32 0 -74 -14 -126 -42l-60 112c73.333 44 146.666 66 219.999 66c138.667 0 208 -78 208 -234v-278h-140l-12 48h-4
c-44.667 -40 -90.667 -60 -138 -60zM248 120c20.667 0 41.333 11.333 62 34v68c-72 -10.667 -108 -32.667 -108 -66c0 -24 15.333 -36 46 -36zM280.999 572c-56.667 0 -99.5 14.5 -128.5 43.5s-44.167 67.833 -45.5 116.5l96 16c7.33301 -46.667 33.333 -70 78 -70
s70.667 23.333 78 70l96 -16c-1.33301 -49.333 -16.5 -88.333 -45.5 -117s-71.833 -43 -128.5 -43z" />
    <glyph glyph-name="Aogonek" unicode="&#x104;" horiz-adv-x="584" 
d="M498 -228c-35.333 0 -64.5 8.83301 -87.5 26.5s-34.5 41.5 -34.5 71.5c0 29.333 9 55.666 27 78.999s37 40.333 57 51h-48l-32 138h-182l-32 -138h-176l198 650h208l198 -650c-27.333 0 -49.833 -8.66699 -67.5 -26s-26.5 -36.666 -26.5 -57.999
c0 -10.667 3.33301 -19 10 -25s15.334 -9 26.001 -9c13.333 0 26 4.66699 38 14l38 -86c-14 -11.333 -31.833 -20.5 -53.5 -27.5s-41.834 -10.5 -60.501 -10.5zM240 316l-10.999 -45.001h120l-11 45c-6 22.667 -14.333 57.834 -25 105.501s-18.334 81.167 -23.001 100.5h-4
c-22 -104 -37.333 -172.667 -46 -206z" />
    <glyph glyph-name="aogonek" unicode="&#x105;" horiz-adv-x="536" 
d="M392 -212c-32.667 0 -59.499 8.16699 -80.499 24.5s-31.5 39.5 -31.5 69.5c0 46 21.333 84 64 114l-14 52h-4c-44.667 -40 -90.667 -60 -138 -60c-45.333 0 -81.666 15 -108.999 45s-41 66.333 -41 109c0 52.667 21.5 93.667 64.5 123s112.167 49 207.5 59
c-4 34.667 -27.333 52 -70 52c-32 0 -74 -14 -126 -42l-60 112c73.333 44 146.666 66 219.999 66c138.667 0 208 -78 208 -234v-278c-58.667 -14 -88 -40 -88 -78c0 -11.333 3.83301 -19.833 11.5 -25.5s17.167 -8.5 28.5 -8.5c12 0 23.333 4 34 12l34 -76
c-30.667 -24 -67.334 -36 -110.001 -36zM248.001 120c20.667 0 41.333 11.333 62 34v68c-72 -10.667 -108 -32.667 -108 -66c0 -24 15.333 -36 46 -36z" />
    <glyph glyph-name="Cacute" unicode="&#x106;" horiz-adv-x="586" 
d="M354 -12c-88 0 -161.667 28.832 -221 86.499s-89 139.5 -89 245.5c0 104.667 30.667 187.834 92 249.501s135.333 92.5 222 92.5c77.333 0 144.666 -28.667 201.999 -86l-90 -110c-36.667 32 -72.667 48 -108 48c-39.333 0 -72.833 -17 -100.5 -51
s-41.5 -79.667 -41.5 -137c0 -60 12.667 -106.667 38 -140s59.333 -50 102 -50c44 0 83.333 18.667 118 56l90 -108c-55.333 -64 -126.666 -96 -213.999 -96zM340 673.999l-76 86l182 144l90 -110z" />
    <glyph glyph-name="cacute" unicode="&#x107;" horiz-adv-x="472" 
d="M284 -12c-73.333 0 -133.667 23.5 -181 70.5s-71 110.833 -71 191.5c0 80 26 143.667 78 191s115.333 71 190 71c56 0 104.667 -17.333 146 -52l-80 -110c-19.333 16 -38 24 -56 24c-32 0 -57 -11.167 -75 -33.5s-27 -52.5 -27 -90.5c0 -37.333 9.16699 -67.333 27.5 -90
s41.166 -34 68.499 -34c24.667 0 51.334 10.667 80.001 32l66 -112c-44 -38.667 -99.333 -58 -166 -58zM314.999 572l-84 84l158 188l116 -114z" />
    <glyph glyph-name="Ccircumflex" unicode="&#x108;" horiz-adv-x="586" 
d="M354 -12c-88 0 -161.667 28.832 -221 86.499s-89 139.5 -89 245.5c0 104.667 30.667 187.834 92 249.501s135.333 92.5 222 92.5c77.333 0 144.666 -28.667 201.999 -86l-90 -110c-36.667 32 -72.667 48 -108 48c-39.333 0 -72.833 -17 -100.5 -51
s-41.5 -79.667 -41.5 -137c0 -60 12.667 -106.667 38 -140s59.333 -50 102 -50c44 0 83.333 18.667 118 56l90 -108c-55.333 -64 -126.666 -96 -213.999 -96zM170 723.999l84 110h188l84 -110l-74 -44l-102 80h-4l-102 -80z" />
    <glyph glyph-name="ccircumflex" unicode="&#x109;" horiz-adv-x="472" 
d="M284 -12c-73.333 0 -133.667 23.5 -181 70.5s-71 110.833 -71 191.5c0 80 26 143.667 78 191s115.333 71 190 71c56 0 104.667 -17.333 146 -52l-80 -110c-19.333 16 -38 24 -56 24c-32 0 -57 -11.167 -75 -33.5s-27 -52.5 -27 -90.5c0 -37.333 9.16699 -67.333 27.5 -90
s41.166 -34 68.499 -34c24.667 0 51.334 10.667 80.001 32l66 -112c-44 -38.667 -99.333 -58 -166 -58zM100.999 618l106 128h176l106 -128l-64 -60l-128 84h-4l-128 -84z" />
    <glyph glyph-name="Cdotaccent" unicode="&#x10a;" horiz-adv-x="586" 
d="M354 -12c-88 0 -161.667 28.832 -221 86.499s-89 139.5 -89 245.5c0 104.667 30.667 187.834 92 249.501s135.333 92.5 222 92.5c77.333 0 144.666 -28.667 201.999 -86l-90 -110c-36.667 32 -72.667 48 -108 48c-39.333 0 -72.833 -17 -100.5 -51
s-41.5 -79.667 -41.5 -137c0 -60 12.667 -106.667 38 -140s59.333 -50 102 -50c44 0 83.333 18.667 118 56l90 -108c-55.333 -64 -126.666 -96 -213.999 -96zM348 695.999c-28 0 -51 8 -69 24s-27 36.667 -27 62s9 46 27 62s41 24 69 24s51 -8 69 -24s27 -36.667 27 -62
s-9 -46 -27 -62s-41 -24 -69 -24z" />
    <glyph glyph-name="cdotaccent" unicode="&#x10b;" horiz-adv-x="472" 
d="M284 -12c-73.333 0 -133.667 23.5 -181 70.5s-71 110.833 -71 191.5c0 80 26 143.667 78 191s115.333 71 190 71c56 0 104.667 -17.333 146 -52l-80 -110c-19.333 16 -38 24 -56 24c-32 0 -57 -11.167 -75 -33.5s-27 -52.5 -27 -90.5c0 -37.333 9.16699 -67.333 27.5 -90
s41.166 -34 68.499 -34c24.667 0 51.334 10.667 80.001 32l66 -112c-44 -38.667 -99.333 -58 -166 -58zM294.999 562c-26.667 0 -48.667 8 -66 24s-26 36.667 -26 62s8.66699 46 26 62s39.333 24 66 24s48.667 -8 66 -24s26 -36.667 26 -62s-8.66699 -46 -26 -62
s-39.333 -24 -66 -24z" />
    <glyph glyph-name="Ccaron" unicode="&#x10c;" horiz-adv-x="586" 
d="M354 -12c-88 0 -161.667 28.832 -221 86.499s-89 139.5 -89 245.5c0 104.667 30.667 187.834 92 249.501s135.333 92.5 222 92.5c77.333 0 144.666 -28.667 201.999 -86l-90 -110c-36.667 32 -72.667 48 -108 48c-39.333 0 -72.833 -17 -100.5 -51
s-41.5 -79.667 -41.5 -137c0 -60 12.667 -106.667 38 -140s59.333 -50 102 -50c44 0 83.333 18.667 118 56l90 -108c-55.333 -64 -126.666 -96 -213.999 -96zM254 699.999l-84 110l74 44l102 -80h4l102 80l74 -44l-84 -110h-188z" />
    <glyph glyph-name="ccaron" unicode="&#x10d;" horiz-adv-x="472" 
d="M284 -12c-73.333 0 -133.667 23.5 -181 70.5s-71 110.833 -71 191.5c0 80 26 143.667 78 191s115.333 71 190 71c56 0 104.667 -17.333 146 -52l-80 -110c-19.333 16 -38 24 -56 24c-32 0 -57 -11.167 -75 -33.5s-27 -52.5 -27 -90.5c0 -37.333 9.16699 -67.333 27.5 -90
s41.166 -34 68.499 -34c24.667 0 51.334 10.667 80.001 32l66 -112c-44 -38.667 -99.333 -58 -166 -58zM206.999 578l-106 128l64 60l128 -84h4l128 84l64 -60l-106 -128h-176z" />
    <glyph glyph-name="Dcaron" unicode="&#x10e;" horiz-adv-x="642" 
d="M72 0l-0.000976562 650h192c104 0 185.667 -26 245 -78s89 -133.333 89 -244s-29.167 -193 -87.5 -247s-137.166 -81 -236.499 -81h-202zM243.999 138h9.99805c52.667 0 93.834 14 123.501 42s44.5 77.333 44.5 148c0 70 -14.667 118.167 -44 144.5
s-70.666 39.5 -123.999 39.5h-10v-374zM227.997 700l-84 110l74 44l102 -80h4l102 80l74 -44l-84 -110h-188z" />
    <glyph glyph-name="dcaron" unicode="&#x10f;" horiz-adv-x="630" 
d="M240 -12c-62 0 -111.5 23.5 -148.5 70.5s-55.5 110.833 -55.5 191.5c0 78.667 20.5 142 61.5 190s88.5 72 142.5 72c44 0 82.667 -16.667 116 -50l-6 72v162h172v-696h-140l-12 46h-4c-38.667 -38.667 -80.667 -58 -126 -58zM286 128c27.333 0 48.667 11.999 64 35.999
v184c-18 16 -40.667 24 -68 24c-20 0 -36.667 -9.66699 -50 -29s-20 -49.666 -20 -90.999c0 -82.667 24.667 -124 74 -124zM560.001 547.999l-6 226h108l-2 -74l-28 -152h-72z" />
    <glyph glyph-name="Dcroat" unicode="&#x110;" horiz-adv-x="668" 
d="M24 294l-0.000976562 74l74 6v276h192c104 0 185.667 -26 245 -78s89 -133.333 89 -244s-29.167 -193 -87.5 -247s-137.166 -81 -236.499 -81h-202v294h-74zM269.999 138h9.99805c52.667 0 93.834 14 123.501 42s44.5 77.333 44.5 148c0 70 -14.667 118.167 -44 144.5
s-70.666 39.5 -123.999 39.5h-10v-138h116v-80h-116v-156z" />
    <glyph glyph-name="dcroat" unicode="&#x111;" horiz-adv-x="580" 
d="M240 -12c-62 0 -111.499 21.834 -148.499 65.501s-55.5 101.167 -55.5 172.5c0 67.333 20.667 123.166 62 167.499s88.666 66.5 141.999 66.5c44 0 82.667 -16.667 116 -50l-6 72v68h-144v80h144v66h172v-66h66v-74l-66 -5v-551h-144l-10 40h-4
c-36 -34.667 -77.333 -52 -124 -52zM286.001 128.001c27.333 0 48.667 12 64 36v132c-18 16 -40.667 24 -68 24c-19.333 0 -35.833 -7.83301 -49.5 -23.5s-20.5 -38.5 -20.5 -68.5c0 -66.667 24.667 -100 74 -100z" />
    <glyph glyph-name="Emacron" unicode="&#x112;" horiz-adv-x="556" 
d="M72 0v650h420v-144h-248v-102h212v-144h-212v-116h258v-144h-430zM132 716v108h316v-108h-316z" />
    <glyph glyph-name="emacron" unicode="&#x113;" horiz-adv-x="526" 
d="M290 -12c-75.333 0 -137.166 23.5 -185.499 70.5s-72.5 110.833 -72.5 191.5c0 78 24 141.167 72 189.5s104 72.5 168 72.5c70.667 0 124.667 -22.667 162 -68s56 -103.333 56 -174c0 -29.333 -2.33301 -53.333 -7 -72h-285c14 -53.333 52.667 -80 116 -80
c32 0 66 10 102 30l56 -102c-54.667 -38.667 -115.334 -58 -182.001 -58zM196 310h148c0 48 -22.667 72 -68 72c-20 0 -37.167 -6 -51.5 -18s-23.833 -30 -28.5 -54zM118 588v108h308v-108h-308z" />
    <glyph glyph-name="Ebreve" unicode="&#x114;" horiz-adv-x="556" 
d="M72 0v650h420v-144h-248v-102h212v-144h-212v-116h258v-144h-430zM290 694c-103.333 0 -160 46.667 -170 140l92 16c8.66699 -38.667 34.667 -58 78 -58s69.333 19.333 78 58l92 -16c-10 -93.333 -66.667 -140 -170 -140z" />
    <glyph glyph-name="ebreve" unicode="&#x115;" horiz-adv-x="526" 
d="M290 -12c-75.333 0 -137.166 23.5 -185.499 70.5s-72.5 110.833 -72.5 191.5c0 78 24 141.167 72 189.5s104 72.5 168 72.5c70.667 0 124.667 -22.667 162 -68s56 -103.333 56 -174c0 -29.333 -2.33301 -53.333 -7 -72h-285c14 -53.333 52.667 -80 116 -80
c32 0 66 10 102 30l56 -102c-54.667 -38.667 -115.334 -58 -182.001 -58zM196 310h148c0 48 -22.667 72 -68 72c-20 0 -37.167 -6 -51.5 -18s-23.833 -30 -28.5 -54zM272 572c-56.667 0 -99.5 14.5 -128.5 43.5s-44.167 67.833 -45.5 116.5l96 16
c3.33301 -21.333 11.5 -38.333 24.5 -51s30.833 -19 53.5 -19s40.5 6.33301 53.5 19s21.167 29.667 24.5 51l96 -16c-1.33301 -49.333 -16.5 -88.333 -45.5 -117s-71.833 -43 -128.5 -43z" />
    <glyph glyph-name="Edotaccent" unicode="&#x116;" horiz-adv-x="556" 
d="M72 0v650h420v-144h-248v-102h212v-144h-212v-116h258v-144h-430zM290 696c-28 0 -51 8 -69 24s-27 36.667 -27 62s9 46 27 62s41 24 69 24s51 -8 69 -24s27 -36.667 27 -62s-9 -46 -27 -62s-41 -24 -69 -24z" />
    <glyph glyph-name="edotaccent" unicode="&#x117;" horiz-adv-x="526" 
d="M290 -12c-75.333 0 -137.166 23.5 -185.499 70.5s-72.5 110.833 -72.5 191.5c0 78 24 141.167 72 189.5s104 72.5 168 72.5c70.667 0 124.667 -22.667 162 -68s56 -103.333 56 -174c0 -29.333 -2.33301 -53.333 -7 -72h-285c14 -53.333 52.667 -80 116 -80
c32 0 66 10 102 30l56 -102c-54.667 -38.667 -115.334 -58 -182.001 -58zM196 310h148c0 48 -22.667 72 -68 72c-20 0 -37.167 -6 -51.5 -18s-23.833 -30 -28.5 -54zM272 562c-26.667 0 -48.667 8 -66 24s-26 36.667 -26 62s8.66699 46 26 62s39.333 24 66 24
s48.667 -8 66 -24s26 -36.667 26 -62s-8.66699 -46 -26 -62s-39.333 -24 -66 -24z" />
    <glyph glyph-name="Eogonek" unicode="&#x118;" horiz-adv-x="556" 
d="M410 -228c-35.333 0 -64.498 8.83008 -87.498 26.4971s-34.5 41.5 -34.5 71.5c0 28.667 8.16699 54.334 24.5 77.001s34.833 40.334 55.5 53.001h-296v650h420v-144h-248v-102h212v-144h-212v-116h258v-144h-6c-22.667 0 -42.334 -8.66699 -59.001 -26
s-25 -36.666 -25 -57.999c0 -11.333 3.83301 -19.833 11.5 -25.5s17.167 -8.5 28.5 -8.5c8.66699 0 20 4.66699 34 14l38 -86c-14 -11.333 -31.833 -20.5 -53.5 -27.5s-41.834 -10.5 -60.501 -10.5z" />
    <glyph glyph-name="eogonek" unicode="&#x119;" horiz-adv-x="526" 
d="M364 -212c-32 0 -58.333 8.16699 -79 24.5s-31 39.5 -31 69.5c0 38.667 18 74.667 54 108c-6.66699 -1.33301 -12.667 -2 -18 -2c-75.333 0 -137.166 23.5 -185.499 70.5s-72.5 110.833 -72.5 191.5c0 78 24 141.167 72 189.5s104 72.5 168 72.5
c70.667 0 124.667 -22.667 162 -68s56 -103.333 56 -174c0 -29.333 -2.33301 -53.333 -7 -72h-285c14 -53.333 52.667 -80 116 -80c32 0 66 10 102 30l56 -102c-42.667 -29.333 -71 -52.333 -85 -69s-21 -35 -21 -55c0 -22.667 13.667 -34 41 -34c10 0 21 4 33 12l34 -76
c-30.667 -24 -67.334 -36 -110.001 -36zM196 310h148c0 48 -22.667 72 -68 72c-20 0 -37.167 -6 -51.5 -18s-23.833 -30 -28.5 -54z" />
    <glyph glyph-name="Ecaron" unicode="&#x11a;" horiz-adv-x="556" 
d="M72 0v650h420v-144h-248v-102h212v-144h-212v-116h258v-144h-430zM196 700l-84 110l74 44l102 -80h4l102 80l74 -44l-84 -110h-188z" />
    <glyph glyph-name="ecaron" unicode="&#x11b;" horiz-adv-x="526" 
d="M290 -12c-75.333 0 -137.166 23.5 -185.499 70.5s-72.5 110.833 -72.5 191.5c0 78 24 141.167 72 189.5s104 72.5 168 72.5c70.667 0 124.667 -22.667 162 -68s56 -103.333 56 -174c0 -29.333 -2.33301 -53.333 -7 -72h-285c14 -53.333 52.667 -80 116 -80
c32 0 66 10 102 30l56 -102c-54.667 -38.667 -115.334 -58 -182.001 -58zM196 310h148c0 48 -22.667 72 -68 72c-20 0 -37.167 -6 -51.5 -18s-23.833 -30 -28.5 -54zM184 578l-106 128l64 60l128 -84h4l128 84l64 -60l-106 -128h-176z" />
    <glyph glyph-name="Gcircumflex" unicode="&#x11c;" horiz-adv-x="646" 
d="M372 -12c-96 0 -174.667 28.668 -236 86.001s-92 139.333 -92 246c0 105.333 31.333 188.666 94 249.999s139.334 92 230.001 92c84 0 154.667 -28.667 212 -86l-90 -110c-36.667 32 -75.334 48 -116.001 48c-45.333 0 -82.333 -16.833 -111 -50.5s-43 -79.5 -43 -137.5
c0 -126.667 56.667 -190 170 -190c21.333 0 38 4 50 12v90h-96v140h248v-310c-24 -23.333 -55.667 -42.5 -95 -57.5s-81 -22.5 -125 -22.5zM194 724.001l84 110h188l84 -110l-74 -44l-102 80h-4l-102 -80z" />
    <glyph glyph-name="gcircumflex" unicode="&#x11d;" horiz-adv-x="546" 
d="M240 -206c-62 0 -112.499 10.0029 -151.499 30.0029s-58.5 51.333 -58.5 94c0 39.333 23.333 71.333 70 96v4c-30.667 21.333 -46 50 -46 86s18.667 67.333 56 94v4c-19.333 13.333 -35.5 31.166 -48.5 53.499s-19.5 47.166 -19.5 74.499
c0 58.667 20.833 103.667 62.5 135s92.167 47 151.5 47c29.333 0 56 -4 80 -12h186v-124h-72c5.33301 -16 8 -33.333 8 -52c0 -56 -18.667 -97.667 -56 -125s-86 -41 -146 -41c-16.667 0 -35.334 2.33301 -56.001 7c-8 -7.33301 -12 -17 -12 -29
c0 -10.667 5.33301 -18.334 16 -23.001s28.667 -7 54 -7h75c131.333 0 197 -43.333 197 -130c0 -54.667 -26.333 -98.667 -79 -132s-123 -50 -211 -50zM256.001 260.003c36 0 54.002 23.333 54.002 70c0 22 -4.83301 38.833 -14.5 50.5s-22.834 17.5 -39.501 17.5
s-29.834 -5.83301 -39.501 -17.5s-14.5 -28.5 -14.5 -50.5c0 -46.667 18 -70 54 -70zM268.003 -99.9971c28.667 0 52.167 4.16699 70.5 12.5s27.5 19.5 27.5 33.5c0 12 -5.16699 20 -15.5 24s-27.5 6 -51.5 6h-39c-34 0 -58 2 -72 6c-12 -12 -18 -24 -18 -36
c0 -30.667 32.667 -46 98 -46zM90.0029 618.003l106 128h176l106 -128l-64 -60l-128 84h-4l-128 -84z" />
    <glyph glyph-name="Gbreve" unicode="&#x11e;" horiz-adv-x="646" 
d="M372 -12c-96 0 -174.667 28.668 -236 86.001s-92 139.333 -92 246c0 105.333 31.333 188.666 94 249.999s139.334 92 230.001 92c84 0 154.667 -28.667 212 -86l-90 -110c-36.667 32 -75.334 48 -116.001 48c-45.333 0 -82.333 -16.833 -111 -50.5s-43 -79.5 -43 -137.5
c0 -126.667 56.667 -190 170 -190c21.333 0 38 4 50 12v90h-96v140h248v-310c-24 -23.333 -55.667 -42.5 -95 -57.5s-81 -22.5 -125 -22.5zM372 694.001c-103.333 0 -160 46.667 -170 140l92 16c8.66699 -38.667 34.667 -58 78 -58s69.333 19.333 78 58l92 -16
c-10 -93.333 -66.667 -140 -170 -140z" />
    <glyph glyph-name="gbreve" unicode="&#x11f;" horiz-adv-x="546" 
d="M240 -206c-62 0 -112.499 10.0029 -151.499 30.0029s-58.5 51.333 -58.5 94c0 39.333 23.333 71.333 70 96v4c-30.667 21.333 -46 50 -46 86s18.667 67.333 56 94v4c-19.333 13.333 -35.5 31.166 -48.5 53.499s-19.5 47.166 -19.5 74.499
c0 58.667 20.833 103.667 62.5 135s92.167 47 151.5 47c29.333 0 56 -4 80 -12h186v-124h-72c5.33301 -16 8 -33.333 8 -52c0 -56 -18.667 -97.667 -56 -125s-86 -41 -146 -41c-16.667 0 -35.334 2.33301 -56.001 7c-8 -7.33301 -12 -17 -12 -29
c0 -10.667 5.33301 -18.334 16 -23.001s28.667 -7 54 -7h75c131.333 0 197 -43.333 197 -130c0 -54.667 -26.333 -98.667 -79 -132s-123 -50 -211 -50zM256.001 260.003c36 0 54.002 23.333 54.002 70c0 22 -4.83301 38.833 -14.5 50.5s-22.834 17.5 -39.501 17.5
s-29.834 -5.83301 -39.501 -17.5s-14.5 -28.5 -14.5 -50.5c0 -46.667 18 -70 54 -70zM268.003 -99.9971c28.667 0 52.167 4.16699 70.5 12.5s27.5 19.5 27.5 33.5c0 12 -5.16699 20 -15.5 24s-27.5 6 -51.5 6h-39c-34 0 -58 2 -72 6c-12 -12 -18 -24 -18 -36
c0 -30.667 32.667 -46 98 -46zM284.003 572.003c-56.667 0 -99.5 14.5 -128.5 43.5s-44.167 67.833 -45.5 116.5l96 16c3.33301 -21.333 11.5 -38.333 24.5 -51s30.833 -19 53.5 -19s40.5 6.33301 53.5 19s21.167 29.667 24.5 51l96 -16
c-1.33301 -49.333 -16.5 -88.333 -45.5 -117s-71.833 -43 -128.5 -43z" />
    <glyph glyph-name="Gdotaccent" unicode="&#x120;" horiz-adv-x="646" 
d="M372 -12c-96 0 -174.667 28.668 -236 86.001s-92 139.333 -92 246c0 105.333 31.333 188.666 94 249.999s139.334 92 230.001 92c84 0 154.667 -28.667 212 -86l-90 -110c-36.667 32 -75.334 48 -116.001 48c-45.333 0 -82.333 -16.833 -111 -50.5s-43 -79.5 -43 -137.5
c0 -126.667 56.667 -190 170 -190c21.333 0 38 4 50 12v90h-96v140h248v-310c-24 -23.333 -55.667 -42.5 -95 -57.5s-81 -22.5 -125 -22.5zM372 696.001c-28 0 -51 8 -69 24s-27 36.667 -27 62s9 46 27 62s41 24 69 24s51 -8 69 -24s27 -36.667 27 -62s-9 -46 -27 -62
s-41 -24 -69 -24z" />
    <glyph glyph-name="gdotaccent" unicode="&#x121;" horiz-adv-x="546" 
d="M240 -206c-62 0 -112.499 10.0029 -151.499 30.0029s-58.5 51.333 -58.5 94c0 39.333 23.333 71.333 70 96v4c-30.667 21.333 -46 50 -46 86s18.667 67.333 56 94v4c-19.333 13.333 -35.5 31.166 -48.5 53.499s-19.5 47.166 -19.5 74.499
c0 58.667 20.833 103.667 62.5 135s92.167 47 151.5 47c29.333 0 56 -4 80 -12h186v-124h-72c5.33301 -16 8 -33.333 8 -52c0 -56 -18.667 -97.667 -56 -125s-86 -41 -146 -41c-16.667 0 -35.334 2.33301 -56.001 7c-8 -7.33301 -12 -17 -12 -29
c0 -10.667 5.33301 -18.334 16 -23.001s28.667 -7 54 -7h75c131.333 0 197 -43.333 197 -130c0 -54.667 -26.333 -98.667 -79 -132s-123 -50 -211 -50zM256.001 260.003c36 0 54.002 23.333 54.002 70c0 22 -4.83301 38.833 -14.5 50.5s-22.834 17.5 -39.501 17.5
s-29.834 -5.83301 -39.501 -17.5s-14.5 -28.5 -14.5 -50.5c0 -46.667 18 -70 54 -70zM268.003 -99.9971c28.667 0 52.167 4.16699 70.5 12.5s27.5 19.5 27.5 33.5c0 12 -5.16699 20 -15.5 24s-27.5 6 -51.5 6h-39c-34 0 -58 2 -72 6c-12 -12 -18 -24 -18 -36
c0 -30.667 32.667 -46 98 -46zM284.003 562.003c-26.667 0 -48.667 8 -66 24s-26 36.667 -26 62s8.66699 46 26 62s39.333 24 66 24s48.667 -8 66 -24s26 -36.667 26 -62s-8.66699 -46 -26 -62s-39.333 -24 -66 -24z" />
    <glyph glyph-name="uni0122" unicode="&#x122;" horiz-adv-x="646" 
d="M372 -12c-96 0 -174.667 28.668 -236 86.001s-92 139.333 -92 246c0 105.333 31.333 188.666 94 249.999s139.334 92 230.001 92c84 0 154.667 -28.667 212 -86l-90 -110c-36.667 32 -75.334 48 -116.001 48c-45.333 0 -82.333 -16.833 -111 -50.5s-43 -79.5 -43 -137.5
c0 -126.667 56.667 -190 170 -190c21.333 0 38 4 50 12v90h-96v140h248v-310c-24 -23.333 -55.667 -42.5 -95 -57.5s-81 -22.5 -125 -22.5zM260 -243.999l-11.999 66.001c37.333 2 63.333 5.66699 78 11s22 13.666 22 24.999c0 18 -20 28.667 -60 32l32 60
c55.333 -4 94.166 -12.833 116.499 -26.5s33.5 -33.5 33.5 -59.5c0 -68 -70 -104 -210 -108z" />
    <glyph glyph-name="uni0123" unicode="&#x123;" horiz-adv-x="546" 
d="M240 -206c-62 0 -112.499 10.0029 -151.499 30.0029s-58.5 51.333 -58.5 94c0 39.333 23.333 71.333 70 96v4c-30.667 21.333 -46 50 -46 86s18.667 67.333 56 94v4c-19.333 13.333 -35.5 31.166 -48.5 53.499s-19.5 47.166 -19.5 74.499
c0 58.667 20.833 103.667 62.5 135s92.167 47 151.5 47c29.333 0 56 -4 80 -12h186v-124h-72c5.33301 -16 8 -33.333 8 -52c0 -56 -18.667 -97.667 -56 -125s-86 -41 -146 -41c-16.667 0 -35.334 2.33301 -56.001 7c-8 -7.33301 -12 -17 -12 -29
c0 -10.667 5.33301 -18.334 16 -23.001s28.667 -7 54 -7h75c131.333 0 197 -43.333 197 -130c0 -54.667 -26.333 -98.667 -79 -132s-123 -50 -211 -50zM256.001 260.003c36 0 54.002 23.333 54.002 70c0 22 -4.83301 38.833 -14.5 50.5s-22.834 17.5 -39.501 17.5
s-29.834 -5.83301 -39.501 -17.5s-14.5 -28.5 -14.5 -50.5c0 -46.667 18 -70 54 -70zM268.003 -99.9971c28.667 0 52.167 4.16699 70.5 12.5s27.5 19.5 27.5 33.5c0 12 -5.16699 20 -15.5 24s-27.5 6 -51.5 6h-39c-34 0 -58 2 -72 6c-12 -12 -18 -24 -18 -36
c0 -30.667 32.667 -46 98 -46zM332.003 566.003c-55.333 4 -94.167 12.832 -116.5 26.499s-33.5 33.5 -33.5 59.5c0 68 70 104 210 108l12 -66c-37.333 -2 -63.333 -5.66699 -78 -11s-22 -13.666 -22 -24.999c0 -18 20 -28.667 60 -32z" />
    <glyph glyph-name="Hcircumflex" unicode="&#x124;" horiz-adv-x="682" 
d="M72 0v650h172v-242h194v242h172v-650h-172v258h-194v-258h-172zM162 724l84 110h188l84 -110l-74 -44l-102 80h-4l-102 -80z" />
    <glyph glyph-name="hcircumflex" unicode="&#x125;" horiz-adv-x="582" 
d="M58 0l-0.000976562 696h172v-162l-8 -86c48.667 42.667 98.667 64 150 64c104 0 156 -68 156 -204v-308h-172v286c0 30.667 -3.83301 51.667 -11.5 63s-20.5 17 -38.5 17c-23.333 0 -48.666 -12.667 -75.999 -38v-328h-172zM-36.001 774l84 110h188l84 -110l-74 -44
l-102 80h-4l-102 -80z" />
    <glyph glyph-name="Hbar" unicode="&#x126;" horiz-adv-x="722" 
d="M22 484v74l70 6v86h172v-86h194v86h172v-86h70v-80h-70v-484h-172v258h-194v-258h-172v484h-70zM264 408h194v76h-194v-76z" />
    <glyph glyph-name="hbar" unicode="&#x127;" horiz-adv-x="582" 
d="M58 0l-0.000976562 550h-66v74l66 5v67h172v-66h164v-80h-164v-68l-8 -86c48.667 42.667 98.667 64 150 64c104 0 156 -68 156 -204v-256h-172v234c0 30.667 -3.83301 51.667 -11.5 63s-20.5 17 -38.5 17c-23.333 0 -48.666 -12.667 -75.999 -38v-276h-172z" />
    <glyph glyph-name="Itilde" unicode="&#x128;" horiz-adv-x="316" 
d="M72 0v650h172v-650h-172zM228 686c-26.667 0 -54.167 8.66699 -82.5 26s-45.5 26 -51.5 26c-18 0 -28.667 -14 -32 -42l-110 8c2.66699 52 16.167 90.333 40.5 115s56.166 37 95.499 37c26.667 0 54.167 -8.66699 82.5 -26s45.5 -26 51.5 -26c18 0 28.667 14 32 42
l110 -8c-2.66699 -52 -16.167 -90.333 -40.5 -115s-56.166 -37 -95.499 -37z" />
    <glyph glyph-name="itilde" unicode="&#x129;" horiz-adv-x="288" 
d="M58 0v500h172v-500h-172zM208 572c-22.667 0 -47.5 9.33301 -74.5 28s-43.5 28 -49.5 28c-16.667 0 -26.667 -15.333 -30 -46l-106 6c2 105.333 46 158 132 158c22.667 0 47.5 -9.33301 74.5 -28s43.5 -28 49.5 -28c16.667 0 26.667 15.333 30 46l106 -6
c-2 -105.333 -46 -158 -132 -158z" />
    <glyph glyph-name="Imacron" unicode="&#x12a;" horiz-adv-x="316" 
d="M72 0v650h172v-650h-172zM0 716v108h316v-108h-316z" />
    <glyph glyph-name="imacron" unicode="&#x12b;" horiz-adv-x="288" 
d="M58 0v500h172v-500h-172zM-10 588v108h308v-108h-308z" />
    <glyph glyph-name="uni012C" unicode="&#x12c;" horiz-adv-x="316" 
d="M72 0v650h172v-650h-172zM158 694c-103.333 0 -160 46.667 -170 140l92 16c8.66699 -38.667 34.667 -58 78 -58s69.333 19.333 78 58l92 -16c-10 -93.333 -66.667 -140 -170 -140z" />
    <glyph glyph-name="uni012D" unicode="&#x12d;" horiz-adv-x="288" 
d="M58 0v500h172v-500h-172zM144 572c-56.667 0 -99.5 14.5 -128.5 43.5s-44.167 67.833 -45.5 116.5l96 16c3.33301 -21.333 11.5 -38.333 24.5 -51s30.833 -19 53.5 -19s40.5 6.33301 53.5 19s21.167 29.667 24.5 51l96 -16c-1.33301 -49.333 -16.5 -88.333 -45.5 -117
s-71.833 -43 -128.5 -43z" />
    <glyph glyph-name="Iogonek" unicode="&#x12e;" horiz-adv-x="316" 
d="M164 -228c-35.333 0 -64.501 8.83301 -87.501 26.5s-34.5 41.5 -34.5 71.5c0 29.333 8.16699 55.333 24.5 78s33.833 40 52.5 52h-47v650h172v-650c-52 -16 -78 -44 -78 -84c0 -11.333 3.83301 -19.833 11.5 -25.5s16.834 -8.5 27.501 -8.5s22.334 4.66699 35.001 14
l38 -86c-14 -11.333 -31.833 -20.5 -53.5 -27.5s-41.834 -10.5 -60.501 -10.5z" />
    <glyph glyph-name="iogonek" unicode="&#x12f;" horiz-adv-x="288" 
d="M154 -212c-32.667 0 -59.499 8.16797 -80.499 24.501s-31.5 39.5 -31.5 69.5c0 47.333 22 86.666 66 117.999h-50v500h172v-500c-49.333 -13.333 -74 -39.333 -74 -78c0 -10.667 3.83301 -19 11.5 -25s17.5 -9 29.5 -9c7.33301 0 18.333 4 33 12l34 -76
c-30.667 -24 -67.334 -36 -110.001 -36zM144.001 562.001c-28 0 -51 8 -69 24s-27 36.667 -27 62s9 46 27 62s41 24 69 24s51 -8 69 -24s27 -36.667 27 -62s-9 -46 -27 -62s-41 -24 -69 -24z" />
    <glyph glyph-name="Idotaccent" unicode="&#x130;" horiz-adv-x="316" 
d="M72 0v650h172v-650h-172zM158 696c-28 0 -51 8 -69 24s-27 36.667 -27 62s9 46 27 62s41 24 69 24s51 -8 69 -24s27 -36.667 27 -62s-9 -46 -27 -62s-41 -24 -69 -24z" />
    <glyph glyph-name="dotlessi" unicode="&#x131;" horiz-adv-x="288" 
d="M58 0v500h172v-500h-172z" />
    <glyph glyph-name="uni0132" unicode="&#x132;" horiz-adv-x="632" 
d="M72 0v650h172v-650h-172zM366 -188c-37.333 0 -68.667 4.66699 -94 14l30 126c14 -4 26 -6 36 -6c18 0 30.833 5.66699 38.5 17s11.5 30.333 11.5 57v630h172v-624c0 -63.333 -15 -114.833 -45 -154.5s-79.667 -59.5 -149 -59.5z" />
    <glyph glyph-name="uni0133" unicode="&#x133;" horiz-adv-x="578" 
d="M58 0v500h172v-500h-172zM144 562c-28 0 -51 8 -69 24s-27 36.667 -27 62s9 46 27 62s41 24 69 24s51 -8 69 -24s27 -36.667 27 -62s-9 -46 -27 -62s-41 -24 -69 -24zM326 -188c-37.333 0 -68.667 4.66699 -94 14l30 126c14 -4 26 -6 36 -6c18 0 30.833 5.66699 38.5 17
s11.5 30.333 11.5 57v480h172v-474c0 -63.333 -15 -114.833 -45 -154.5s-79.667 -59.5 -149 -59.5zM433.999 562c-28 0 -51 8 -69 24s-27 36.667 -27 62s9 46 27 62s41 24 69 24s51 -8 69 -24s27 -36.667 27 -62s-9 -46 -27 -62s-41 -24 -69 -24z" />
    <glyph glyph-name="Jcircumflex" unicode="&#x134;" horiz-adv-x="520" 
d="M232 -12c-100.667 0 -174.667 41 -222 123l116 87c21.333 -41.333 48.666 -62 81.999 -62c24.667 0 42.834 7.5 54.501 22.5s17.5 42.167 17.5 81.5v410h172v-424c0 -69.333 -18.833 -126.333 -56.5 -171s-92.167 -67 -163.5 -67zM186 724l84 110h188l84 -110l-74 -44
l-102 80h-4l-102 -80z" />
    <glyph glyph-name="jcircumflex" unicode="&#x135;" horiz-adv-x="290" 
d="M38 -188c-37.333 0 -68.667 4.66699 -94 14l30 126c14 -4 26 -6 36 -6c18 0 30.833 5.66699 38.5 17s11.5 30.333 11.5 57v480h172v-474c0 -63.333 -15 -114.833 -45 -154.5s-79.667 -59.5 -149 -59.5zM-48.001 618l106 128h176l106 -128l-64 -60l-128 84h-4l-128 -84z
" />
    <glyph glyph-name="uni0136" unicode="&#x136;" horiz-adv-x="628" 
d="M72 0v650h172v-242h4l164 242h188l-194 -264l232 -386h-188l-144 250l-62 -88v-162h-172zM226 -244l-11.999 66.001c37.333 2 63.333 5.66699 78 11s22 13.666 22 24.999c0 18 -20 28.667 -60 32l32 60c55.333 -4 94.166 -12.833 116.499 -26.5s33.5 -33.5 33.5 -59.5
c0 -68 -70 -104 -210 -108z" />
    <glyph glyph-name="uni0137" unicode="&#x137;" horiz-adv-x="568" 
d="M58 0v696h168v-370h4l138 174h186l-178 -208l188 -292h-186l-100 178l-52 -58v-120h-168zM196 -244l-11.999 66.001c37.333 2 63.333 5.66699 78 11s22 13.666 22 24.999c0 18 -20 28.667 -60 32l32 60c55.333 -4 94.166 -12.833 116.499 -26.5s33.5 -33.5 33.5 -59.5
c0 -68 -70 -104 -210 -108z" />
    <glyph glyph-name="kgreenlandic" unicode="&#x138;" horiz-adv-x="568" 
d="M58 0v500h172v-178h4l134 178h186l-174 -208l184 -292h-186l-100 172l-48 -58v-114h-172z" />
    <glyph glyph-name="Lacute" unicode="&#x139;" horiz-adv-x="530" 
d="M72 0v650h172v-506h246v-144h-418zM154 674l-76 86l182 144l90 -110z" />
    <glyph glyph-name="lacute" unicode="&#x13a;" horiz-adv-x="298" 
d="M212 -12c-102.667 0 -154 62.667 -154 188v520h172v-526c0 -15.333 2.83301 -26.5 8.5 -33.5s12.167 -10.5 19.5 -10.5c6.66699 0 12.667 0.666992 18 2l20 -126c-21.333 -9.33301 -49.333 -14 -84 -14zM141 730l-76 86l182 144l90 -110z" />
    <glyph glyph-name="uni013B" unicode="&#x13b;" horiz-adv-x="530" 
d="M72 0v650h172v-506h246v-144h-418zM183 -244l-11.999 66.001c37.333 2 63.333 5.66699 78 11s22 13.666 22 24.999c0 18 -20 28.667 -60 32l32 60c55.333 -4 94.166 -12.833 116.499 -26.5s33.5 -33.5 33.5 -59.5c0 -68 -70 -104 -210 -108z" />
    <glyph glyph-name="uni013C" unicode="&#x13c;" horiz-adv-x="298" 
d="M212 -12c-102.667 0 -154 62.667 -154 188v520h172v-526c0 -15.333 2.83301 -26.5 8.5 -33.5s12.167 -10.5 19.5 -10.5c6.66699 0 12.667 0.666992 18 2l20 -126c-21.333 -9.33301 -49.333 -14 -84 -14zM90 -244l-11.999 66.001c37.333 2 63.333 5.66699 78 11
s22 13.666 22 24.999c0 18 -20 28.667 -60 32l32 60c55.333 -4 94.166 -12.833 116.499 -26.5s33.5 -33.5 33.5 -59.5c0 -68 -70 -104 -210 -108z" />
    <glyph glyph-name="Lcaron" unicode="&#x13d;" horiz-adv-x="530" 
d="M72 0v650h172v-506h246v-144h-418zM360 508l-6 226h108l-2 -74l-28 -152h-72z" />
    <glyph glyph-name="lcaron" unicode="&#x13e;" horiz-adv-x="338" 
d="M212 -12c-102.667 0 -154 62.667 -154 188v520h172v-526c0 -15.333 2.83301 -26.5 8.5 -33.5s12.167 -10.5 19.5 -10.5c6.66699 0 12.667 0.666992 18 2l20 -126c-21.333 -9.33301 -49.333 -14 -84 -14zM268 548l-6 226h108l-2 -74l-28 -152h-72z" />
    <glyph glyph-name="Ldot" unicode="&#x13f;" horiz-adv-x="530" 
d="M72 0v650h172v-506h246v-144h-418zM423 226c-28.667 0 -52.5 10 -71.5 30s-28.5 44.667 -28.5 74s9.5 54 28.5 74s42.833 30 71.5 30s52.5 -10 71.5 -30s28.5 -44.667 28.5 -74s-9.5 -54 -28.5 -74s-42.833 -30 -71.5 -30z" />
    <glyph glyph-name="ldot" unicode="&#x140;" horiz-adv-x="488" 
d="M212 -12c-102.667 0 -154 62.667 -154 188v520h172v-526c0 -15.333 2.83301 -26.5 8.5 -33.5s12.167 -10.5 19.5 -10.5c6.66699 0 12.667 0.666992 18 2l20 -126c-21.333 -9.33301 -49.333 -14 -84 -14zM388 226c-28.667 0 -52.5 10 -71.5 30s-28.5 44.667 -28.5 74
s9.5 54 28.5 74s42.833 30 71.5 30s52.5 -10 71.5 -30s28.5 -44.667 28.5 -74s-9.5 -54 -28.5 -74s-42.833 -30 -71.5 -30z" />
    <glyph glyph-name="Lslash" unicode="&#x141;" horiz-adv-x="538" 
d="M28 166l-58 102l110 63v319h172v-240l150 84l58 -102l-208 -115v-133h246v-144h-418v198z" />
    <glyph glyph-name="lslash" unicode="&#x142;" horiz-adv-x="318" 
d="M224 -12c-102.667 0 -154 62.667 -154 188v79l-40 -23l-58 106l98 54v304h172v-222l46 26l58 -106l-104 -56v-168c0 -15.333 2.83301 -26.5 8.5 -33.5s12.167 -10.5 19.5 -10.5c6.66699 0 12.667 0.666992 18 2l20 -126c-21.333 -9.33301 -49.333 -14 -84 -14z" />
    <glyph glyph-name="Nacute" unicode="&#x143;" horiz-adv-x="672" 
d="M72 0v650.001h176l144 -290l62 -146h4c-14.667 128 -22 210.667 -22 248v188h164v-650h-176l-144 291l-62 145h-4c1.33301 -10.667 3.5 -29.667 6.5 -57l7.5 -66.5c2 -17 3.83301 -37.333 5.5 -61s2.5 -44.834 2.5 -63.501v-188h-164zM328 674.001l-76 86l182 144
l90 -110z" />
    <glyph glyph-name="nacute" unicode="&#x144;" horiz-adv-x="582" 
d="M58 0l-0.00195312 500h140l12 -60h4c50.667 48 103.334 72 158.001 72c104 0 156 -68 156 -204v-308h-172v286c0 30.667 -3.83301 51.667 -11.5 63s-20.5 17 -38.5 17c-23.333 0 -48.666 -12.667 -75.999 -38v-328h-172zM333.998 572l-84 84l158 188l116 -114z" />
    <glyph glyph-name="uni0145" unicode="&#x145;" horiz-adv-x="672" 
d="M72 0v650.001h176l144 -290l62 -146h4c-14.667 128 -22 210.667 -22 248v188h164v-650h-176l-144 291l-62 145h-4c1.33301 -10.667 3.5 -29.667 6.5 -57l7.5 -66.5c2 -17 3.83301 -37.333 5.5 -61s2.5 -44.834 2.5 -63.501v-188h-164zM242 -243.999l-11.999 66.001
c37.333 2 63.333 5.66699 78 11s22 13.666 22 24.999c0 18 -20 28.667 -60 32l32 60c55.333 -4 94.166 -12.833 116.499 -26.5s33.5 -33.5 33.5 -59.5c0 -68 -70 -104 -210 -108z" />
    <glyph glyph-name="uni0146" unicode="&#x146;" horiz-adv-x="582" 
d="M58 0l-0.00195312 500h140l12 -60h4c50.667 48 103.334 72 158.001 72c104 0 156 -68 156 -204v-308h-172v286c0 30.667 -3.83301 51.667 -11.5 63s-20.5 17 -38.5 17c-23.333 0 -48.666 -12.667 -75.999 -38v-328h-172zM187.998 -244l-11.999 66.001
c37.333 2 63.333 5.66699 78 11s22 13.666 22 24.999c0 18 -20 28.667 -60 32l32 60c55.333 -4 94.166 -12.833 116.499 -26.5s33.5 -33.5 33.5 -59.5c0 -68 -70 -104 -210 -108z" />
    <glyph glyph-name="Ncaron" unicode="&#x147;" horiz-adv-x="672" 
d="M72 0v650.001h176l144 -290l62 -146h4c-14.667 128 -22 210.667 -22 248v188h164v-650h-176l-144 291l-62 145h-4c1.33301 -10.667 3.5 -29.667 6.5 -57l7.5 -66.5c2 -17 3.83301 -37.333 5.5 -61s2.5 -44.834 2.5 -63.501v-188h-164zM242 700.001l-84 110l74 44l102 -80
h4l102 80l74 -44l-84 -110h-188z" />
    <glyph glyph-name="ncaron" unicode="&#x148;" horiz-adv-x="582" 
d="M58 0l-0.00195312 500h140l12 -60h4c50.667 48 103.334 72 158.001 72c104 0 156 -68 156 -204v-308h-172v286c0 30.667 -3.83301 51.667 -11.5 63s-20.5 17 -38.5 17c-23.333 0 -48.666 -12.667 -75.999 -38v-328h-172zM225.998 578l-106 128l64 60l128 -84h4l128 84
l64 -60l-106 -128h-176z" />
    <glyph glyph-name="napostrophe" unicode="&#x149;" horiz-adv-x="882" 
d="M358 0l-0.00195312 500h140l12 -60h4c50.667 48 103.334 72 158.001 72c104 0 156 -68 156 -204v-308h-172v286c0 30.667 -3.83301 51.667 -11.5 63s-20.5 17 -38.5 17c-23.333 0 -48.666 -12.667 -75.999 -38v-328h-172zM109.998 322l-36 74c64 28 96 70.333 96 127
c-2 -0.666992 -5.33301 -1 -10 -1c-24.667 0 -45.167 7.5 -61.5 22.5s-24.5 34.833 -24.5 59.5c0 28 8 50.333 24 67s36.667 25 62 25c34.667 0 61 -12.667 79 -38s27 -61.333 27 -108c0 -102.667 -52 -178.667 -156 -228z" />
    <glyph glyph-name="uni014A" unicode="&#x14a;" horiz-adv-x="678" 
d="M414 -12c-43.333 0 -74.665 6.66797 -93.998 20.001l36 148c13.333 -5.33301 26 -8 38 -8c13.333 0 24.166 4.16699 32.499 12.5s15.666 26.5 21.999 54.5s9.5 66.333 9.5 115c0 122.667 -33.333 184 -100 184c-20 0 -40.5 -6.5 -61.5 -19.5s-38.5 -31.833 -52.5 -56.5
v-438h-172v650h166v-66c48 52 105.667 78 173 78c68 0 122.167 -26.667 162.5 -80s60.5 -137.333 60.5 -252s-17.667 -200.334 -53 -257.001s-91 -85 -167 -85z" />
    <glyph glyph-name="uni014B" unicode="&#x14b;" horiz-adv-x="582" 
d="M334 -188c-37.333 0 -68.6689 4.66699 -94.002 14l30 126c14 -4 26 -6 36 -6c18 0 30.833 5.66699 38.5 17s11.5 30.333 11.5 57v266c0 30.667 -3.83301 51.667 -11.5 63s-20.5 17 -38.5 17c-23.333 0 -48.666 -12.667 -75.999 -38v-328h-172v500h140l12 -60h4
c50.667 48 103.334 72 158.001 72c104 0 156 -68 156 -204v-282c0 -63.333 -15 -114.833 -45 -154.5s-79.667 -59.5 -149 -59.5z" />
    <glyph glyph-name="Omacron" unicode="&#x14c;" horiz-adv-x="692" 
d="M346 -12c-91.333 0 -164.5 30.333 -219.5 91s-82.5 143.667 -82.5 249s27.5 187.333 82.5 246s128.167 88 219.5 88s164.5 -29.5 219.5 -88.5s82.5 -140.833 82.5 -245.5c0 -105.333 -27.5 -188.333 -82.5 -249s-128.167 -91 -219.5 -91zM346 136
c38.667 0 69.3301 17.167 91.9971 51.5s34 81.166 34 140.499c0 58.667 -11.167 104.334 -33.5 137.001s-53.166 49 -92.499 49s-70.166 -16.333 -92.499 -49s-33.5 -78.334 -33.5 -137.001c0 -59.333 11.333 -106.166 34 -140.499s53.334 -51.5 92.001 -51.5zM187.996 716
v108h316v-108h-316z" />
    <glyph glyph-name="omacron" unicode="&#x14d;" horiz-adv-x="560" 
d="M280 -12c-67.333 0 -125.5 23.833 -174.5 71.5s-73.5 111.167 -73.5 190.5s24.5 142.833 73.5 190.5s107.167 71.5 174.5 71.5s125.5 -23.833 174.5 -71.5s73.5 -111.167 73.5 -190.5s-24.5 -142.833 -73.5 -190.5s-107.167 -71.5 -174.5 -71.5zM280 126
c48 0 72 41.333 72 124s-24 124 -72 124s-72 -41.333 -72 -124s24 -124 72 -124zM126 588v108h308v-108h-308z" />
    <glyph glyph-name="uni014E" unicode="&#x14e;" horiz-adv-x="692" 
d="M346 -12c-91.333 0 -164.5 30.333 -219.5 91s-82.5 143.667 -82.5 249s27.5 187.333 82.5 246s128.167 88 219.5 88s164.5 -29.5 219.5 -88.5s82.5 -140.833 82.5 -245.5c0 -105.333 -27.5 -188.333 -82.5 -249s-128.167 -91 -219.5 -91zM346 136
c38.667 0 69.3301 17.167 91.9971 51.5s34 81.166 34 140.499c0 58.667 -11.167 104.334 -33.5 137.001s-53.166 49 -92.499 49s-70.166 -16.333 -92.499 -49s-33.5 -78.334 -33.5 -137.001c0 -59.333 11.333 -106.166 34 -140.499s53.334 -51.5 92.001 -51.5zM345.996 694
c-103.333 0 -160 46.667 -170 140l92 16c8.66699 -38.667 34.667 -58 78 -58s69.333 19.333 78 58l92 -16c-10 -93.333 -66.667 -140 -170 -140z" />
    <glyph glyph-name="uni014F" unicode="&#x14f;" horiz-adv-x="560" 
d="M280 -12c-67.333 0 -125.5 23.833 -174.5 71.5s-73.5 111.167 -73.5 190.5s24.5 142.833 73.5 190.5s107.167 71.5 174.5 71.5s125.5 -23.833 174.5 -71.5s73.5 -111.167 73.5 -190.5s-24.5 -142.833 -73.5 -190.5s-107.167 -71.5 -174.5 -71.5zM280 126
c48 0 72 41.333 72 124s-24 124 -72 124s-72 -41.333 -72 -124s24 -124 72 -124zM280 572c-56.667 0 -99.5 14.5 -128.5 43.5s-44.167 67.833 -45.5 116.5l96 16c7.33301 -46.667 33.333 -70 78 -70c22.667 0 40.5 6.33301 53.5 19s21.167 29.667 24.5 51l96 -16
c-1.33301 -49.333 -16.5 -88.333 -45.5 -117s-71.833 -43 -128.5 -43z" />
    <glyph glyph-name="Ohungarumlaut" unicode="&#x150;" horiz-adv-x="692" 
d="M346 -12c-91.333 0 -164.5 30.333 -219.5 91s-82.5 143.667 -82.5 249s27.5 187.333 82.5 246s128.167 88 219.5 88s164.5 -29.5 219.5 -88.5s82.5 -140.833 82.5 -245.5c0 -105.333 -27.5 -188.333 -82.5 -249s-128.167 -91 -219.5 -91zM346 136
c38.667 0 69.3301 17.167 91.9971 51.5s34 81.166 34 140.499c0 58.667 -11.167 104.334 -33.5 137.001s-53.166 49 -92.499 49s-70.166 -16.333 -92.499 -49s-33.5 -78.334 -33.5 -137.001c0 -59.333 11.333 -106.166 34 -140.499s53.334 -51.5 92.001 -51.5zM197.996 730
l104 164l108 -60l-128 -144zM395.996 730l104 164l108 -60l-128 -144z" />
    <glyph glyph-name="ohungarumlaut" unicode="&#x151;" horiz-adv-x="560" 
d="M280 -12c-67.333 0 -125.5 23.833 -174.5 71.5s-73.5 111.167 -73.5 190.5s24.5 142.833 73.5 190.5s107.167 71.5 174.5 71.5s125.5 -23.833 174.5 -71.5s73.5 -111.167 73.5 -190.5s-24.5 -142.833 -73.5 -190.5s-107.167 -71.5 -174.5 -71.5zM280 126
c48 0 72 41.333 72 124s-24 124 -72 124s-72 -41.333 -72 -124s24 -124 72 -124zM228 564l-90 40l88 184l114 -50zM418 564l-90 40l88 184l114 -50z" />
    <glyph glyph-name="OE" unicode="&#x152;" horiz-adv-x="880" 
d="M374 0c-46 0 -88.498 6.49902 -127.498 19.499s-73.833 32.333 -104.5 58s-54.667 59.834 -72 102.501s-26 92 -26 148s8.66699 105 26 147s41.666 75.5 72.999 100.5s67.166 43.667 107.499 56s84.833 18.5 133.5 18.5h432v-144h-236v-102h200v-144h-200v-116h246v-144
h-452zM394.002 137.999h13.998v374h-14c-55.333 0 -98.166 -12.833 -128.499 -38.5s-45.5 -74.167 -45.5 -145.5s15.333 -120.833 46 -148.5s73.334 -41.5 128.001 -41.5z" />
    <glyph glyph-name="oe" unicode="&#x153;" horiz-adv-x="816" 
d="M268 -12c-67.333 0 -123.5 23.502 -168.5 70.502s-67.5 110.833 -67.5 191.5c0 80 23 143.667 69 191s103 71 171 71c60 0 111.333 -24.667 154 -74c43.333 49.333 94 74 152 74c65.333 0 115.333 -23.333 150 -70s52 -105.334 52 -176.001
c0 -26.667 -2.33301 -49.334 -7 -68.001h-275c12.667 -50.667 48 -76 106 -76c26 0 59.333 11.333 100 34l58 -110c-54.667 -38.667 -115.334 -58 -182.001 -58c-58 0 -108.667 24.667 -152 74c-43.333 -49.333 -96.666 -74 -159.999 -74zM272 126.002
c22 0 38.833 11 50.5 33s17.5 52.333 17.5 91s-5.83301 69 -17.5 91s-28.5 33 -50.5 33c-21.333 0 -37.666 -11 -48.999 -33s-17 -52.333 -17 -91s5.66699 -69 17 -91s27.666 -33 48.999 -33zM498 302.002h136c0 53.333 -20.667 80 -62 80c-42 0 -66.667 -26.667 -74 -80z
" />
    <glyph glyph-name="Racute" unicode="&#x154;" horiz-adv-x="630" 
d="M72 0v650h246c173.333 0 260 -70 260 -210c0 -87.333 -35 -150 -105 -188l141 -252h-192l-112 218h-66v-218h-172zM244 354h62c69.333 0 104 28.667 104 86c0 27.333 -8.5 46.5 -25.5 57.5s-43.167 16.5 -78.5 16.5h-62v-160zM308 674l-76 86l182 144l90 -110z" />
    <glyph glyph-name="racute" unicode="&#x155;" horiz-adv-x="418" 
d="M58 0v500.001h140l12 -86h4c17.333 32.667 38.833 57.167 64.5 73.5s51.5 24.5 77.5 24.5s46.667 -3.33301 62 -10l-28 -148c-24 5.33301 -42.667 8 -56 8c-20 0 -39.5 -6.83301 -58.5 -20.5s-34.167 -34.834 -45.5 -63.501v-278h-172zM278 572.001l-84 84l158 188
l116 -114z" />
    <glyph glyph-name="uni0156" unicode="&#x156;" horiz-adv-x="630" 
d="M72 0v650h246c173.333 0 260 -70 260 -210c0 -87.333 -35 -150 -105 -188l141 -252h-192l-112 218h-66v-218h-172zM244 354h62c69.333 0 104 28.667 104 86c0 27.333 -8.5 46.5 -25.5 57.5s-43.167 16.5 -78.5 16.5h-62v-160zM226 -244l-11.999 66.001
c37.333 2 63.333 5.66699 78 11s22 13.666 22 24.999c0 18 -20 28.667 -60 32l32 60c55.333 -4 94.166 -12.833 116.499 -26.5s33.5 -33.5 33.5 -59.5c0 -68 -70 -104 -210 -108z" />
    <glyph glyph-name="uni0157" unicode="&#x157;" horiz-adv-x="418" 
d="M58 0v500.001h140l12 -86h4c17.333 32.667 38.833 57.167 64.5 73.5s51.5 24.5 77.5 24.5s46.667 -3.33301 62 -10l-28 -148c-24 5.33301 -42.667 8 -56 8c-20 0 -39.5 -6.83301 -58.5 -20.5s-34.167 -34.834 -45.5 -63.501v-278h-172zM36 -243.999l-11.999 66.001
c37.333 2 63.333 5.66699 78 11s22 13.666 22 24.999c0 18 -20 28.667 -60 32l32 60c55.333 -4 94.166 -12.833 116.499 -26.5s33.5 -33.5 33.5 -59.5c0 -68 -70 -104 -210 -108z" />
    <glyph glyph-name="Rcaron" unicode="&#x158;" horiz-adv-x="630" 
d="M72 0v650h246c173.333 0 260 -70 260 -210c0 -87.333 -35 -150 -105 -188l141 -252h-192l-112 218h-66v-218h-172zM244 354h62c69.333 0 104 28.667 104 86c0 27.333 -8.5 46.5 -25.5 57.5s-43.167 16.5 -78.5 16.5h-62v-160zM222 700l-84 110l74 44l102 -80h4l102 80
l74 -44l-84 -110h-188z" />
    <glyph glyph-name="rcaron" unicode="&#x159;" horiz-adv-x="418" 
d="M58 0v500.001h140l12 -86h4c17.333 32.667 38.833 57.167 64.5 73.5s51.5 24.5 77.5 24.5s46.667 -3.33301 62 -10l-28 -148c-24 5.33301 -42.667 8 -56 8c-20 0 -39.5 -6.83301 -58.5 -20.5s-34.167 -34.834 -45.5 -63.501v-278h-172zM170 578.001l-106 128l64 60
l128 -84h4l128 84l64 -60l-106 -128h-176z" />
    <glyph glyph-name="Sacute" unicode="&#x15a;" horiz-adv-x="564" 
d="M278 -12c-42.667 0 -85.833 7.83301 -129.5 23.5s-82.5 38.834 -116.5 69.501l98 118c52 -42 102.667 -63 152 -63s74 15.333 74 46c0 18.667 -24.667 37.667 -74 57c-6 2.66699 -10.667 4.66699 -14 6l-81 34c-38.667 15.333 -70.167 38.333 -94.5 69
s-36.5 68 -36.5 112c0 56.667 22.833 104.5 68.5 143.5s103.5 58.5 173.5 58.5c38.667 0 77.167 -7.33301 115.5 -22s71.833 -36.334 100.5 -65.001l-86 -108c-44.667 31.333 -88 47 -130 47c-45.333 0 -68 -14.667 -68 -44c0 -12.667 6 -22.834 18 -30.501
s32.667 -17.167 62 -28.5c6.66699 -2.66699 12 -4.66699 16 -6l79 -31c84.667 -33.333 127 -92.666 127 -177.999c0 -58 -22.833 -107.167 -68.5 -147.5s-107.5 -60.5 -185.5 -60.5zM288.001 674l-76 86l182 144l90 -110z" />
    <glyph glyph-name="sacute" unicode="&#x15b;" horiz-adv-x="452" 
d="M212 -12c-32 0 -65.833 6.5 -101.5 19.5s-66.5 29.833 -92.5 50.5l76 106c45.333 -33.333 86 -50 122 -50c33.333 0 50 10 50 30c0 4.66699 -1.5 9.16699 -4.5 13.5s-8.33301 8.66602 -16 12.999s-14 7.66602 -19 9.99902s-14.333 6 -28 11l-28.5 10.5
c-84 33.333 -126 82.666 -126 147.999c0 48.667 18.167 87.834 54.5 117.501s84.166 44.5 143.499 44.5c64 0 125.333 -22 184 -66l-76 -102c-38.667 28 -72.667 42 -102 42s-44 -9.33301 -44 -28c0 -3.33301 0.833008 -6.66602 2.5 -9.99902s4.33398 -6.33301 8.00098 -9
l10.5 -7.5c3.33301 -2.33301 8.33301 -4.66602 15 -6.99902l17 -6l20 -7l21 -7.5c85.333 -31.333 128 -81.333 128 -150c0 -48.667 -18.667 -88.5 -56 -119.5s-90 -46.5 -158 -46.5zM262 572l-84 84l158 188l116 -114z" />
    <glyph glyph-name="Scircumflex" unicode="&#x15c;" horiz-adv-x="564" 
d="M278 -12c-42.667 0 -85.833 7.83301 -129.5 23.5s-82.5 38.834 -116.5 69.501l98 118c52 -42 102.667 -63 152 -63s74 15.333 74 46c0 18.667 -24.667 37.667 -74 57c-6 2.66699 -10.667 4.66699 -14 6l-81 34c-38.667 15.333 -70.167 38.333 -94.5 69
s-36.5 68 -36.5 112c0 56.667 22.833 104.5 68.5 143.5s103.5 58.5 173.5 58.5c38.667 0 77.167 -7.33301 115.5 -22s71.833 -36.334 100.5 -65.001l-86 -108c-44.667 31.333 -88 47 -130 47c-45.333 0 -68 -14.667 -68 -44c0 -12.667 6 -22.834 18 -30.501
s32.667 -17.167 62 -28.5c6.66699 -2.66699 12 -4.66699 16 -6l79 -31c84.667 -33.333 127 -92.666 127 -177.999c0 -58 -22.833 -107.167 -68.5 -147.5s-107.5 -60.5 -185.5 -60.5zM118.001 724l84 110h188l84 -110l-74 -44l-102 80h-4l-102 -80z" />
    <glyph glyph-name="scircumflex" unicode="&#x15d;" horiz-adv-x="452" 
d="M212 -12c-32 0 -65.833 6.5 -101.5 19.5s-66.5 29.833 -92.5 50.5l76 106c45.333 -33.333 86 -50 122 -50c33.333 0 50 10 50 30c0 4.66699 -1.5 9.16699 -4.5 13.5s-8.33301 8.66602 -16 12.999s-14 7.66602 -19 9.99902s-14.333 6 -28 11l-28.5 10.5
c-84 33.333 -126 82.666 -126 147.999c0 48.667 18.167 87.834 54.5 117.501s84.166 44.5 143.499 44.5c64 0 125.333 -22 184 -66l-76 -102c-38.667 28 -72.667 42 -102 42s-44 -9.33301 -44 -28c0 -3.33301 0.833008 -6.66602 2.5 -9.99902s4.33398 -6.33301 8.00098 -9
l10.5 -7.5c3.33301 -2.33301 8.33301 -4.66602 15 -6.99902l17 -6l20 -7l21 -7.5c85.333 -31.333 128 -81.333 128 -150c0 -48.667 -18.667 -88.5 -56 -119.5s-90 -46.5 -158 -46.5zM48 618l106 128h176l106 -128l-64 -60l-128 84h-4l-128 -84z" />
    <glyph glyph-name="uni015E" unicode="&#x15e;" horiz-adv-x="564" 
d="M174 -244l-12.001 66c38 2 64.167 6 78.5 12s21.5 16 21.5 30c0 20 -25.333 33.333 -76 40l44 87c-77.333 11.333 -143.333 41.333 -198 90l98 118c52 -42 102.667 -63 152 -63s74 15.333 74 46c0 18.667 -24.667 37.667 -74 57c-6 2.66699 -10.667 4.66699 -14 6l-81 34
c-38.667 15.333 -70.167 38.333 -94.5 69s-36.5 68 -36.5 112c0 56.667 22.833 104.5 68.5 143.5s103.5 58.5 173.5 58.5c38.667 0 77.167 -7.33301 115.5 -22s71.833 -36.334 100.5 -65.001l-86 -108c-44.667 31.333 -88 47 -130 47c-45.333 0 -68 -14.667 -68 -44
c0 -12.667 6 -22.834 18 -30.501s32.667 -17.167 62 -28.5c6.66699 -2.66699 12 -4.66699 16 -6l79 -31c84.667 -33.333 127 -92.666 127 -177.999c0 -50.667 -18.167 -95.167 -54.5 -133.5s-86.166 -62.166 -149.499 -71.499l-22 -51c52 -12 78 -37.333 78 -76
c0 -68 -70 -104 -210 -108z" />
    <glyph glyph-name="uni015F" unicode="&#x15f;" horiz-adv-x="452" 
d="M134 -244l-12.001 66c38 2 64.167 6 78.5 12s21.5 16 21.5 30c0 20 -25.333 33.333 -76 40l43 85c-65.333 6.66699 -122.333 29.667 -171 69l76 106c45.333 -33.333 86 -50 122 -50c33.333 0 50 10 50 30c0 4.66699 -1.5 9.16699 -4.5 13.5s-8.33301 8.66602 -16 12.999
s-14 7.66602 -19 9.99902s-14.333 6 -28 11l-28.5 10.5c-84 33.333 -126 82.666 -126 147.999c0 48.667 18.167 87.834 54.5 117.501s84.166 44.5 143.499 44.5c64 0 125.333 -22 184 -66l-76 -102c-38.667 28 -72.667 42 -102 42s-44 -9.33301 -44 -28
c0 -3.33301 0.833008 -6.66602 2.5 -9.99902s4.33398 -6.33301 8.00098 -9l10.5 -7.5c3.33301 -2.33301 8.33301 -4.66602 15 -6.99902l17 -6l20 -7l21 -7.5c85.333 -31.333 128 -81.333 128 -150c0 -38 -11.667 -71 -35 -99s-56.666 -47.333 -99.999 -58l-25 -57
c52 -12 78 -37.333 78 -76c0 -68 -70 -104 -210 -108z" />
    <glyph glyph-name="Scaron" unicode="&#x160;" horiz-adv-x="564" 
d="M278 -12c-42.667 0 -85.833 7.83301 -129.5 23.5s-82.5 38.834 -116.5 69.501l98 118c52 -42 102.667 -63 152 -63s74 15.333 74 46c0 18.667 -24.667 37.667 -74 57c-6 2.66699 -10.667 4.66699 -14 6l-81 34c-38.667 15.333 -70.167 38.333 -94.5 69
s-36.5 68 -36.5 112c0 56.667 22.833 104.5 68.5 143.5s103.5 58.5 173.5 58.5c38.667 0 77.167 -7.33301 115.5 -22s71.833 -36.334 100.5 -65.001l-86 -108c-44.667 31.333 -88 47 -130 47c-45.333 0 -68 -14.667 -68 -44c0 -12.667 6 -22.834 18 -30.501
s32.667 -17.167 62 -28.5c6.66699 -2.66699 12 -4.66699 16 -6l79 -31c84.667 -33.333 127 -92.666 127 -177.999c0 -58 -22.833 -107.167 -68.5 -147.5s-107.5 -60.5 -185.5 -60.5zM202.001 700l-84 110l74 44l102 -80h4l102 80l74 -44l-84 -110h-188z" />
    <glyph glyph-name="scaron" unicode="&#x161;" horiz-adv-x="452" 
d="M212 -12c-32 0 -65.833 6.5 -101.5 19.5s-66.5 29.833 -92.5 50.5l76 106c45.333 -33.333 86 -50 122 -50c33.333 0 50 10 50 30c0 4.66699 -1.5 9.16699 -4.5 13.5s-8.33301 8.66602 -16 12.999s-14 7.66602 -19 9.99902s-14.333 6 -28 11l-28.5 10.5
c-84 33.333 -126 82.666 -126 147.999c0 48.667 18.167 87.834 54.5 117.501s84.166 44.5 143.499 44.5c64 0 125.333 -22 184 -66l-76 -102c-38.667 28 -72.667 42 -102 42s-44 -9.33301 -44 -28c0 -3.33301 0.833008 -6.66602 2.5 -9.99902s4.33398 -6.33301 8.00098 -9
l10.5 -7.5c3.33301 -2.33301 8.33301 -4.66602 15 -6.99902l17 -6l20 -7l21 -7.5c85.333 -31.333 128 -81.333 128 -150c0 -48.667 -18.667 -88.5 -56 -119.5s-90 -46.5 -158 -46.5zM154 578l-106 128l64 60l128 -84h4l128 84l64 -60l-106 -128h-176z" />
    <glyph glyph-name="uni0162" unicode="&#x162;" horiz-adv-x="564" 
d="M196 0v506h-172v144h516v-144h-172v-506h-32l-26 -60c52 -12 78 -37.333 78 -76c0 -68 -70 -104 -210 -108l-12 66c38 2 64.167 6 78.5 12s21.5 16 21.5 30c0 20 -25.333 33.333 -76 40l48 96h-42z" />
    <glyph glyph-name="uni0163" unicode="&#x163;" horiz-adv-x="400" 
d="M142 -244l-11.999 66c38 2 64.167 6 78.5 12s21.5 16 21.5 30c0 20 -25.333 33.333 -76 40l46 92c-80 22 -120 87.333 -120 196v174h-66v128l76 6l20 130h142v-130h114v-134h-114v-171c0 -48.667 20 -73 60 -73c13.333 0 28 2.66699 44 8l26 -124
c-32.667 -9.33301 -61.334 -15 -86.001 -17l-22 -49c52 -12 78 -37.333 78 -76c0 -68 -70 -104 -210 -108z" />
    <glyph glyph-name="Tcaron" unicode="&#x164;" horiz-adv-x="564" 
d="M196 0v506h-172v144h516v-144h-172v-506h-172zM188 700l-84 110l74 44l102 -80h4l102 80l74 -44l-84 -110h-188z" />
    <glyph glyph-name="tcaron" unicode="&#x165;" horiz-adv-x="400" 
d="M264 -12c-62.667 0 -109 18 -139 54s-45 86 -45 150v174h-66v128l76 6l20 130h142v-130h114v-134h-114v-171c0 -48.667 20 -73 60 -73c13.333 0 28 2.66699 44 8l26 -124c-38.667 -12 -78 -18 -118 -18zM288 548l-6 226h108l-2 -74l-28 -152h-72z" />
    <glyph glyph-name="uni0166" unicode="&#x166;" horiz-adv-x="564" 
d="M196 0v274h-116v74l96 6h20v152h-172v144h516v-144h-172v-152h116v-80h-116v-274h-172z" />
    <glyph glyph-name="uni0167" unicode="&#x167;" horiz-adv-x="400" 
d="M14 220v74l66 5v67h-66v128l76 6l20 130h142v-130h114v-134h-114v-66h114v-80h-114v-25c0 -48.667 20 -73 60 -73c13.333 0 28 2.66699 44 8l26 -124c-38.667 -12 -78 -18 -118 -18c-62.667 0 -109 18 -139 54s-45 86 -45 150v28h-66z" />
    <glyph glyph-name="Utilde" unicode="&#x168;" horiz-adv-x="672" 
d="M338 -12c-91.333 0 -159.167 26.667 -203.5 80s-66.5 135.333 -66.5 246v336h172v-356c0 -57.333 7.66699 -98 23 -122s40.333 -36 75 -36s60 12.167 76 36.5s24 64.833 24 121.5v356h166v-336c0 -111.333 -21.667 -193.5 -65 -246.5s-110.333 -79.5 -201 -79.5z
M405.999 686c-26.667 0 -54.167 8.66699 -82.5 26s-45.5 26 -51.5 26c-18 0 -28.667 -14 -32 -42l-110 8c2.66699 52 16.167 90.333 40.5 115s56.166 37 95.499 37c26.667 0 54.167 -8.66699 82.5 -26s45.5 -26 51.5 -26c18 0 28.667 14 32 42l110 -8
c-2.66699 -52 -16.167 -90.333 -40.5 -115s-56.166 -37 -95.499 -37z" />
    <glyph glyph-name="utilde" unicode="&#x169;" horiz-adv-x="578" 
d="M210 -12c-104 0 -156.001 68 -156.001 204v308h172v-286c0 -30.667 3.83301 -51.667 11.5 -63s20.5 -17 38.5 -17c28 0 52 14.667 72 44v322h172v-500h-140l-12 66h-4c-43.333 -52 -94.666 -78 -153.999 -78zM353.999 572c-22.667 0 -47.5 9.33301 -74.5 28
s-43.5 28 -49.5 28c-16.667 0 -26.667 -15.333 -30 -46l-106 6c2 105.333 46 158 132 158c22.667 0 47.5 -9.33301 74.5 -28s43.5 -28 49.5 -28c16.667 0 26.667 15.333 30 46l106 -6c-2 -105.333 -46 -158 -132 -158z" />
    <glyph glyph-name="Umacron" unicode="&#x16a;" horiz-adv-x="672" 
d="M338 -12c-91.333 0 -159.167 26.667 -203.5 80s-66.5 135.333 -66.5 246v336h172v-356c0 -57.333 7.66699 -98 23 -122s40.333 -36 75 -36s60 12.167 76 36.5s24 64.833 24 121.5v356h166v-336c0 -111.333 -21.667 -193.5 -65 -246.5s-110.333 -79.5 -201 -79.5z
M177.999 716v108h316v-108h-316z" />
    <glyph glyph-name="umacron" unicode="&#x16b;" horiz-adv-x="578" 
d="M210 -12c-104 0 -156.001 68 -156.001 204v308h172v-286c0 -30.667 3.83301 -51.667 11.5 -63s20.5 -17 38.5 -17c28 0 52 14.667 72 44v322h172v-500h-140l-12 66h-4c-43.333 -52 -94.666 -78 -153.999 -78zM135.999 588v108h308v-108h-308z" />
    <glyph glyph-name="Ubreve" unicode="&#x16c;" horiz-adv-x="672" 
d="M338 -12c-91.333 0 -159.167 26.667 -203.5 80s-66.5 135.333 -66.5 246v336h172v-356c0 -57.333 7.66699 -98 23 -122s40.333 -36 75 -36s60 12.167 76 36.5s24 64.833 24 121.5v356h166v-336c0 -111.333 -21.667 -193.5 -65 -246.5s-110.333 -79.5 -201 -79.5z
M335.999 694c-103.333 0 -160 46.667 -170 140l92 16c8.66699 -38.667 34.667 -58 78 -58s69.333 19.333 78 58l92 -16c-10 -93.333 -66.667 -140 -170 -140z" />
    <glyph glyph-name="ubreve" unicode="&#x16d;" horiz-adv-x="578" 
d="M210 -12c-104 0 -156.001 68 -156.001 204v308h172v-286c0 -30.667 3.83301 -51.667 11.5 -63s20.5 -17 38.5 -17c28 0 52 14.667 72 44v322h172v-500h-140l-12 66h-4c-43.333 -52 -94.666 -78 -153.999 -78zM289.999 572c-56.667 0 -99.5 14.5 -128.5 43.5
s-44.167 67.833 -45.5 116.5l96 16c3.33301 -21.333 11.5 -38.333 24.5 -51s30.833 -19 53.5 -19s40.5 6.33301 53.5 19s21.167 29.667 24.5 51l96 -16c-1.33301 -49.333 -16.5 -88.333 -45.5 -117s-71.833 -43 -128.5 -43z" />
    <glyph glyph-name="Uring" unicode="&#x16e;" horiz-adv-x="672" 
d="M338 -12c-91.333 0 -159.167 26.667 -203.5 80s-66.5 135.333 -66.5 246v336h172v-356c0 -57.333 7.66699 -98 23 -122s40.333 -36 75 -36s60 12.167 76 36.5s24 64.833 24 121.5v356h166v-336c0 -111.333 -21.667 -193.5 -65 -246.5s-110.333 -79.5 -201 -79.5z
M335.999 696c-36 0 -65 9.33301 -87 28s-33 43.334 -33 74.001s11 55.334 33 74.001s51 28 87 28s65 -9.33301 87 -28s33 -43.334 33 -74.001s-11 -55.334 -33 -74.001s-51 -28 -87 -28zM335.999 758c10.667 0 19.667 3.66699 27 11s11 17 11 29s-3.66699 21.667 -11 29
s-16.333 11 -27 11s-19.667 -3.66699 -27 -11s-11 -17 -11 -29s3.66699 -21.667 11 -29s16.333 -11 27 -11z" />
    <glyph glyph-name="uring" unicode="&#x16f;" horiz-adv-x="578" 
d="M210 -12c-104 0 -156.001 68 -156.001 204v308h172v-286c0 -30.667 3.83301 -51.667 11.5 -63s20.5 -17 38.5 -17c28 0 52 14.667 72 44v322h172v-500h-140l-12 66h-4c-43.333 -52 -94.666 -78 -153.999 -78zM289.999 568c-45.333 0 -80 10 -104 30s-36 45.333 -36 76
s12 56 36 76s58.667 30 104 30s80 -10 104 -30s36 -45.333 36 -76s-12 -56 -36 -76s-58.667 -30 -104 -30zM289.999 630c10.667 0 19.667 4.16699 27 12.5s11 18.833 11 31.5s-3.66699 23.167 -11 31.5s-16.333 12.5 -27 12.5s-19.667 -4.16699 -27 -12.5
s-11 -18.833 -11 -31.5s3.66699 -23.167 11 -31.5s16.333 -12.5 27 -12.5z" />
    <glyph glyph-name="Uhungarumlaut" unicode="&#x170;" horiz-adv-x="672" 
d="M338 -12c-91.333 0 -159.167 26.667 -203.5 80s-66.5 135.333 -66.5 246v336h172v-356c0 -57.333 7.66699 -98 23 -122s40.333 -36 75 -36s60 12.167 76 36.5s24 64.833 24 121.5v356h166v-336c0 -111.333 -21.667 -193.5 -65 -246.5s-110.333 -79.5 -201 -79.5z
M187.999 730l104 164l108 -60l-128 -144zM385.999 730l104 164l108 -60l-128 -144z" />
    <glyph glyph-name="uhungarumlaut" unicode="&#x171;" horiz-adv-x="578" 
d="M210 -12c-104 0 -156.001 68 -156.001 204v308h172v-286c0 -30.667 3.83301 -51.667 11.5 -63s20.5 -17 38.5 -17c28 0 52 14.667 72 44v322h172v-500h-140l-12 66h-4c-43.333 -52 -94.666 -78 -153.999 -78zM237.999 564l-90 40l88 184l114 -50zM427.999 564l-90 40
l88 184l114 -50z" />
    <glyph glyph-name="Uogonek" unicode="&#x172;" horiz-adv-x="672" 
d="M360 -228c-35.333 0 -64.498 8.83496 -87.498 26.502s-34.5 41.5 -34.5 71.5c0 43.333 21.333 83.333 64 120c-78.667 6 -137.334 35.667 -176.001 89s-58 131.666 -58 234.999v336h172v-356c0 -57.333 7.66699 -98 23 -122s40.333 -36 75 -36s60 12.167 76 36.5
s24 64.833 24 121.5v356h166v-336c0 -62.667 -5.83301 -114 -17.5 -154s-29.667 -72.5 -54 -97.5s-58.5 -47.167 -102.5 -66.5c-45.333 -20.667 -68 -47.334 -68 -80.001c0 -11.333 3.83301 -19.833 11.5 -25.5s17.167 -8.5 28.5 -8.5c8.66699 0 20 4.66699 34 14l38 -86
c-14 -11.333 -31.833 -20.5 -53.5 -27.5s-41.834 -10.5 -60.501 -10.5z" />
    <glyph glyph-name="uogonek" unicode="&#x173;" horiz-adv-x="578" 
d="M430 -212c-32.667 0 -59.5 8.16699 -80.5 24.5s-31.5 39.5 -31.5 69.5c0 46 21.333 84 64 114l-14 70h-4c-43.333 -52 -94.666 -78 -153.999 -78c-104 0 -156 68 -156 204v308h172v-286c0 -30.667 3.83301 -51.667 11.5 -63s20.5 -17 38.5 -17c28 0 52 14.667 72 44v322
h172v-500c-58.667 -14 -88 -40 -88 -78c0 -10.667 4 -19 12 -25s17.333 -9 28 -9c12 0 23.333 4 34 12l34 -76c-30.667 -24 -67.334 -36 -110.001 -36z" />
    <glyph glyph-name="Wcircumflex" unicode="&#x174;" horiz-adv-x="824" 
d="M124 0l-113.999 649.999h176l36 -284l11.5 -102c5 -45.333 8.5 -79.333 10.5 -102h4l11.5 64.5l13.5 75.5l11 64l62 284h144l62 -284l36 -204h4c2.66699 26 6.66699 62.833 12 110.5s8.66602 78.834 9.99902 93.501l36 284h164l-108 -650h-218l-50 258
c-8.66699 44.667 -16.667 95.334 -24 152.001h-4c-11.333 -78.667 -19.333 -129.334 -24 -152.001l-48 -258h-214zM234.001 723.999l84 110h188l84 -110l-74 -44l-102 80h-4l-102 -80z" />
    <glyph glyph-name="wcircumflex" unicode="&#x175;" horiz-adv-x="798" 
d="M144 0l-120 500.001h170l38 -210c2.66699 -17.333 6 -42.833 10 -76.5s7.33301 -58.834 10 -75.501h4c10.667 69.333 20 120 28 152l46 210h146l48 -210c2.66699 -10.667 12.667 -61.334 30 -152.001h4c2.66699 16.667 6 41.834 10 75.501s7.33301 59.167 10 76.5l38 210
h158l-114 -500h-200l-36 174c-10.667 61.333 -18.667 110.333 -24 147h-4c-12 -83.333 -19.333 -132.333 -22 -147l-34 -174h-196zM206 618.001l106 128h176l106 -128l-64 -60l-128 84h-4l-128 -84z" />
    <glyph glyph-name="Ycircumflex" unicode="&#x176;" horiz-adv-x="544" 
d="M186 0v224l-196 426h184l48 -136l25.5 -75.5l23.5 -69.5h4l27.5 79c11.667 33.333 19.5 55.333 23.5 66l48 136h180l-196 -426v-224h-172zM94 724l84 110h188l84 -110l-74 -44l-102 80h-4l-102 -80z" />
    <glyph glyph-name="ycircumflex" unicode="&#x177;" horiz-adv-x="542" 
d="M132 -188c-26 0 -51.333 3.33301 -76 10l30 130c18 -4 28.667 -6 32 -6c40.667 0 66.667 16.667 78 50l6 22l-190 482h172l60 -192c6 -20 18 -67.333 36 -142h4c12 56 22.667 103.333 32 142l50 192h164l-168 -492c-27.333 -70.667 -57.5 -121 -90.5 -151
s-79.5 -45 -139.5 -45zM82 618l106 128h176l106 -128l-64 -60l-128 84h-4l-128 -84z" />
    <glyph glyph-name="Ydieresis" unicode="&#x178;" horiz-adv-x="544" 
d="M186 0v224l-196 426h184l48 -136l25.5 -75.5l23.5 -69.5h4l27.5 79c11.667 33.333 19.5 55.333 23.5 66l48 136h180l-196 -426v-224h-172zM158 694c-22.667 0 -41.334 7.5 -56.001 22.5s-22 33.5 -22 55.5s7.33301 40.5 22 55.5s33.334 22.5 56.001 22.5
s41.334 -7.5 56.001 -22.5s22 -33.5 22 -55.5s-7.33301 -40.5 -22 -55.5s-33.334 -22.5 -56.001 -22.5zM386 694c-22.667 0 -41.334 7.5 -56.001 22.5s-22 33.5 -22 55.5s7.33301 40.5 22 55.5s33.334 22.5 56.001 22.5s41.334 -7.5 56.001 -22.5s22 -33.5 22 -55.5
s-7.33301 -40.5 -22 -55.5s-33.334 -22.5 -56.001 -22.5z" />
    <glyph glyph-name="Zacute" unicode="&#x179;" horiz-adv-x="542" 
d="M32 0v104l266 402h-240v144h452v-104l-266 -402h268v-144h-480zM276 674l-76 86l182 144l90 -110z" />
    <glyph glyph-name="zacute" unicode="&#x17a;" horiz-adv-x="474" 
d="M40 0v92l190 274h-168v134h382v-92l-190 -274h196v-134h-410zM272 572l-84 84l158 188l116 -114z" />
    <glyph glyph-name="Zdotaccent" unicode="&#x17b;" horiz-adv-x="542" 
d="M32 0v104l266 402h-240v144h452v-104l-266 -402h268v-144h-480zM284 696c-28 0 -51 8 -69 24s-27 36.667 -27 62s9 46 27 62s41 24 69 24s51 -8 69 -24s27 -36.667 27 -62s-9 -46 -27 -62s-41 -24 -69 -24z" />
    <glyph glyph-name="zdotaccent" unicode="&#x17c;" horiz-adv-x="474" 
d="M40 0v92l190 274h-168v134h382v-92l-190 -274h196v-134h-410zM252 562c-26.667 0 -48.667 8 -66 24s-26 36.667 -26 62s8.66699 46 26 62s39.333 24 66 24s48.667 -8 66 -24s26 -36.667 26 -62s-8.66699 -46 -26 -62s-39.333 -24 -66 -24z" />
    <glyph glyph-name="Zcaron" unicode="&#x17d;" horiz-adv-x="542" 
d="M32 0v104l266 402h-240v144h452v-104l-266 -402h268v-144h-480zM190 700l-84 110l74 44l102 -80h4l102 80l74 -44l-84 -110h-188z" />
    <glyph glyph-name="zcaron" unicode="&#x17e;" horiz-adv-x="474" 
d="M40 0v92l190 274h-168v134h382v-92l-190 -274h196v-134h-410zM164 578l-106 128l64 60l128 -84h4l128 84l64 -60l-106 -128h-176z" />
    <glyph glyph-name="uni0180" unicode="&#x180;" horiz-adv-x="582" 
d="M336 -12c-46 0 -88.001 22.001 -126.001 66.001h-4l-14 -54h-134v550h-66v74l66 5v67h172v-66h164v-80h-164v-68l-4 -72c36.667 33.333 77.667 50 123 50c58.667 0 105.834 -20.833 141.501 -62.5s53.5 -95.834 53.5 -162.501c0 -73.333 -20.667 -132.833 -62 -178.5
s-90 -68.5 -146 -68.5zM293.999 128.001c21.333 0 39 8.83301 53 26.5s21 43.5 21 77.5c0 58.667 -23.333 88 -70 88c-25.333 0 -48 -12 -68 -36v-132c18 -16 39.333 -24 64 -24z" />
    <glyph glyph-name="uni018F" unicode="&#x18f;" horiz-adv-x="682" 
d="M340 -12c-91.333 0 -162.835 28.5 -214.502 85.5s-77.5 139.833 -77.5 248.5c0 12 1.33301 31.333 4 58h413c-11.333 94.667 -59 142 -143 142c-45.333 0 -90.666 -20 -135.999 -60l-78 118c61.333 54.667 140 82 236 82c88.667 0 159.834 -29 213.501 -87
s80.5 -141 80.5 -249c0 -108.667 -26.833 -192.167 -80.5 -250.5s-126.167 -87.5 -217.5 -87.5zM339.998 128c68 0 109 42.667 123 128h-239c4 -46 15.667 -78.833 35 -98.5s46.333 -29.5 81 -29.5z" />
    <glyph glyph-name="uni0192" unicode="&#x192;" horiz-adv-x="540" 
d="M126 -96c-45.333 1.33301 -75.6699 6.33594 -91.0029 15.0029l21 127c12 -4 26 -6.66699 42 -8c22 1.33301 37.667 10.166 47 26.499s17 52.833 23 109.5l13 118h-69v118l76 6h8l4 38c8.66699 76 29.334 129.667 62.001 161s84.334 47 155.001 47c35.333 0 65 -6 89 -18
l-31 -128c-18 6.66699 -32.333 10 -43 10c-39.333 0 -61.333 -19.333 -66 -58l-6 -52h94v-124h-109l-21 -170c-4 -32.667 -9.66699 -60.834 -17 -84.501s-18.166 -46.334 -32.499 -68.001s-34 -38 -59 -49s-54.833 -16.5 -89.5 -16.5z" />
    <glyph glyph-name="uni0193" unicode="&#x193;" horiz-adv-x="646" 
d="M372 -12c-96 0 -174.666 28.668 -235.999 86.001s-92 139.333 -92 246c0 105.333 31.333 188.666 94 249.999s139.334 92 230.001 92c8.66699 0 21.667 -0.666992 39 -2c-0.666992 2 -1 5.33301 -1 10c0 43.333 14 79.833 42 109.5s66 44.5 114 44.5
c33.333 0 64.666 -4.66699 93.999 -14l-30 -126c-10 4 -18.667 6 -26 6c-33.333 0 -50 -15.333 -50 -46c0 -16 10 -35.333 30 -58l-90 -110c-36.667 25.333 -75.334 38 -116.001 38c-45.333 0 -82.333 -16.833 -111 -50.5s-43 -79.5 -43 -137.5
c0 -126.667 56.667 -190 170 -190c21.333 0 38 4 50 12v90h-96v140h248v-310c-24 -23.333 -55.667 -42.5 -95 -57.5s-81 -22.5 -125 -22.5z" />
    <glyph glyph-name="Ohorn" unicode="&#x1a0;" horiz-adv-x="692" 
d="M346 -12c-91.333 0 -164.5 30.3291 -219.5 90.9961s-82.5 143.667 -82.5 249s27.5 187.333 82.5 246s128.167 88 219.5 88c52 0 99.667 -10.333 143 -31c18 6.66699 31 14.834 39 24.501s12 24.5 12 44.5c0 22.667 -5.33301 45.334 -16 68.001l126 50
c21.333 -29.333 32 -64.666 32 -105.999c0 -36.667 -9.5 -65.667 -28.5 -87s-49.167 -37.666 -90.5 -48.999c56.667 -60 85 -142.667 85 -248s-27.5 -188.333 -82.5 -249s-128.167 -91 -219.5 -91zM346 135.996c38.667 0 69.3301 17.167 91.9971 51.5s34 81.166 34 140.499
c0 58.667 -11.167 104.334 -33.5 137.001s-53.166 49 -92.499 49s-70.166 -16.333 -92.499 -49s-33.5 -78.334 -33.5 -137.001c0 -59.333 11.333 -106.166 34 -140.499s53.334 -51.5 92.001 -51.5z" />
    <glyph glyph-name="ohorn" unicode="&#x1a1;" horiz-adv-x="560" 
d="M280 -12c-67.333 0 -125.502 23.834 -174.502 71.501s-73.5 111.167 -73.5 190.5s24.5 142.833 73.5 190.5s107.167 71.5 174.5 71.5c34.667 0 67.334 -6.66699 98.001 -20c40 12 60 41.333 60 88c0 21.333 -5.33301 40.666 -16 57.999l126 54
c21.333 -26.667 32 -60 32 -100c0 -38.667 -11.167 -71.167 -33.5 -97.5s-52.166 -45.166 -89.499 -56.499c47.333 -48.667 71 -111.334 71 -188.001c0 -79.333 -24.5 -142.833 -73.5 -190.5s-107.167 -71.5 -174.5 -71.5zM279.998 126.001c48 0 72 41.333 72 124
s-24 124 -72 124s-72 -41.333 -72 -124s24 -124 72 -124z" />
    <glyph glyph-name="Uhorn" unicode="&#x1af;" horiz-adv-x="692" 
d="M338 -12c-91.333 0 -159.167 26.666 -203.5 79.999s-66.5 135.333 -66.5 246v336h172v-356c0 -57.333 7.66699 -98 23 -122s40.333 -36 75 -36s60 12.167 76 36.5s24 64.833 24 121.5v356h84c53.333 0 80 23.333 80 70c0 22.667 -5.33301 45.334 -16 68.001l126 50
c21.333 -29.333 32 -64.666 32 -105.999c0 -78.667 -46.667 -126.334 -140 -143.001v-275c0 -111.333 -21.667 -193.5 -65 -246.5s-110.333 -79.5 -201 -79.5z" />
    <glyph glyph-name="uhorn" unicode="&#x1b0;" horiz-adv-x="578" 
d="M210 -12c-104 0 -156.001 67.999 -156.001 203.999v308h172v-286c0 -30.667 3.83301 -51.667 11.5 -63s20.5 -17 38.5 -17c28 0 52 14.667 72 44v322h56c10 0 19 1 27 3s16.333 5.83301 25 11.5s15.5 14.834 20.5 27.501s7.5 28.667 7.5 48c0 18.667 -5.33301 38 -16 58
l126 54c21.333 -26.667 32 -60 32 -100c0 -38.667 -9.83301 -71.167 -29.5 -97.5s-45.167 -44.833 -76.5 -55.5v-449h-140l-12 66h-4c-43.333 -52 -94.666 -78 -153.999 -78z" />
    <glyph glyph-name="uni01C2" unicode="&#x1c2;" horiz-adv-x="346" 
d="M6 330v74l76 6h38v340h110v-340h108v-80h-108v-126h108v-80h-108v-374h-110v374h-114v74l76 6h38v126h-114z" />
    <glyph glyph-name="uni01CD" unicode="&#x1cd;" horiz-adv-x="584" 
d="M240 316l-10.999 -45.001h120l-11 45c-6 22.667 -14.333 57.834 -25 105.501s-18.334 81.167 -23.001 100.5h-4c-22 -104 -37.333 -172.667 -46 -206zM-9.99902 -0.000976562l198 650h208l198 -650h-182l-32 138h-182l-32 -138h-176zM194.001 699.999l-84 110l74 44
l102 -80h4l102 80l74 -44l-84 -110h-188z" />
    <glyph glyph-name="uni01CE" unicode="&#x1ce;" horiz-adv-x="536" 
d="M188 -12c-45.333 0 -81.666 15 -108.999 45s-41 66.333 -41 109c0 52.667 21.5 93.667 64.5 123s112.167 49 207.5 59c-4 34.667 -27.333 52 -70 52c-32 0 -74 -14 -126 -42l-60 112c73.333 44 146.666 66 219.999 66c138.667 0 208 -78 208 -234v-278h-140l-12 48h-4
c-44.667 -40 -90.667 -60 -138 -60zM248 120c20.667 0 41.333 11.333 62 34v68c-72 -10.667 -108 -32.667 -108 -66c0 -24 15.333 -36 46 -36zM192.999 578l-106 128l64 60l128 -84h4l128 84l64 -60l-106 -128h-176z" />
    <glyph glyph-name="uni01CF" unicode="&#x1cf;" horiz-adv-x="316" 
d="M72 0v650h172v-650h-172zM64 700l-84 110l74 44l102 -80h4l102 80l74 -44l-84 -110h-188z" />
    <glyph glyph-name="uni01D0" unicode="&#x1d0;" horiz-adv-x="288" 
d="M58 0v500h172v-500h-172zM56 578l-106 128l64 60l128 -84h4l128 84l64 -60l-106 -128h-176z" />
    <glyph glyph-name="uni01D1" unicode="&#x1d1;" horiz-adv-x="692" 
d="M346 -12c-91.333 0 -164.5 30.333 -219.5 91s-82.5 143.667 -82.5 249s27.5 187.333 82.5 246s128.167 88 219.5 88s164.5 -29.5 219.5 -88.5s82.5 -140.833 82.5 -245.5c0 -105.333 -27.5 -188.333 -82.5 -249s-128.167 -91 -219.5 -91zM346 136
c38.667 0 69.3301 17.167 91.9971 51.5s34 81.166 34 140.499c0 58.667 -11.167 104.334 -33.5 137.001s-53.166 49 -92.499 49s-70.166 -16.333 -92.499 -49s-33.5 -78.334 -33.5 -137.001c0 -59.333 11.333 -106.166 34 -140.499s53.334 -51.5 92.001 -51.5zM251.996 700
l-84 110l74 44l102 -80h4l102 80l74 -44l-84 -110h-188z" />
    <glyph glyph-name="uni01D2" unicode="&#x1d2;" horiz-adv-x="560" 
d="M280 -12c-67.333 0 -125.5 23.833 -174.5 71.5s-73.5 111.167 -73.5 190.5s24.5 142.833 73.5 190.5s107.167 71.5 174.5 71.5s125.5 -23.833 174.5 -71.5s73.5 -111.167 73.5 -190.5s-24.5 -142.833 -73.5 -190.5s-107.167 -71.5 -174.5 -71.5zM280 126
c48 0 72 41.333 72 124s-24 124 -72 124s-72 -41.333 -72 -124s24 -124 72 -124zM192 578l-106 128l64 60l128 -84h4l128 84l64 -60l-106 -128h-176z" />
    <glyph glyph-name="uni01D3" unicode="&#x1d3;" horiz-adv-x="672" 
d="M338 -12c-91.333 0 -159.167 26.667 -203.5 80s-66.5 135.333 -66.5 246v336h172v-356c0 -57.333 7.66699 -98 23 -122s40.333 -36 75 -36s60 12.167 76 36.5s24 64.833 24 121.5v356h166v-336c0 -111.333 -21.667 -193.5 -65 -246.5s-110.333 -79.5 -201 -79.5z
M241.999 700l-84 110l74 44l102 -80h4l102 80l74 -44l-84 -110h-188z" />
    <glyph glyph-name="uni01D4" unicode="&#x1d4;" horiz-adv-x="578" 
d="M210 -12c-104 0 -156.001 68 -156.001 204v308h172v-286c0 -30.667 3.83301 -51.667 11.5 -63s20.5 -17 38.5 -17c28 0 52 14.667 72 44v322h172v-500h-140l-12 66h-4c-43.333 -52 -94.666 -78 -153.999 -78zM201.999 578l-106 128l64 60l128 -84h4l128 84l64 -60
l-106 -128h-176z" />
    <glyph glyph-name="uni01D5" unicode="&#x1d5;" horiz-adv-x="672" 
d="M338 -12c-91.333 0 -159.167 26.667 -203.5 80s-66.5 135.333 -66.5 246v336h172v-356c0 -57.333 7.66699 -98 23 -122s40.333 -36 75 -36s60 12.167 76 36.5s24 64.833 24 121.5v356h166v-336c0 -111.333 -21.667 -193.5 -65 -246.5s-110.333 -79.5 -201 -79.5z
M221.999 694c-20 0 -36.333 6.5 -49 19.5s-19 29.167 -19 48.5s6.33301 35.5 19 48.5s29 19.5 49 19.5s36.333 -6.5 49 -19.5s19 -29.167 19 -48.5s-6.33301 -35.5 -19 -48.5s-29 -19.5 -49 -19.5zM177.999 876v78h316v-78h-316zM449.999 694c-20 0 -36.333 6.5 -49 19.5
s-19 29.167 -19 48.5s6.33301 35.5 19 48.5s29 19.5 49 19.5s36.333 -6.5 49 -19.5s19 -29.167 19 -48.5s-6.33301 -35.5 -19 -48.5s-29 -19.5 -49 -19.5z" />
    <glyph glyph-name="uni01D6" unicode="&#x1d6;" horiz-adv-x="578" 
d="M210 -12c-104 0 -156.001 68 -156.001 204v308h172v-286c0 -30.667 3.83301 -51.667 11.5 -63s20.5 -17 38.5 -17c28 0 52 14.667 72 44v322h172v-500h-140l-12 66h-4c-43.333 -52 -94.666 -78 -153.999 -78zM175.999 564c-20 0 -36.333 6.5 -49 19.5
s-19 29.167 -19 48.5s6.33301 35.5 19 48.5s29 19.5 49 19.5s36.333 -6.5 49 -19.5s19 -29.167 19 -48.5s-6.33301 -35.5 -19 -48.5s-29 -19.5 -49 -19.5zM135.999 758v78h308v-78h-308zM403.999 564c-20 0 -36.333 6.5 -49 19.5s-19 29.167 -19 48.5s6.33301 35.5 19 48.5
s29 19.5 49 19.5s36.333 -6.5 49 -19.5s19 -29.167 19 -48.5s-6.33301 -35.5 -19 -48.5s-29 -19.5 -49 -19.5z" />
    <glyph glyph-name="uni01D7" unicode="&#x1d7;" horiz-adv-x="672" 
d="M338 -12c-91.333 0 -159.167 26.667 -203.5 80s-66.5 135.333 -66.5 246v336h172v-356c0 -57.333 7.66699 -98 23 -122s40.333 -36 75 -36s60 12.167 76 36.5s24 64.833 24 121.5v356h166v-336c0 -111.333 -21.667 -193.5 -65 -246.5s-110.333 -79.5 -201 -79.5z
M221.999 694c-20 0 -36.333 6.5 -49 19.5s-19 29.167 -19 48.5s6.33301 35.5 19 48.5s29 19.5 49 19.5s36.333 -6.5 49 -19.5s19 -29.167 19 -48.5s-6.33301 -35.5 -19 -48.5s-29 -19.5 -49 -19.5zM273.999 870l96 154l106 -64l-128 -134zM449.999 694
c-20 0 -36.333 6.5 -49 19.5s-19 29.167 -19 48.5s6.33301 35.5 19 48.5s29 19.5 49 19.5s36.333 -6.5 49 -19.5s19 -29.167 19 -48.5s-6.33301 -35.5 -19 -48.5s-29 -19.5 -49 -19.5z" />
    <glyph glyph-name="uni01D8" unicode="&#x1d8;" horiz-adv-x="578" 
d="M210 -12c-104 0 -156.001 68 -156.001 204v308h172v-286c0 -30.667 3.83301 -51.667 11.5 -63s20.5 -17 38.5 -17c28 0 52 14.667 72 44v322h172v-500h-140l-12 66h-4c-43.333 -52 -94.666 -78 -153.999 -78zM301.999 716l-64 40l76 140l90 -58zM175.999 564
c-20 0 -36.333 6.5 -49 19.5s-19 29.167 -19 48.5s6.33301 35.5 19 48.5s29 19.5 49 19.5s36.333 -6.5 49 -19.5s19 -29.167 19 -48.5s-6.33301 -35.5 -19 -48.5s-29 -19.5 -49 -19.5zM403.999 564c-20 0 -36.333 6.5 -49 19.5s-19 29.167 -19 48.5s6.33301 35.5 19 48.5
s29 19.5 49 19.5s36.333 -6.5 49 -19.5s19 -29.167 19 -48.5s-6.33301 -35.5 -19 -48.5s-29 -19.5 -49 -19.5z" />
    <glyph glyph-name="uni01D9" unicode="&#x1d9;" horiz-adv-x="672" 
d="M338 -12c-91.333 0 -159.167 26.667 -203.5 80s-66.5 135.333 -66.5 246v336h172v-356c0 -57.333 7.66699 -98 23 -122s40.333 -36 75 -36s60 12.167 76 36.5s24 64.833 24 121.5v356h166v-336c0 -111.333 -21.667 -193.5 -65 -246.5s-110.333 -79.5 -201 -79.5z
M261.999 860l-88 104l68 44l92 -72h4l92 72l68 -44l-88 -104h-148zM221.999 694c-20 0 -36.333 6.5 -49 19.5s-19 29.167 -19 48.5s6.33301 35.5 19 48.5s29 19.5 49 19.5s36.333 -6.5 49 -19.5s19 -29.167 19 -48.5s-6.33301 -35.5 -19 -48.5s-29 -19.5 -49 -19.5z
M449.999 694c-20 0 -36.333 6.5 -49 19.5s-19 29.167 -19 48.5s6.33301 35.5 19 48.5s29 19.5 49 19.5s36.333 -6.5 49 -19.5s19 -29.167 19 -48.5s-6.33301 -35.5 -19 -48.5s-29 -19.5 -49 -19.5z" />
    <glyph glyph-name="uni01DA" unicode="&#x1da;" horiz-adv-x="578" 
d="M210 -12c-104 0 -156.001 68 -156.001 204v308h172v-286c0 -30.667 3.83301 -51.667 11.5 -63s20.5 -17 38.5 -17c28 0 52 14.667 72 44v322h172v-500h-140l-12 66h-4c-43.333 -52 -94.666 -78 -153.999 -78zM185.999 886l102 -62h4l102 62l54 -50l-90 -92h-136l-90 92z
M175.999 564c-20 0 -36.333 6.5 -49 19.5s-19 29.167 -19 48.5s6.33301 35.5 19 48.5s29 19.5 49 19.5s36.333 -6.5 49 -19.5s19 -29.167 19 -48.5s-6.33301 -35.5 -19 -48.5s-29 -19.5 -49 -19.5zM403.999 564c-20 0 -36.333 6.5 -49 19.5s-19 29.167 -19 48.5
s6.33301 35.5 19 48.5s29 19.5 49 19.5s36.333 -6.5 49 -19.5s19 -29.167 19 -48.5s-6.33301 -35.5 -19 -48.5s-29 -19.5 -49 -19.5z" />
    <glyph glyph-name="uni01DB" unicode="&#x1db;" horiz-adv-x="672" 
d="M338 -12c-91.333 0 -159.167 26.667 -203.5 80s-66.5 135.333 -66.5 246v336h172v-356c0 -57.333 7.66699 -98 23 -122s40.333 -36 75 -36s60 12.167 76 36.5s24 64.833 24 121.5v356h166v-336c0 -111.333 -21.667 -193.5 -65 -246.5s-110.333 -79.5 -201 -79.5z
M397.999 870l-74 -44l-128 134l106 64zM221.999 694c-20 0 -36.333 6.5 -49 19.5s-19 29.167 -19 48.5s6.33301 35.5 19 48.5s29 19.5 49 19.5s36.333 -6.5 49 -19.5s19 -29.167 19 -48.5s-6.33301 -35.5 -19 -48.5s-29 -19.5 -49 -19.5zM449.999 694
c-20 0 -36.333 6.5 -49 19.5s-19 29.167 -19 48.5s6.33301 35.5 19 48.5s29 19.5 49 19.5s36.333 -6.5 49 -19.5s19 -29.167 19 -48.5s-6.33301 -35.5 -19 -48.5s-29 -19.5 -49 -19.5z" />
    <glyph glyph-name="uni01DC" unicode="&#x1dc;" horiz-adv-x="578" 
d="M210 -12c-104 0 -156.001 68 -156.001 204v308h172v-286c0 -30.667 3.83301 -51.667 11.5 -63s20.5 -17 38.5 -17c28 0 52 14.667 72 44v322h172v-500h-140l-12 66h-4c-43.333 -52 -94.666 -78 -153.999 -78zM277.999 716l-102 122l90 58l76 -140zM175.999 564
c-20 0 -36.333 6.5 -49 19.5s-19 29.167 -19 48.5s6.33301 35.5 19 48.5s29 19.5 49 19.5s36.333 -6.5 49 -19.5s19 -29.167 19 -48.5s-6.33301 -35.5 -19 -48.5s-29 -19.5 -49 -19.5zM403.999 564c-20 0 -36.333 6.5 -49 19.5s-19 29.167 -19 48.5s6.33301 35.5 19 48.5
s29 19.5 49 19.5s36.333 -6.5 49 -19.5s19 -29.167 19 -48.5s-6.33301 -35.5 -19 -48.5s-29 -19.5 -49 -19.5z" />
    <glyph glyph-name="uni01E2" unicode="&#x1e2;" horiz-adv-x="854" 
d="M308 348l-36 -83h108v257h-4c-40 -104 -62.667 -162 -68 -174zM-22 0l296 650h516v-144h-238v-102h202v-144h-202v-116h248v-144h-420v132h-165l-57 -132h-180zM368 738v108h316v-108h-316z" />
    <glyph glyph-name="uni01E3" unicode="&#x1e3;" horiz-adv-x="786" 
d="M192 -12c-45.333 0 -81.667 15 -109 45s-41 66.333 -41 109c0 52.667 21.333 93.834 64 123.501s111.334 49.5 206.001 59.5c-2 18 -8.33301 31 -19 39s-27 12 -49 12c-32 0 -74 -14 -126 -42l-60 112c73.333 44 143.333 66 210 66c58 0 104 -21.333 138 -64
c44.667 42.667 92 64 142 64c65.333 0 115.333 -23.333 150 -70s52 -105.334 52 -176.001c0 -26.667 -2.33301 -49.334 -7 -68.001h-275c12.667 -50.667 48 -76 106 -76c26 0 59.333 11.333 100 34l58 -110c-54.667 -38.667 -115.334 -58 -182.001 -58
c-67.333 0 -124 24 -170 72c-35.333 -27.333 -67 -46.166 -95 -56.499s-59 -15.5 -93 -15.5zM251.999 120c26 0 50 10 72 30c-6 18 -10 35.667 -12 53l-2 19c-69.333 -11.333 -104 -33.333 -104 -66c0 -24 15.333 -36 46 -36zM467.999 302h136c0 53.333 -20.667 80 -62 80
c-42 0 -66.667 -26.667 -74 -80zM255.999 588v108h308v-108h-308z" />
    <glyph glyph-name="Gcaron" unicode="&#x1e6;" horiz-adv-x="646" 
d="M372 -12c-96 0 -174.667 28.668 -236 86.001s-92 139.333 -92 246c0 105.333 31.333 188.666 94 249.999s139.334 92 230.001 92c84 0 154.667 -28.667 212 -86l-90 -110c-36.667 32 -75.334 48 -116.001 48c-45.333 0 -82.333 -16.833 -111 -50.5s-43 -79.5 -43 -137.5
c0 -126.667 56.667 -190 170 -190c21.333 0 38 4 50 12v90h-96v140h248v-310c-24 -23.333 -55.667 -42.5 -95 -57.5s-81 -22.5 -125 -22.5zM278 700.001l-84 110l74 44l102 -80h4l102 80l74 -44l-84 -110h-188z" />
    <glyph glyph-name="gcaron" unicode="&#x1e7;" horiz-adv-x="546" 
d="M240 -206c-62 0 -112.499 10.0029 -151.499 30.0029s-58.5 51.333 -58.5 94c0 39.333 23.333 71.333 70 96v4c-30.667 21.333 -46 50 -46 86s18.667 67.333 56 94v4c-19.333 13.333 -35.5 31.166 -48.5 53.499s-19.5 47.166 -19.5 74.499
c0 58.667 20.833 103.667 62.5 135s92.167 47 151.5 47c29.333 0 56 -4 80 -12h186v-124h-72c5.33301 -16 8 -33.333 8 -52c0 -56 -18.667 -97.667 -56 -125s-86 -41 -146 -41c-16.667 0 -35.334 2.33301 -56.001 7c-8 -7.33301 -12 -17 -12 -29
c0 -10.667 5.33301 -18.334 16 -23.001s28.667 -7 54 -7h75c131.333 0 197 -43.333 197 -130c0 -54.667 -26.333 -98.667 -79 -132s-123 -50 -211 -50zM256.001 260.003c36 0 54.002 23.333 54.002 70c0 22 -4.83301 38.833 -14.5 50.5s-22.834 17.5 -39.501 17.5
s-29.834 -5.83301 -39.501 -17.5s-14.5 -28.5 -14.5 -50.5c0 -46.667 18 -70 54 -70zM268.003 -99.9971c28.667 0 52.167 4.16699 70.5 12.5s27.5 19.5 27.5 33.5c0 12 -5.16699 20 -15.5 24s-27.5 6 -51.5 6h-39c-34 0 -58 2 -72 6c-12 -12 -18 -24 -18 -36
c0 -30.667 32.667 -46 98 -46zM196.003 578.003l-106 128l64 60l128 -84h4l128 84l64 -60l-106 -128h-176z" />
    <glyph glyph-name="uni01EA" unicode="&#x1ea;" horiz-adv-x="692" 
d="M370 -228c-35.333 0 -64.499 8.83398 -87.499 26.501s-34.5 41.5 -34.5 71.5c0 43.333 21.333 83.333 64 120c-82.667 8 -148 41.667 -196 101s-72 138.333 -72 237c0 105.333 27.5 187.333 82.5 246s128.167 88 219.5 88s164.5 -29.5 219.5 -88.5
s82.5 -140.833 82.5 -245.5c0 -88 -17.5 -157.5 -52.5 -208.5s-86.833 -92.167 -155.5 -123.5c-45.333 -20.667 -68 -47.334 -68 -80.001c0 -11.333 3.83301 -19.833 11.5 -25.5s17.167 -8.5 28.5 -8.5c8.66699 0 20 4.66699 34 14l38 -86
c-14 -11.333 -31.833 -20.5 -53.5 -27.5s-41.834 -10.5 -60.501 -10.5zM346.001 136.001c38.667 0 69.3301 17.167 91.9971 51.5s34 81.166 34 140.499c0 58.667 -11.167 104.334 -33.5 137.001s-53.166 49 -92.499 49s-70.166 -16.333 -92.499 -49
s-33.5 -78.334 -33.5 -137.001c0 -59.333 11.333 -106.166 34 -140.499s53.334 -51.5 92.001 -51.5z" />
    <glyph glyph-name="uni01EB" unicode="&#x1eb;" horiz-adv-x="560" 
d="M298 -212c-32.667 0 -59.499 8.16797 -80.499 24.501s-31.5 39.5 -31.5 69.5c0 40.667 18.333 77 55 109c-59.333 8.66699 -109 36.167 -149 82.5s-60 105.166 -60 176.499c0 79.333 24.5 142.833 73.5 190.5s107.167 71.5 174.5 71.5s125.5 -23.833 174.5 -71.5
s73.5 -111.167 73.5 -190.5c0 -114 -54.667 -196.667 -164 -248c-42.667 -20 -64 -46.667 -64 -80c0 -11.333 3.83301 -19.833 11.5 -25.5s17.167 -8.5 28.5 -8.5c10.667 0 22 4 34 12l34 -76c-30.667 -24 -67.334 -36 -110.001 -36zM280.001 126.001c48 0 72 41.333 72 124
s-24 124 -72 124s-72 -41.333 -72 -124s24 -124 72 -124z" />
    <glyph glyph-name="uni01F4" unicode="&#x1f4;" horiz-adv-x="646" 
d="M372 -12c-96 0 -174.667 28.668 -236 86.001s-92 139.333 -92 246c0 105.333 31.333 188.666 94 249.999s139.334 92 230.001 92c84 0 154.667 -28.667 212 -86l-90 -110c-36.667 32 -75.334 48 -116.001 48c-45.333 0 -82.333 -16.833 -111 -50.5s-43 -79.5 -43 -137.5
c0 -126.667 56.667 -190 170 -190c21.333 0 38 4 50 12v90h-96v140h248v-310c-24 -23.333 -55.667 -42.5 -95 -57.5s-81 -22.5 -125 -22.5zM364 674.001l-76 86l182 144l90 -110z" />
    <glyph glyph-name="uni01F5" unicode="&#x1f5;" horiz-adv-x="546" 
d="M240 -206c-62 0 -112.499 10.0029 -151.499 30.0029s-58.5 51.333 -58.5 94c0 39.333 23.333 71.333 70 96v4c-30.667 21.333 -46 50 -46 86s18.667 67.333 56 94v4c-19.333 13.333 -35.5 31.166 -48.5 53.499s-19.5 47.166 -19.5 74.499
c0 58.667 20.833 103.667 62.5 135s92.167 47 151.5 47c29.333 0 56 -4 80 -12h186v-124h-72c5.33301 -16 8 -33.333 8 -52c0 -56 -18.667 -97.667 -56 -125s-86 -41 -146 -41c-16.667 0 -35.334 2.33301 -56.001 7c-8 -7.33301 -12 -17 -12 -29
c0 -10.667 5.33301 -18.334 16 -23.001s28.667 -7 54 -7h75c131.333 0 197 -43.333 197 -130c0 -54.667 -26.333 -98.667 -79 -132s-123 -50 -211 -50zM256.001 260.003c36 0 54.002 23.333 54.002 70c0 22 -4.83301 38.833 -14.5 50.5s-22.834 17.5 -39.501 17.5
s-29.834 -5.83301 -39.501 -17.5s-14.5 -28.5 -14.5 -50.5c0 -46.667 18 -70 54 -70zM268.003 -99.9971c28.667 0 52.167 4.16699 70.5 12.5s27.5 19.5 27.5 33.5c0 12 -5.16699 20 -15.5 24s-27.5 6 -51.5 6h-39c-34 0 -58 2 -72 6c-12 -12 -18 -24 -18 -36
c0 -30.667 32.667 -46 98 -46zM304.003 572.003l-84 84l158 188l116 -114z" />
    <glyph glyph-name="uni01F8" unicode="&#x1f8;" horiz-adv-x="672" 
d="M72 0v650.001h176l144 -290l62 -146h4c-14.667 128 -22 210.667 -22 248v188h164v-650h-176l-144 291l-62 145h-4c1.33301 -10.667 3.5 -29.667 6.5 -57l7.5 -66.5c2 -17 3.83301 -37.333 5.5 -61s2.5 -44.834 2.5 -63.501v-188h-164zM344 674.001l-196 120l90 110
l182 -144z" />
    <glyph glyph-name="uni01F9" unicode="&#x1f9;" horiz-adv-x="582" 
d="M58 0l-0.00195312 500h140l12 -60h4c50.667 48 103.334 72 158.001 72c104 0 156 -68 156 -204v-308h-172v286c0 30.667 -3.83301 51.667 -11.5 63s-20.5 17 -38.5 17c-23.333 0 -48.666 -12.667 -75.999 -38v-328h-172zM293.998 572l-190 158l116 114l158 -188z" />
    <glyph glyph-name="uni01FC" unicode="&#x1fc;" horiz-adv-x="854" 
d="M308 348l-36 -83h108v257h-4c-40 -104 -62.667 -162 -68 -174zM-22 0l296 650h516v-144h-238v-102h202v-144h-202v-116h248v-144h-420v132h-165l-57 -132h-180zM518 696l-76 86l182 144l90 -110z" />
    <glyph glyph-name="uni01FD" unicode="&#x1fd;" horiz-adv-x="786" 
d="M192 -12c-45.333 0 -81.667 15 -109 45s-41 66.333 -41 109c0 52.667 21.333 93.834 64 123.501s111.334 49.5 206.001 59.5c-2 18 -8.33301 31 -19 39s-27 12 -49 12c-32 0 -74 -14 -126 -42l-60 112c73.333 44 143.333 66 210 66c58 0 104 -21.333 138 -64
c44.667 42.667 92 64 142 64c65.333 0 115.333 -23.333 150 -70s52 -105.334 52 -176.001c0 -26.667 -2.33301 -49.334 -7 -68.001h-275c12.667 -50.667 48 -76 106 -76c26 0 59.333 11.333 100 34l58 -110c-54.667 -38.667 -115.334 -58 -182.001 -58
c-67.333 0 -124 24 -170 72c-35.333 -27.333 -67 -46.166 -95 -56.499s-59 -15.5 -93 -15.5zM251.999 120c26 0 50 10 72 30c-6 18 -10 35.667 -12 53l-2 19c-69.333 -11.333 -104 -33.333 -104 -66c0 -24 15.333 -36 46 -36zM467.999 302h136c0 53.333 -20.667 80 -62 80
c-42 0 -66.667 -26.667 -74 -80zM429.999 572l-84 84l158 188l116 -114z" />
    <glyph glyph-name="uni0218" unicode="&#x218;" horiz-adv-x="564" 
d="M278 -12c-42.667 0 -85.833 7.83301 -129.5 23.5s-82.5 38.834 -116.5 69.501l98 118c52 -42 102.667 -63 152 -63s74 15.333 74 46c0 18.667 -24.667 37.667 -74 57c-6 2.66699 -10.667 4.66699 -14 6l-81 34c-38.667 15.333 -70.167 38.333 -94.5 69
s-36.5 68 -36.5 112c0 56.667 22.833 104.5 68.5 143.5s103.5 58.5 173.5 58.5c38.667 0 77.167 -7.33301 115.5 -22s71.833 -36.334 100.5 -65.001l-86 -108c-44.667 31.333 -88 47 -130 47c-45.333 0 -68 -14.667 -68 -44c0 -12.667 6 -22.834 18 -30.501
s32.667 -17.167 62 -28.5c6.66699 -2.66699 12 -4.66699 16 -6l79 -31c84.667 -33.333 127 -92.666 127 -177.999c0 -58 -22.833 -107.167 -68.5 -147.5s-107.5 -60.5 -185.5 -60.5zM174.001 -244l-11.999 66.001c37.333 2 63.333 5.66699 78 11s22 13.666 22 24.999
c0 18 -20 28.667 -60 32l32 60c55.333 -4 94.166 -12.833 116.499 -26.5s33.5 -33.5 33.5 -59.5c0 -68 -70 -104 -210 -108z" />
    <glyph glyph-name="uni0219" unicode="&#x219;" horiz-adv-x="452" 
d="M212 -12c-32 0 -65.833 6.5 -101.5 19.5s-66.5 29.833 -92.5 50.5l76 106c45.333 -33.333 86 -50 122 -50c33.333 0 50 10 50 30c0 4.66699 -1.5 9.16699 -4.5 13.5s-8.33301 8.66602 -16 12.999s-14 7.66602 -19 9.99902s-14.333 6 -28 11l-28.5 10.5
c-84 33.333 -126 82.666 -126 147.999c0 48.667 18.167 87.834 54.5 117.501s84.166 44.5 143.499 44.5c64 0 125.333 -22 184 -66l-76 -102c-38.667 28 -72.667 42 -102 42s-44 -9.33301 -44 -28c0 -3.33301 0.833008 -6.66602 2.5 -9.99902s4.33398 -6.33301 8.00098 -9
l10.5 -7.5c3.33301 -2.33301 8.33301 -4.66602 15 -6.99902l17 -6l20 -7l21 -7.5c85.333 -31.333 128 -81.333 128 -150c0 -48.667 -18.667 -88.5 -56 -119.5s-90 -46.5 -158 -46.5zM128 -244l-11.999 66.001c37.333 2 63.333 5.66699 78 11s22 13.666 22 24.999
c0 18 -20 28.667 -60 32l32 60c55.333 -4 94.166 -12.833 116.499 -26.5s33.5 -33.5 33.5 -59.5c0 -68 -70 -104 -210 -108z" />
    <glyph glyph-name="uni021A" unicode="&#x21a;" horiz-adv-x="564" 
d="M196 0v506h-172v144h516v-144h-172v-506h-172zM174 -244l-11.999 66.001c37.333 2 63.333 5.66699 78 11s22 13.666 22 24.999c0 18 -20 28.667 -60 32l32 60c55.333 -4 94.166 -12.833 116.499 -26.5s33.5 -33.5 33.5 -59.5c0 -68 -70 -104 -210 -108z" />
    <glyph glyph-name="uni021B" unicode="&#x21b;" horiz-adv-x="400" 
d="M264 -12c-62.667 0 -109 18 -139 54s-45 86 -45 150v174h-66v128l76 6l20 130h142v-130h114v-134h-114v-171c0 -48.667 20 -73 60 -73c13.333 0 28 2.66699 44 8l26 -124c-38.667 -12 -78 -18 -118 -18zM136 -244l-11.999 66.001c37.333 2 63.333 5.66699 78 11
s22 13.666 22 24.999c0 18 -20 28.667 -60 32l32 60c55.333 -4 94.166 -12.833 116.499 -26.5s33.5 -33.5 33.5 -59.5c0 -68 -70 -104 -210 -108z" />
    <glyph glyph-name="uni0237" unicode="&#x237;" horiz-adv-x="290" 
d="M38 -188c-37.333 0 -68.667 4.66699 -94 14l30 126c14 -4 26 -6 36 -6c18 0 30.833 5.66699 38.5 17s11.5 30.333 11.5 57v480h172v-474c0 -63.333 -15 -114.833 -45 -154.5s-79.667 -59.5 -149 -59.5z" />
    <glyph glyph-name="uni0243" unicode="&#x243;" horiz-adv-x="638" 
d="M98 0v174.001h-74v74l74 6v396h234c164 0 246 -52 246 -156c0 -28 -9 -53.833 -27 -77.5s-45 -39.834 -81 -48.501v-4c92 -18.667 138 -72.667 138 -162c0 -66.667 -24 -117 -72 -151s-109.333 -51 -184 -51h-254zM270 404.001h58c27.333 0 48.5 6.16699 63.5 18.5
s22.5 28.833 22.5 49.5c0 37.333 -28.667 56 -86 56h-58v-124zM270 122.001h70c34 0 59.833 8.16699 77.5 24.5s26.5 39.5 26.5 69.5c0 58.667 -34.667 88 -104 88h-70v-50h116v-80h-116v-52z" />
    <glyph glyph-name="uni0250" unicode="&#x250;" horiz-adv-x="542" 
d="M280 -12c-72.667 0 -128.833 19.667 -168.5 59s-59.5 99 -59.5 179v274h140l12 -58h4c40 46.667 90.667 70 152 70c42.667 0 76 -13.333 100 -40s36 -60 36 -100c0 -112 -90.667 -178 -272 -198c4.66699 -33.333 32 -50 82 -50c30.667 0 72 14 124 42l60 -112
c-70 -44 -140 -66 -210 -66zM224.001 278c72 10.667 108 32.667 108 66c0 24 -13.333 36 -40 36c-24 0 -46.667 -14.667 -68 -44v-58z" />
    <glyph glyph-name="uni0251" unicode="&#x251;" horiz-adv-x="580" 
d="M240 -12c-62 0 -111.5 23.5 -148.5 70.5s-55.5 110.833 -55.5 191.5c0 78 21 141.167 63 189.5s90.333 72.5 145 72.5c48 0 90 -20.667 126 -62h4l14 50h134v-500h-140l-12 46h-4c-38.667 -38.667 -80.667 -58 -126 -58zM286 128c27.333 0 48.667 11.999 64 35.999v184
c-18 16 -40.667 24 -68 24c-20 0 -36.667 -9.66699 -50 -29s-20 -49.666 -20 -90.999c0 -82.667 24.667 -124 74 -124z" />
    <glyph glyph-name="uni0252" unicode="&#x252;" horiz-adv-x="580" 
d="M336 -12c-48 0 -90 20.667 -126 62h-4l-14 -50h-134v500h140l12 -46h4c42 38.667 87.333 58 136 58c58.667 0 105.667 -23 141 -69s53 -107.667 53 -185c0 -82 -20.667 -147.5 -62 -196.5s-90 -73.5 -146 -73.5zM294 128c49.333 0 74 42.667 74 128
c0 77.333 -23.333 116 -70 116c-25.333 0 -48 -12 -68 -36v-184c18 -16 39.333 -24 64 -24z" />
    <glyph glyph-name="uni0253" unicode="&#x253;" horiz-adv-x="580" 
d="M336 -12c-46 0 -88 21.998 -126 65.998h-4l-14 -54h-134v486c0 64.667 17.333 117.834 52 159.501s90 62.5 166 62.5c37.333 0 72.666 -6 105.999 -18l-30 -126c-18 6.66699 -34.667 10 -50 10c-22.667 0 -40 -6.16699 -52 -18.5s-19.333 -33.5 -22 -63.5l-2 -50
c36.667 33.333 77.667 50 123 50c58.667 0 105.834 -22.167 141.501 -66.5s53.5 -103.166 53.5 -176.499c0 -80 -20.667 -143.5 -62 -190.5s-90 -70.5 -146 -70.5zM294 127.998c49.333 0 74 39.333 74 118c0 70.667 -23.333 106 -70 106c-25.333 0 -48 -12 -68 -36v-164
c18 -16 39.333 -24 64 -24z" />
    <glyph glyph-name="uni0254" unicode="&#x254;" horiz-adv-x="472" 
d="M188 -12c-66.667 0 -121.999 19.333 -165.999 58l66 112c28.667 -21.333 55.334 -32 80.001 -32c27.333 0 50.166 11.333 68.499 34s27.5 52.667 27.5 90s-8.5 67.333 -25.5 90s-39.167 34 -66.5 34c-24.667 0 -46.667 -8 -66 -24l-80 110c44 34.667 99.333 52 166 52
c70 0 128.833 -23.5 176.5 -70.5s71.5 -110.833 71.5 -191.5s-23.833 -144.5 -71.5 -191.5s-107.834 -70.5 -180.501 -70.5z" />
    <glyph glyph-name="uni0255" unicode="&#x255;" horiz-adv-x="472" 
d="M298 118c13.333 0 24 3.66797 32 11.001s12 15.666 12 24.999c0 8 -2.83301 15 -8.5 21s-13.5 9 -23.5 9c-21.333 0 -44 -15 -68 -45c16 -14 34.667 -21 56 -21zM142 -73.999l-132 58c15.333 42 34.666 82.333 57.999 121c-24 42 -36 90.333 -36 145
c0 80 26 143.667 78 191s115.333 71 190 71c56 0 104.667 -17.333 146 -52l-74 -102c-19.333 16 -40 24 -62 24c-34.667 0 -62 -11.667 -82 -35s-30 -55 -30 -95c42.667 29.333 84.667 44 126 44c44.667 0 79.834 -12.667 105.501 -38s38.5 -60 38.5 -104
c0 -47.333 -16 -86.833 -48 -118.5s-74.667 -47.5 -128 -47.5c-44 0 -84 8 -120 24c-14 -35.333 -24 -64 -30 -86z" />
    <glyph glyph-name="uni0256" unicode="&#x256;" horiz-adv-x="580" 
d="M534 -188c-57.333 0 -101.333 15.332 -132 45.999s-46 67.334 -46 110.001v70c-35.333 -33.333 -74 -50 -116 -50c-62 0 -111.5 23.5 -148.5 70.5s-55.5 110.833 -55.5 191.5c0 78.667 20.5 142 61.5 190s88.5 72 142.5 72c44 0 82.667 -16.667 116 -50l-6 72v174h172
v-698c0 -23.333 3 -39.833 9 -49.5s16.333 -14.5 31 -14.5c7.33301 0 16 2 26 6l30 -126c-23.333 -9.33301 -51.333 -14 -84 -14zM286 127.999c27.333 0 48.667 11.999 64 35.999v184c-18 16 -40.667 24 -68 24c-20 0 -36.667 -9.66699 -50 -29s-20 -49.666 -20 -90.999
c0 -82.667 24.667 -124 74 -124z" />
    <glyph glyph-name="uni0257" unicode="&#x257;" horiz-adv-x="580" 
d="M240 -12c-62 0 -111.5 23.5 -148.5 70.5s-55.5 110.833 -55.5 191.5c0 78.667 20.5 142 61.5 190s88.5 72 142.5 72c44 0 82.667 -16.667 116 -50v62c0 54 15 98.167 45 132.5s77.667 51.5 143 51.5c29.333 0 54 -3.33301 74 -10l-30 -126c-4 1.33301 -9.33301 2 -16 2
c-18 0 -30.833 -4.83301 -38.5 -14.5s-11.5 -26.167 -11.5 -49.5v-510h-140l-12 46h-4c-38.667 -38.667 -80.667 -58 -126 -58zM286 128c27.333 0 48.667 11.999 64 35.999v184c-18 16 -40.667 24 -68 24c-20 0 -36.667 -9.66699 -50 -29s-20 -49.666 -20 -90.999
c0 -82.667 24.667 -124 74 -124z" />
    <glyph glyph-name="uni0258" unicode="&#x258;" horiz-adv-x="526" 
d="M240 -12c-29.333 0 -61.166 5.16699 -95.499 15.5s-64.5 24.5 -90.5 42.5l56 102c36 -20 71.333 -30 106 -30c60.667 0 98 26.667 112 80h-285c-4.66699 18.667 -7 42.667 -7 72c0 70 20.167 127.833 60.5 173.5s96.166 68.5 167.499 68.5c63.333 0 117.5 -24 162.5 -72
s67.5 -111.333 67.5 -190c0 -81.333 -23.667 -145.333 -71 -192s-108.333 -70 -183 -70zM182 310l148 0.000976562c-8 48 -32 72 -72 72c-24.667 0 -43.5 -6.83301 -56.5 -20.5s-19.5 -30.834 -19.5 -51.501z" />
    <glyph glyph-name="uni0259" unicode="&#x259;" horiz-adv-x="526" 
d="M254 -12c-70.667 0 -124.667 22.667 -162 68s-56 103.333 -56 174c0 29.333 2.33301 53.333 7 72h285c-12.667 53.333 -46.667 80 -102 80c-34 0 -68 -10 -102 -30l-56 110c50 33.333 112.667 50 188 50c68.667 0 125.5 -23.833 170.5 -71.5s67.5 -111.167 67.5 -190.5
c0 -78 -23.5 -141.167 -70.5 -189.5s-103.5 -72.5 -169.5 -72.5zM250 118c44.667 0 71.333 24 80 72h-148c0 -48 22.667 -72 68 -72z" />
    <glyph glyph-name="uni025A" unicode="&#x25a;" horiz-adv-x="730" 
d="M264 -12c-74 0 -129.67 22.5 -167.003 67.5s-57.666 101.167 -60.999 168.5l275 120c-17.333 25.333 -46 38 -86 38c-33.333 0 -67 -10 -101 -30l-56 110c50.667 33.333 111 50 181 50c92.667 0 160.667 -35.667 204 -107l99 43l80 -30
c0 -36.667 3.33301 -62.167 10 -76.5s18 -21.5 34 -21.5c12.667 0 26.334 3.33301 41.001 10l33 -80c-27.333 -17.333 -54 -26 -80 -26c-67.333 0 -110.666 32.667 -129.999 98l-51 -22c3.33301 -22 5 -42.333 5 -61c0 -70.667 -21.5 -130.167 -64.5 -178.5
s-98.167 -72.5 -165.5 -72.5zM257.997 116c22.667 0 41.333 9.83301 56 29.5s22 45.5 22 77.5v9l-148 -66c4 -16 12.333 -28.333 25 -37s27.667 -13 45 -13z" />
    <glyph glyph-name="uni025B" unicode="&#x25b;" horiz-adv-x="470" 
d="M276 -12c-62 0 -116.168 13.833 -162.501 41.5s-69.5 65.834 -69.5 114.501c0 61.333 34.333 100.666 103 117.999v4c-26.667 7.33301 -46.834 20.5 -60.501 39.5s-20.5 39.167 -20.5 60.5c0 48.667 20.167 85.167 60.5 109.5s90.833 36.5 151.5 36.5
c58.667 0 113.334 -14.667 164.001 -44l-62 -110c-32 16 -62.667 24 -92 24c-17.333 0 -30.666 -3.83301 -39.999 -11.5s-14 -17.167 -14 -28.5c0 -21.333 17.333 -32 52 -32h73v-112h-89c-21.333 0 -36.333 -2.5 -45 -7.5s-13 -14.5 -13 -28.5s7.5 -24.833 22.5 -32.5
s34.5 -11.5 58.5 -11.5c29.333 0 60.333 8.66699 93 26l66 -108c-52 -32 -110.667 -48 -176 -48z" />
    <glyph glyph-name="uni025C" unicode="&#x25c;" horiz-adv-x="484" 
d="M218 -12c-68.667 0 -130.668 16 -186.001 48l66 108c32.667 -17.333 63.667 -26 93 -26c24 0 43.5 3.83301 58.5 11.5s22.5 18.5 22.5 32.5s-4.33301 23.5 -13 28.5s-23.667 7.5 -45 7.5h-89v112h73c34.667 0 52 10.667 52 32c0 11.333 -4.66699 20.833 -14 28.5
s-22.666 11.5 -39.999 11.5c-29.333 0 -60 -8 -92 -24l-62 110c54 29.333 112 44 174 44c58 0 106.167 -12.167 144.5 -36.5s57.5 -60.833 57.5 -109.5c0 -21.333 -6.83301 -41.5 -20.5 -60.5s-33.834 -32.167 -60.501 -39.5v-4c68.667 -17.333 103 -56.666 103 -117.999
c0 -48.667 -22.167 -86.834 -66.5 -114.501s-96.166 -41.5 -155.499 -41.5z" />
    <glyph glyph-name="uni025E" unicode="&#x25e;" horiz-adv-x="574" 
d="M274 -12c-62 0 -115.833 13.6689 -161.5 41.002s-68.5 65.666 -68.5 114.999c0 61.333 34.333 100.666 103 117.999v4c-26.667 7.33301 -46.834 20.5 -60.501 39.5s-20.5 39.167 -20.5 60.5c0 48.667 19.833 85.167 59.5 109.5s89.834 36.5 150.501 36.5
c74 0 137.167 -22.833 189.5 -68.5s78.5 -110.167 78.5 -193.5c0 -84 -25.5 -148.667 -76.5 -194s-115.5 -68 -193.5 -68zM274 118.002c32 0 55.666 10.3311 70.999 30.998s23 54.334 23 101.001s-7.16699 80.334 -21.5 101.001s-36.5 31 -66.5 31
c-12.667 0 -23.5 -3.83301 -32.5 -11.5s-13.5 -17.167 -13.5 -28.5c0 -21.333 14 -32 42 -32h33v-112h-49c-17.333 0 -29.666 -2.5 -36.999 -7.5s-11 -14.5 -11 -28.5s5.66699 -24.833 17 -32.5s26.333 -11.5 45 -11.5z" />
    <glyph glyph-name="uni025F" unicode="&#x25f;" horiz-adv-x="340" 
d="M62 -188c-37.333 0 -68.667 4.66699 -94 14l30 126c14 -4 26 -6 36 -6c18 0 30.833 5.66699 38.5 17s11.5 30.333 11.5 57v200h-70v74l70 6v200h172v-200h66v-80h-66v-194c0 -63.333 -15 -114.833 -45 -154.5s-79.667 -59.5 -149 -59.5z" />
    <glyph glyph-name="uni0260" unicode="&#x260;" horiz-adv-x="592" 
d="M262 -186c-28 0 -59.501 4.83203 -94.501 14.499s-66.833 23.5 -95.5 41.5l56 112c43.333 -22.667 88 -34 134 -34c55.333 0 86.666 20.667 93.999 62l4 50c-32.667 -29.333 -70.667 -44 -114 -44c-61.333 0 -110.666 23 -147.999 69s-56 104.333 -56 175
c0 72.667 21.167 132.834 63.5 180.501s90.5 71.5 144.5 71.5c40 0 76.667 -16.667 110 -50v30c0 46 15.333 85.833 46 119.5s78.667 50.5 144 50.5c29.333 0 54 -3.33301 74 -10l-30 -126c-3.33301 1.33301 -8.66602 2 -15.999 2c-18 0 -30.833 -5.16699 -38.5 -15.5
s-11.5 -26.5 -11.5 -48.5v-448c0 -65.333 -23 -115.333 -69 -150s-111.667 -52 -197 -52zM291.999 153.999c26 0 47.334 12.668 64.001 38.001v156c-18 16 -40.667 24 -68 24c-20.667 0 -37.834 -9.5 -51.501 -28.5s-20.5 -46.167 -20.5 -81.5
c0 -34.667 6.83301 -61.334 20.5 -80.001s32.167 -28 55.5 -28z" />
    <glyph glyph-name="uni0261" unicode="&#x261;" horiz-adv-x="592" 
d="M262 -186c-28 0 -59.499 4.83203 -94.499 14.499s-66.833 23.5 -95.5 41.5l56 112c43.333 -22.667 88 -34 134 -34c55.333 0 86.666 20.667 93.999 62l4 50c-32.667 -29.333 -70.667 -44 -114 -44c-61.333 0 -110.666 23 -147.999 69s-56 104.333 -56 175
c0 72.667 21.167 132.834 63.5 180.501s90.5 71.5 144.5 71.5c49.333 0 90.666 -19.333 123.999 -58h4l12 46h138v-484c0 -65.333 -23 -115.333 -69 -150s-111.667 -52 -197 -52zM292.001 153.999c26 0 47.334 12.668 64.001 38.001v156c-18 16 -40.667 24 -68 24
c-20.667 0 -37.834 -9.5 -51.501 -28.5s-20.5 -46.167 -20.5 -81.5c0 -34.667 6.83301 -61.334 20.5 -80.001s32.167 -28 55.5 -28z" />
    <glyph glyph-name="uni0262" unicode="&#x262;" horiz-adv-x="524" 
d="M291 -12c-34 0 -65.9971 5.16992 -95.9971 15.5029s-57.333 25.666 -82 45.999s-44.334 47.5 -59.001 81.5s-22 72.667 -22 116c0 81.333 26.167 145.833 78.5 193.5s113.166 71.5 182.499 71.5c40 0 73.333 -5 100 -15s53 -25 79 -45l-76 -102
c-1.33301 0.666992 -4.16602 2.33398 -8.49902 5.00098l-9 5.5c-1.66699 1 -4.33398 2.5 -8.00098 4.5s-6.33398 3.5 -8.00098 4.5s-4.16699 2.16699 -7.5 3.5s-6.16602 2.33301 -8.49902 3l-8.5 2.5c-3.33301 1 -6.66602 1.66699 -9.99902 2s-7 0.666016 -11 0.999023
s-8 0.5 -12 0.5c-26.667 0 -49.834 -11.333 -69.501 -34s-29.5 -56.334 -29.5 -101.001c0 -40.667 9 -72.334 27 -95.001s41.667 -34 71 -34c15.333 0 27.333 2.66699 36 8v72h-74v112h220v-255c-22 -20 -50.333 -36.167 -85 -48.5s-71.334 -18.5 -110.001 -18.5z" />
    <glyph glyph-name="uni0263" unicode="&#x263;" horiz-adv-x="544" 
d="M276 -206c-51.333 0 -92.5 14.333 -123.5 43s-46.5 66.334 -46.5 113.001c0 23.333 4.33301 45.333 13 66s23.667 49 45 85l-152 399h172l54 -188c3.33301 -11.333 9 -29.5 17 -54.5s14.333 -45.833 19 -62.5h4c4.66699 16.667 11 37.5 19 62.5s13.667 43.167 17 54.5
l54 188h164l-145 -396c22 -36.667 37.333 -65.5 46 -86.5s13 -43.5 13 -67.5c0 -46.667 -15.5 -84.334 -46.5 -113.001s-72.167 -43 -123.5 -43zM276 -100c9.33301 0 17 3.33301 23 10s9 16 9 28c0 23.333 -10.333 54 -31 92h-5c-18.667 -39.333 -28 -70 -28 -92
c0 -12 3 -21.333 9 -28s13.667 -10 23 -10z" />
    <glyph glyph-name="uni0264" unicode="&#x264;" horiz-adv-x="592" 
d="M296 -12c-62.667 0 -112.667 16.167 -150 48.5s-56 78.5 -56 138.5c0 55.333 30 111 90 167c-18 21.333 -41.333 32 -70 32c-18.667 0 -34 -4.66699 -46 -14l-48 124c24.667 18.667 64 28 118 28c64.667 0 118.667 -25.333 162 -76c43.333 50.667 97.333 76 162 76
c54 0 93.333 -9.33301 118 -28l-48 -124c-12.667 9.33301 -28 14 -46 14c-28.667 0 -52 -10.667 -70 -32c60 -56 90 -111.667 90 -167c0 -60 -18.667 -106.167 -56 -138.5s-87.333 -48.5 -150 -48.5zM296 126c30.667 0 46 18 46 54c0 28.667 -15.333 57.334 -46 86.001
c-30.667 -28.667 -46 -57.334 -46 -86.001c0 -36 15.333 -54 46 -54z" />
    <glyph glyph-name="uni0265" unicode="&#x265;" horiz-adv-x="582" 
d="M352 -176v142l8 90c-42.667 -45.333 -92.667 -68 -150 -68c-104 0 -156 68 -156 204v308h172v-286c0 -30.667 3.83301 -51.667 11.5 -63s20.5 -17 38.5 -17c30.667 0 56 14.667 76 44v322h172v-676h-172z" />
    <glyph glyph-name="uni0266" unicode="&#x266;" horiz-adv-x="582" 
d="M58 0v485.999c0 64.667 17.333 117.834 52 159.501s90 62.5 166 62.5c37.333 0 72.666 -6 105.999 -18l-30 -126c-18 6.66699 -34.667 10 -50 10c-22.667 0 -40 -6.16699 -52 -18.5s-19.333 -33.5 -22 -63.5l-6 -64c48.667 42.667 98.667 64 150 64
c104 0 156 -68 156 -204v-288h-172v266c0 30.667 -3.83301 51.667 -11.5 63s-20.5 17 -38.5 17c-23.333 0 -48.666 -12.667 -75.999 -38v-308h-172z" />
    <glyph glyph-name="uni0267" unicode="&#x267;" horiz-adv-x="582" 
d="M334 -188c-37.333 0 -68.667 4.66602 -94 13.999l30 126c14 -4 26 -6 36 -6c18 0 30.833 5.66699 38.5 17s11.5 30.333 11.5 57v246c0 30.667 -3.83301 51.667 -11.5 63s-20.5 17 -38.5 17c-23.333 0 -48.666 -12.667 -75.999 -38v-308h-172v486
c0 64.667 17.333 117.834 52 159.501s90 62.5 166 62.5c37.333 0 72.666 -6 105.999 -18l-30 -126c-18 6.66699 -34.667 10 -50 10c-22.667 0 -40 -6.16699 -52 -18.5s-19.333 -33.5 -22 -63.5l-6 -64c48.667 42.667 98.667 64 150 64c104 0 156 -68 156 -204v-262
c0 -63.333 -15 -114.833 -45 -154.5s-79.667 -59.5 -149 -59.5z" />
    <glyph glyph-name="uni0268" unicode="&#x268;" horiz-adv-x="340" 
d="M14 220v74l70 6v200h172v-200h66v-80h-66v-220h-172v220h-70zM170 562c-28 0 -51 8 -69 24s-27 36.667 -27 62s9 46 27 62s41 24 69 24s51 -8 69 -24s27 -36.667 27 -62s-9 -46 -27 -62s-41 -24 -69 -24z" />
    <glyph glyph-name="uni026A" unicode="&#x26a;" horiz-adv-x="416" 
d="M54 0v134h68v232h-68v134h308v-134h-68v-232h68v-134h-308z" />
    <glyph glyph-name="uni026C" unicode="&#x26c;" horiz-adv-x="406" 
d="M143 282c-52 0 -90.833 10.167 -116.5 30.5s-38.5 46.833 -38.5 79.5c0 30.667 10.333 56 31 76s47 30 79 30c20 0 37.333 -4.66699 52 -14v212h172v-334h66v-80h-66v-112c0 -15.333 2.83301 -26.5 8.5 -33.5s12.167 -10.5 19.5 -10.5c6.66699 0 12.667 0.666992 18 2
l20 -126c-21.333 -9.33301 -49.333 -14 -84 -14c-102.667 0 -154 62.667 -154 188v106h-7zM150 362c0 12.667 -3.66699 25.5 -11 38.5s-19 19.5 -35 19.5c-18.667 0 -28 -9 -28 -27c0 -20.667 17 -31 51 -31h23z" />
    <glyph glyph-name="uni026D" unicode="&#x26d;" horiz-adv-x="298" 
d="M242 -188c-34 0 -63.332 5.5 -87.999 16.5s-43.834 26.333 -57.501 46s-23.5 41 -29.5 64s-9 48.833 -9 77.5v680h172v-686c0 -23.333 3 -39.833 9 -49.5s16.333 -14.5 31 -14.5c7.33301 0 16 2 26 6l30 -126c-23.333 -9.33301 -51.333 -14 -84 -14z" />
    <glyph glyph-name="uni026E" unicode="&#x26e;" horiz-adv-x="664" 
d="M406 -188c-82.667 0 -152.666 27.3311 -209.999 81.998l76 106c38 -33.333 75.333 -50 112 -50c26.667 0 47.667 7.83301 63 23.5s23 37.834 23 66.501c0 24.667 -7.5 43.834 -22.5 57.501s-34.833 20.5 -59.5 20.5c-18.667 0 -37.334 -3.33301 -56.001 -10l-54 80
l136 178h-184v-366h-172v696h172v-196h388v-92l-134 -173c50 -8.66699 88.833 -30 116.5 -64s41.5 -76.333 41.5 -127c0 -71.333 -22.5 -127.833 -67.5 -169.5s-101.167 -62.5 -168.5 -62.5z" />
    <glyph glyph-name="uni026F" unicode="&#x26f;" horiz-adv-x="868" 
d="M216 -12c-53.333 0 -92.9951 18 -118.995 54s-39 86 -39 150v308h172v-286c0 -30.667 3.83301 -51.667 11.5 -63s20.5 -17 38.5 -17c21.333 0 44.666 12.667 69.999 38v328h172v-286c0 -30.667 3.83301 -51.667 11.5 -63s20.5 -17 38.5 -17
c21.333 0 44.666 12.667 69.999 38v328h172v-500h-140l-12 61h-4c-24 -23.333 -47.333 -41.333 -70 -54s-49.334 -19 -80.001 -19c-64 0 -110 26.667 -138 80c-24.667 -25.333 -48.834 -45 -72.501 -59s-50.834 -21 -81.501 -21z" />
    <glyph glyph-name="uni0270" unicode="&#x270;" horiz-adv-x="868" 
d="M642 -176l0.00292969 143l8 89c-23.333 -23.333 -45.666 -40.5 -66.999 -51.5s-46.333 -16.5 -75 -16.5c-64 0 -110 26.667 -138 80c-24.667 -25.333 -48.834 -45 -72.501 -59s-50.834 -21 -81.501 -21c-53.333 0 -93 18 -119 54s-39 86 -39 150v308h172v-286
c0 -30.667 3.83301 -51.667 11.5 -63s20.5 -17 38.5 -17c21.333 0 44.666 12.667 69.999 38v328h172v-286c0 -30.667 3.83301 -51.667 11.5 -63s20.5 -17 38.5 -17c21.333 0 44.666 12.667 69.999 38v328h172v-676h-172z" />
    <glyph glyph-name="uni0271" unicode="&#x271;" horiz-adv-x="868" 
d="M630 -188c-32.667 0 -60.6709 4.66602 -84.0039 13.999l30 126c10 -4 18.667 -6 26 -6c14.667 0 25 5.5 31 16.5s9 30.167 9 57.5v266c0 30.667 -3.83301 51.667 -11.5 63s-20.5 17 -38.5 17c-21.333 0 -44.666 -12.667 -69.999 -38v-328h-172v286
c0 30.667 -3.83301 51.667 -11.5 63s-20.5 17 -38.5 17c-21.333 0 -44.666 -12.667 -69.999 -38v-328h-172v500h140l12 -61h4c24 23.333 47.333 41.333 70 54s49.334 19 80.001 19c64 0 110 -26.667 138 -80c24.667 25.333 48.834 45 72.501 59s50.834 21 81.501 21
c53.333 0 93 -18 119 -54s39 -86 39 -150v-282c0 -30 -3 -57.167 -9 -81.5s-15.833 -46.666 -29.5 -66.999s-32.834 -36.333 -57.501 -48s-54 -17.5 -88 -17.5z" />
    <glyph glyph-name="uni0272" unicode="&#x272;" horiz-adv-x="582" 
d="M46 -188c-32.667 0 -60.668 4.66699 -84.001 14l30 126c10 -4 18.667 -6 26 -6c14.667 0 25 4.83301 31 14.5s9 26.167 9 49.5v490h140l12 -60h4c50.667 48 103.334 72 158.001 72c104 0 156 -68 156 -204v-308h-172v286c0 30.667 -3.83301 51.667 -11.5 63
s-20.5 17 -38.5 17c-23.333 0 -48.666 -12.667 -75.999 -38v-312c0 -28.667 -3 -54.5 -9 -77.5s-15.833 -44.333 -29.5 -64s-32.834 -35 -57.501 -46s-54 -16.5 -88 -16.5z" />
    <glyph glyph-name="uni0273" unicode="&#x273;" horiz-adv-x="582" 
d="M540 -188c-34 0 -63.334 5.5 -88.001 16.5s-43.834 26.333 -57.501 46s-23.5 41 -29.5 64s-9 48.833 -9 77.5v270c0 30.667 -3.83301 51.667 -11.5 63s-20.5 17 -38.5 17c-23.333 0 -48.666 -12.667 -75.999 -38v-328h-172v500h140l12 -60h4
c50.667 48 103.334 72 158.001 72c104 0 156 -68 156 -204v-298c0 -23.333 3 -39.833 9 -49.5s16.333 -14.5 31 -14.5c7.33301 0 16 2 26 6l30 -126c-23.333 -9.33301 -51.333 -14 -84 -14z" />
    <glyph glyph-name="uni0274" unicode="&#x274;" horiz-adv-x="568" 
d="M58 0v500h158l98 -184l47 -104h3c-9.33301 93.333 -14 151.666 -14 174.999v113h160v-500h-158l-99 184c-4.66699 9.33301 -20 44 -46 104h-4c10 -87.333 15 -145.666 15 -174.999v-113h-160z" />
    <glyph glyph-name="uni0275" unicode="&#x275;" horiz-adv-x="560" 
d="M280 -12c-69.333 0 -128 23.167 -176 69.5s-72 110.5 -72 192.5s24 146.167 72 192.5s106.667 69.5 176 69.5s128 -23.167 176 -69.5s72 -110.5 72 -192.5s-24 -146.167 -72 -192.5s-106.667 -69.5 -176 -69.5zM280 385c-43.333 0 -70.668 -25 -82.001 -75h164
c-11.333 50 -38.666 75 -81.999 75zM279.998 116c46 0 74 27.333 84 82h-168c10 -54.667 38 -82 84 -82z" />
    <glyph glyph-name="uni0276" unicode="&#x276;" horiz-adv-x="736" 
d="M292 -12c-70.667 0 -131.667 22.332 -183 66.999s-77 109.334 -77 194.001c0 83.333 25.833 148 77.5 194s112.5 69 182.5 69c38.667 0 78.667 -4 120 -12h286v-124h-196v-66h168v-112h-168v-76h206v-122h-296c-38.667 -8 -78.667 -12 -120 -12zM301 122.999
c11.333 0 22.333 1.33203 33 3.99902v244c-10.667 2.66699 -21.667 4 -33 4c-26 0 -48 -10.167 -66 -30.5s-27 -52.166 -27 -95.499c0 -84 31 -126 93 -126z" />
    <glyph glyph-name="uni0278" unicode="&#x278;" horiz-adv-x="760" 
d="M208 250c0 -81.333 31.333 -124.668 94 -130.001v260c-62.667 -5.33301 -94 -48.666 -94 -129.999zM552 249.998c0 81.333 -31.333 124.668 -94 130.001v-260c62.667 5.33301 94 48.666 94 129.999zM302 -176v169c-75.333 4 -139.166 28.833 -191.499 74.5
s-78.5 106.5 -78.5 182.5s26.167 136.833 78.5 182.5s116.166 70.5 191.499 74.5v189h156v-189c75.333 -4 139.166 -28.833 191.499 -74.5s78.5 -106.5 78.5 -182.5s-26.167 -136.833 -78.5 -182.5s-116.166 -70.5 -191.499 -74.5v-169h-156z" />
    <glyph glyph-name="uni0279" unicode="&#x279;" horiz-adv-x="418" 
d="M62 -12c-26 0 -46.667 3.33203 -62 9.99902l28 148c24 -5.33301 42.667 -8 56 -8c20 0 39.5 6.83301 58.5 20.5s34.167 34.834 45.5 63.501v278h172v-500h-140l-12 86h-4c-17.333 -32.667 -38.833 -57.167 -64.5 -73.5s-51.5 -24.5 -77.5 -24.5z" />
    <glyph glyph-name="uni027A" unicode="&#x27a;" horiz-adv-x="418" 
d="M62 -12c-26 0 -46.667 3.33203 -62 9.99902l28 148c24 -5.33301 42.667 -8 56 -8c20 0 39.5 6.83301 58.5 20.5s34.167 34.834 45.5 63.501v474h172v-696h-140l-12 86h-4c-17.333 -32.667 -38.833 -57.167 -64.5 -73.5s-51.5 -24.5 -77.5 -24.5z" />
    <glyph glyph-name="uni027B" unicode="&#x27b;" horiz-adv-x="418" 
d="M372 -188c-58.667 0 -100.667 16.666 -126 49.999s-38 76 -38 128v96h-4c-17.333 -32.667 -38.833 -57.167 -64.5 -73.5s-51.5 -24.5 -77.5 -24.5s-46.667 3.33301 -62 10l28 148c24 -5.33301 42.667 -8 56 -8c20 0 39.5 6.83301 58.5 20.5s34.167 34.834 45.5 63.501
v278h172v-490c0 -23.333 3 -39.833 9 -49.5s16.333 -14.5 31 -14.5c7.33301 0 16 2 26 6l30 -126c-23.333 -9.33301 -51.333 -14 -84 -14z" />
    <glyph glyph-name="uni027D" unicode="&#x27d;" horiz-adv-x="418" 
d="M242 -188c-34 0 -63.332 5.50098 -87.999 16.501s-43.834 26.333 -57.501 46s-23.5 41 -29.5 64s-9 48.833 -9 77.5v484h140l12 -86h4c17.333 32.667 38.833 57.167 64.5 73.5s51.5 24.5 77.5 24.5s46.667 -3.33301 62 -10l-28 -148c-24 5.33301 -42.667 8 -56 8
c-20 0 -39.5 -6.83301 -58.5 -20.5s-34.167 -34.834 -45.5 -63.501v-268c0 -23.333 3 -39.833 9 -49.5s16.333 -14.5 31 -14.5c7.33301 0 16 2 26 6l30 -126c-23.333 -9.33301 -51.333 -14 -84 -14z" />
    <glyph glyph-name="uni027E" unicode="&#x27e;" horiz-adv-x="398" 
d="M58 0l-0.00195312 299.999c0 61.333 17.667 112 53 152s90.333 60 165 60c50.667 0 91.334 -4.66699 122.001 -14l-26 -144c-25.333 6.66699 -48.666 10 -69.999 10c-18 0 -34.5 -8.16699 -49.5 -24.5s-22.5 -42.166 -22.5 -77.499v-262h-172z" />
    <glyph glyph-name="uni0280" unicode="&#x280;" horiz-adv-x="546" 
d="M58 0v500h217c142 0 213 -57.333 213 -172c0 -60 -23.667 -105.667 -71 -137l121 -191h-191l-79 150h-38v-150h-172zM230 265h25c21.333 0 37.333 5.33301 48 16s16 24.667 16 42c0 34.667 -21.333 52 -64 52h-25v-110z" />
    <glyph glyph-name="uni0281" unicode="&#x281;" horiz-adv-x="546" 
d="M271 0c-142 0 -213 57.333 -213 172c0 60 23.667 105.667 71 137l-121 191h191l79 -150h38v150h172v-500h-217zM291 125h25v110h-25c-21.333 0 -37.333 -5.33301 -48 -16s-16 -24.667 -16 -42c0 -34.667 21.333 -52 64 -52z" />
    <glyph glyph-name="uni0282" unicode="&#x282;" horiz-adv-x="452" 
d="M212 -12c-14 0 -28.002 1 -42.002 3c4.66699 -32.667 21.334 -49 50.001 -49c10 0 22 2 36 6l30 -122c-25.333 -9.33301 -56.666 -14 -93.999 -14c-62 0 -106.5 19.833 -133.5 59.5s-40.5 91.167 -40.5 154.5v28l76 106c41.333 -30.667 82 -46 122 -46
c33.333 0 50 10 50 30c0 4.66699 -1.5 9.16699 -4.5 13.5s-8.33301 8.66602 -16 12.999s-14 7.66602 -19 9.99902s-14.333 6 -28 11l-28.5 10.5c-84 33.333 -126 82.666 -126 147.999c0 48.667 18.167 87.834 54.5 117.501s84.166 44.5 143.499 44.5
c64 0 125.333 -22 184 -66l-76 -102c-38.667 28 -72.667 42 -102 42s-44 -9.33301 -44 -28c0 -3.33301 0.833008 -6.66602 2.5 -9.99902s4.33398 -6.33301 8.00098 -9l10.5 -7.5c3.33301 -2.33301 8.33301 -4.66602 15 -6.99902l17 -6l20 -7l21 -7.5
c85.333 -31.333 128 -81.333 128 -150c0 -48.667 -18.667 -88.5 -56 -119.5s-90 -46.5 -158 -46.5z" />
    <glyph glyph-name="uni0283" unicode="&#x283;" horiz-adv-x="290" 
d="M38 -188c-37.333 0 -68.667 4.66699 -94 14l30 126c14 -4 26 -6 36 -6c18 0 30.833 5.66699 38.5 17s11.5 30.333 11.5 57v474c0 63.333 15.667 114.833 47 154.5s83.666 59.5 156.999 59.5c32.667 0 60.667 -4.66699 84 -14l-30 -126c-10 4 -18.667 6 -26 6
c-21.333 0 -36.666 -5.66699 -45.999 -17s-14 -30.333 -14 -57v-474c0 -63.333 -15 -114.833 -45 -154.5s-79.667 -59.5 -149 -59.5z" />
    <glyph glyph-name="uni0284" unicode="&#x284;" horiz-adv-x="340" 
d="M62 -188c-37.333 0 -68.667 4.66699 -94 14l30 126c14 -4 26 -6 36 -6c18 0 30.833 5.66699 38.5 17s11.5 30.333 11.5 57v200h-70v74l70 6v194c0 63.333 15.667 114.833 47 154.5s83.666 59.5 156.999 59.5c32.667 0 60.667 -4.66699 84 -14l-30 -126
c-10 4 -18.667 6 -26 6c-21.333 0 -36.666 -5.66699 -45.999 -17s-14 -30.333 -14 -57v-200h66v-80h-66v-194c0 -63.333 -15 -114.833 -45 -154.5s-79.667 -59.5 -149 -59.5z" />
    <glyph glyph-name="uni0288" unicode="&#x288;" horiz-adv-x="400" 
d="M264 -188c-62.667 0 -109 18 -139 54s-45 86 -45 150v350h-66v128l76 6l20 130h142v-130h114v-134h-114v-347c0 -48.667 20 -73 60 -73c13.333 0 28 2.66699 44 8l26 -124c-38.667 -12 -78 -18 -118 -18z" />
    <glyph glyph-name="uni0289" unicode="&#x289;" horiz-adv-x="634" 
d="M14 270l-0.000976562 74l70 6v150h172v-150h122v150h172v-150h66v-80h-66v-270h-140l-12 66h-4c-43.333 -52 -94.666 -78 -153.999 -78c-104 0 -156 68 -156 204v78h-70zM305.999 134c28 0 52 14.667 72 44v92h-122v-56c0 -30.667 3.83301 -51.667 11.5 -63
s20.5 -17 38.5 -17z" />
    <glyph glyph-name="uni028A" unicode="&#x28a;" horiz-adv-x="564" 
d="M282 -12c-74.667 0 -134.332 21.167 -178.999 63.5s-67 91.166 -67 146.499c0 64.667 22 119.667 66 165v3h-76v134h225v-111c-16 -24 -27.167 -47.167 -33.5 -69.5s-9.5 -50.5 -9.5 -84.5c0 -33.333 6.16699 -59.833 18.5 -79.5s30.833 -29.5 55.5 -29.5
s43.167 9.83301 55.5 29.5s18.5 46.167 18.5 79.5c0 34 -3.16699 62.167 -9.5 84.5s-17.5 45.5 -33.5 69.5v111h225v-134h-76v-3c44 -45.333 66 -100.333 66 -165c0 -55.333 -22.333 -104.166 -67 -146.499s-104.334 -63.5 -179.001 -63.5z" />
    <glyph glyph-name="uni028B" unicode="&#x28b;" horiz-adv-x="560" 
d="M278 -12c-70.667 0 -125.664 20.168 -164.997 60.501s-59 98.166 -59 173.499v278h172v-277c0 -64.667 20 -97 60 -97c21.333 0 37.666 13.167 48.999 39.5s17 63.833 17 112.5c0 36 -3.33301 62 -10 78s-17.334 24 -32.001 24c-4 0 -9.33301 -0.666992 -16 -2l-18 126
c16.667 5.33301 40.667 8 72 8c53.333 0 96.666 -17.333 129.999 -52s50 -86.667 50 -156c0 -98 -21.333 -175.167 -64 -231.5s-104.667 -84.5 -186 -84.5z" />
    <glyph glyph-name="uni028C" unicode="&#x28c;" horiz-adv-x="544" 
d="M12 0l158 500h198l164 -500h-172l-54 218l-36 156h-4l-36 -156l-54 -218h-164z" />
    <glyph glyph-name="uni028D" unicode="&#x28d;" horiz-adv-x="798" 
d="M24 0l114 499.999h200l36 -174c10.667 -61.333 18.667 -110.333 24 -147h4c12 83.333 19.333 132.333 22 147l34 174h196l120 -500h-170l-38 210c-2.66699 17.333 -6 42.833 -10 76.5s-7.33301 58.834 -10 75.501h-4c-10.667 -69.333 -20 -120 -28 -152l-46 -210h-146
l-48 210c-2.66699 10.667 -12.667 61.334 -30 152.001h-4c-2.66699 -16.667 -6 -41.834 -10 -75.501s-7.33301 -59.167 -10 -76.5l-38 -210h-158z" />
    <glyph glyph-name="uni028E" unicode="&#x28e;" horiz-adv-x="542" 
d="M12 0l176 512c27.333 70.667 57.5 121 90.5 151s79.5 45 139.5 45c26 0 51.333 -3.33301 76 -10l-30 -130c-18 4 -28.667 6 -32 6c-40.667 0 -66.667 -16.667 -78 -50l-14 -42l190 -482h-172l-60 192c-6 20 -18 67.333 -36 142h-4c-12 -56 -22.667 -103.333 -32 -142
l-50 -192h-164z" />
    <glyph glyph-name="uni028F" unicode="&#x28f;" horiz-adv-x="486" 
d="M158 0v144l-168 356h180l34 -96c4 -14.667 10.333 -35 19 -61s15 -45.667 19 -59h4l40 120l32 96h178l-166 -356v-144h-172z" />
    <glyph glyph-name="uni0290" unicode="&#x290;" horiz-adv-x="474" 
d="M452 -188c-63.333 0 -109.833 18.167 -139.5 54.5s-44.5 79.5 -44.5 129.5v4h-228v92l190 274h-168v134h382v-92l-190 -274h186v-124c0 -23.333 3 -39.833 9 -49.5s16.333 -14.5 31 -14.5c7.33301 0 16 2 26 6l30 -126c-23.333 -9.33301 -51.333 -14 -84 -14z" />
    <glyph glyph-name="uni0291" unicode="&#x291;" horiz-adv-x="524" 
d="M306 -82l-79.001 15.999c4.66699 22.667 9.66699 44.667 15 66h-202v92l190 274h-168v134h370v-92l-190 -274c10 -1.33301 24.333 -2.66602 43 -3.99902c40.667 93.333 88.334 140 143.001 140c34.667 0 61.667 -9.83301 81 -29.5s29 -48.5 29 -86.5
c0 -45.333 -15.333 -82.333 -46 -111s-77 -43 -139 -43h-29c-6.66699 -26.667 -12.667 -54 -18 -82zM398.999 123.999c16.667 0 29.333 3.33301 38 10s13 15 13 25c0 15.333 -8.66699 23 -26 23c-18.667 0 -37.667 -19.333 -57 -58h32z" />
    <glyph glyph-name="uni0292" unicode="&#x292;" horiz-adv-x="474" 
d="M216 -188c-82.667 0 -152.666 27.3311 -209.999 81.998l76 106c38 -33.333 75.333 -50 112 -50c26.667 0 47.667 7.83301 63 23.5s23 37.834 23 66.501c0 24.667 -7.5 43.834 -22.5 57.501s-34.833 20.5 -59.5 20.5c-18.667 0 -37.334 -3.33301 -56.001 -10l-54 80
l136 178h-188v134h392v-92l-134 -173c50 -8.66699 88.833 -30 116.5 -64s41.5 -76.333 41.5 -127c0 -71.333 -22.5 -127.833 -67.5 -169.5s-101.167 -62.5 -168.5 -62.5z" />
    <glyph glyph-name="uni0294" unicode="&#x294;" horiz-adv-x="460" 
d="M122 0v313.999c56.667 38 95.834 69.667 117.501 95s32.5 52.333 32.5 81c0 26 -7.16699 45.833 -21.5 59.5s-33.833 20.5 -58.5 20.5c-40 0 -78.667 -20 -116 -60l-84 108c58 60 131.333 90 220 90c66 0 121.167 -18.167 165.5 -54.5s66.5 -88.166 66.5 -155.499
c0 -50 -12.333 -93 -37 -129s-62.334 -75 -113.001 -117v-252h-172z" />
    <glyph glyph-name="uni0295" unicode="&#x295;" horiz-adv-x="530" 
d="M196 0v252.001c-50.667 42 -88.334 81 -113.001 117s-37 79 -37 129c0 67.333 23.167 119.166 69.5 155.499s103.833 54.5 172.5 54.5c84.667 0 154.667 -30 210 -90l-84 -108c-34 40 -69.333 60 -106 60c-28 0 -50 -6.83301 -66 -20.5s-24 -33.5 -24 -59.5
c0 -28.667 10.833 -55.667 32.5 -81s60.834 -57 117.501 -95v-314h-172z" />
    <glyph glyph-name="uni0298" unicode="&#x298;" horiz-adv-x="568" 
d="M284 -12c-72.667 0 -130.83 31.167 -174.497 93.5s-65.5 151.833 -65.5 268.5c0 118.667 21.667 208 65 268s101.666 90 174.999 90s131.666 -30.167 174.999 -90.5s65 -149.5 65 -267.5c0 -116.667 -21.833 -206.167 -65.5 -268.5s-101.834 -93.5 -174.501 -93.5z
M284.004 126c14.667 0 27.998 6 39.998 18s22.333 35.5 31 70.5s13 80.167 13 135.5c0 79.333 -8.16699 135.833 -24.5 169.5s-36.166 50.5 -59.499 50.5s-43.166 -16.833 -59.499 -50.5s-24.5 -90.167 -24.5 -169.5c0 -55.333 4.33301 -100.5 13 -135.5s19 -58.5 31 -70.5
s25.333 -18 40 -18zM284.002 282c-19.333 0 -35.833 6.83301 -49.5 20.5s-20.5 29.834 -20.5 48.501s6.83301 34.834 20.5 48.501s30.167 20.5 49.5 20.5s35.833 -6.83301 49.5 -20.5s20.5 -29.834 20.5 -48.501s-6.83301 -34.834 -20.5 -48.501s-30.167 -20.5 -49.5 -20.5z
" />
    <glyph glyph-name="uni0299" unicode="&#x299;" horiz-adv-x="536" 
d="M58 0l0.000976562 500.001h220c138.667 0 208 -44.667 208 -134c0 -22 -6.83301 -42.5 -20.5 -61.5s-34.834 -32.5 -63.501 -40.5v-4c68 -17.333 102 -56 102 -116c0 -48.667 -19.833 -84.834 -59.5 -108.501s-90.5 -35.5 -152.5 -35.5h-234zM226.001 310.001h45
c34 0 51 12.667 51 38c0 26.667 -17.333 40 -52 40h-44v-78zM226.001 112.001h58c36 0 54 14.667 54 44c0 28 -18 42 -54 42h-58v-86z" />
    <glyph glyph-name="uni029C" unicode="&#x29c;" horiz-adv-x="590" 
d="M60 0v500h172v-172h130v172h172v-500h-172v178h-130v-178h-172z" />
    <glyph glyph-name="uni029D" unicode="&#x29d;" horiz-adv-x="390" 
d="M328 -250c-17.333 44 -36.333 83.001 -57 117.001c-35.333 -36.667 -83 -55 -143 -55c-50.667 0 -91 15.167 -121 45.5s-45 69.166 -45 116.499c0 44.667 14.5 80.167 43.5 106.5s68.5 39.5 118.5 39.5c12.667 0 24.667 -1.33301 36 -4v384h172v-474
c0 -8 -0.333008 -14 -1 -18c54.667 -56 97.667 -122.667 129 -200zM122 -57.999c25.333 0 38 17.334 38 52.001c-15.333 9.33301 -28 14 -38 14s-18.167 -2.83301 -24.5 -8.5s-9.5 -12.834 -9.5 -21.501c0 -10 2.83301 -18.5 8.5 -25.5s14.167 -10.5 25.5 -10.5z
M246 562.002c-28 0 -51 8 -69 24s-27 36.667 -27 62s9 46 27 62s41 24 69 24s51 -8 69 -24s27 -36.667 27 -62s-9 -46 -27 -62s-41 -24 -69 -24z" />
    <glyph glyph-name="uni029F" unicode="&#x29f;" horiz-adv-x="440" 
d="M58 0v500h172v-366h184v-134h-356z" />
    <glyph glyph-name="uni02A1" unicode="&#x2a1;" horiz-adv-x="490" 
d="M138 0v179.998h-126v128l76 6h70c86.667 66.667 130 125.334 130 176.001c0 26 -7.16699 45.833 -21.5 59.5s-33.833 20.5 -58.5 20.5c-40 0 -78.667 -20 -116 -60l-84 108c58 60 131.333 90 220 90c66 0 121.167 -18.167 165.5 -54.5s66.5 -88.166 66.5 -155.499
c0 -31.333 -9.5 -61.333 -28.5 -90s-46.167 -60 -81.5 -94h124v-134h-164v-180h-172z" />
    <glyph glyph-name="uni02A2" unicode="&#x2a2;" horiz-adv-x="490" 
d="M180 0v180.003h-164v134h124c-35.333 34.667 -62.5 66.167 -81.5 94.5s-28.5 58.166 -28.5 89.499c0 67.333 23.167 119.166 69.5 155.499s103.833 54.5 172.5 54.5c84.667 0 154.667 -30 210 -90l-84 -108c-34 40 -69.333 60 -106 60c-28 0 -50 -6.83301 -66 -20.5
s-24 -33.5 -24 -59.5c0 -50.667 43.333 -109.334 130 -176.001h70l76 -6v-128h-126v-180h-172z" />
    <glyph glyph-name="h.sups" unicode="&#x2b0;" horiz-adv-x="391" 
d="M38 368l-0.000976562 460h120v-108l-8 -58c30.667 30.667 64.334 46 101.001 46c70 0 105 -46 105 -138v-202h-120v188c0 19.333 -2 32.833 -6 40.5s-12.667 11.5 -26 11.5c-12.667 0 -28 -8.33301 -46 -25v-215h-120z" />
    <glyph glyph-name="j.sups" unicode="&#x2b2;" horiz-adv-x="198" 
d="M28 236c-24 0 -45.333 2.66699 -64 8l20 88c8 -2.66699 16.667 -4 26 -4c11.333 0 19.166 3.5 23.499 10.5s6.5 19.5 6.5 37.5v324h120v-320c0 -42 -10.167 -76.5 -30.5 -103.5s-54.166 -40.5 -101.499 -40.5zM100 738c-19.333 0 -35.166 5.33301 -47.499 16
s-18.5 24.667 -18.5 42s6.16699 31.333 18.5 42s28.166 16 47.499 16s35.166 -5.5 47.499 -16.5s18.5 -24.833 18.5 -41.5s-6.16699 -30.5 -18.5 -41.5s-28.166 -16.5 -47.499 -16.5z" />
    <glyph glyph-name="r.sups" unicode="&#x2b3;" horiz-adv-x="284" 
d="M38 368l0.000976562 332h97l9 -58h2c24.667 44 56 66 94 66c17.333 0 32 -2.66699 44 -8l-20 -102c-20 4 -32.667 6 -38 6c-30.667 0 -53.334 -18 -68.001 -54v-182h-120z" />
    <glyph glyph-name="w.sups" unicode="&#x2b7;" horiz-adv-x="537" 
d="M96 368l-80 332h118l24 -136l12 -102h3l17 102l34 136h94l36 -136l18 -102h3l13 102l24 136h109l-75 -332h-138l-24 112l-14 90h-2l-14 -90l-22 -112h-136z" />
    <glyph glyph-name="y.sups" unicode="&#x2b8;" horiz-adv-x="366" 
d="M90 248c-18.667 0 -35.9971 2 -51.9971 6l20 88c8 -2.66699 15.333 -4 22 -4c27.333 0 44.666 10.667 51.999 32l4 12l-128 318h120l38 -124l8 -30c2.66699 -10 5.16699 -21.167 7.5 -33.5s4.5 -22.5 6.5 -30.5h4c3.33301 16 10.666 47.333 21.999 94l30 124h114
l-110 -324c-18.667 -46.667 -39.334 -79.667 -62.001 -99s-54.667 -29 -96 -29z" />
    <glyph glyph-name="uni02B9" unicode="&#x2b9;" horiz-adv-x="320" 
d="M82 364l18 320h172l-26 -140l-52 -180h-112z" />
    <glyph glyph-name="uni02BB" unicode="&#x2bb;" horiz-adv-x="320" 
d="M160 304c-34.667 0 -61 12.667 -79 38s-27 61.333 -27 108c0 102.667 52 178.667 156 228l36 -74c-64 -28 -96 -70.333 -96 -127c2 0.666992 5.33301 1 10 1c24.667 0 45.167 -7.5 61.5 -22.5s24.5 -34.833 24.5 -59.5c0 -28 -8 -50.333 -24 -67s-36.667 -25 -62 -25z
" />
    <glyph glyph-name="uni02BC" unicode="&#x2bc;" horiz-adv-x="320" 
d="M110 322l-36 74c64 28 96 70.333 96 127c-2 -0.666992 -5.33301 -1 -10 -1c-24.667 0 -45.167 7.5 -61.5 22.5s-24.5 34.833 -24.5 59.5c0 28 8 50.333 24 67s36.667 25 62 25c34.667 0 61 -12.667 79 -38s27 -61.333 27 -108c0 -102.667 -52 -178.667 -156 -228z" />
    <glyph glyph-name="uni02BE" unicode="&#x2be;" horiz-adv-x="180" 
d="M24 550v62c42.667 -2 64 12.667 64 44s-21.333 46 -64 44v62c49.333 2 86 -6.66699 110 -26s36 -46 36 -80s-12 -60.667 -36 -80s-60.667 -28 -110 -26z" />
    <glyph glyph-name="uni02BF" unicode="&#x2bf;" horiz-adv-x="180" 
d="M156 550c-49.333 -2 -86 6.66699 -110 26s-36 46 -36 80s12 60.667 36 80s60.667 28 110 26v-62c-42.667 2 -64 -12.667 -64 -44s21.333 -46 64 -44v-62z" />
    <glyph glyph-name="uni02C1" unicode="&#x2c1;" horiz-adv-x="358" 
d="M131 368l-0.000976562 165.002c-34 27.333 -59.167 53 -75.5 77s-24.5 52.333 -24.5 85c0 44.667 15.667 79.167 47 103.5s70 36.5 116 36.5c58 0 105.333 -20 142 -60l-58 -74c-21.333 26 -44.666 39 -69.999 39c-38.667 0 -58 -16.667 -58 -50
c0 -18.667 7.16699 -36.334 21.5 -53.001s40.5 -37.334 78.5 -62.001v-207h-119z" />
    <glyph glyph-name="circumflex" unicode="&#x2c6;" horiz-adv-x="560" 
d="M86 618l106 128h176l106 -128l-64 -60l-128 84h-4l-128 -84z" />
    <glyph glyph-name="caron" unicode="&#x2c7;" horiz-adv-x="560" 
d="M192 578l-106 128l64 60l128 -84h4l128 84l64 -60l-106 -128h-176z" />
    <glyph glyph-name="uni02C8" unicode="&#x2c8;" horiz-adv-x="160" 
d="M18 542l-6 208h136l-6 -208h-124z" />
    <glyph glyph-name="uni02C9" unicode="&#x2c9;" horiz-adv-x="320" 
d="M6 588v108h308v-108h-308z" />
    <glyph glyph-name="uni02CA" unicode="&#x2ca;" horiz-adv-x="240" 
d="M140 572l-84 84l158 188l116 -114z" />
    <glyph glyph-name="uni02CB" unicode="&#x2cb;" horiz-adv-x="240" 
d="M100 572l-190 158l116 114l158 -188z" />
    <glyph glyph-name="uni02CC" unicode="&#x2cc;" horiz-adv-x="160" 
d="M12 -270l6 208h124l6 -208h-136z" />
    <glyph glyph-name="uni02D0" unicode="&#x2d0;" horiz-adv-x="320" 
d="M40 0l112 210h16l112 -210h-240zM152 290l-112 210h240l-112 -210h-16z" />
    <glyph glyph-name="uni02D1" unicode="&#x2d1;" horiz-adv-x="320" 
d="M152 290l-112 210h240l-112 -210h-16z" />
    <glyph glyph-name="breve" unicode="&#x2d8;" horiz-adv-x="560" 
d="M280 572c-56.667 0 -99.5 14.5 -128.5 43.5s-44.167 67.833 -45.5 116.5l96 16c7.33301 -46.667 33.333 -70 78 -70c22.667 0 40.5 6.33301 53.5 19s21.167 29.667 24.5 51l96 -16c-1.33301 -49.333 -16.5 -88.333 -45.5 -117s-71.833 -43 -128.5 -43z" />
    <glyph glyph-name="dotaccent" unicode="&#x2d9;" horiz-adv-x="560" 
d="M280 562c-26.667 0 -48.667 8 -66 24s-26 36.667 -26 62s8.66699 46 26 62s39.333 24 66 24s48.667 -8 66 -24s26 -36.667 26 -62s-8.66699 -46 -26 -62s-39.333 -24 -66 -24z" />
    <glyph glyph-name="ring" unicode="&#x2da;" horiz-adv-x="560" 
d="M280 568c-45.333 0 -80 10 -104 30s-36 45.333 -36 76s12 56 36 76s58.667 30 104 30s80 -10 104 -30s36 -45.333 36 -76s-12 -56 -36 -76s-58.667 -30 -104 -30zM280 630c10.667 0 19.667 4.16699 27 12.5s11 18.833 11 31.5s-3.66699 23.167 -11 31.5
s-16.333 12.5 -27 12.5s-19.667 -4.16699 -27 -12.5s-11 -18.833 -11 -31.5s3.66699 -23.167 11 -31.5s16.333 -12.5 27 -12.5z" />
    <glyph glyph-name="ogonek" unicode="&#x2db;" horiz-adv-x="560" 
d="M298 -212c-32.667 0 -59.499 8.16797 -80.499 24.501s-31.5 39.5 -31.5 69.5c0 26.667 7.5 50.5 22.5 71.5s30.833 37.167 47.5 48.5h92c-32 -26.667 -48 -53.334 -48 -80.001c0 -11.333 3.83301 -19.833 11.5 -25.5s17.167 -8.5 28.5 -8.5c12 0 23.333 4 34 12l34 -76
c-30.667 -24 -67.334 -36 -110.001 -36z" />
    <glyph glyph-name="tilde" unicode="&#x2dc;" horiz-adv-x="560" 
d="M344 572c-22.667 0 -47.5 9.33301 -74.5 28s-43.5 28 -49.5 28c-16.667 0 -26.667 -15.333 -30 -46l-106 6c2 105.333 46 158 132 158c22.667 0 47.5 -9.33301 74.5 -28s43.5 -28 49.5 -28c16.667 0 26.667 15.333 30 46l106 -6c-2 -105.333 -46 -158 -132 -158z" />
    <glyph glyph-name="hungarumlaut" unicode="&#x2dd;" horiz-adv-x="560" 
d="M228 564l-90 40l88 184l114 -50zM418 564l-90 40l88 184l114 -50z" />
    <glyph glyph-name="uni02DE" unicode="&#x2de;" horiz-adv-x="204" 
d="M139 225c-59.333 0 -101.001 32.333 -125.001 97l-136 -60v122l204 88c17.333 -102 40 -153 68 -153c12.667 0 26.334 3.33301 41.001 10l33 -79c-26 -16.667 -54.333 -25 -85 -25z" />
    <glyph glyph-name="uni02E0" unicode="&#x2e0;" horiz-adv-x="367" 
d="M187 233c-35.333 0 -63.667 9.5 -85 28.5s-32 44.5 -32 76.5c0 23.333 13 56.333 39 99l-101 262h119l35 -121c2.66699 -10 6.5 -23 11.5 -39s8.83301 -28.667 11.5 -38h3c2.66699 10.667 6.66699 24.167 12 40.5l12 36.5l34 121h114l-97 -260
c14.667 -24 25 -42.833 31 -56.5s9 -28.5 9 -44.5c0 -32 -10.667 -57.5 -32 -76.5s-49.333 -28.5 -84 -28.5zM186.999 305c6 0 11 2.16699 15 6.5s6 10.166 6 17.499c0 15.333 -7 35.333 -21 60h-3c-12.667 -27.333 -19 -47.333 -19 -60
c0 -7.33301 2.16699 -13.166 6.5 -17.499s9.5 -6.5 15.5 -6.5z" />
    <glyph glyph-name="l.sups" unicode="&#x2e1;" horiz-adv-x="202" 
d="M144 360c-70.667 0 -106.001 42.667 -106.001 128v340h120v-344c0 -20 6 -30 18 -30c4 0 8 0.666992 12 2l14 -86c-15.333 -6.66699 -34.666 -10 -57.999 -10z" />
    </font>
</defs>
</svg>
