<?xml version="1.0" encoding="UTF-8" standalone="no"?>
<!-- Created with Inkscape (http://www.inkscape.org/) -->

<svg
   xmlns:dc="http://purl.org/dc/elements/1.1/"
   xmlns:cc="http://creativecommons.org/ns#"
   xmlns:rdf="http://www.w3.org/1999/02/22-rdf-syntax-ns#"
   xmlns:svg="http://www.w3.org/2000/svg"
   xmlns="http://www.w3.org/2000/svg"
   xmlns:sodipodi="http://sodipodi.sourceforge.net/DTD/sodipodi-0.dtd"
   xmlns:inkscape="http://www.inkscape.org/namespaces/inkscape"
   width="60"
   height="60"
   viewBox="0 0 60.000001 60.000001"
   id="svg2"
   version="1.1"
   inkscape:version="0.91 r13725"
   sodipodi:docname="logo-2.svg">
  <defs
     id="defs4" />
  <sodipodi:namedview
     id="base"
     pagecolor="#ffffff"
     bordercolor="#666666"
     borderopacity="1.0"
     inkscape:pageopacity="0.0"
     inkscape:pageshadow="2"
     inkscape:zoom="11.313708"
     inkscape:cx="20.176413"
     inkscape:cy="36.443303"
     inkscape:document-units="px"
     inkscape:current-layer="layer1"
     showgrid="false"
     inkscape:window-width="1235"
     inkscape:window-height="755"
     inkscape:window-x="-48"
     inkscape:window-y="0"
     inkscape:window-maximized="0"
     showguides="true"
     inkscape:guide-bbox="true"
     units="px" />
  <metadata
     id="metadata7">
    <rdf:RDF>
      <cc:Work
         rdf:about="">
        <dc:format>image/svg+xml</dc:format>
        <dc:type
           rdf:resource="http://purl.org/dc/dcmitype/StillImage" />
        <dc:title />
      </cc:Work>
    </rdf:RDF>
  </metadata>
  <g
     inkscape:label="Livello 1"
     inkscape:groupmode="layer"
     id="layer1"
     transform="translate(0,-992.36216)">
    <g
       id="g4898"
       transform="translate(204.71379,316.3627)" />
    <g
       id="g4900"
       transform="translate(204.71379,316.3627)" />
    <g
       id="g4902"
       transform="translate(204.71379,316.3627)" />
    <g
       id="g4904"
       transform="translate(204.71379,316.3627)" />
    <g
       id="g4906"
       transform="translate(204.71379,316.3627)" />
    <g
       id="g4908"
       transform="translate(204.71379,316.3627)" />
    <g
       id="g4910"
       transform="translate(204.71379,316.3627)" />
    <g
       id="g4912"
       transform="translate(204.71379,316.3627)" />
    <g
       id="g4914"
       transform="translate(204.71379,316.3627)" />
    <g
       id="g4916"
       transform="translate(204.71379,316.3627)" />
    <g
       id="g4918"
       transform="translate(204.71379,316.3627)" />
    <g
       id="g4920"
       transform="translate(204.71379,316.3627)" />
    <g
       id="g4922"
       transform="translate(204.71379,316.3627)" />
    <g
       id="g4924"
       transform="translate(204.71379,316.3627)" />
    <g
       id="g4926"
       transform="translate(204.71379,316.3627)" />
    <g
       style="fill:#006dff;fill-opacity:1;stroke:none"
       id="g5615"
       transform="translate(-441.88132,711.0812)" />
    <g
       style="fill:#006dff;fill-opacity:1"
       id="g5990"
       transform="matrix(1,0,0,0.78906209,-73.13227,891.8317)" />
    <g
       style="fill:#006dff;fill-opacity:1"
       id="g5992"
       transform="matrix(1,0,0,0.78906209,-73.13227,891.8317)" />
    <g
       style="fill:#006dff;fill-opacity:1"
       id="g5994"
       transform="matrix(1,0,0,0.78906209,-73.13227,891.8317)" />
    <g
       style="fill:#006dff;fill-opacity:1"
       id="g5996"
       transform="matrix(1,0,0,0.78906209,-73.13227,891.8317)" />
    <g
       style="fill:#006dff;fill-opacity:1"
       id="g5998"
       transform="matrix(1,0,0,0.78906209,-73.13227,891.8317)" />
    <g
       style="fill:#006dff;fill-opacity:1"
       id="g6000"
       transform="matrix(1,0,0,0.78906209,-73.13227,891.8317)" />
    <g
       style="fill:#006dff;fill-opacity:1"
       id="g6002"
       transform="matrix(1,0,0,0.78906209,-73.13227,891.8317)" />
    <g
       style="fill:#006dff;fill-opacity:1"
       id="g6004"
       transform="matrix(1,0,0,0.78906209,-73.13227,891.8317)" />
    <g
       style="fill:#006dff;fill-opacity:1"
       id="g6006"
       transform="matrix(1,0,0,0.78906209,-73.13227,891.8317)" />
    <g
       style="fill:#006dff;fill-opacity:1"
       id="g6008"
       transform="matrix(1,0,0,0.78906209,-73.13227,891.8317)" />
    <g
       style="fill:#006dff;fill-opacity:1"
       id="g6010"
       transform="matrix(1,0,0,0.78906209,-73.13227,891.8317)" />
    <g
       style="fill:#006dff;fill-opacity:1"
       id="g6012"
       transform="matrix(1,0,0,0.78906209,-73.13227,891.8317)" />
    <g
       style="fill:#006dff;fill-opacity:1"
       id="g6014"
       transform="matrix(1,0,0,0.78906209,-73.13227,891.8317)" />
    <g
       style="fill:#006dff;fill-opacity:1"
       id="g6016"
       transform="matrix(1,0,0,0.78906209,-73.13227,891.8317)" />
    <g
       style="fill:#006dff;fill-opacity:1"
       id="g6018"
       transform="matrix(1,0,0,0.78906209,-73.13227,891.8317)" />
    <path
       style="opacity:1;fill:#0bbafd;fill-opacity:1;stroke:none;stroke-width:0.89999998;stroke-linecap:butt;stroke-linejoin:miter;stroke-miterlimit:4;stroke-dasharray:none;stroke-dashoffset:0;stroke-opacity:1"
       d="m 42.353354,1006.5787 -2.657936,30.7041 c -3.115391,4.8849 -16.877247,5.4163 -19.832261,0 l -1.840102,-30.2093 c 5.335957,3.5938 20.278023,3.2417 24.330299,-0.031 z"
       id="rect5087"
       inkscape:connector-curvature="0"
       sodipodi:nodetypes="cccccc" />
    <path
       style="opacity:1;fill:#0bbafd;fill-opacity:1;stroke:#ffffff;stroke-width:0.58158708;stroke-linecap:butt;stroke-linejoin:miter;stroke-miterlimit:4;stroke-dasharray:none;stroke-dashoffset:0;stroke-opacity:1"
       d="m 30.228692,1010.9345 c -4.711624,0.018 -8.89765,-0.7655 -11.37408,-1.8393 -0.333729,-0.1448 -0.678369,0.7421 -1.063634,1.1051 -0.420145,0.3958 -0.875405,0.2709 -1.083972,0.095 -0.428204,-0.3611 -0.182273,-2.9006 -0.205939,-3.2739 -0.124038,-1.9587 6.060463,-3.1184 13.520597,-3.1538 7.460239,-0.035 13.377331,1.0666 13.523622,3.0253 0.146154,1.9585 -5.776904,3.9996 -13.236648,4.041"
       id="path5090"
       inkscape:connector-curvature="0"
       sodipodi:nodetypes="cssscscc" />
    <g
       transform="matrix(0.69182764,-0.12937243,-0.07186653,1.1797424,-96.982516,58.982184)"
       style="font-style:normal;font-weight:normal;font-size:10.10935497px;line-height:125%;font-family:sans-serif;letter-spacing:0px;word-spacing:0px;fill:#ffffff;fill-opacity:1;stroke:none;stroke-width:1px;stroke-linecap:butt;stroke-linejoin:miter;stroke-opacity:1"
       id="text5152">
      <path
         d="m 261.24894,842.66046 q 0.56613,-0.2224 0.98061,-0.091 0.42459,0.12131 0.66722,0.51558 0.24262,0.38415 0.30328,0.9806 0.0708,0.59646 -0.0607,1.30411 -0.18197,0.90984 -0.77842,1.55684 -0.58634,0.647 -1.46586,0.90984 -0.0809,0.43471 -0.13142,0.8593 -0.0404,0.42459 -0.0607,0.79864 -0.0303,0.37404 -0.0708,0.68743 -0.0303,0.3235 -0.10109,0.54591 -0.0607,0.23251 -0.18197,0.34372 -0.12131,0.12131 -0.3235,0.091 -0.24263,-0.0303 -0.52569,-0.18197 -0.28306,-0.14153 -0.52568,-0.50546 -0.24263,-0.36394 -0.39427,-1.01094 -0.15164,-0.63689 -0.14153,-1.65793 -0.49536,-0.17186 -0.79864,-0.47514 -0.29317,-0.30328 -0.47514,-0.66722 -0.18197,-0.36394 -0.27295,-0.7582 -0.0809,-0.39427 -0.15164,-0.7582 -0.0607,-0.36394 -0.13142,-0.65711 -0.0607,-0.30328 -0.20219,-0.47514 -0.0708,-0.0809 -0.16175,-0.11121 -0.091,-0.0303 -0.18197,-0.0404 -0.091,-0.0202 -0.17186,-0.0505 -0.0708,-0.0303 -0.1112,-0.1112 -0.0607,-0.13142 0.0404,-0.31339 0.10109,-0.18197 0.29317,-0.36394 0.20219,-0.18197 0.47514,-0.3235 0.28306,-0.15164 0.58634,-0.21229 0.31339,-0.0708 0.61667,-0.0202 0.31339,0.0404 0.57624,0.25273 0.38415,0.31339 0.53579,0.77842 0.15164,0.45492 0.19208,0.96039 0.0506,0.50547 0.0404,1.01093 -0.0101,0.49536 0.0303,0.88963 0.0505,0.38415 0.2123,0.60656 0.17186,0.22241 0.56612,0.17186 0.15164,-0.0202 0.35383,-0.1112 0.20219,-0.1011 0.38416,-0.30329 0.19208,-0.21229 0.34372,-0.5459 0.15164,-0.33361 0.20218,-0.82897 0.0303,-0.31339 -0.0607,-0.59645 -0.0809,-0.28306 -0.19208,-0.5358 -0.1112,-0.25273 -0.2123,-0.47513 -0.10109,-0.22241 -0.1112,-0.41449 -0.0101,-0.20219 0.1112,-0.36394 0.13142,-0.16174 0.48525,-0.30328 z"
         style="font-style:normal;font-variant:normal;font-weight:normal;font-stretch:normal;font-family:'Rakoon Personal Use';-inkscape-font-specification:'Rakoon Personal Use';fill:#ffffff;fill-opacity:1;stroke:none;stroke-opacity:1"
         id="path5157"
         inkscape:connector-curvature="0" />
      <path
         d="m 265.12367,845.26868 q 0.52568,0 0.91995,0.17186 0.40437,0.16175 0.66722,0.46503 0.26284,0.29317 0.37404,0.71776 0.12131,0.41448 0.0607,0.93006 -0.091,0.79864 -0.647,1.23334 -0.54591,0.43471 -1.37487,0.43471 -0.82897,0 -1.38498,-0.43471 -0.54591,-0.4347 -0.63689,-1.23334 -0.0607,-0.51558 0.0606,-0.93006 0.11121,-0.42459 0.37405,-0.71776 0.26284,-0.30328 0.65711,-0.46503 0.40437,-0.17186 0.93006,-0.17186 z m 0.34372,1.61749 q 0.0101,-0.24262 -0.091,-0.36393 -0.091,-0.13142 -0.25273,-0.13142 -0.16175,0 -0.26285,0.13142 -0.091,0.12131 -0.0809,0.36393 0,0.23252 0.10109,0.34372 0.11121,0.1011 0.24263,0.1011 0.13142,0 0.23251,-0.1011 0.11121,-0.1112 0.11121,-0.34372 z"
         style="font-style:normal;font-variant:normal;font-weight:normal;font-stretch:normal;font-family:'Rakoon Personal Use';-inkscape-font-specification:'Rakoon Personal Use';fill:#ffffff;fill-opacity:1;stroke:none;stroke-opacity:1"
         id="path5159"
         inkscape:connector-curvature="0" />
      <path
         d="m 269.70099,849.12034 q 0.47514,-0.17186 0.65711,-0.46503 0.18197,-0.29317 0.0101,-0.58634 -0.0303,0.13142 -0.15164,0.27295 -0.1112,0.13142 -0.29317,0.24263 -0.18197,0.1112 -0.4347,0.18196 -0.24263,0.0607 -0.52569,0.0505 -0.72787,-0.0404 -1.16257,-0.39426 -0.4246,-0.36394 -0.4246,-1.17269 0,-0.51558 0.17186,-0.87951 0.17186,-0.37405 0.4347,-0.61667 0.26285,-0.24263 0.56613,-0.35383 0.30328,-0.1112 0.56612,-0.1112 0.26285,0 0.45492,0.0607 0.19208,0.0505 0.33361,0.14153 0.15164,0.091 0.26284,0.2123 0.11121,0.1112 0.20219,0.22241 0.18197,-0.3235 0.51558,-0.49536 0.33361,-0.18197 0.80875,-0.14153 0.27295,0.0202 0.45492,0.12131 0.18197,0.091 0.27295,0.35383 0.10109,0.25273 0.1112,0.72787 0.0101,0.46503 -0.0607,1.24345 -0.0607,0.7582 -0.24263,1.294 -0.17186,0.52568 -0.48525,0.85929 -0.30328,0.34372 -0.76831,0.52569 -0.45492,0.18197 -1.0817,0.25273 -0.5459,0.0607 -1.00082,0.0101 -0.45492,-0.0505 -0.83908,-0.2224 -0.30328,-0.14153 -0.47514,-0.36394 -0.16175,-0.2123 -0.22241,-0.44481 -0.0708,-0.23252 -0.0404,-0.45492 0.0303,-0.22241 0.12131,-0.36394 0.091,-0.14153 0.23251,-0.17186 0.14154,-0.0404 0.30328,0.1011 0.14154,0.12131 0.34372,0.23251 0.20219,0.10109 0.43471,0.16175 0.23251,0.0506 0.47513,0.0506 0.24263,0 0.47514,-0.0809 z m 0.26285,-1.78935 q 0.13142,0 0.23251,-0.1011 0.11121,-0.1112 0.12132,-0.34372 0.0101,-0.24262 -0.091,-0.36393 -0.10109,-0.13142 -0.26284,-0.13142 -0.15164,0 -0.25274,0.13142 -0.10109,0.12131 -0.091,0.36393 0.0101,0.23252 0.1112,0.34372 0.1011,0.1011 0.23252,0.1011 z"
         style="font-style:normal;font-variant:normal;font-weight:normal;font-stretch:normal;font-family:'Rakoon Personal Use';-inkscape-font-specification:'Rakoon Personal Use';fill:#ffffff;fill-opacity:1;stroke:none;stroke-opacity:1"
         id="path5161"
         inkscape:connector-curvature="0" />
      <path
         d="m 278.89008,846.58289 q 0.12131,0.46503 0.091,0.94017 -0.0202,0.46503 -0.20219,0.84919 -0.18197,0.37405 -0.52569,0.61667 -0.33361,0.23252 -0.82896,0.23252 -0.36394,0 -0.61668,-0.11121 -0.25273,-0.1112 -0.41448,-0.29317 -0.15164,-0.18197 -0.23251,-0.40437 -0.0708,-0.22241 -0.091,-0.44481 -0.0809,0.23251 -0.23251,0.45492 -0.14153,0.2224 -0.35383,0.40437 -0.2123,0.17186 -0.47514,0.28306 -0.26284,0.11121 -0.56612,0.11121 -0.41449,0 -0.72788,-0.16175 -0.31339,-0.16175 -0.51558,-0.43471 -0.19207,-0.28306 -0.27295,-0.6571 -0.0809,-0.38416 -0.0404,-0.82897 0.0809,-1.04127 0.54591,-1.47597 0.47514,-0.44481 1.294,-0.37404 0.27295,0.0202 0.4347,0.091 0.17186,0.0708 0.23251,0.22241 0.0607,0.15164 0.0303,0.39426 -0.0303,0.24263 -0.14153,0.60656 -0.091,0.29317 -0.0505,0.47514 0.0505,0.17186 0.15164,0.19208 0.1112,0.0202 0.23251,-0.13142 0.12131,-0.15164 0.17186,-0.51558 0.1112,-0.72787 0.46503,-1.05137 0.36394,-0.33361 1.05137,-0.28306 0.55602,0.0505 0.73799,0.38415 0.18196,0.3235 0.0809,0.98061 -0.0404,0.26284 0.0303,0.40437 0.0809,0.13143 0.20219,0.13143 0.13142,0 0.27295,-0.14154 0.15164,-0.15164 0.26284,-0.46503 z"
         style="font-style:normal;font-variant:normal;font-weight:normal;font-stretch:normal;font-family:'Rakoon Personal Use';-inkscape-font-specification:'Rakoon Personal Use';fill:#ffffff;fill-opacity:1;stroke:none;stroke-opacity:1"
         id="path5163"
         inkscape:connector-curvature="0" />
      <path
         d="m 278.88945,846.96705 q -0.0202,-0.24263 0.0101,-0.54591 0.0404,-0.30328 0.16175,-0.56612 0.13142,-0.26284 0.38415,-0.4347 0.26285,-0.17186 0.69755,-0.15164 0.28306,0.0202 0.50547,0.13142 0.23251,0.1112 0.31339,0.37405 0.14153,-0.20219 0.33361,-0.34372 0.20218,-0.14153 0.45492,-0.19208 0.36393,-0.0708 0.61667,-0.0101 0.25273,0.0607 0.40437,0.22241 0.15164,0.16175 0.19208,0.40437 0.0505,0.23252 0,0.50547 -0.0506,0.25273 0.0101,0.40437 0.0708,0.15164 0.19208,0.19208 0.12131,0.0303 0.26284,-0.0506 0.15164,-0.091 0.26284,-0.3235 0.14153,0.43471 0.0303,0.75821 -0.1112,0.32349 -0.36394,0.52568 -0.24262,0.19208 -0.57623,0.26285 -0.33361,0.0708 -0.63689,0 -0.30328,-0.0809 -0.52568,-0.29318 -0.2123,-0.2224 -0.23252,-0.60656 -0.0101,-0.12131 -0.0607,-0.19208 -0.0505,-0.0809 -0.1112,-0.0303 -0.0506,0.0404 -0.091,0.25273 -0.0404,0.2123 -0.0101,0.66722 0,0.15164 0.0202,0.37404 0.0202,0.2123 -0.0101,0.4246 -0.0202,0.20218 -0.13142,0.35382 -0.11121,0.14154 -0.37405,0.14154 -0.30328,0 -0.59645,-0.0809 -0.29317,-0.091 -0.52569,-0.33361 -0.23251,-0.25273 -0.39426,-0.68743 -0.16175,-0.44482 -0.2123,-1.15247 z"
         style="font-style:normal;font-variant:normal;font-weight:normal;font-stretch:normal;font-family:'Rakoon Personal Use';-inkscape-font-specification:'Rakoon Personal Use';fill:#ffffff;fill-opacity:1;stroke:none;stroke-opacity:1"
         id="path5165"
         inkscape:connector-curvature="0" />
      <path
         d="m 286.89164,846.58289 q 0.12131,0.46503 0.091,0.94017 -0.0202,0.46503 -0.20219,0.84919 -0.18196,0.37405 -0.52568,0.61667 -0.33361,0.23252 -0.82897,0.23252 -0.37405,0 -0.66722,-0.13143 -0.29317,-0.14153 -0.50547,-0.45492 -0.21229,-0.3235 -0.35382,-0.83907 -0.14153,-0.52569 -0.20219,-1.28389 -0.14153,-1.82979 0.3235,-2.70931 0.46503,-0.87951 1.54673,-0.87951 0.49536,0 0.74809,0.16175 0.26285,0.15164 0.34372,0.41448 0.091,0.26284 0.0404,0.61667 -0.0404,0.34372 -0.14153,0.72787 -0.1011,0.38416 -0.22241,0.77843 -0.12131,0.39426 -0.19208,0.7582 -0.0708,0.35382 -0.0101,0.5459 0.0708,0.19208 0.20219,0.22241 0.13142,0.0303 0.28306,-0.11121 0.16175,-0.14153 0.27296,-0.45492 z"
         style="font-style:normal;font-variant:normal;font-weight:normal;font-stretch:normal;font-family:'Rakoon Personal Use';-inkscape-font-specification:'Rakoon Personal Use';fill:#ffffff;fill-opacity:1;stroke:none;stroke-opacity:1"
         id="path5167"
         inkscape:connector-curvature="0" />
    </g>
    <g
       id="g3599"
       transform="translate(24.019,977.75666)" />
    <g
       id="g3601"
       transform="translate(24.019,977.75666)" />
    <g
       id="g3603"
       transform="translate(24.019,977.75666)" />
    <g
       id="g3605"
       transform="translate(24.019,977.75666)" />
    <g
       id="g3607"
       transform="translate(24.019,977.75666)" />
    <g
       id="g3609"
       transform="translate(24.019,977.75666)" />
    <g
       id="g3611"
       transform="translate(24.019,977.75666)" />
    <g
       id="g3613"
       transform="translate(24.019,977.75666)" />
    <g
       id="g3615"
       transform="translate(24.019,977.75666)" />
    <g
       id="g3617"
       transform="translate(24.019,977.75666)" />
    <g
       id="g3619"
       transform="translate(24.019,977.75666)" />
    <g
       id="g3621"
       transform="translate(24.019,977.75666)" />
    <g
       id="g3623"
       transform="translate(24.019,977.75666)" />
    <g
       id="g3625"
       transform="translate(24.019,977.75666)" />
    <g
       id="g3627"
       transform="translate(24.019,977.75666)" />
  </g>
</svg>
