<?xml version="1.0" encoding="UTF-8" standalone="no"?>
<!-- Created with Inkscape (http://www.inkscape.org/) -->

<svg
   xmlns:dc="http://purl.org/dc/elements/1.1/"
   xmlns:cc="http://creativecommons.org/ns#"
   xmlns:rdf="http://www.w3.org/1999/02/22-rdf-syntax-ns#"
   xmlns:svg="http://www.w3.org/2000/svg"
   xmlns="http://www.w3.org/2000/svg"
   xmlns:xlink="http://www.w3.org/1999/xlink"
   xmlns:sodipodi="http://sodipodi.sourceforge.net/DTD/sodipodi-0.dtd"
   xmlns:inkscape="http://www.inkscape.org/namespaces/inkscape"
   width="500"
   height="500"
   id="svg2"
   version="1.1"
   inkscape:version="0.91 r13725"
   sodipodi:docname="logo.svg">
  <defs
     id="defs4">
    <linearGradient
       id="linearGradient6663">
      <stop
         style="stop-color:#ffffff;stop-opacity:1;"
         offset="0"
         id="stop6665" />
      <stop
         id="stop3824"
         offset="0.36363855"
         style="stop-color:#f3f3f3;stop-opacity:1;" />
      <stop
         id="stop6671"
         offset="0.7272771"
         style="stop-color:#e8e8e8;stop-opacity:0.88627451;" />
      <stop
         style="stop-color:#d2d2d2;stop-opacity:1;"
         offset="1"
         id="stop6667" />
    </linearGradient>
    <linearGradient
       id="linearGradient6627">
      <stop
         style="stop-color:#000000;stop-opacity:1;"
         offset="0"
         id="stop6629" />
      <stop
         style="stop-color:#000000;stop-opacity:0;"
         offset="1"
         id="stop6631" />
    </linearGradient>
    <filter
       inkscape:collect="always"
       id="filter6659"
       x="-0.11164892"
       width="1.2232978"
       y="-0.068714797"
       height="1.1374296"
       color-interpolation-filters="sRGB">
      <feGaussianBlur
         inkscape:collect="always"
         stdDeviation="6.8189974"
         id="feGaussianBlur6661" />
    </filter>
    <filter
       inkscape:collect="always"
       id="filter6726"
       color-interpolation-filters="sRGB">
      <feGaussianBlur
         inkscape:collect="always"
         stdDeviation="3.5116055"
         id="feGaussianBlur6728" />
    </filter>
    <radialGradient
       inkscape:collect="always"
       xlink:href="#linearGradient6663"
       id="radialGradient3813"
       gradientUnits="userSpaceOnUse"
       gradientTransform="matrix(1.0396124,1.0596887,-0.66099153,0.64846876,340.49422,-544.62271)"
       cx="359.01669"
       cy="525.32983"
       fx="359.01669"
       fy="525.32983"
       r="56.320595" />
    <radialGradient
       inkscape:collect="always"
       xlink:href="#linearGradient6663"
       id="radialGradient3816"
       gradientUnits="userSpaceOnUse"
       gradientTransform="matrix(1.1153352,1.1368738,-0.70913654,0.69570165,266.57439,-27.084222)"
       cx="370.43301"
       cy="525.15479"
       fx="370.43301"
       fy="525.15479"
       r="56.320595" />
  </defs>
  <sodipodi:namedview
     id="base"
     pagecolor="#ffffff"
     bordercolor="#666666"
     borderopacity="1.0"
     inkscape:pageopacity="0.0"
     inkscape:pageshadow="2"
     inkscape:zoom="1.4"
     inkscape:cx="185.63693"
     inkscape:cy="248.62334"
     inkscape:document-units="px"
     inkscape:current-layer="layer1"
     showgrid="false"
     inkscape:window-width="1158"
     inkscape:window-height="711"
     inkscape:window-x="66"
     inkscape:window-y="6"
     inkscape:window-maximized="0" />
  <metadata
     id="metadata7">
    <rdf:RDF>
      <cc:Work
         rdf:about="">
        <dc:format>image/svg+xml</dc:format>
        <dc:type
           rdf:resource="http://purl.org/dc/dcmitype/StillImage" />
        <dc:title />
      </cc:Work>
    </rdf:RDF>
  </metadata>
  <g
     inkscape:label="Livello 1"
     inkscape:groupmode="layer"
     id="layer1"
     transform="translate(0,-552.36218)">
    <path
       sodipodi:nodetypes="ccccccccc"
       inkscape:connector-curvature="0"
       id="path3779"
       d="M 182.4413,958.59533 C 77.029372,848.12016 66.575472,856.868 77.352932,814.93706 c 2.80643,-7.45985 3.53074,-13.6678 9.25963,-17.10763 l 207.944108,-123.561 c 7.15226,-2.80982 14.87923,-0.83017 21.45676,3.06525 114.38443,83.02342 118.53087,68.4457 104.74273,123.57919 -0.45265,1.95236 -0.93198,2.43859 -2.06529,3.39056 -71.14454,59.76143 -119.42399,96.20649 -191.38838,153.48765 -13.62463,13.21273 -31.6384,14.14208 -44.86119,0.80425 z"
       style="fill:#434148;fill-opacity:1;stroke:none" />
    <ellipse
       ry="50.774494"
       rx="59.555046"
       cy="762.2085"
       cx="300.50909"
       style="fill:none;stroke:#e8e8e8;stroke-width:5.45859718;stroke-miterlimit:4;stroke-dasharray:none;stroke-opacity:1"
       id="path3814" />
    <path
       inkscape:connector-curvature="0"
       id="path3781"
       d="m 331.94242,762.45171 c 0,16.23847 -15.51997,29.40237 -34.66482,29.40237 -19.14483,0 -34.66478,-13.1639 -34.66478,-29.40237 0,-16.23847 15.51995,-29.40237 34.66478,-29.40237 19.14485,0 34.66482,13.1639 34.66482,29.40237 z"
       style="fill:#000000;fill-opacity:1;stroke:none" />
    <ellipse
       ry="12.484377"
       rx="11.174124"
       cy="589.58527"
       cx="-637.18414"
       transform="matrix(0.51255857,-0.85865226,0.91114196,0.41209261,0,0)"
       id="path3785"
       style="fill:#10cd7e;fill-opacity:1;stroke:none" />
    <ellipse
       ry="10.14151"
       rx="9.4681616"
       cy="258.05591"
       cx="-769.33893"
       style="fill:#77faa6;fill-opacity:1;stroke:none"
       id="path3787"
       transform="matrix(0.06040755,-0.9981738,0.9977496,0.06705028,0,0)" />
    <ellipse
       ry="12.484377"
       rx="11.174124"
       cy="699.30182"
       cx="-591.93665"
       style="fill:#12acfe;fill-opacity:1;stroke:none"
       id="path3789"
       transform="matrix(0.59632689,-0.8027417,0.86507058,0.50165018,0,0)" />
    <ellipse
       ry="10.14151"
       rx="9.4681616"
       cy="301.88809"
       cx="-802.354"
       transform="matrix(0.06040755,-0.9981738,0.9977496,0.06705028,0,0)"
       id="path3791"
       style="fill:#41d9f8;fill-opacity:1;stroke:none" />
    <path
       style="opacity:0.11111109;fill:none;stroke:#000000;stroke-width:9.19999981;stroke-linecap:butt;stroke-linejoin:miter;stroke-miterlimit:4;stroke-dasharray:none;stroke-opacity:1;filter:url(#filter6726)"
       d="m 156.57875,547.07777 109.09647,95.96449"
       id="path3793"
       inkscape:connector-curvature="0"
       transform="matrix(0.46626873,-1.7985937,1.7061147,0.45704255,-802.95192,979.30374)" />
    <rect
       transform="matrix(0.63061152,0.59465545,-0.34005217,0.38303685,206.3541,519.06893)"
       ry="16.775906"
       y="589.50507"
       x="131.42857"
       height="51.42857"
       width="187.14285"
       id="rect3795"
       style="opacity:0.11481479;fill:#000000;fill-opacity:1;stroke:none;filter:url(#filter6659)" />
    <ellipse
       ry="27.635105"
       rx="34.137482"
       cy="842.08881"
       cx="184.10022"
       id="path3797"
       style="opacity:0.11481479;fill:#000000;fill-opacity:1;stroke:none" />
    <ellipse
       ry="11.698354"
       rx="15.635532"
       cy="574.26178"
       cx="650.1308"
       transform="matrix(0.8106053,0.5855929,-0.59811702,0.80140878,0,0)"
       id="path3799"
       style="opacity:0.42222224;fill:#1a1a1a;fill-opacity:1;stroke:none" />
    <text
       transform="matrix(0.74305177,0.67008719,-0.81433354,0.61143186,0,0)"
       sodipodi:linespacing="125%"
       id="text3801"
       y="504.77805"
       x="840.68292"
       style="font-style:normal;font-weight:normal;font-size:15.50863361px;line-height:125%;font-family:Sans;letter-spacing:0px;word-spacing:0px;fill:#ffffff;fill-opacity:1;stroke:none"
       xml:space="preserve"><tspan
         style="font-style:normal;font-variant:normal;font-weight:bold;font-stretch:condensed;font-family:'Arial Narrow';-inkscape-font-specification:'Arial Narrow Bold Condensed'"
         y="504.77805"
         x="840.68292"
         id="tspan3803"
         sodipodi:role="line">ON</tspan></text>
    <text
       xml:space="preserve"
       style="font-style:normal;font-weight:normal;font-size:14.27690792px;line-height:125%;font-family:Sans;letter-spacing:0px;word-spacing:0px;fill:#ffffff;fill-opacity:1;stroke:none"
       x="752.77515"
       y="513.14978"
       id="text3805"
       sodipodi:linespacing="125%"
       transform="matrix(0.75168306,0.67114075,-0.84715492,0.57396506,0,0)"><tspan
         sodipodi:role="line"
         id="tspan3807"
         x="752.77515"
         y="513.14978"
         style="font-style:normal;font-variant:normal;font-weight:bold;font-stretch:condensed;font-family:'Arial Narrow';-inkscape-font-specification:'Arial Narrow Bold Condensed'">OFF</tspan></text>
    <path
       style="fill:#dcdcdc;fill-opacity:1;stroke:none"
       d="m 183.75599,797.88324 c 5.08548,-0.13955 12.88565,2.19236 12.63092,6.69938 l -3.79629,34.30142 c -0.16151,1.45951 -0.45339,3.14431 -1.10072,4.64972 -2.56107,4.41899 -8.30991,5.89304 -12.28679,2.81298 -1.56157,-1.25382 -2.24343,-3.19998 -2.47495,-5.31133 l -3.93176,-36.45279 c -0.39933,-3.70252 5.20276,-6.69938 10.95959,-6.69938 z"
       id="rect3815"
       inkscape:connector-curvature="0"
       sodipodi:nodetypes="ccscccsc" />
    <path
       style="fill:#e6e6e6;fill-opacity:1;stroke:none"
       d="m 195.36772,804.24915 c 0,3.66067 -5.05032,5.90091 -10.87542,5.90091 -6.07548,0 -10.87541,-2.86362 -10.87541,-6.52429 0,-3.66066 4.67475,-5.48534 10.75021,-5.48534 6.07549,0 11.00062,2.44805 11.00062,6.10872 z"
       id="path3818"
       inkscape:connector-curvature="0"
       sodipodi:nodetypes="sssss" />
    <path
       style="fill:url(#radialGradient3816);fill-opacity:1;stroke:none"
       d="m 298.84282,712.25717 c -10.45332,0 -20.31195,2.26182 -28.8892,6.25065 -10e-6,0.4156 -0.12906,0.78166 -0.40068,1.08184 -0.2508,0.27707 -0.54537,0.40069 -0.92157,0.40069 -0.45666,0 -0.80203,-0.13143 -1.04178,-0.36063 -14.9826,7.73324 -25.69313,20.8873 -28.48851,36.26175 0.003,0.0418 0,0.0781 0,0.12007 0,0.20781 -0.0522,0.42209 -0.12007,0.60103 -0.39197,2.37572 -0.60101,4.78423 -0.60101,7.25235 0,19.19795 12.25006,35.9776 30.45185,44.87642 -0.0334,-0.15415 -0.0401,-0.29132 -0.0401,-0.48083 0,-0.39251 0.10982,-0.72463 0.3606,-1.00171 0.2717,-0.30013 0.62552,-0.44074 1.00171,-0.44074 0.45978,0 0.79098,0.15762 1.04177,0.48082 0.25079,0.32324 0.40069,0.65536 0.40069,1.0017 0,0.41561 -0.16906,0.78169 -0.44075,1.08185 -0.11108,0.12275 -0.22493,0.17204 -0.36061,0.2404 5.50767,2.46757 11.52602,4.20975 17.87043,5.12873 0.0126,-0.0142 0.0273,-0.026 0.0401,-0.0401 0.27171,-0.30015 0.58546,-0.44073 0.96165,-0.44073 0.45978,0 0.79098,0.15762 1.04177,0.48081 0.0729,0.0937 0.10855,0.18476 0.16028,0.28047 2.60563,0.29288 5.27434,0.48083 7.97358,0.48083 0.73154,0 1.4384,-0.018 2.16368,-0.0401 0.042,-0.28993 0.16303,-0.54302 0.36061,-0.7613 0.27171,-0.30015 0.58543,-0.44075 0.96164,-0.44075 0.45977,0 0.83104,0.15762 1.08184,0.48081 0.14421,0.18592 0.21921,0.36742 0.28047,0.56097 13.9248,-0.94831 26.51577,-5.89992 36.18161,-13.54307 -0.54076,-0.19047 -0.84142,-0.68053 -0.84142,-1.44246 0,-0.39249 0.14989,-0.72462 0.40066,-1.00169 0.2717,-0.30014 0.58547,-0.44076 0.96165,-0.44076 0.45978,0 0.83106,0.15762 1.08184,0.48082 0.20222,0.26066 0.28138,0.52572 0.32056,0.80136 1.87356,-1.6197 3.67771,-3.34981 5.28898,-5.16881 -0.0267,0.001 -0.0527,0 -0.0802,0 -0.96138,0 -1.44248,-0.50669 -1.44248,-1.52258 0,-0.3925 0.14989,-0.72464 0.4007,-1.0017 0.27168,-0.30016 0.58547,-0.44074 0.96163,-0.44074 0.4598,0 0.79099,0.15762 1.04178,0.4808 0.24164,0.31145 0.39186,0.62879 0.40069,0.96164 1.68309,-2.05096 3.20236,-4.19635 4.5277,-6.45096 -0.73605,-0.11123 -1.1219,-0.59363 -1.1219,-1.48254 0,-0.39252 0.10966,-0.72464 0.36061,-1.0017 0.27168,-0.30016 0.62549,-0.44074 1.0017,-0.44076 0.45977,2e-5 0.79098,0.15762 1.04178,0.48082 0.0126,0.0159 0.0284,0.0241 0.0401,0.0401 3.04537,-5.92434 4.78453,-12.43406 5.00852,-19.27282 -0.15668,0.0693 -0.33281,0.0802 -0.52088,0.0802 -0.96138,0 -1.44246,-0.50668 -1.44246,-1.52258 0,-0.39251 0.10981,-0.72465 0.36062,-1.00171 0.27168,-0.30016 0.62551,-0.44074 1.00169,-0.44074 0.2299,0 0.42338,0.0394 0.60103,0.12007 -0.21839,-7.59288 -2.31277,-14.7567 -5.97017,-21.19608 -0.045,0.0682 -0.0633,0.13742 -0.12007,0.20033 -0.25079,0.27707 -0.58545,0.44075 -0.96164,0.44075 -0.96136,0 -1.44245,-0.50669 -1.44245,-1.52258 0,-0.39252 0.14989,-0.72463 0.40068,-1.00171 0.20989,-0.23185 0.44899,-0.38799 0.72122,-0.44075 -1.4352,-2.23352 -3.0557,-4.35388 -4.84825,-6.37086 0.25078,0.32326 0.36061,0.6554 0.36061,1.00173 0,0.4156 -0.12906,0.78168 -0.40069,1.08182 -0.25079,0.27708 -0.54538,0.40068 -0.92156,0.40068 -0.96136,0 -1.44246,-0.50667 -1.44246,-1.52258 0,-0.39251 0.10982,-0.72463 0.36064,-1.00171 0.27168,-0.30016 0.58545,-0.44074 0.96163,-0.44074 0.34482,0 0.65421,0.0585 0.88149,0.24041 -1.87211,-2.08186 -3.95551,-4.03608 -6.17052,-5.84996 -0.0476,0.0741 -0.0585,0.17223 -0.12007,0.24039 -0.25079,0.27709 -0.58544,0.40069 -0.96163,0.40069 -0.96135,0 -1.44246,-0.50667 -1.44246,-1.52259 0,-0.32037 0.11328,-0.59797 0.28048,-0.84144 -10.60679,-7.85929 -24.40363,-12.62148 -39.54734,-12.62148 z m -17.63004,4.76811 c 0.45979,0 0.791,0.15762 1.04179,0.48085 0.25078,0.32322 0.40067,0.65536 0.40067,1.00169 0,0.4156 -0.16906,0.78166 -0.44073,1.08184 -0.25079,0.27707 -0.5454,0.40069 -0.92158,0.40069 -0.96137,0 -1.44244,-0.5067 -1.44244,-1.52259 0,-0.39251 0.10981,-0.72465 0.3606,-1.00171 0.2717,-0.30014 0.6255,-0.44077 1.00169,-0.44077 z m 12.66158,0 c 0.45978,0 0.79098,0.15762 1.04177,0.48085 0.25079,0.32322 0.40068,0.65536 0.40068,1.00169 0,0.4156 -0.12891,0.78166 -0.40068,1.08184 -0.25079,0.27707 -0.58546,0.40069 -0.96163,0.40069 -0.96138,0 -1.44247,-0.5067 -1.44247,-1.52259 0,-0.39251 0.14989,-0.72465 0.40068,-1.00171 0.27172,-0.30014 0.58546,-0.44077 0.96165,-0.44077 z m 13.34272,0 c 0.45977,0 0.83103,0.15762 1.08183,0.48085 0.25079,0.32322 0.36062,0.65536 0.36062,1.00169 0,0.4156 -0.12906,0.78166 -0.40068,1.08184 -0.2508,0.27707 -0.54539,0.40069 -0.92157,0.40069 -0.96136,0 -1.44246,-0.5067 -1.44246,-1.52259 0,-0.39251 0.10966,-0.72465 0.36062,-1.00171 0.27169,-0.30014 0.58544,-0.44077 0.96164,-0.44077 z m 12.70163,0 c 0.45978,0 0.79096,0.15762 1.04175,0.48085 0.2508,0.32322 0.40069,0.65536 0.40069,1.00169 0,0.4156 -0.16907,0.78166 -0.44075,1.08184 -0.25079,0.27707 -0.5454,0.40069 -0.92156,0.40069 -0.96136,0 -1.44246,-0.5067 -1.44246,-1.52259 0,-0.39251 0.10981,-0.72465 0.36062,-1.00171 0.2717,-0.30014 0.6255,-0.44077 1.00171,-0.44077 z m -57.17736,7.25237 c 0.45977,0 0.79097,0.15762 1.04176,0.48083 0.25079,0.32322 0.40068,0.65536 0.40068,1.00169 0,0.4156 -0.12906,0.7817 -0.40068,1.08184 -0.25079,0.27706 -0.58545,0.4007 -0.96163,0.4007 -0.96136,0 -1.44246,-0.50671 -1.44246,-1.5226 0,-0.39252 0.14989,-0.72465 0.40068,-1.00172 0.2717,-0.30016 0.58544,-0.44074 0.96165,-0.44074 z m 12.66156,0 c 0.45978,0 0.83104,0.15762 1.08184,0.48083 0.25079,0.32322 0.36059,0.65536 0.3606,1.00169 -10e-6,0.4156 -0.1289,0.7817 -0.40067,1.08184 -0.25079,0.27706 -0.58544,0.4007 -0.96163,0.4007 -0.96138,0 -1.44247,-0.50671 -1.44247,-1.5226 0,-0.39252 0.14989,-0.72465 0.4007,-1.00172 0.27166,-0.30016 0.58545,-0.44074 0.96163,-0.44074 z m 12.66156,0 c 0.45977,0 0.83104,0.15762 1.08184,0.48083 0.25078,0.32322 0.36061,0.65536 0.36061,1.00169 0,0.4156 -0.12907,0.7817 -0.40068,1.08184 -0.25079,0.27706 -0.54538,0.4007 -0.92157,0.4007 -0.96137,0 -1.44246,-0.50671 -1.44246,-1.5226 0,-0.39252 0.10981,-0.72465 0.36061,-1.00172 0.2717,-0.30016 0.58544,-0.44074 0.96165,-0.44074 z m 12.70162,0 c 0.45979,0 0.79098,0.15762 1.04177,0.48083 0.2508,0.32322 0.40068,0.65536 0.40068,1.00169 0,0.4156 -0.12891,0.7817 -0.40068,1.08184 -0.25079,0.27706 -0.58544,0.4007 -0.96165,0.4007 -0.96134,0 -1.44243,-0.50671 -1.44243,-1.5226 0,-0.39252 0.10966,-0.72465 0.36061,-1.00172 0.27168,-0.30016 0.62553,-0.44074 1.0017,-0.44074 z m 12.66155,0 c 0.4598,0 0.83107,0.15762 1.08186,0.48083 0.25077,0.32322 0.3606,0.65536 0.3606,1.00169 0,0.4156 -0.12906,0.7817 -0.40066,1.08184 -0.25081,0.27706 -0.58547,0.4007 -0.96167,0.4007 -0.96134,0 -1.44244,-0.50671 -1.44244,-1.5226 0,-0.39252 0.14989,-0.72465 0.40068,-1.00172 0.27169,-0.30016 0.58547,-0.44074 0.96163,-0.44074 z m 13.34272,0 c 0.4598,0 0.83107,0.15762 1.08184,0.48083 0.25079,0.32322 0.36062,0.65536 0.36062,1.00169 0,0.4156 -0.12906,0.7817 -0.40068,1.08184 -0.25079,0.27706 -0.54537,0.4007 -0.92158,0.4007 -0.96136,0 -1.44243,-0.50671 -1.44243,-1.5226 0,-0.39252 0.10981,-0.72465 0.3606,-1.00172 0.2717,-0.30016 0.58546,-0.44074 0.96163,-0.44074 z m -70.2396,7.93348 c 0.45979,0 0.83106,0.15762 1.08186,0.48085 0.25077,0.32325 0.3606,0.65536 0.3606,1.00169 0,0.4156 -0.12906,0.7817 -0.40068,1.08185 -0.2508,0.27708 -0.58545,0.40068 -0.96164,0.40068 -0.96136,0 -1.44246,-0.50669 -1.44246,-1.52259 0,-0.39249 0.14989,-0.72465 0.40069,-1.00169 0.2717,-0.30016 0.58544,-0.44079 0.96163,-0.44079 z m 12.66156,0 c 0.45979,0 0.83106,0.15762 1.08185,0.48085 0.2508,0.32325 0.36062,0.65536 0.36062,1.00169 0,0.4156 -0.12907,0.7817 -0.40068,1.08185 -0.25079,0.27708 -0.5454,0.40068 -0.92157,0.40068 -0.96137,0 -1.44247,-0.50669 -1.44247,-1.52259 0,-0.39249 0.10982,-0.72465 0.36062,-1.00169 0.27168,-0.30016 0.58546,-0.44079 0.96163,-0.44079 z m 12.70164,0 c 0.45977,0 0.79098,0.15762 1.04177,0.48085 0.25079,0.32325 0.40069,0.65536 0.40069,1.00169 0,0.4156 -0.12906,0.7817 -0.40069,1.08185 -0.25079,0.27708 -0.58546,0.40068 -0.96163,0.40068 -0.96136,0 -1.44246,-0.50669 -1.44246,-1.52259 0,-0.39249 0.10981,-0.72465 0.3606,-1.00169 0.27171,-0.30016 0.62553,-0.44079 1.00172,-0.44079 z m 12.66156,0 c 0.45977,0 0.83104,0.15762 1.08183,0.48085 0.2508,0.32325 0.3606,0.65536 0.3606,1.00169 0,0.4156 -0.1289,0.7817 -0.40066,1.08185 -0.25081,0.27708 -0.58545,0.40068 -0.96163,0.40068 -0.96138,0 -1.44245,-0.50669 -1.44245,-1.52259 0,-0.39249 0.14989,-0.72465 0.40067,-1.00169 0.27169,-0.30016 0.58542,-0.44079 0.96164,-0.44079 z m 12.66156,0 c 0.45979,0 0.83103,0.15762 1.08183,0.48085 0.25079,0.32325 0.3606,0.65536 0.36062,1.00169 -2e-5,0.4156 -0.12906,0.7817 -0.40068,1.08185 -0.2508,0.27708 -0.54539,0.40068 -0.92157,0.40068 -0.96138,0 -1.44246,-0.50669 -1.44246,-1.52259 0,-0.39249 0.10981,-0.72465 0.36062,-1.00169 0.27169,-0.30016 0.58545,-0.44079 0.96164,-0.44079 z m 13.38279,0 c 0.45977,0 0.79096,0.15762 1.04177,0.48085 0.25077,0.32325 0.40069,0.65536 0.40069,1.00169 0,0.4156 -0.12906,0.7817 -0.40069,1.08185 -0.25081,0.27708 -0.58547,0.40068 -0.96164,0.40068 -0.96137,0 -1.44246,-0.50669 -1.44246,-1.52259 0,-0.39249 0.14989,-0.72465 0.40068,-1.00169 0.2717,-0.30016 0.58546,-0.44079 0.96165,-0.44079 z m 12.66156,0 c 0.45977,0 0.83104,0.15762 1.08183,0.48085 0.25079,0.32325 0.36062,0.65536 0.36062,1.00169 0,0.4156 -0.12907,0.7817 -0.4007,1.08185 -0.25079,0.27708 -0.58544,0.40068 -0.96163,0.40068 -0.96135,0 -1.44246,-0.50669 -1.44246,-1.52259 0,-0.39249 0.14989,-0.72465 0.40069,-1.00169 0.2717,-0.30016 0.58544,-0.44079 0.96165,-0.44079 z m -83.2618,6.81163 c 0.4598,0 0.83106,0.19765 1.08186,0.52087 0.25079,0.32326 0.36061,0.65538 0.36061,1.00171 0,0.4156 -0.12891,0.74164 -0.40068,1.04178 -0.25079,0.27708 -0.54538,0.44074 -0.92157,0.44074 -0.96135,0 -1.44245,-0.50669 -1.44245,-1.5226 0,-0.39249 0.10966,-0.72463 0.3606,-1.00169 0.2717,-0.30016 0.58546,-0.48081 0.96163,-0.48081 z m 12.70164,0 c 0.45979,0 0.79098,0.19765 1.04177,0.52087 0.25079,0.32326 0.40069,0.65538 0.40069,1.00171 0,0.4156 -0.16907,0.74164 -0.44075,1.04178 -0.25079,0.27708 -0.5454,0.44074 -0.92156,0.44074 -0.96137,0 -1.44246,-0.50669 -1.44246,-1.5226 0,-0.39249 0.10982,-0.72463 0.36061,-1.00169 0.27169,-0.30016 0.62551,-0.48081 1.0017,-0.48081 z m 12.66156,0 c 0.4598,0 0.79098,0.19765 1.04179,0.52087 0.25078,0.32326 0.40066,0.65538 0.40067,1.00171 -1e-5,0.4156 -0.1289,0.74164 -0.40067,1.04178 -0.25081,0.27708 -0.58546,0.44074 -0.96165,0.44074 -0.96136,0 -1.44245,-0.50669 -1.44245,-1.5226 0,-0.39249 0.14989,-0.72463 0.40067,-1.00169 0.27169,-0.30016 0.58547,-0.48081 0.96164,-0.48081 z m 12.66158,0 c 0.45975,0 0.83104,0.19765 1.08183,0.52087 0.25079,0.32326 0.36062,0.65538 0.36062,1.00171 0,0.4156 -0.12907,0.74164 -0.4007,1.04178 -0.25079,0.27708 -0.54539,0.44074 -0.92157,0.44074 -0.96136,0 -1.44244,-0.50669 -1.44244,-1.5226 0,-0.39249 0.10997,-0.72463 0.3606,-1.00169 0.27171,-0.30016 0.58545,-0.48081 0.96166,-0.48081 z m 12.70162,0 c 0.45977,0 0.79099,0.19765 1.04175,0.52087 0.25081,0.32326 0.36062,0.65538 0.36062,1.00171 0,0.4156 -0.12906,0.74164 -0.40068,1.04178 -0.2508,0.27708 -0.54539,0.44074 -0.92157,0.44074 -0.96134,0 -1.44246,-0.50669 -1.44246,-1.5226 0,-0.39249 0.10981,-0.72463 0.36062,-1.00169 0.27171,-0.30016 0.62551,-0.48081 1.00172,-0.48081 z m 13.34271,0 c 0.45977,0 0.83104,0.19765 1.08184,0.52087 0.25078,0.32326 0.36061,0.65538 0.36062,1.00171 -10e-6,0.4156 -0.1289,0.74164 -0.40069,1.04178 -0.25081,0.27708 -0.58544,0.44074 -0.96163,0.44074 -0.96137,0 -1.44246,-0.50669 -1.44246,-1.5226 0,-0.39249 0.14989,-0.72463 0.40069,-1.00169 0.27168,-0.30016 0.58544,-0.48081 0.96163,-0.48081 z m 12.66155,0 c 0.4598,0 0.83106,0.19765 1.08185,0.52087 0.25078,0.32326 0.36061,0.65538 0.36061,1.00171 0,0.4156 -0.12891,0.74164 -0.4007,1.04178 -0.25077,0.27708 -0.54536,0.44074 -0.92155,0.44074 -0.96135,0 -1.44245,-0.50669 -1.44245,-1.5226 0,-0.39249 0.10982,-0.72463 0.36062,-1.00169 0.27168,-0.30016 0.58542,-0.48081 0.96162,-0.48081 z m 12.70163,0 c 0.45979,0 0.791,0.19765 1.04179,0.52087 0.25077,0.32326 0.40068,0.65538 0.40068,1.00171 0,0.4156 -0.16906,0.74164 -0.44076,1.04178 -0.25077,0.27708 -0.54538,0.44074 -0.92157,0.44074 -0.96136,0 -1.44245,-0.50669 -1.44245,-1.5226 0,-0.39249 0.10966,-0.72463 0.36061,-1.00169 0.27168,-0.30016 0.62551,-0.48081 1.0017,-0.48081 z m -95.60278,7.93349 c 0.4598,2e-5 0.79098,0.15763 1.04178,0.48084 0.25079,0.32324 0.40067,0.69544 0.40068,1.04175 -1e-5,0.4156 -0.16906,0.74164 -0.44075,1.04178 -0.25079,0.27706 -0.54537,0.44077 -0.92157,0.44077 -0.96137,0 -1.44246,-0.50669 -1.44246,-1.52261 0,-0.39253 0.10981,-0.72465 0.36061,-1.00169 0.27168,-0.30016 0.62553,-0.48082 1.00171,-0.48084 z m 12.66155,0 c 0.4598,2e-5 0.79099,0.15763 1.04178,0.48084 0.25079,0.32324 0.40068,0.69544 0.40068,1.04175 0,0.4156 -0.12891,0.74164 -0.40068,1.04178 -0.25079,0.27706 -0.58544,0.44077 -0.96163,0.44077 -0.96138,0 -1.44246,-0.50669 -1.44246,-1.52261 0,-0.39253 0.14989,-0.72465 0.40069,-1.00169 0.27168,-0.30016 0.58544,-0.48082 0.96162,-0.48084 z m 12.66157,0 c 0.45979,2e-5 0.83106,0.15763 1.08185,0.48084 0.25079,0.32324 0.36058,0.69544 0.36062,1.04175 -4e-5,0.4156 -0.12907,0.74164 -0.4007,1.04178 -0.25079,0.27706 -0.54536,0.44077 -0.92155,0.44077 -0.9614,0 -1.44247,-0.50669 -1.44247,-1.52261 0,-0.39253 0.10982,-0.72465 0.36061,-1.00169 0.27169,-0.30016 0.58545,-0.48082 0.96164,-0.48084 z m 12.66157,0 c 0.45976,2e-5 0.83103,0.15763 1.08184,0.48084 0.25077,0.32324 0.36062,0.69544 0.36062,1.04175 0,0.4156 -0.12907,0.74164 -0.40068,1.04178 -0.25081,0.27706 -0.54541,0.44077 -0.92159,0.44077 -0.96136,0 -1.44246,-0.50669 -1.44246,-1.52261 0,-0.39253 0.10981,-0.72465 0.36062,-1.00169 0.27169,-0.30016 0.58545,-0.48082 0.96165,-0.48084 z m 12.70162,0 c 0.45976,2e-5 0.79097,0.15763 1.04178,0.48084 0.25079,0.32324 0.40066,0.69544 0.40066,1.04175 0,0.4156 -0.12906,0.74164 -0.40066,1.04178 -0.25081,0.27706 -0.58545,0.44077 -0.96165,0.44077 -0.96137,0 -1.44246,-0.50669 -1.44246,-1.52261 0,-0.39253 0.14989,-0.72465 0.4007,-1.00169 0.27169,-0.30016 0.58542,-0.48082 0.96163,-0.48084 z m 13.34272,0 c 0.45977,2e-5 0.83104,0.15763 1.08183,0.48084 0.2508,0.32324 0.3606,0.69544 0.36062,1.04175 -2e-5,0.4156 -0.12891,0.74164 -0.40067,1.04178 -0.2508,0.27706 -0.54539,0.44077 -0.92157,0.44077 -0.96137,0 -1.44246,-0.50669 -1.44246,-1.52261 0,-0.39253 0.10982,-0.72465 0.36061,-1.00169 0.27167,-0.30016 0.58543,-0.48082 0.96164,-0.48084 z m 12.70164,0 c 0.45977,2e-5 0.79096,0.15763 1.04177,0.48084 0.25077,0.32324 0.40067,0.69544 0.40067,1.04175 0,0.4156 -0.16907,0.74164 -0.44075,1.04178 -0.25079,0.27706 -0.54539,0.44077 -0.92157,0.44077 -0.96138,0 -1.44248,-0.50669 -1.44248,-1.52261 0,-0.39253 0.10982,-0.72465 0.36064,-1.00169 0.27169,-0.30016 0.6255,-0.48082 1.00172,-0.48084 z m 12.66156,0 c 0.45977,2e-5 0.79096,0.15763 1.04175,0.48084 0.25081,0.32324 0.4007,0.69544 0.4007,1.04175 0,0.4156 -0.12907,0.74164 -0.4007,1.04178 -0.25079,0.27706 -0.58547,0.44077 -0.96163,0.44077 -0.96138,0 -1.44246,-0.50669 -1.44246,-1.52261 0,-0.39253 0.14989,-0.72465 0.40069,-1.00169 0.27168,-0.30016 0.58544,-0.48082 0.96165,-0.48084 z m 12.66153,0 c 0.4598,2e-5 0.83105,0.15763 1.08184,0.48084 0.25079,0.32324 0.36064,0.69544 0.36064,1.04175 0,0.4156 -0.12907,0.74164 -0.4007,1.04178 -0.2508,0.27706 -0.54539,0.44077 -0.92157,0.44077 -0.96134,0 -1.44244,-0.50669 -1.44244,-1.52261 0,-0.39253 0.10997,-0.72465 0.3606,-1.00169 0.2717,-0.30016 0.58545,-0.48082 0.96163,-0.48084 z m -95.84317,7.5729 c 0.45976,1e-5 0.83102,0.15762 1.08182,0.48083 0.25079,0.32323 0.36062,0.65537 0.36062,1.00169 0,0.41561 -0.12906,0.78168 -0.40068,1.08184 -0.2508,0.27706 -0.54539,0.44077 -0.92157,0.44077 -0.96136,0 -1.44244,-0.5067 -1.44244,-1.52261 0,-0.39249 0.10981,-0.72463 0.3606,-1.00169 0.27169,-0.30016 0.58545,-0.48082 0.96165,-0.48083 z m 12.70162,0 c 0.45977,1e-5 0.79097,0.15762 1.04176,0.48083 0.25079,0.32323 0.40068,0.65537 0.40068,1.00169 0,0.41561 -0.12906,0.78168 -0.40068,1.08184 -0.25079,0.27706 -0.58545,0.44077 -0.96163,0.44077 -0.96136,0 -1.44246,-0.5067 -1.44246,-1.52261 0,-0.39249 0.14989,-0.72463 0.40068,-1.00169 0.2717,-0.30016 0.58544,-0.48082 0.96165,-0.48083 z m 12.66156,0 c 0.45978,1e-5 0.83104,0.15762 1.08184,0.48083 0.25079,0.32323 0.36059,0.65537 0.3606,1.00169 -10e-6,0.41561 -0.1289,0.78168 -0.40067,1.08184 -0.25079,0.27706 -0.58544,0.44077 -0.96163,0.44077 -0.96138,0 -1.44247,-0.5067 -1.44247,-1.52261 0,-0.39249 0.14989,-0.72463 0.4007,-1.00169 0.27166,-0.30016 0.58545,-0.48082 0.96163,-0.48083 z m 12.66156,0 c 0.45977,1e-5 0.83104,0.15762 1.08184,0.48083 0.25078,0.32323 0.36061,0.65537 0.36061,1.00169 0,0.41561 -0.12907,0.78168 -0.40068,1.08184 -0.25079,0.27706 -0.54538,0.44077 -0.92157,0.44077 -0.96137,0 -1.44246,-0.5067 -1.44246,-1.52261 0,-0.39249 0.10981,-0.72463 0.36061,-1.00169 0.2717,-0.30016 0.58544,-0.48082 0.96165,-0.48083 z m 12.70162,0 c 0.45979,1e-5 0.79098,0.15762 1.04177,0.48083 0.2508,0.32323 0.40068,0.65537 0.40068,1.00169 0,0.41561 -0.12891,0.78168 -0.40068,1.08184 -0.25079,0.27706 -0.58544,0.44077 -0.96165,0.44077 -0.96134,0 -1.44243,-0.5067 -1.44243,-1.52261 0,-0.39249 0.10966,-0.72463 0.36061,-1.00169 0.27168,-0.30016 0.62553,-0.48082 1.0017,-0.48083 z m 12.66155,0 c 0.4598,1e-5 0.83107,0.15762 1.08186,0.48083 0.25077,0.32323 0.3606,0.65537 0.3606,1.00169 0,0.41561 -0.12906,0.78168 -0.40066,1.08184 -0.25081,0.27706 -0.58547,0.44077 -0.96167,0.44077 -0.96134,0 -1.44244,-0.5067 -1.44244,-1.52261 0,-0.39249 0.14989,-0.72463 0.40068,-1.00169 0.27169,-0.30016 0.58547,-0.48082 0.96163,-0.48083 z m 13.34272,0 c 0.4598,1e-5 0.83107,0.15762 1.08184,0.48083 0.25079,0.32323 0.36062,0.65537 0.36062,1.00169 0,0.41561 -0.12906,0.78168 -0.40068,1.08184 -0.25079,0.27706 -0.54537,0.44077 -0.92158,0.44077 -0.96136,0 -1.44243,-0.5067 -1.44243,-1.52261 0,-0.39249 0.10981,-0.72463 0.3606,-1.00169 0.2717,-0.30016 0.58546,-0.48082 0.96163,-0.48083 z m 12.70162,0 c 0.45979,1e-5 0.791,0.15762 1.0418,0.48083 0.25079,0.32323 0.40067,0.65537 0.40067,1.00169 0,0.41561 -0.12891,0.78168 -0.40067,1.08184 -0.2508,0.27706 -0.58545,0.44077 -0.96166,0.44077 -0.96135,0 -1.44245,-0.5067 -1.44245,-1.52261 0,-0.39249 0.14989,-0.72463 0.40068,-1.00169 0.27168,-0.30016 0.58544,-0.48082 0.96163,-0.48083 z m 12.66158,0 c 0.45977,1e-5 0.83104,0.15762 1.08184,0.48083 0.25079,0.32323 0.36061,0.65537 0.36061,1.00169 0,0.41561 -0.12907,0.78168 -0.40067,1.08184 -0.2508,0.27706 -0.58545,0.44077 -0.96164,0.44077 -0.96138,0 -1.44246,-0.5067 -1.44246,-1.52261 0,-0.39249 0.14989,-0.72463 0.40068,-1.00169 0.27169,-0.30016 0.58543,-0.48082 0.96164,-0.48083 z m -108.26436,7.93351 c 0.4598,0 0.79099,0.15762 1.04178,0.4808 0.25079,0.32328 0.40067,0.6554 0.40068,1.00172 -1e-5,0.41561 -0.1289,0.7817 -0.40068,1.08186 -0.25079,0.27705 -0.58544,0.40065 -0.96163,0.40065 -0.96138,0 -1.44244,-0.50669 -1.44244,-1.52258 0,-0.39249 0.14989,-0.72463 0.40066,-1.00171 0.2717,-0.30014 0.58545,-0.44074 0.96163,-0.44074 z m 12.66156,0 c 0.45979,0 0.83106,0.15762 1.08186,0.4808 0.25077,0.32328 0.3606,0.6554 0.3606,1.00172 0,0.41561 -0.12906,0.7817 -0.40068,1.08186 -0.2508,0.27705 -0.58545,0.40065 -0.96164,0.40065 -0.96136,0 -1.44246,-0.50669 -1.44246,-1.52258 0,-0.39249 0.14989,-0.72463 0.40069,-1.00171 0.2717,-0.30014 0.58544,-0.44074 0.96163,-0.44074 z m 12.66156,0 c 0.45979,0 0.83106,0.15762 1.08185,0.4808 0.2508,0.32328 0.36062,0.6554 0.36062,1.00172 0,0.41561 -0.12907,0.7817 -0.40068,1.08186 -0.25079,0.27705 -0.5454,0.40065 -0.92157,0.40065 -0.96137,0 -1.44247,-0.50669 -1.44247,-1.52258 0,-0.39249 0.10982,-0.72463 0.36062,-1.00171 0.27168,-0.30014 0.58546,-0.44074 0.96163,-0.44074 z m 12.70164,0 c 0.45977,0 0.79098,0.15762 1.04177,0.4808 0.25079,0.32328 0.40069,0.6554 0.40069,1.00172 0,0.41561 -0.12906,0.7817 -0.40069,1.08186 -0.25079,0.27705 -0.58546,0.40065 -0.96163,0.40065 -0.96136,0 -1.44246,-0.50669 -1.44246,-1.52258 0,-0.39249 0.10981,-0.72463 0.3606,-1.00171 0.27171,-0.30014 0.62553,-0.44074 1.00172,-0.44074 z m 12.66156,0 c 0.45977,0 0.83104,0.15762 1.08183,0.4808 0.2508,0.32328 0.3606,0.6554 0.3606,1.00172 0,0.41561 -0.1289,0.7817 -0.40066,1.08186 -0.25081,0.27705 -0.58545,0.40065 -0.96163,0.40065 -0.96138,0 -1.44245,-0.50669 -1.44245,-1.52258 0,-0.39249 0.14989,-0.72463 0.40067,-1.00171 0.27169,-0.30014 0.58542,-0.44074 0.96164,-0.44074 z m 12.66156,0 c 0.45979,0 0.83103,0.15762 1.08183,0.4808 0.25079,0.32328 0.3606,0.6554 0.36062,1.00172 -2e-5,0.41561 -0.12906,0.7817 -0.40068,1.08186 -0.2508,0.27705 -0.54539,0.40065 -0.92157,0.40065 -0.96138,0 -1.44246,-0.50669 -1.44246,-1.52258 0,-0.39249 0.10981,-0.72463 0.36062,-1.00171 0.27169,-0.30014 0.58545,-0.44074 0.96164,-0.44074 z m 13.38279,0 c 0.45977,0 0.79096,0.15762 1.04177,0.4808 0.25077,0.32328 0.40069,0.6554 0.40069,1.00172 0,0.41561 -0.12906,0.7817 -0.40069,1.08186 -0.25081,0.27705 -0.58547,0.40065 -0.96164,0.40065 -0.96137,0 -1.44246,-0.50669 -1.44246,-1.52258 0,-0.39249 0.14989,-0.72463 0.40068,-1.00171 0.2717,-0.30014 0.58546,-0.44074 0.96165,-0.44074 z m 12.66156,0 c 0.45977,0 0.83104,0.15762 1.08183,0.4808 0.25079,0.32328 0.36062,0.6554 0.36062,1.00172 0,0.41561 -0.12907,0.7817 -0.4007,1.08186 -0.25079,0.27705 -0.58544,0.40065 -0.96163,0.40065 -0.96135,0 -1.44246,-0.50669 -1.44246,-1.52258 0,-0.39249 0.14989,-0.72463 0.40069,-1.00171 0.2717,-0.30014 0.58544,-0.44074 0.96165,-0.44074 z m 12.66155,0 c 0.45978,0 0.83105,0.15762 1.08182,0.4808 0.25079,0.32328 0.36064,0.6554 0.36064,1.00172 0,0.41561 -0.12907,0.7817 -0.4007,1.08186 -0.25079,0.27705 -0.54539,0.40065 -0.92155,0.40065 -0.96136,0 -1.44245,-0.50669 -1.44245,-1.52258 0,-0.39249 0.10982,-0.72463 0.36059,-1.00171 0.2717,-0.30014 0.58547,-0.44074 0.96165,-0.44074 z m -95.92335,6.85167 c 0.4598,0 0.83106,0.15763 1.08186,0.48082 0.25079,0.32326 0.36061,0.6554 0.36061,1.00171 0,0.41562 -0.12891,0.78168 -0.40068,1.08184 -0.25079,0.27707 -0.54538,0.40068 -0.92157,0.40068 -0.96135,0 -1.44245,-0.50669 -1.44245,-1.52258 0,-0.39251 0.10966,-0.72465 0.3606,-1.00171 0.2717,-0.30016 0.58546,-0.44076 0.96163,-0.44076 z m 12.70164,0 c 0.45979,0 0.79098,0.15763 1.04177,0.48082 0.25079,0.32326 0.40069,0.6554 0.40069,1.00171 0,0.41562 -0.16907,0.78168 -0.44075,1.08184 -0.25079,0.27707 -0.5454,0.40068 -0.92156,0.40068 -0.96137,0 -1.44246,-0.50669 -1.44246,-1.52258 0,-0.39251 0.10982,-0.72465 0.36061,-1.00171 0.27169,-0.30016 0.62551,-0.44076 1.0017,-0.44076 z m 12.66156,0 c 0.4598,0 0.79098,0.15763 1.04179,0.48082 0.25078,0.32326 0.40066,0.6554 0.40067,1.00171 -1e-5,0.41562 -0.1289,0.78168 -0.40067,1.08184 -0.25081,0.27707 -0.58546,0.40068 -0.96165,0.40068 -0.96136,0 -1.44245,-0.50669 -1.44245,-1.52258 0,-0.39251 0.14989,-0.72465 0.40067,-1.00171 0.27169,-0.30016 0.58547,-0.44076 0.96164,-0.44076 z m 12.66158,0 c 0.45975,0 0.83104,0.15763 1.08183,0.48082 0.25079,0.32326 0.36062,0.6554 0.36062,1.00171 0,0.41562 -0.12907,0.78168 -0.4007,1.08184 -0.25079,0.27707 -0.54539,0.40068 -0.92157,0.40068 -0.96136,0 -1.44244,-0.50669 -1.44244,-1.52258 0,-0.39251 0.10997,-0.72465 0.3606,-1.00171 0.27171,-0.30016 0.58545,-0.44076 0.96166,-0.44076 z m 12.70162,0 c 0.45977,0 0.79099,0.15763 1.04175,0.48082 0.25081,0.32326 0.36062,0.6554 0.36062,1.00171 0,0.41562 -0.12906,0.78168 -0.40068,1.08184 -0.2508,0.27707 -0.54539,0.40068 -0.92157,0.40068 -0.96134,0 -1.44246,-0.50669 -1.44246,-1.52258 0,-0.39251 0.10981,-0.72465 0.36062,-1.00171 0.27171,-0.30016 0.62551,-0.44076 1.00172,-0.44076 z m 13.34271,0 c 0.45977,0 0.83104,0.15763 1.08184,0.48082 0.25078,0.32326 0.36061,0.6554 0.36062,1.00171 -10e-6,0.41562 -0.1289,0.78168 -0.40069,1.08184 -0.25081,0.27707 -0.58544,0.40068 -0.96163,0.40068 -0.96137,0 -1.44246,-0.50669 -1.44246,-1.52258 0,-0.39251 0.14989,-0.72465 0.40069,-1.00171 0.27168,-0.30016 0.58544,-0.44076 0.96163,-0.44076 z m 12.66155,0 c 0.4598,0 0.83106,0.15763 1.08185,0.48082 0.25078,0.32326 0.36061,0.6554 0.36061,1.00171 0,0.41562 -0.12891,0.78168 -0.4007,1.08184 -0.25077,0.27707 -0.54536,0.40068 -0.92155,0.40068 -0.96135,0 -1.44245,-0.50669 -1.44245,-1.52258 0,-0.39251 0.10982,-0.72465 0.36062,-1.00171 0.27168,-0.30016 0.58542,-0.44076 0.96162,-0.44076 z m 12.70163,0 c 0.45979,0 0.791,0.15763 1.04179,0.48082 0.25077,0.32326 0.40068,0.6554 0.40068,1.00171 0,0.41562 -0.16906,0.78168 -0.44076,1.08184 -0.25077,0.27707 -0.54538,0.40068 -0.92157,0.40068 -0.96136,0 -1.44245,-0.50669 -1.44245,-1.52258 0,-0.39251 0.10966,-0.72465 0.36061,-1.00171 0.27168,-0.30016 0.62551,-0.44076 1.0017,-0.44076 z m 12.66157,0 c 0.45978,0 0.79099,0.15763 1.04178,0.48082 0.25077,0.32326 0.40066,0.6554 0.40066,1.00171 0,0.41562 -0.1289,0.78168 -0.40066,1.08184 -0.25079,0.27707 -0.58546,0.40068 -0.96165,0.40068 -0.96136,0 -1.44244,-0.50669 -1.44244,-1.52258 0,-0.39251 0.14989,-0.72465 0.40066,-1.00171 0.27171,-0.30016 0.58545,-0.44076 0.96165,-0.44076 z m -108.26435,7.9335 c 0.4598,2e-5 0.79098,0.15762 1.04178,0.48082 0.25079,0.32326 0.40067,0.65538 0.40068,1.0017 -1e-5,0.41561 -0.16906,0.7817 -0.44075,1.08185 -0.25079,0.27707 -0.54537,0.40068 -0.92157,0.40068 -0.96137,0 -1.44246,-0.5067 -1.44246,-1.52259 0,-0.39252 0.10981,-0.72464 0.36061,-1.0017 0.27168,-0.30016 0.62553,-0.44074 1.00171,-0.44076 z m 12.66155,0 c 0.4598,2e-5 0.79099,0.15762 1.04178,0.48082 0.25079,0.32326 0.40068,0.65538 0.40068,1.0017 0,0.41561 -0.12891,0.7817 -0.40068,1.08185 -0.25079,0.27707 -0.58544,0.40068 -0.96163,0.40068 -0.96138,0 -1.44246,-0.5067 -1.44246,-1.52259 0,-0.39252 0.14989,-0.72464 0.40069,-1.0017 0.27168,-0.30016 0.58544,-0.44074 0.96162,-0.44076 z m 12.66157,0 c 0.45979,2e-5 0.83106,0.15762 1.08185,0.48082 0.25079,0.32326 0.36058,0.65538 0.36062,1.0017 -4e-5,0.41561 -0.12907,0.7817 -0.4007,1.08185 -0.25079,0.27707 -0.54536,0.40068 -0.92155,0.40068 -0.9614,0 -1.44247,-0.5067 -1.44247,-1.52259 0,-0.39252 0.10982,-0.72464 0.36061,-1.0017 0.27169,-0.30016 0.58545,-0.44074 0.96164,-0.44076 z m 12.66157,0 c 0.45976,2e-5 0.83103,0.15762 1.08184,0.48082 0.25077,0.32326 0.36062,0.65538 0.36062,1.0017 0,0.41561 -0.12907,0.7817 -0.40068,1.08185 -0.25081,0.27707 -0.54541,0.40068 -0.92159,0.40068 -0.96136,0 -1.44246,-0.5067 -1.44246,-1.52259 0,-0.39252 0.10981,-0.72464 0.36062,-1.0017 0.27169,-0.30016 0.58545,-0.44074 0.96165,-0.44076 z m 12.70162,0 c 0.45976,2e-5 0.79097,0.15762 1.04178,0.48082 0.25079,0.32326 0.40066,0.65538 0.40066,1.0017 0,0.41561 -0.12906,0.7817 -0.40066,1.08185 -0.25081,0.27707 -0.58545,0.40068 -0.96165,0.40068 -0.96137,0 -1.44246,-0.5067 -1.44246,-1.52259 0,-0.39252 0.14989,-0.72464 0.4007,-1.0017 0.27169,-0.30016 0.58542,-0.44074 0.96163,-0.44076 z m 13.34272,0 c 0.45977,2e-5 0.83104,0.15762 1.08183,0.48082 0.2508,0.32326 0.3606,0.65538 0.36062,1.0017 -2e-5,0.41561 -0.12891,0.7817 -0.40067,1.08185 -0.2508,0.27707 -0.54539,0.40068 -0.92157,0.40068 -0.96137,0 -1.44246,-0.5067 -1.44246,-1.52259 0,-0.39252 0.10982,-0.72464 0.36061,-1.0017 0.27167,-0.30016 0.58543,-0.44074 0.96164,-0.44076 z m 12.70164,0 c 0.45977,2e-5 0.79096,0.15762 1.04177,0.48082 0.25077,0.32326 0.40067,0.65538 0.40067,1.0017 0,0.41561 -0.16907,0.7817 -0.44075,1.08185 -0.25079,0.27707 -0.54539,0.40068 -0.92157,0.40068 -0.96138,0 -1.44248,-0.5067 -1.44248,-1.52259 0,-0.39252 0.10982,-0.72464 0.36064,-1.0017 0.27169,-0.30016 0.6255,-0.44074 1.00172,-0.44076 z m 12.66156,0 c 0.45977,2e-5 0.79096,0.15762 1.04175,0.48082 0.25081,0.32326 0.4007,0.65538 0.4007,1.0017 0,0.41561 -0.12907,0.7817 -0.4007,1.08185 -0.25079,0.27707 -0.58547,0.40068 -0.96163,0.40068 -0.96138,0 -1.44246,-0.5067 -1.44246,-1.52259 0,-0.39252 0.14989,-0.72464 0.40069,-1.0017 0.27168,-0.30016 0.58544,-0.44074 0.96165,-0.44076 z m 12.66153,0 c 0.4598,2e-5 0.83105,0.15762 1.08184,0.48082 0.25079,0.32326 0.36064,0.65538 0.36064,1.0017 0,0.41561 -0.12907,0.7817 -0.4007,1.08185 -0.2508,0.27707 -0.54539,0.40068 -0.92157,0.40068 -0.96134,0 -1.44244,-0.5067 -1.44244,-1.52259 0,-0.39252 0.10997,-0.72464 0.3606,-1.0017 0.2717,-0.30016 0.58545,-0.44074 0.96163,-0.44076 z m -94.84148,6.85167 c 0.4598,2e-5 0.79097,0.15763 1.04178,0.48082 0.25079,0.32326 0.40068,0.65538 0.40068,1.00171 0,0.41559 -0.12907,0.7817 -0.40068,1.08184 -0.25081,0.27706 -0.58546,0.40068 -0.96165,0.40068 -0.96136,0 -1.44246,-0.50669 -1.44246,-1.5226 0,-0.39251 0.14989,-0.72463 0.4007,-1.00169 0.27169,-0.30016 0.58543,-0.44074 0.96163,-0.44076 z m 12.66156,0 c 0.4598,2e-5 0.83105,0.15763 1.08184,0.48082 0.25081,0.32326 0.3606,0.65538 0.36062,1.00171 -2e-5,0.41559 -0.12906,0.7817 -0.40068,1.08184 -0.25079,0.27706 -0.54538,0.40068 -0.92157,0.40068 -0.96138,0 -1.44246,-0.50669 -1.44246,-1.5226 0,-0.39251 0.10965,-0.72463 0.36062,-1.00169 0.27168,-0.30016 0.58545,-0.44074 0.96163,-0.44076 z m 12.70164,0 c 0.45978,2e-5 0.79097,0.15763 1.04176,0.48082 0.25079,0.32326 0.4007,0.65538 0.4007,1.00171 0,0.41559 -0.16909,0.7817 -0.44076,1.08184 -0.2508,0.27706 -0.54539,0.40068 -0.92157,0.40068 -0.96138,0 -1.44246,-0.50669 -1.44246,-1.5226 0,-0.39251 0.10981,-0.72463 0.36062,-1.00169 0.27168,-0.30016 0.62551,-0.44074 1.00171,-0.44076 z m 12.66154,0 c 0.4598,2e-5 0.79099,0.15763 1.04178,0.48082 0.25079,0.32326 0.40067,0.65538 0.4007,1.00171 -3e-5,0.41559 -0.12906,0.7817 -0.4007,1.08184 -0.25079,0.27706 -0.58544,0.40068 -0.96163,0.40068 -0.96138,0 -1.44246,-0.50669 -1.44246,-1.5226 0,-0.39251 0.14989,-0.72463 0.40068,-1.00169 0.27168,-0.30016 0.58547,-0.44074 0.96163,-0.44076 z m 12.66156,0 c 0.45979,2e-5 0.83106,0.15763 1.08186,0.48082 0.25076,0.32326 0.3606,0.65538 0.3606,1.00171 0,0.41559 -0.12906,0.7817 -0.40068,1.08184 -0.25078,0.27706 -0.54539,0.40068 -0.92157,0.40068 -0.96137,0 -1.44246,-0.50669 -1.44246,-1.5226 0,-0.39251 0.10982,-0.72463 0.36062,-1.00169 0.27168,-0.30016 0.58544,-0.44074 0.96163,-0.44076 z m 12.66156,0 c 0.45977,2e-5 0.83106,0.15763 1.08185,0.48082 0.25077,0.32326 0.36062,0.65538 0.36062,1.00171 0,0.41559 -0.12907,0.7817 -0.40068,1.08184 -0.25079,0.27706 -0.5454,0.40068 -0.92157,0.40068 -0.96138,0 -1.44247,-0.50669 -1.44247,-1.5226 0,-0.39251 0.10982,-0.72463 0.36061,-1.00169 0.27169,-0.30016 0.58547,-0.44074 0.96164,-0.44076 z m 13.38277,0 c 0.4598,2e-5 0.791,0.15763 1.0418,0.48082 0.25079,0.32326 0.40068,0.65538 0.40068,1.00171 0,0.41559 -0.12891,0.7817 -0.40068,1.08184 -0.2508,0.27706 -0.58545,0.40068 -0.96165,0.40068 -0.96136,0 -1.44246,-0.50669 -1.44246,-1.5226 0,-0.39251 0.14989,-0.72463 0.40068,-1.00169 0.2717,-0.30016 0.58546,-0.44074 0.96163,-0.44076 z m 12.66158,0 c 0.45977,2e-5 0.83105,0.15763 1.08184,0.48082 0.25079,0.32326 0.36062,0.65538 0.36062,1.00171 0,0.41559 -0.12906,0.7817 -0.40068,1.08184 -0.25079,0.27706 -0.54539,0.40068 -0.92157,0.40068 -0.96138,0 -1.44246,-0.50669 -1.44246,-1.5226 0,-0.39251 0.10981,-0.72463 0.3606,-1.00169 0.27173,-0.30016 0.58546,-0.44074 0.96165,-0.44076 z m -82.90116,7.9335 c 0.45978,0 0.79098,0.15762 1.04177,0.48083 0.2508,0.32325 0.36061,0.65539 0.36063,1.00171 -2e-5,0.41561 -0.12906,0.78168 -0.40069,1.08183 -0.25079,0.27707 -0.54538,0.40068 -0.92156,0.40068 -0.96138,0 -1.44246,-0.5067 -1.44246,-1.52259 0,-0.3925 0.10981,-0.72464 0.3606,-1.0017 0.27168,-0.30016 0.62555,-0.44076 1.00171,-0.44076 z m 12.66156,0 c 0.45978,0 0.79098,0.15762 1.04178,0.48083 0.25078,0.32325 0.40068,0.65539 0.40068,1.00171 0,0.41561 -0.12906,0.78168 -0.40068,1.08183 -0.2508,0.27707 -0.58547,0.40068 -0.96164,0.40068 -0.96137,0 -1.44245,-0.5067 -1.44245,-1.52259 0,-0.3925 0.14989,-0.72464 0.40068,-1.0017 0.2717,-0.30016 0.58544,-0.44076 0.96163,-0.44076 z m 12.66158,0 c 0.45975,0 0.83103,0.15762 1.08182,0.48083 0.25079,0.32325 0.36061,0.65539 0.36061,1.00171 0,0.41561 -0.12891,0.78168 -0.40068,1.08183 -0.25078,0.27707 -0.58542,0.40068 -0.96163,0.40068 -0.96136,0 -1.44245,-0.5067 -1.44245,-1.52259 0,-0.3925 0.14989,-0.72464 0.40068,-1.0017 0.27168,-0.30016 0.58542,-0.44076 0.96165,-0.44076 z m 12.66154,0 c 0.45979,0 0.83104,0.15762 1.08186,0.48083 0.25076,0.32325 0.3606,0.65539 0.3606,1.00171 0,0.41561 -0.12906,0.78168 -0.40069,1.08183 -0.25079,0.27707 -0.54538,0.40068 -0.92157,0.40068 -0.96138,0 -1.44245,-0.5067 -1.44245,-1.52259 0,-0.3925 0.10982,-0.72464 0.36062,-1.0017 0.2717,-0.30016 0.58544,-0.44076 0.96163,-0.44076 z m 12.70163,0 c 0.45978,0 0.79097,0.15762 1.04176,0.48083 0.25079,0.32325 0.4007,0.65539 0.4007,1.00171 0,0.41561 -0.12907,0.78168 -0.4007,1.08183 -0.25079,0.27707 -0.58545,0.40068 -0.96163,0.40068 -0.96136,0 -1.44246,-0.5067 -1.44246,-1.52259 0,-0.3925 0.14989,-0.72464 0.40071,-1.0017 0.27168,-0.30016 0.58542,-0.44076 0.96162,-0.44076 z m 13.34272,0 c 0.45978,0 0.83104,0.15762 1.08184,0.48083 0.25079,0.32325 0.36061,0.65539 0.36061,1.00171 0,0.41561 -0.12891,0.78168 -0.4007,1.08183 -0.25077,0.27707 -0.54536,0.40068 -0.92155,0.40068 -0.96135,0 -1.44247,-0.5067 -1.44247,-1.52259 0,-0.3925 0.10982,-0.72464 0.36064,-1.0017 0.27168,-0.30016 0.58544,-0.44076 0.96163,-0.44076 z m 12.70162,0 c 0.45978,0 0.79099,0.15762 1.04177,0.48083 0.25077,0.32325 0.36063,0.65539 0.36063,1.00171 0,0.41561 -0.12906,0.78168 -0.40069,1.08183 -0.25078,0.27707 -0.5454,0.40068 -0.92157,0.40068 -0.96137,0 -1.44245,-0.5067 -1.44245,-1.52259 0,-0.3925 0.10982,-0.72464 0.36062,-1.0017 0.27168,-0.30016 0.62551,-0.44076 1.00169,-0.44076 z m -70.6002,6.85167 c 0.45978,0 0.83105,0.15763 1.08184,0.48082 0.25079,0.32326 0.36059,0.6554 0.3606,1.00172 -1e-5,0.41561 -0.1289,0.7817 -0.40068,1.08183 -0.25079,0.27706 -0.58543,0.40068 -0.96164,0.40068 -0.96135,0 -1.44245,-0.50669 -1.44245,-1.52258 0,-0.39249 0.14989,-0.72463 0.40068,-1.00171 0.2717,-0.30016 0.58546,-0.44076 0.96165,-0.44076 z m 12.66156,0 c 0.45977,0 0.83104,0.15763 1.08184,0.48082 0.25078,0.32326 0.36061,0.6554 0.36061,1.00172 0,0.41561 -0.12907,0.7817 -0.40067,1.08183 -0.2508,0.27706 -0.54541,0.40068 -0.92158,0.40068 -0.96137,0 -1.44247,-0.50669 -1.44247,-1.52258 0,-0.39249 0.10982,-0.72463 0.36062,-1.00171 0.2717,-0.30016 0.58546,-0.44076 0.96165,-0.44076 z m 12.70162,0 c 0.45978,0 0.79098,0.15763 1.04177,0.48082 0.2508,0.32326 0.40068,0.6554 0.40068,1.00172 0,0.41561 -0.16905,0.7817 -0.44074,1.08183 -0.25081,0.27706 -0.5454,0.40068 -0.92157,0.40068 -0.96137,0 -1.44246,-0.50669 -1.44246,-1.52258 0,-0.39249 0.10965,-0.72463 0.36063,-1.00171 0.27166,-0.30016 0.6255,-0.44076 1.00169,-0.44076 z m 12.66156,0 c 0.45979,0 0.83106,0.15763 1.08184,0.48082 0.25078,0.32326 0.36059,0.6554 0.36061,1.00172 -2e-5,0.41561 -0.12891,0.7817 -0.40068,1.08183 -0.25079,0.27706 -0.58544,0.40068 -0.96165,0.40068 -0.96136,0 -1.44243,-0.50669 -1.44243,-1.52258 0,-0.39249 0.14989,-0.72463 0.40068,-1.00171 0.27167,-0.30016 0.58546,-0.44076 0.96163,-0.44076 z m 13.34271,0 c 0.45978,0 0.83105,0.15763 1.08184,0.48082 0.25079,0.32326 0.36062,0.6554 0.36062,1.00172 0,0.41561 -0.12906,0.7817 -0.40069,1.08183 -0.25078,0.27706 -0.54537,0.40068 -0.92156,0.40068 -0.96136,0 -1.44246,-0.50669 -1.44246,-1.52258 0,-0.39249 0.10982,-0.72463 0.36062,-1.00171 0.27168,-0.30016 0.58545,-0.44076 0.96163,-0.44076 z m 12.70162,0 c 0.45979,0 0.791,0.15763 1.0418,0.48082 0.25077,0.32326 0.40068,0.6554 0.40068,1.00172 0,0.41561 -0.16906,0.7817 -0.44076,1.08183 -0.25078,0.27706 -0.54537,0.40068 -0.92157,0.40068 -0.96137,0 -1.44246,-0.50669 -1.44246,-1.52258 0,-0.39249 0.10982,-0.72463 0.36061,-1.00171 0.27169,-0.30016 0.62553,-0.44076 1.0017,-0.44076 z m -44.91646,7.9335 c 0.45977,0 0.83105,0.15762 1.08183,0.48085 0.2508,0.32324 0.36062,0.65537 0.36062,1.00169 0,0.41561 -0.12891,0.78168 -0.40068,1.08184 -0.25079,0.27705 -0.58546,0.4007 -0.96163,0.4007 -0.96136,0 -1.44246,-0.50673 -1.44246,-1.52262 0,-0.39249 0.14989,-0.72463 0.40068,-1.0017 0.27168,-0.30014 0.58543,-0.44076 0.96164,-0.44076 z m 12.66155,0 c 0.4598,0 0.83105,0.15762 1.08184,0.48085 0.25081,0.32324 0.36059,0.65537 0.36063,1.00169 -4e-5,0.41561 -0.12906,0.78168 -0.40069,1.08184 -0.25081,0.27705 -0.54538,0.4007 -0.92157,0.4007 -0.96138,0 -1.44246,-0.50673 -1.44246,-1.52262 0,-0.39249 0.10981,-0.72463 0.36062,-1.0017 0.27168,-0.30014 0.58545,-0.44076 0.96163,-0.44076 z m 13.3828,0 c 0.45977,0 0.79096,0.15762 1.04176,0.48085 0.25079,0.32324 0.40068,0.65537 0.40068,1.00169 0,0.41561 -0.16906,0.78168 -0.44075,1.08184 -0.25079,0.27705 -0.54538,0.4007 -0.92157,0.4007 -0.96136,0 -1.44245,-0.50673 -1.44245,-1.52262 0,-0.39249 0.10982,-0.72463 0.36062,-1.0017 0.2717,-0.30014 0.6255,-0.44076 1.00171,-0.44076 z m 12.66156,0 c 0.45977,0 0.83104,0.15762 1.08181,0.48085 0.25082,0.32324 0.36063,0.65537 0.36063,1.00169 0,0.41561 -0.1289,0.78168 -0.40069,1.08184 -0.25079,0.27705 -0.58545,0.4007 -0.96161,0.4007 -0.96138,0 -1.44247,-0.50673 -1.44247,-1.52262 0,-0.39249 0.14989,-0.72463 0.4007,-1.0017 0.27166,-0.30014 0.58542,-0.44076 0.96163,-0.44076 z"
       id="path3820"
       inkscape:connector-curvature="0" />
    <ellipse
       transform="matrix(0.10712563,-0.99424549,0.9992884,0.03771857,0,0)"
       id="path4299"
       style="fill:#b8b8b8;fill-opacity:1;stroke:none"
       cx="-798.23877"
       cy="270.27692"
       rx="5.3390436"
       ry="10.125893" />
  </g>
</svg>
