<?xml version="1.0" encoding="UTF-8" standalone="no"?>
<!-- Created with Inkscape (http://www.inkscape.org/) -->

<svg
   xmlns:dc="http://purl.org/dc/elements/1.1/"
   xmlns:cc="http://creativecommons.org/ns#"
   xmlns:rdf="http://www.w3.org/1999/02/22-rdf-syntax-ns#"
   xmlns:svg="http://www.w3.org/2000/svg"
   xmlns="http://www.w3.org/2000/svg"
   xmlns:sodipodi="http://sodipodi.sourceforge.net/DTD/sodipodi-0.dtd"
   xmlns:inkscape="http://www.inkscape.org/namespaces/inkscape"
   width="500mm"
   height="500mm"
   viewBox="0 0 1771.6535 1771.6535"
   id="svg2"
   version="1.1"
   inkscape:version="0.91 r13725"
   sodipodi:docname="logo.svg"
   inkscape:export-filename="/Users/45kb/Projects/bitNFC/www/img/logo.png"
   inkscape:export-xdpi="8.2799997"
   inkscape:export-ydpi="8.2799997">
  <defs
     id="defs4" />
  <sodipodi:namedview
     id="base"
     pagecolor="#ffffff"
     bordercolor="#666666"
     borderopacity="1.0"
     inkscape:pageopacity="0.0"
     inkscape:pageshadow="2"
     inkscape:zoom="0.12374369"
     inkscape:cx="804.80305"
     inkscape:cy="597.88499"
     inkscape:document-units="px"
     inkscape:current-layer="layer1"
     showgrid="false"
     inkscape:window-width="1241"
     inkscape:window-height="755"
     inkscape:window-x="39"
     inkscape:window-y="0"
     inkscape:window-maximized="1" />
  <metadata
     id="metadata7">
    <rdf:RDF>
      <cc:Work
         rdf:about="">
        <dc:format>image/svg+xml</dc:format>
        <dc:type
           rdf:resource="http://purl.org/dc/dcmitype/StillImage" />
        <dc:title></dc:title>
      </cc:Work>
    </rdf:RDF>
  </metadata>
  <g
     inkscape:label="Livello 1"
     inkscape:groupmode="layer"
     id="layer1"
     transform="translate(0,719.29134)">
    <text
       sodipodi:linespacing="125%"
       id="text4293"
       y="555.74689"
       x="-542.1452"
       style="font-style:normal;font-weight:normal;font-size:72.68954468px;line-height:125%;font-family:sans-serif;letter-spacing:0px;word-spacing:0px;fill:#ffffff;fill-opacity:1;stroke:none;stroke-width:1px;stroke-linecap:butt;stroke-linejoin:miter;stroke-opacity:1"
       xml:space="preserve"
       inkscape:export-filename="/Users/45kb/Projects/bitNFC/www/img/logo.png"
       inkscape:export-xdpi="8"
       inkscape:export-ydpi="8"><tspan
         style="font-style:normal;font-variant:normal;font-weight:bold;font-stretch:normal;font-family:'.Beirut PUA';-inkscape-font-specification:'.Beirut PUA Bold';fill:#ffffff"
         y="555.74689"
         x="-542.1452"
         id="tspan4295"
         sodipodi:role="line">NFC</tspan></text>
    <g
       transform="matrix(6.198758,0,-1.2997177,6.198758,14144.605,-2363.805)"
       id="g217639"
       style="font-style:normal;font-variant:normal;font-weight:500;font-stretch:normal;font-size:202.67817688px;line-height:125%;font-family:Whois;-inkscape-font-specification:'Whois Medium';letter-spacing:0px;word-spacing:0px;fill:#333333;fill-opacity:1;stroke:none;stroke-width:7.09653139;stroke-miterlimit:4;stroke-dasharray:none;stroke-opacity:1"
       inkscape:export-filename="/Users/45kb/Projects/bitNFC/www/img/logo.png"
       inkscape:export-xdpi="8"
       inkscape:export-ydpi="8">
      <path
         inkscape:connector-curvature="0"
         d="m -2126.0868,403.94435 0,19.89175 30.8767,0 0,14.25081 -30.8767,0 0,19.99072 28.7985,0 c 9.6984,2e-5 16.8568,-2.21018 21.4752,-6.63059 4.6842,-4.48633 7.0263,-11.31484 7.0264,-20.48553 -10e-5,-9.23659 -2.3422,-16.0321 -7.0264,-20.38658 -4.6184,-4.42032 -11.7768,-6.63051 -21.4752,-6.63058 l -28.7985,0 m 0,-60.76387 0,44.53378 26.6213,0 c 8.7747,9e-5 15.3063,-1.81425 19.5948,-5.44302 4.3544,-3.69456 6.5316,-9.30251 6.5317,-16.82387 -1e-4,-7.45517 -2.1773,-13.03013 -6.5317,-16.72491 -4.2885,-3.69452 -10.8201,-5.54185 -19.5948,-5.54198 l -26.6213,0 m -18.0115,-16.42802 45.9193,0 c 13.7229,1.5e-4 24.2791,3.16699 31.6685,9.50054 7.4552,6.33383 11.1828,15.33954 11.1829,27.01716 -10e-5,9.03881 -1.9134,16.23019 -5.7399,21.57414 -3.7607,5.34414 -9.3357,8.67592 -16.7249,9.99536 8.9066,2.11131 15.8011,6.5317 20.6834,13.26117 4.8822,6.66364 7.3233,15.00959 7.3234,25.03788 -10e-5,13.19523 -4.0576,23.3885 -12.1726,30.57986 -8.0491,7.19139 -19.529,10.78708 -34.4394,10.78708 l -47.7007,0 0,-36.41874 -17.0218,0 0,-14.25081 17.0218,0 0,-97.08364"
         id="path217641"
         style="font-weight:normal;font-stretch:semi-condensed;line-height:125%;font-family:'DejaVu Sans';-inkscape-font-specification:'DejaVu Sans Semi-Condensed';text-align:start;writing-mode:lr-tb;text-anchor:start;fill:#333333;fill-opacity:1;stroke:none;stroke-width:7.09653139;stroke-miterlimit:4;stroke-dasharray:none;stroke-opacity:1" />
    </g>
    <path
       inkscape:connector-curvature="0"
       id="path217643"
       d="m 1440.143,695.35947 c -8.4774,-4.34609 -19.2149,-12.96603 -23.8613,-19.15553 -4.6461,-6.18972 -10.2356,-18.07348 -12.4211,-26.40864 -2.1853,-8.3356 -2.8781,-19.6596 -1.5395,-25.16531 1.3392,-5.50537 9.3862,-26.26046 17.8824,-46.1221 8.4965,-19.86152 22.8897,-58.94124 31.9845,-86.84362 9.0953,-27.90237 20.6944,-70.08125 25.7762,-93.73084 5.0819,-23.64992 11.9528,-63.74665 15.2682,-89.10467 3.7929,-29.0056 6.1242,-72.76551 6.2866,-117.98881 0.1602,-44.71785 -1.8596,-89.01315 -5.3431,-117.209834 -3.0798,-24.92933 -8.7987,-61.341535 -12.7085,-80.9156942 -3.9095,-19.5745028 -12.0279,-53.3989598 -18.0414,-75.1656638 -6.0131,-21.766708 -21.5684,-66.300858 -34.5677,-98.965208 -17.5085,-43.99489 -23.5803,-63.66566 -23.4248,-75.88681 0.1354,-10.67822 3.1106,-21.15389 8.4342,-29.69905 4.5235,-7.26105 13.8641,-17.47161 20.7566,-22.68982 8.8568,-6.70554 18.2071,-9.93841 31.881,-11.02313 10.6415,-0.84421 23.5036,-0.47609 28.5825,0.81813 5.0783,1.29392 15.4913,8.0474 23.1403,15.00707 10.0841,9.17637 18.4217,23.06581 30.3332,50.53243 9.0349,20.83289 22.7104,56.31386 30.3899,78.84703 7.6798,22.53348 19.4897,63.3273 26.2437,90.652865 6.7545,27.325861 15.5526,69.912764 19.5517,94.6373285 3.9992,24.7245215 8.8435,64.3685005 10.7651,88.0974725 1.9209,23.728564 3.4119,65.786274 3.3152,93.461584 -0.1,27.67541 -1.8912,69.72161 -3.9828,93.43575 -2.0914,23.71462 -7.2054,63.32252 -11.3648,88.01793 -4.1588,24.69573 -13.8207,69.13979 -21.4706,98.7648 -7.6498,29.62501 -21.5915,74.86216 -30.9818,100.52748 -9.3896,25.66527 -23.8269,60.34862 -32.0825,77.07396 -10.1534,20.5701 -19.4019,33.83895 -28.582,41.00604 -10.6524,8.3169 -18.0063,10.86476 -34.1878,11.84607 -15.9433,0.96669 -24.1101,-0.54097 -36.0298,-6.6512 z"
       style="fill:#7616e8;fill-opacity:1"
       inkscape:export-filename="/Users/45kb/Projects/bitNFC/www/img/logo.png"
       inkscape:export-xdpi="8"
       inkscape:export-ydpi="8" />
    <path
       inkscape:connector-curvature="0"
       id="path217645"
       d="m 1228.6403,598.35003 c -6.1305,-1.90652 -18.5013,-11.3858 -27.4903,-21.06499 -12.9171,-13.90951 -16.8719,-21.20967 -18.8636,-34.82444 -2.1662,-14.80731 -0.8715,-21.04943 9.2206,-44.46035 6.458,-14.97868 18.8532,-47.50883 27.5457,-72.28911 8.692,-24.78052 19.9449,-65.17533 25.0062,-89.76644 5.0618,-24.59088 11.0995,-67.88723 13.4181,-96.21328 3.1219,-38.13426 3.2096,-64.25569 0.3369,-100.63717 -2.1324,-27.02457 -7.8056,-68.989353 -12.6069,-93.255441 -4.8015,-24.266045 -13.7024,-59.836688 -19.7799,-79.045977 -6.078,-19.209492 -17.1414,-49.108924 -24.5865,-66.443758 -7.4445,-17.334794 -14.6269,-36.572474 -15.9605,-42.750414 -1.3355,-6.18548 -0.402,-18.35844 2.0754,-27.08918 2.755,-9.70463 9.993,-21.30945 18.659,-29.91322 7.7863,-7.73133 19.9202,-15.93596 26.9639,-18.23226 7.0431,-2.29664 20.0721,-3.33017 28.9524,-2.29717 9.6676,1.12473 22.099,6.0772 30.9793,12.34195 10.3447,7.29759 18.3436,17.58905 26.4387,34.01704 6.3833,12.95459 18.0728,40.9013 25.9758,62.1036 7.9032,21.201843 19.7518,59.936187 26.3301,86.075565 6.5788,26.13989427 14.8291,66.137181 18.334,88.883001 4.9144,31.891724 11.4425,52.542604 11.1147,120.446854 -0.3638,75.08394 -6.8342,104.13592 -14.0194,145.29785 -4.6347,26.55064 -13.8565,67.76153 -20.4931,91.57957 -6.6367,23.81812 -18.7485,60.26463 -26.9152,80.99215 -8.167,20.72756 -19.3482,46.51004 -24.8473,57.29487 -6.3703,12.49368 -15.4395,23.40324 -24.9922,30.06623 -10.4082,7.25981 -20.2918,10.79304 -32.3221,11.55406 -9.5309,0.60359 -22.3452,-0.46302 -28.4758,-2.36965 z"
       style="fill:#7616e8;fill-opacity:1"
       inkscape:export-filename="/Users/45kb/Projects/bitNFC/www/img/logo.png"
       inkscape:export-xdpi="8"
       inkscape:export-ydpi="8" />
    <path
       style="fill:#333333;fill-opacity:1"
       d="m 1024.8024,474.99817 c -4.3649,-1.35727 -13.1715,-8.106 -19.5713,-14.9971 -9.19635,-9.90223 -12.01187,-15.09977 -13.42996,-24.79277 -1.54214,-10.54179 -0.62277,-14.98551 6.56472,-31.65251 4.59734,-10.66408 13.42214,-33.82327 19.61024,-51.46539 6.1882,-17.642 14.1999,-46.40056 17.8028,-63.90785 3.604,-17.50699 7.9023,-48.33116 9.5533,-68.49726 2.2221,-27.14947 2.2847,-45.74613 0.2393,-71.64732 -1.5181,-19.23961 -5.5571,-49.115924 -8.9749,-66.391625 -3.4187,-17.276021 -9.7554,-42.599754 -14.0819,-56.275573 -4.327,-13.675746 -12.2039,-34.9623635 -17.5038,-47.303379 -5.30037,-12.341419 -10.41404,-26.037361 -11.36344,-30.435582 -0.95049,-4.403718 -0.28776,-13.069921 1.47798,-19.285798 1.96082,-6.909157 7.11446,-15.170819 13.28356,-21.296249 5.5427,-5.505166 14.1822,-11.345434 19.1969,-12.980114 5.0141,-1.63494 14.2896,-2.37081 20.6121,-1.6354 6.8827,0.80067 15.7328,4.32658 22.0552,8.786559 7.3648,5.195347 13.0594,12.52212 18.8228,24.217885 4.5447,9.223002 12.8664,29.119009 18.4929,44.213711 5.6263,15.094326 14.062,42.670708 18.7452,61.280339 4.6837,18.609721 10.5571,47.085106 13.0526,63.278645 3.4991,22.704831 8.1462,37.406891 7.9127,85.749991 -0.2586,53.45514 -4.8654,74.1383 -9.9806,103.44272 -3.2995,18.90245 -9.8649,48.24193 -14.5898,65.19885 -4.7249,16.95691 -13.3475,42.90448 -19.1614,57.66112 -5.8144,14.75633 -13.7749,33.11215 -17.6898,40.79026 -4.5353,8.89445 -10.9916,16.66173 -17.7929,21.40507 -7.41,5.16841 -14.4463,7.68385 -23.0114,8.22576 -6.7856,0.42937 -15.9082,-0.3297 -20.2726,-1.68701 z"
       id="path217647"
       inkscape:connector-curvature="0"
       inkscape:export-filename="/Users/45kb/Projects/bitNFC/www/img/logo.png"
       inkscape:export-xdpi="8"
       inkscape:export-ydpi="8" />
    <flowRoot
       xml:space="preserve"
       id="flowRoot4180"
       style="fill:black;stroke:none;stroke-opacity:1;stroke-width:1px;stroke-linejoin:miter;stroke-linecap:butt;fill-opacity:1;font-family:sans-serif;font-style:normal;font-weight:normal;font-size:40px;line-height:125%;letter-spacing:0px;word-spacing:0px"><flowRegion
         id="flowRegion4182"><rect
           id="rect4184"
           width="188.57143"
           height="45.714287"
           x="85.714287"
           y="874.51068" /></flowRegion><flowPara
         id="flowPara4186"></flowPara></flowRoot>  </g>
</svg>
