<?xml version="1.0" encoding="UTF-8" standalone="no"?>
<!-- Created with Inkscape (http://www.inkscape.org/) -->

<svg
   xmlns:dc="http://purl.org/dc/elements/1.1/"
   xmlns:cc="http://creativecommons.org/ns#"
   xmlns:rdf="http://www.w3.org/1999/02/22-rdf-syntax-ns#"
   xmlns:svg="http://www.w3.org/2000/svg"
   xmlns="http://www.w3.org/2000/svg"
   xmlns:sodipodi="http://sodipodi.sourceforge.net/DTD/sodipodi-0.dtd"
   xmlns:inkscape="http://www.inkscape.org/namespaces/inkscape"
   width="500"
   height="500"
   id="svg2"
   version="1.1"
   inkscape:version="0.91 r13725"
   sodipodi:docname="logo-white.svg"
   inkscape:export-filename="/Users/45kb/Desktop/720kb.png"
   inkscape:export-xdpi="36"
   inkscape:export-ydpi="36">
  <defs
     id="defs4" />
  <sodipodi:namedview
     id="base"
     pagecolor="#ffffff"
     bordercolor="#666666"
     borderopacity="1.0"
     inkscape:pageopacity="0.0"
     inkscape:pageshadow="2"
     inkscape:zoom="0.7"
     inkscape:cx="292.09925"
     inkscape:cy="154.31157"
     inkscape:document-units="px"
     inkscape:current-layer="layer1"
     showgrid="false"
     inkscape:window-width="1218"
     inkscape:window-height="755"
     inkscape:window-x="106"
     inkscape:window-y="0"
     inkscape:window-maximized="0"
     showguides="true"
     inkscape:guide-bbox="true">
    <sodipodi:guide
       position="-81.428571,431.42857"
       orientation="1,0"
       id="guide5078" />
  </sodipodi:namedview>
  <metadata
     id="metadata7">
    <rdf:RDF>
      <cc:Work
         rdf:about="">
        <dc:format>image/svg+xml</dc:format>
        <dc:type
           rdf:resource="http://purl.org/dc/dcmitype/StillImage" />
        <dc:title />
      </cc:Work>
    </rdf:RDF>
  </metadata>
  <g
     inkscape:label="Layer 1"
     inkscape:groupmode="layer"
     id="layer1"
     transform="translate(0,-552.36218)">
    <rect
       style="opacity:1;fill:#333333;fill-opacity:1;stroke:none;stroke-width:4.43900013;stroke-linecap:round;stroke-linejoin:round;stroke-miterlimit:4;stroke-dasharray:17.756, 4.43900000000000006;stroke-dashoffset:0;stroke-opacity:1"
       id="rect4237"
       width="590"
       height="554.28571"
       x="-35.714287"
       y="522.36218"
       ry="4.0459599" />
    <g
       id="g5080"
       transform="matrix(0.79500442,0,0,0.79500442,51.248895,164.4807)">
      <g
         transform="translate(40.352709,-41.428605)"
         id="g5059">
        <path
           style="fill:#ced8db;fill-opacity:1;stroke:none;stroke-width:3.92911148;stroke-opacity:1"
           d="m 331.49288,1040.2192 0,-84.31123 c 0,-1.43134 -0.61459,-2.7317 -1.51569,-3.6657 -0.9011,-0.93399 -2.15564,-1.46628 -3.53659,-1.46628 l -232.303661,0 c -1.380956,0 -2.635524,0.53229 -3.536631,1.46628 -0.901099,0.934 -1.515663,2.23436 -1.515663,3.6657 l 0,84.31123 242.408235,0 z"
           id="path3902"
           inkscape:connector-curvature="0" />
        <path
           sodipodi:nodetypes="cccscscsssscssscccccc"
           style="fill:#ffffff;fill-opacity:1;stroke:none"
           d="m 49.760396,646.06364 c 0,0 -32.489955,24.06648 -32.538454,34.50006 l -0.166803,346.3966 c -0.03724,8.0352 2.534038,14.5578 14.5578,14.5578 l 59.02903,0 0,-80.2675 c 0,-1.36271 0.606462,-2.60068 1.495655,-3.4899 0.889193,-0.88919 2.127192,-1.39593 3.489902,-1.39593 l 229.235954,0 c 1.36271,0 2.60068,0.50674 3.48987,1.39593 0.88922,0.88922 1.49569,2.12719 1.49569,3.4899 l 0,80.2675 57.83247,0 c 14.87264,0 14.55781,-6.5226 14.55781,-14.5578 l 0,-365.74055 c 0,-8.03534 -8.71619,-7.69371 -16.75147,-7.67775 l -247.78222,0.39881 -14.2587,-0.29922 -17.64888,-7.47832 -56.037654,-0.0998 z"
           id="rect3071"
           inkscape:connector-curvature="0" />
        <rect
           style="fill:#3991f8;fill-opacity:1;stroke:none"
           id="rect3093"
           width="194.62677"
           height="125.86642"
           x="124.91087"
           y="646.31177"
           ry="7.8409152" />
        <rect
           style="fill:#ffffff;fill-opacity:1;stroke:none"
           id="rect3863"
           width="46.617191"
           height="90.809494"
           x="148.21945"
           y="664.95868"
           ry="1.8680049" />
        <rect
           ry="0.16781503"
           y="660.29688"
           x="285.74017"
           height="8.1580086"
           width="16.316029"
           id="rect3867"
           style="fill:#ffffff;fill-opacity:1;stroke:none" />
        <path
           sodipodi:type="arc"
           style="fill:#ced8db;fill-opacity:1;stroke:none"
           id="path3869"
           sodipodi:cx="215.23169"
           sodipodi:cy="862.49915"
           sodipodi:rx="60.01963"
           sodipodi:ry="60.01963"
           d="m 208.25285,922.11166 a 60.01963,60.01963 0 0 1 -52.63835,-66.55127 60.01963,60.01963 0 0 1 66.51586,-52.68309 60.01963,60.01963 0 0 1 52.7278,66.48042 60.01963,60.01963 0 0 1 -66.44495,52.77249"
           sodipodi:start="1.6873359"
           sodipodi:end="1.6846463"
           sodipodi:open="true" />
        <rect
           ry="9.9923992"
           y="854.95349"
           x="-69.664337"
           height="53.367504"
           width="22.096428"
           id="rect3871"
           style="fill:#ffffff;fill-opacity:1;stroke:none"
           transform="matrix(0.94740382,-0.32004062,0.2672623,0.96362382,0,0)" />
        <rect
           style="fill:#ffffff;fill-opacity:1;stroke:none"
           id="rect3877"
           width="18.535883"
           height="19.462677"
           x="207.65639"
           y="851.77704"
           ry="3.6441438" />
        <text
           xml:space="preserve"
           style="font-style:normal;font-weight:normal;font-size:68.61669922px;line-height:125%;font-family:MOnospace;-inkscape-font-specification:MOnospace;letter-spacing:0px;word-spacing:0px;fill:#ffffff;fill-opacity:1;stroke:none;stroke-width:0.81949276;stroke-miterlimit:4;stroke-dasharray:none;stroke-opacity:1"
           x="-752.64636"
           y="179.31635"
           id="text3904"
           sodipodi:linespacing="125%"
           transform="matrix(0,-1,1,0,0,0)"><tspan
             sodipodi:role="line"
             id="tspan3906"
             x="-752.64636"
             y="179.31635"
             style="font-style:normal;font-variant:normal;font-weight:bold;font-stretch:normal;font-size:37.73918533px;font-family:MOnospace;-inkscape-font-specification:MOnospace;letter-spacing:-2.17858005px;fill:#ffffff;fill-opacity:1;stroke:none;stroke-width:0.81949276;stroke-miterlimit:4;stroke-dasharray:none;stroke-opacity:1" /><tspan
             sodipodi:role="line"
             x="-752.64636"
             y="244.60333"
             style="font-style:normal;font-variant:normal;font-weight:normal;font-stretch:normal;font-size:65.04320526px;font-family:'Arial Hebrew';-inkscape-font-specification:'Arial Hebrew';letter-spacing:-4.63432837px;fill:#ffffff;fill-opacity:1;stroke:none;stroke-width:0.81949276;stroke-miterlimit:4;stroke-dasharray:none;stroke-opacity:1"
             id="tspan3908">720</tspan></text>
        <text
           xml:space="preserve"
           style="font-style:normal;font-weight:normal;font-size:122.61499023px;line-height:125%;font-family:Sans;letter-spacing:0px;word-spacing:0px;fill:#ffffff;fill-opacity:1;stroke:none"
           x="-703.17603"
           y="270.51883"
           id="text3910"
           sodipodi:linespacing="125%"
           transform="matrix(0,-1,1,0,0,0)"><tspan
             sodipodi:role="line"
             id="tspan3912"
             x="-703.17603"
             y="270.51883"
             style="font-size:24.5229969px;fill:#ffffff;fill-opacity:1;stroke:none">kb</tspan></text>
        <rect
           style="fill:#ced8db;fill-opacity:1;stroke:none"
           id="rect3831"
           width="33.037304"
           height="74.132484"
           x="355.29019"
           y="961.44574"
           ry="3.3450828" />
        <rect
           ry="1.4180244"
           y="966.2804"
           x="357.70761"
           height="31.425734"
           width="28.202574"
           id="rect3833"
           style="fill:#ffffff;fill-opacity:1;stroke:none" />
      </g>
    </g>
  </g>
</svg>
