<?xml version="1.0" encoding="UTF-8" standalone="no"?>
<!-- Created with Inkscape (http://www.inkscape.org/) -->

<svg
   xmlns:dc="http://purl.org/dc/elements/1.1/"
   xmlns:cc="http://creativecommons.org/ns#"
   xmlns:rdf="http://www.w3.org/1999/02/22-rdf-syntax-ns#"
   xmlns:svg="http://www.w3.org/2000/svg"
   xmlns="http://www.w3.org/2000/svg"
   xmlns:sodipodi="http://sodipodi.sourceforge.net/DTD/sodipodi-0.dtd"
   xmlns:inkscape="http://www.inkscape.org/namespaces/inkscape"
   width="500"
   height="500"
   id="svg2"
   version="1.1"
   inkscape:version="0.48.2 r9819"
   sodipodi:docname="720kb-logo.svg"
   inkscape:export-filename="/Users/ispuk/Desktop/720kb-logo.png"
   inkscape:export-xdpi="90"
   inkscape:export-ydpi="90">
  <defs
     id="defs4" />
  <sodipodi:namedview
     id="base"
     pagecolor="#ffffff"
     bordercolor="#666666"
     borderopacity="1.0"
     inkscape:pageopacity="0.0"
     inkscape:pageshadow="2"
     inkscape:zoom="0.35"
     inkscape:cx="212.55493"
     inkscape:cy="618.81381"
     inkscape:document-units="px"
     inkscape:current-layer="layer1"
     showgrid="false"
     inkscape:window-width="1218"
     inkscape:window-height="756"
     inkscape:window-x="0"
     inkscape:window-y="0"
     inkscape:window-maximized="0" />
  <metadata
     id="metadata7">
    <rdf:RDF>
      <cc:Work
         rdf:about="">
        <dc:format>image/svg+xml</dc:format>
        <dc:type
           rdf:resource="http://purl.org/dc/dcmitype/StillImage" />
        <dc:title></dc:title>
      </cc:Work>
    </rdf:RDF>
  </metadata>
  <g
     inkscape:label="Layer 1"
     inkscape:groupmode="layer"
     id="layer1"
     transform="translate(0,-552.36218)">
    <path
       style="fill:#4f8aff;fill-opacity:1;stroke:#6e96ff;stroke-width:3.92911148;stroke-opacity:1"
       d="m 397.37514,1037.947 0,-101.97639 c 0,-1.73124 -0.74337,-3.30405 -1.83327,-4.43375 -1.0899,-1.12968 -2.6073,-1.7735 -4.27759,-1.7735 l -280.97679,0 c -1.6703,0 -3.18773,0.64382 -4.27764,1.7735 -1.0899,1.1297 -1.83323,2.70251 -1.83323,4.43375 l 0,101.97639 293.19852,0 z"
       id="path3902"
       inkscape:connector-curvature="0" />
    <path
       style="fill:#61aaff;fill-opacity:1;stroke:none"
       d="m 58.601278,562.16537 c 0,0 -37.569481,29.10898 -37.628142,41.72864 l -1.929643,418.97489 c -0.04504,9.7187 3.064979,17.608 17.608005,17.608 l 71.397012,0 0,-97.08542 c 0,-1.64823 0.73353,-3.14558 1.80903,-4.22111 1.0755,-1.0755 2.57289,-1.68842 4.22112,-1.68842 l 277.26633,0 c 1.64823,0 3.14558,0.61292 4.22108,1.68842 1.07553,1.07553 1.80907,2.57288 1.80907,4.22111 l 0,97.08542 69.94975,0 c 17.98881,0 17.60801,-7.8892 17.60801,-17.608 l 0,-442.37185 c 0,-9.71894 -10.54243,-9.30573 -20.26129,-9.28643 l -299.69849,0.48238 -17.24623,-0.36192 -21.34674,-9.04521 -67.778872,-0.12075 z"
       id="rect3071"
       inkscape:connector-curvature="0" />
    <rect
       style="fill:#d7eef4;fill-opacity:1;stroke:none"
       id="rect3093"
       width="235.4057"
       height="152.23842"
       x="147.50929"
       y="563.50665"
       ry="9.4837732" />
    <rect
       style="fill:#6ea5ff;fill-opacity:1;stroke:none"
       id="rect3863"
       width="56.384598"
       height="118.40766"
       x="175.70157"
       y="586.06055"
       ry="2.4357157" />
    <rect
       ry="0.20297627"
       y="580.422"
       x="342.03616"
       height="9.8673048"
       width="19.734625"
       id="rect3867"
       style="fill:#6e96ff;fill-opacity:1;stroke:none" />
    <path
       sodipodi:type="arc"
       style="fill:#d7eef4;fill-opacity:1;stroke:none"
       id="path3869"
       sodipodi:cx="221.25"
       sodipodi:cy="432.18362"
       sodipodi:rx="18.392857"
       sodipodi:ry="18.392857"
       d="m 219.11135,450.45172 a 18.392857,18.392857 0 1 1 0.0491,0.006"
       sodipodi:start="1.6873359"
       sodipodi:end="7.9678316"
       sodipodi:open="true"
       transform="matrix(3.9469218,0,0,3.9469218,-616.50199,-880.80457)" />
    <rect
       ry="12.086044"
       y="825.88043"
       x="-29.297554"
       height="64.549263"
       width="26.726154"
       id="rect3871"
       style="fill:#6ea5ff;fill-opacity:1;stroke:none"
       transform="matrix(0.94740382,-0.32004062,0.2672623,0.96362382,0,0)" />
    <rect
       style="fill:#6ea5ff;fill-opacity:1;stroke:none"
       id="rect3877"
       width="22.41959"
       height="23.540569"
       x="247.59196"
       y="812.02179"
       ry="4.4076786" />
    <text
       xml:space="preserve"
       style="font-size:82.99353027px;font-style:normal;font-weight:normal;line-height:125%;letter-spacing:0px;word-spacing:0px;fill:#000000;fill-opacity:1;stroke:#000000;stroke-width:0.81949276;stroke-miterlimit:4;stroke-opacity:1;stroke-dasharray:none;font-family:MOnospace;-inkscape-font-specification:MOnospace"
       x="-702.12085"
       y="213.31401"
       id="text3904"
       sodipodi:linespacing="125%"
       transform="matrix(0,-1,1,0,0,0)"><tspan
         sodipodi:role="line"
         id="tspan3906"
         x="-702.12085"
         y="213.31401"
         style="font-size:45.64644241px;font-style:normal;font-variant:normal;font-weight:bold;font-stretch:normal;letter-spacing:-2.63504434px;fill:#000000;stroke:#000000;stroke-width:0.81949276;stroke-miterlimit:4;stroke-opacity:1;stroke-dasharray:none;font-family:MOnospace;-inkscape-font-specification:MOnospace" /><tspan
         sodipodi:role="line"
         x="-702.12085"
         y="292.26538"
         style="font-size:78.6713028px;font-style:normal;font-variant:normal;font-weight:normal;font-stretch:normal;letter-spacing:-5.60533047px;fill:#000000;stroke:#000000;stroke-width:0.81949276;stroke-miterlimit:4;stroke-opacity:1;stroke-dasharray:none;font-family:Arial Hebrew;-inkscape-font-specification:Arial Hebrew"
         id="tspan3908">720</tspan></text>
    <text
       xml:space="preserve"
       style="font-size:148.30574036px;font-style:normal;font-weight:normal;line-height:125%;letter-spacing:0px;word-spacing:0px;fill:#000000;fill-opacity:1;stroke:none;font-family:Sans"
       x="-640.28534"
       y="323.62558"
       id="text3910"
       sodipodi:linespacing="125%"
       transform="matrix(0,-1,1,0,0,0)"><tspan
         sodipodi:role="line"
         id="tspan3912"
         x="-640.28534"
         y="323.62558"
         style="font-size:29.66114807px">kb</tspan></text>
    <rect
       style="fill:#4f8aff;fill-opacity:1;stroke:none"
       id="rect3831"
       width="39.959404"
       height="89.665001"
       x="426.15854"
       y="944.6687"
       ry="4.0459571" />
    <rect
       ry="1.7151343"
       y="950.5163"
       x="429.08246"
       height="38.01017"
       width="34.111683"
       id="rect3833"
       style="fill:#ffffff;fill-opacity:1;stroke:none" />
  </g>
</svg>
